%TF.GenerationSoftware,KiCad,Pcbnew,8.0.6*%
%TF.CreationDate,2025-02-20T03:10:46-08:00*%
%TF.ProjectId,ECE 412,45434520-3431-4322-9e6b-696361645f70,A*%
%TF.SameCoordinates,Original*%
%TF.FileFunction,Copper,L1,Top*%
%TF.FilePolarity,Positive*%
%FSLAX46Y46*%
G04 Gerber Fmt 4.6, Leading zero omitted, Abs format (unit mm)*
G04 Created by KiCad (PCBNEW 8.0.6) date 2025-02-20 03:10:46*
%MOMM*%
%LPD*%
G01*
G04 APERTURE LIST*
G04 Aperture macros list*
%AMRoundRect*
0 Rectangle with rounded corners*
0 $1 Rounding radius*
0 $2 $3 $4 $5 $6 $7 $8 $9 X,Y pos of 4 corners*
0 Add a 4 corners polygon primitive as box body*
4,1,4,$2,$3,$4,$5,$6,$7,$8,$9,$2,$3,0*
0 Add four circle primitives for the rounded corners*
1,1,$1+$1,$2,$3*
1,1,$1+$1,$4,$5*
1,1,$1+$1,$6,$7*
1,1,$1+$1,$8,$9*
0 Add four rect primitives between the rounded corners*
20,1,$1+$1,$2,$3,$4,$5,0*
20,1,$1+$1,$4,$5,$6,$7,0*
20,1,$1+$1,$6,$7,$8,$9,0*
20,1,$1+$1,$8,$9,$2,$3,0*%
G04 Aperture macros list end*
%TA.AperFunction,ComponentPad*%
%ADD10C,2.000000*%
%TD*%
%TA.AperFunction,ComponentPad*%
%ADD11C,2.540000*%
%TD*%
%TA.AperFunction,SMDPad,CuDef*%
%ADD12RoundRect,0.075000X-0.225000X0.910000X-0.225000X-0.910000X0.225000X-0.910000X0.225000X0.910000X0*%
%TD*%
%TA.AperFunction,ComponentPad*%
%ADD13R,1.700000X1.700000*%
%TD*%
%TA.AperFunction,ComponentPad*%
%ADD14O,1.700000X1.700000*%
%TD*%
%TA.AperFunction,ComponentPad*%
%ADD15R,1.600000X1.600000*%
%TD*%
%TA.AperFunction,ComponentPad*%
%ADD16C,1.600000*%
%TD*%
%TA.AperFunction,ComponentPad*%
%ADD17C,3.000000*%
%TD*%
%TA.AperFunction,SMDPad,CuDef*%
%ADD18RoundRect,0.051250X-0.698750X-0.153750X0.698750X-0.153750X0.698750X0.153750X-0.698750X0.153750X0*%
%TD*%
%TA.AperFunction,ComponentPad*%
%ADD19R,1.408000X1.408000*%
%TD*%
%TA.AperFunction,ComponentPad*%
%ADD20C,1.408000*%
%TD*%
%TA.AperFunction,ComponentPad*%
%ADD21C,3.516000*%
%TD*%
%TA.AperFunction,ViaPad*%
%ADD22C,0.600000*%
%TD*%
%TA.AperFunction,Conductor*%
%ADD23C,0.400000*%
%TD*%
%TA.AperFunction,Conductor*%
%ADD24C,1.000000*%
%TD*%
%TA.AperFunction,Conductor*%
%ADD25C,0.200000*%
%TD*%
G04 APERTURE END LIST*
D10*
%TO.P,TP4,1,1*%
%TO.N,Net-(U2-MISO{slash}IO19)*%
X184500000Y-83300000D03*
%TD*%
%TO.P,TP3,1,1*%
%TO.N,Net-(U4-OUTB)*%
X184500000Y-78400000D03*
%TD*%
%TO.P,TP2,1,1*%
%TO.N,Net-(U4-OUTA)*%
X148300000Y-54100000D03*
%TD*%
%TO.P,TP1,1,1*%
%TO.N,/4.5V*%
X165100000Y-53800000D03*
%TD*%
D11*
%TO.P,R4,1*%
%TO.N,Net-(U4-NEGB)*%
X164780000Y-65600000D03*
%TO.P,R4,2*%
%TO.N,Net-(U4-OUTA)*%
X154620000Y-65600000D03*
%TD*%
%TO.P,R2,1*%
%TO.N,/4.5V*%
X162500000Y-56800000D03*
%TO.P,R2,2*%
%TO.N,GND*%
X152340000Y-56800000D03*
%TD*%
D12*
%TO.P,U4,1,OUTA*%
%TO.N,Net-(U4-OUTA)*%
X146635000Y-59735000D03*
%TO.P,U4,2,NEGA*%
%TO.N,/Faraday Cup*%
X145365000Y-59735000D03*
%TO.P,U4,3,POSA*%
%TO.N,/4.5V*%
X144095000Y-59735000D03*
%TO.P,U4,4,V-*%
%TO.N,GND*%
X142825000Y-59735000D03*
%TO.P,U4,5,POSB*%
%TO.N,/4.5V*%
X142825000Y-64675000D03*
%TO.P,U4,6,NEGB*%
%TO.N,Net-(U4-NEGB)*%
X144095000Y-64675000D03*
%TO.P,U4,7,OUTB*%
%TO.N,Net-(U4-OUTB)*%
X145365000Y-64675000D03*
%TO.P,U4,8,V+*%
%TO.N,Net-(U4-V+)*%
X146635000Y-64675000D03*
%TD*%
D13*
%TO.P,J2,1,Pin_1*%
%TO.N,/3.3V*%
X180760000Y-88800000D03*
D14*
%TO.P,J2,2,Pin_2*%
%TO.N,GND*%
X183300000Y-88800000D03*
%TD*%
D15*
%TO.P,C4,1*%
%TO.N,Net-(U5-REFCAP)*%
X172600000Y-87500000D03*
D16*
%TO.P,C4,2*%
%TO.N,GND*%
X172600000Y-89500000D03*
%TD*%
D11*
%TO.P,R1,1*%
%TO.N,Net-(U4-V+)*%
X177980000Y-56700000D03*
%TO.P,R1,2*%
%TO.N,/4.5V*%
X167820000Y-56700000D03*
%TD*%
D17*
%TO.P,R3,1*%
%TO.N,Net-(U4-OUTA)*%
X136900000Y-81924974D03*
%TO.P,R3,2*%
%TO.N,/Faraday Cup*%
X136900000Y-62892974D03*
%TD*%
D11*
%TO.P,R6,1*%
%TO.N,Net-(U4-OUTB)*%
X161200000Y-82000000D03*
%TO.P,R6,2*%
%TO.N,Net-(U4-NEGB)*%
X151040000Y-82000000D03*
%TD*%
%TO.P,R7,1*%
%TO.N,Net-(U4-OUTB)*%
X161120000Y-89100000D03*
%TO.P,R7,2*%
%TO.N,Net-(U4-NEGB)*%
X150960000Y-89100000D03*
%TD*%
D15*
%TO.P,C3,1*%
%TO.N,Net-(U4-V+)*%
X183100000Y-67300000D03*
D16*
%TO.P,C3,2*%
%TO.N,GND*%
X183100000Y-69300000D03*
%TD*%
D13*
%TO.P,J1,1,Pin_1*%
%TO.N,/Faraday Cup*%
X136600000Y-56200000D03*
%TD*%
D18*
%TO.P,U5,1,AVDD1*%
%TO.N,/3.3V*%
X169430000Y-70100000D03*
%TO.P,U5,2,CH0*%
%TO.N,Net-(U4-OUTB)*%
X169430000Y-70750000D03*
%TO.P,U5,3,CH1*%
%TO.N,unconnected-(U5-CH1-Pad3)*%
X169430000Y-71400000D03*
%TO.P,U5,4,CH2*%
%TO.N,unconnected-(U5-CH2-Pad4)*%
X169430000Y-72050000D03*
%TO.P,U5,5,CH3*%
%TO.N,unconnected-(U5-CH3-Pad5)*%
X169430000Y-72700000D03*
%TO.P,U5,6,CH4*%
%TO.N,unconnected-(U5-CH4-Pad6)*%
X169430000Y-73350000D03*
%TO.P,U5,7,CH5*%
%TO.N,unconnected-(U5-CH5-Pad7)*%
X169430000Y-74000000D03*
%TO.P,U5,8,CH6*%
%TO.N,unconnected-(U5-CH6-Pad8)*%
X169430000Y-74650000D03*
%TO.P,U5,9,CH7*%
%TO.N,unconnected-(U5-CH7-Pad9)*%
X169430000Y-75300000D03*
%TO.P,U5,10,~{CS}*%
%TO.N,Net-(U2-IO21)*%
X169430000Y-75950000D03*
%TO.P,U5,11,DIN*%
%TO.N,Net-(DS1-D5)*%
X169430000Y-76600000D03*
%TO.P,U5,12,SSTRB*%
%TO.N,GND*%
X169430000Y-77250000D03*
%TO.P,U5,13,SCLK*%
%TO.N,Net-(DS1-D4)*%
X175200000Y-77250000D03*
%TO.P,U5,14,DOUT*%
%TO.N,Net-(U2-MISO{slash}IO19)*%
X175200000Y-76600000D03*
%TO.P,U5,15,DGND0*%
%TO.N,unconnected-(U5-DGND0-Pad15)*%
X175200000Y-75950000D03*
%TO.P,U5,16,DGND*%
%TO.N,unconnected-(U5-DGND-Pad16)*%
X175200000Y-75300000D03*
%TO.P,U5,17,DVDD0*%
%TO.N,unconnected-(U5-DVDD0-Pad17)*%
X175200000Y-74650000D03*
%TO.P,U5,18,DVDD*%
%TO.N,unconnected-(U5-DVDD-Pad18)*%
X175200000Y-74000000D03*
%TO.P,U5,19,REFCAP*%
%TO.N,Net-(U5-REFCAP)*%
X175200000Y-73350000D03*
%TO.P,U5,20,REF*%
%TO.N,/3.3V*%
X175200000Y-72700000D03*
%TO.P,U5,21,AGND3*%
%TO.N,unconnected-(U5-AGND3-Pad21)*%
X175200000Y-72050000D03*
%TO.P,U5,22,AVDD2*%
%TO.N,unconnected-(U5-AVDD2-Pad22)*%
X175200000Y-71400000D03*
%TO.P,U5,23,AGND2*%
%TO.N,unconnected-(U5-AGND2-Pad23)*%
X175200000Y-70750000D03*
%TO.P,U5,24,AGND1*%
%TO.N,GND*%
X175200000Y-70100000D03*
%TD*%
D13*
%TO.P,Vbat1,1,+*%
%TO.N,Net-(U4-V+)*%
X183100000Y-59600000D03*
D14*
%TO.P,Vbat1,2,-*%
%TO.N,GND*%
X183100000Y-62140000D03*
%TD*%
D15*
%TO.P,C5,1*%
%TO.N,Net-(U4-OUTA)*%
X143700000Y-81700000D03*
D16*
%TO.P,C5,2*%
%TO.N,/Faraday Cup*%
X143700000Y-76700000D03*
%TD*%
D19*
%TO.P,U2,1,IO21*%
%TO.N,Net-(U2-IO21)*%
X140660000Y-94740000D03*
D20*
%TO.P,U2,2,TX/IO17*%
%TO.N,Net-(DS1-D{slash}~{C})*%
X143200000Y-94740000D03*
%TO.P,U2,3,RX/IO16*%
%TO.N,Net-(DS1-~{RES})*%
X145740000Y-94740000D03*
%TO.P,U2,4,MISO/IO19*%
%TO.N,Net-(U2-MISO{slash}IO19)*%
X148280000Y-94740000D03*
%TO.P,U2,5,MOSI/IO18*%
%TO.N,Net-(DS1-D5)*%
X150820000Y-94740000D03*
%TO.P,U2,6,SCK/IO5*%
%TO.N,Net-(DS1-D4)*%
X153360000Y-94740000D03*
%TO.P,U2,7,A5/IO4*%
%TO.N,unconnected-(U2-A5{slash}IO4-Pad7)*%
X155900000Y-94740000D03*
%TO.P,U2,8,A4/IO36*%
%TO.N,unconnected-(U2-A4{slash}IO36-Pad8)*%
X158440000Y-94740000D03*
%TO.P,U2,9,A3/IO39*%
%TO.N,unconnected-(U2-A3{slash}IO39-Pad9)*%
X160980000Y-94740000D03*
%TO.P,U2,10,A2/IO34*%
%TO.N,unconnected-(U2-A2{slash}IO34-Pad10)*%
X163520000Y-94740000D03*
%TO.P,U2,11,A1_DAC1*%
%TO.N,unconnected-(U2-A1_DAC1-Pad11)*%
X166060000Y-94740000D03*
%TO.P,U2,12,A0_DAC2*%
%TO.N,unconnected-(U2-A0_DAC2-Pad12)*%
X168600000Y-94740000D03*
%TO.P,U2,13,GND*%
%TO.N,GND*%
X171140000Y-94740000D03*
%TO.P,U2,14,NC*%
%TO.N,unconnected-(U2-NC-Pad14)*%
X173680000Y-94740000D03*
%TO.P,U2,15,3V*%
%TO.N,/3.3V*%
X176220000Y-94740000D03*
%TO.P,U2,16,RST*%
%TO.N,unconnected-(U2-RST-Pad16)*%
X178760000Y-94740000D03*
%TO.P,U2,17,VBAT*%
%TO.N,unconnected-(U2-VBAT-Pad17)*%
X168600000Y-115060000D03*
%TO.P,U2,18,EN*%
%TO.N,unconnected-(U2-EN-Pad18)*%
X166060000Y-115060000D03*
%TO.P,U2,19,VBUS*%
%TO.N,unconnected-(U2-VBUS-Pad19)*%
X163520000Y-115060000D03*
%TO.P,U2,20,A12/IO13*%
%TO.N,unconnected-(U2-A12{slash}IO13-Pad20)*%
X160980000Y-115060000D03*
%TO.P,U2,21,A11/IO12*%
%TO.N,unconnected-(U2-A11{slash}IO12-Pad21)*%
X158440000Y-115060000D03*
%TO.P,U2,22,A10/IO27*%
%TO.N,unconnected-(U2-A10{slash}IO27-Pad22)*%
X155900000Y-115060000D03*
%TO.P,U2,23,A9/IO33*%
%TO.N,unconnected-(U2-A9{slash}IO33-Pad23)*%
X153360000Y-115060000D03*
%TO.P,U2,24,A8/IO15*%
%TO.N,unconnected-(U2-A8{slash}IO15-Pad24)*%
X150820000Y-115060000D03*
%TO.P,U2,25,A7/IO32*%
%TO.N,unconnected-(U2-A7{slash}IO32-Pad25)*%
X148280000Y-115060000D03*
%TO.P,U2,26,A6/IO14*%
%TO.N,unconnected-(U2-A6{slash}IO14-Pad26)*%
X145740000Y-115060000D03*
%TO.P,U2,27,SCL/IO22*%
%TO.N,Net-(DS1-~{CS})*%
X143200000Y-115060000D03*
%TO.P,U2,28,SDA/IO23*%
%TO.N,unconnected-(U2-SDA{slash}IO23-Pad28)*%
X140660000Y-115060000D03*
D21*
%TO.P,U2,P1*%
%TO.N,N/C*%
X182570000Y-96010000D03*
%TO.P,U2,P2*%
X182570000Y-113790000D03*
%TD*%
D11*
%TO.P,R5,1*%
%TO.N,Net-(U4-OUTB)*%
X161200000Y-74400000D03*
%TO.P,R5,2*%
%TO.N,Net-(U4-NEGB)*%
X151040000Y-74400000D03*
%TD*%
D22*
%TO.N,Net-(U2-MISO{slash}IO19)*%
X172400000Y-75300000D03*
%TO.N,GND*%
X140900000Y-59600000D03*
X184900000Y-54800000D03*
X179200000Y-115500000D03*
X135700000Y-111600000D03*
X134800000Y-88000000D03*
X184600000Y-92100000D03*
X134900000Y-60000000D03*
X148400000Y-56700000D03*
X172300000Y-73200000D03*
%TO.N,Net-(DS1-D5)*%
X166600000Y-76900000D03*
%TO.N,/4.5V*%
X140700000Y-62300000D03*
%TO.N,Net-(U4-V+)*%
X148600000Y-64600000D03*
%TD*%
D23*
%TO.N,Net-(U2-MISO{slash}IO19)*%
X172400000Y-75700000D02*
X173300000Y-76600000D01*
X172400000Y-75300000D02*
X172400000Y-75700000D01*
%TO.N,Net-(U4-OUTB)*%
X166600000Y-69500000D02*
X166600000Y-70750000D01*
X177200000Y-68300000D02*
X167800000Y-68300000D01*
X184500000Y-75600000D02*
X177200000Y-68300000D01*
X184500000Y-78400000D02*
X184500000Y-75600000D01*
X167800000Y-68300000D02*
X166600000Y-69500000D01*
X166600000Y-70750000D02*
X169430000Y-70750000D01*
X164850000Y-70750000D02*
X166600000Y-70750000D01*
%TO.N,Net-(U4-OUTA)*%
X149400000Y-59090000D02*
X148755000Y-59735000D01*
X149400000Y-55200000D02*
X149400000Y-59090000D01*
X148300000Y-54100000D02*
X149400000Y-55200000D01*
D24*
%TO.N,/4.5V*%
X165100000Y-56700000D02*
X167820000Y-56700000D01*
X163100000Y-56700000D02*
X165100000Y-56700000D01*
D23*
X165100000Y-53800000D02*
X165100000Y-56700000D01*
%TO.N,GND*%
X140900000Y-59600000D02*
X142690000Y-59600000D01*
D25*
X142690000Y-59600000D02*
X142825000Y-59735000D01*
D23*
X169400000Y-77280000D02*
X169430000Y-77250000D01*
%TO.N,Net-(U5-REFCAP)*%
X177600000Y-74600000D02*
X176350000Y-73350000D01*
X177600000Y-82500000D02*
X177600000Y-74600000D01*
X176350000Y-73350000D02*
X175200000Y-73350000D01*
X172600000Y-87500000D02*
X177600000Y-82500000D01*
%TO.N,Net-(U4-OUTA)*%
X148755000Y-59735000D02*
X146635000Y-59735000D01*
X154620000Y-65600000D02*
X148755000Y-59735000D01*
%TO.N,/Faraday Cup*%
X136600000Y-56894999D02*
X136600000Y-56200000D01*
X136600000Y-62592974D02*
X136900000Y-62892974D01*
X136035000Y-62314000D02*
X136035000Y-61914000D01*
X145365000Y-56865000D02*
X145365000Y-59735000D01*
X136900000Y-62892974D02*
X136900000Y-62900000D01*
X136600000Y-56200000D02*
X144700000Y-56200000D01*
X144700000Y-56200000D02*
X145365000Y-56865000D01*
%TO.N,Net-(DS1-D5)*%
X169430000Y-76600000D02*
X166900000Y-76600000D01*
X166900000Y-76600000D02*
X166600000Y-76900000D01*
%TO.N,Net-(DS1-D4)*%
X155540000Y-91160000D02*
X153360000Y-93340000D01*
X174695000Y-80105000D02*
X167900000Y-86900000D01*
X155540000Y-88460000D02*
X155540000Y-91160000D01*
X157100000Y-86900000D02*
X155540000Y-88460000D01*
X153360000Y-93340000D02*
X153360000Y-94740000D01*
X174695000Y-77755000D02*
X174695000Y-80105000D01*
X175200000Y-77250000D02*
X174695000Y-77755000D01*
X167900000Y-86900000D02*
X157100000Y-86900000D01*
%TO.N,/4.5V*%
X140700000Y-62300000D02*
X142800000Y-62300000D01*
X142800000Y-62300000D02*
X144000000Y-62300000D01*
X144095000Y-62205000D02*
X144095000Y-59735000D01*
X142825000Y-62325000D02*
X142800000Y-62300000D01*
X144000000Y-62300000D02*
X144095000Y-62205000D01*
X142825000Y-64675000D02*
X142825000Y-62325000D01*
%TO.N,Net-(U4-NEGB)*%
X144095000Y-64675000D02*
X144095000Y-70095000D01*
X148400000Y-74400000D02*
X151040000Y-74400000D01*
X144095000Y-70095000D02*
X148400000Y-74400000D01*
%TO.N,Net-(U4-OUTB)*%
X145365000Y-64675000D02*
X145365000Y-69165000D01*
X158800000Y-72000000D02*
X161200000Y-74400000D01*
X148200000Y-72000000D02*
X158800000Y-72000000D01*
X145365000Y-69165000D02*
X148200000Y-72000000D01*
X161200000Y-74400000D02*
X164850000Y-70750000D01*
%TO.N,Net-(U2-IO21)*%
X162100000Y-78500000D02*
X150600000Y-78500000D01*
X164650000Y-75950000D02*
X162100000Y-78500000D01*
X140700000Y-94700000D02*
X140660000Y-94740000D01*
X148500000Y-80600000D02*
X148500000Y-82900000D01*
X150600000Y-78500000D02*
X148500000Y-80600000D01*
X140700000Y-90700000D02*
X140700000Y-94700000D01*
X169430000Y-75950000D02*
X164650000Y-75950000D01*
X148500000Y-82900000D02*
X140700000Y-90700000D01*
%TO.N,Net-(U2-MISO{slash}IO19)*%
X172100000Y-79600000D02*
X166200000Y-85500000D01*
X148300000Y-94720000D02*
X148280000Y-94740000D01*
X166200000Y-85500000D02*
X150600000Y-85500000D01*
X172100000Y-77800000D02*
X172100000Y-79600000D01*
X150600000Y-85500000D02*
X148300000Y-87800000D01*
X175200000Y-76600000D02*
X173300000Y-76600000D01*
X173300000Y-76600000D02*
X172100000Y-77800000D01*
X148300000Y-87800000D02*
X148300000Y-94720000D01*
%TO.N,Net-(U4-V+)*%
X148600000Y-64600000D02*
X146710000Y-64600000D01*
D24*
X183100000Y-67300000D02*
X178900000Y-63100000D01*
D25*
X146710000Y-64600000D02*
X146635000Y-64675000D01*
D24*
X177980000Y-58680000D02*
X177980000Y-56700000D01*
X178900000Y-59600000D02*
X177980000Y-58680000D01*
X177900000Y-56620000D02*
X177980000Y-56700000D01*
X177980000Y-56700000D02*
X177980000Y-56680000D01*
X177980000Y-56680000D02*
X178000000Y-56660000D01*
X178900000Y-63100000D02*
X178900000Y-59600000D01*
X183100000Y-59600000D02*
X178900000Y-59600000D01*
D23*
%TO.N,/3.3V*%
X179500000Y-74400000D02*
X179500000Y-87540000D01*
X176220000Y-93880000D02*
X176220000Y-94740000D01*
X174209336Y-72700000D02*
X175200000Y-72700000D01*
X171609336Y-70100000D02*
X174209336Y-72700000D01*
X175200000Y-72700000D02*
X177800000Y-72700000D01*
X180760000Y-88800000D02*
X180760000Y-89340000D01*
X180760000Y-89340000D02*
X176220000Y-93880000D01*
X179500000Y-87540000D02*
X180760000Y-88800000D01*
X169430000Y-70100000D02*
X171609336Y-70100000D01*
X177800000Y-72700000D02*
X179500000Y-74400000D01*
%TD*%
%TA.AperFunction,Conductor*%
%TO.N,GND*%
G36*
X147680330Y-52520185D02*
G01*
X147726085Y-52572989D01*
X147736029Y-52642147D01*
X147707004Y-52705703D01*
X147672308Y-52733555D01*
X147476496Y-52839522D01*
X147476494Y-52839523D01*
X147280257Y-52992261D01*
X147111833Y-53175217D01*
X146975826Y-53383393D01*
X146875936Y-53611118D01*
X146814892Y-53852175D01*
X146814890Y-53852187D01*
X146794357Y-54099994D01*
X146794357Y-54100005D01*
X146814890Y-54347812D01*
X146814892Y-54347824D01*
X146875936Y-54588881D01*
X146975826Y-54816606D01*
X147111833Y-55024782D01*
X147111836Y-55024785D01*
X147280256Y-55207738D01*
X147476491Y-55360474D01*
X147695190Y-55478828D01*
X147930386Y-55559571D01*
X148175665Y-55600500D01*
X148424335Y-55600500D01*
X148555091Y-55578681D01*
X148624456Y-55587063D01*
X148678278Y-55631616D01*
X148699468Y-55698195D01*
X148699500Y-55700990D01*
X148699500Y-58748481D01*
X148679815Y-58815520D01*
X148663181Y-58836162D01*
X148501162Y-58998181D01*
X148439839Y-59031666D01*
X148413481Y-59034500D01*
X147559500Y-59034500D01*
X147492461Y-59014815D01*
X147446706Y-58962011D01*
X147435500Y-58910500D01*
X147435500Y-58787286D01*
X147435499Y-58787272D01*
X147430392Y-58748481D01*
X147420687Y-58674764D01*
X147362698Y-58534767D01*
X147270451Y-58414549D01*
X147150233Y-58322302D01*
X147150229Y-58322300D01*
X147052786Y-58281938D01*
X147010236Y-58264313D01*
X146996171Y-58262461D01*
X146897727Y-58249500D01*
X146897720Y-58249500D01*
X146372280Y-58249500D01*
X146372272Y-58249500D01*
X146259764Y-58264313D01*
X146259760Y-58264314D01*
X146236950Y-58273762D01*
X146167480Y-58281229D01*
X146105002Y-58249953D01*
X146069351Y-58189863D01*
X146065500Y-58159200D01*
X146065500Y-56796008D01*
X146065025Y-56793623D01*
X146065020Y-56793596D01*
X146038580Y-56660672D01*
X146024345Y-56626306D01*
X145985777Y-56533192D01*
X145909112Y-56418454D01*
X145146545Y-55655887D01*
X145031807Y-55579222D01*
X144904332Y-55526421D01*
X144904322Y-55526418D01*
X144768996Y-55499500D01*
X144768994Y-55499500D01*
X144768993Y-55499500D01*
X138074499Y-55499500D01*
X138007460Y-55479815D01*
X137961705Y-55427011D01*
X137950499Y-55375500D01*
X137950499Y-55302129D01*
X137950498Y-55302123D01*
X137950497Y-55302116D01*
X137944091Y-55242517D01*
X137931119Y-55207738D01*
X137893797Y-55107671D01*
X137893793Y-55107664D01*
X137807547Y-54992455D01*
X137807544Y-54992452D01*
X137692335Y-54906206D01*
X137692328Y-54906202D01*
X137557482Y-54855908D01*
X137557483Y-54855908D01*
X137497883Y-54849501D01*
X137497881Y-54849500D01*
X137497873Y-54849500D01*
X137497864Y-54849500D01*
X135702129Y-54849500D01*
X135702123Y-54849501D01*
X135642516Y-54855908D01*
X135507671Y-54906202D01*
X135507664Y-54906206D01*
X135392455Y-54992452D01*
X135392452Y-54992455D01*
X135306206Y-55107664D01*
X135306202Y-55107671D01*
X135255908Y-55242517D01*
X135249501Y-55302116D01*
X135249501Y-55302123D01*
X135249500Y-55302135D01*
X135249500Y-57097870D01*
X135249501Y-57097876D01*
X135255908Y-57157483D01*
X135306202Y-57292328D01*
X135306206Y-57292335D01*
X135392452Y-57407544D01*
X135392455Y-57407547D01*
X135507664Y-57493793D01*
X135507671Y-57493797D01*
X135552618Y-57510561D01*
X135642517Y-57544091D01*
X135702127Y-57550500D01*
X136327358Y-57550499D01*
X136374810Y-57559938D01*
X136395667Y-57568577D01*
X136395672Y-57568579D01*
X136395676Y-57568579D01*
X136395677Y-57568580D01*
X136531004Y-57595499D01*
X136531007Y-57595499D01*
X136668995Y-57595499D01*
X136760041Y-57577388D01*
X136804328Y-57568579D01*
X136812646Y-57565133D01*
X136825190Y-57559938D01*
X136872642Y-57550499D01*
X137497871Y-57550499D01*
X137497872Y-57550499D01*
X137557483Y-57544091D01*
X137692331Y-57493796D01*
X137807546Y-57407546D01*
X137893796Y-57292331D01*
X137944091Y-57157483D01*
X137950500Y-57097873D01*
X137950500Y-57024500D01*
X137970185Y-56957461D01*
X138022989Y-56911706D01*
X138074500Y-56900500D01*
X144358481Y-56900500D01*
X144425520Y-56920185D01*
X144446162Y-56936819D01*
X144628181Y-57118838D01*
X144661666Y-57180161D01*
X144664500Y-57206519D01*
X144664500Y-58159200D01*
X144644815Y-58226239D01*
X144592011Y-58271994D01*
X144522853Y-58281938D01*
X144493050Y-58273762D01*
X144470239Y-58264314D01*
X144470237Y-58264313D01*
X144470236Y-58264313D01*
X144456171Y-58262461D01*
X144357727Y-58249500D01*
X144357720Y-58249500D01*
X143832280Y-58249500D01*
X143832272Y-58249500D01*
X143719764Y-58264313D01*
X143719763Y-58264313D01*
X143579769Y-58322300D01*
X143579766Y-58322302D01*
X143535076Y-58356594D01*
X143469906Y-58381788D01*
X143401462Y-58367749D01*
X143384104Y-58356594D01*
X143339980Y-58322737D01*
X143339981Y-58322737D01*
X143200108Y-58264801D01*
X143200104Y-58264800D01*
X143087697Y-58250000D01*
X143075000Y-58250000D01*
X143075000Y-61220000D01*
X143087683Y-61220000D01*
X143087697Y-61219999D01*
X143200104Y-61205199D01*
X143200108Y-61205198D01*
X143223048Y-61195697D01*
X143292517Y-61188228D01*
X143354996Y-61219504D01*
X143390648Y-61279593D01*
X143394500Y-61310258D01*
X143394500Y-61475500D01*
X143374815Y-61542539D01*
X143322011Y-61588294D01*
X143270500Y-61599500D01*
X141125494Y-61599500D01*
X141059523Y-61580494D01*
X141049525Y-61574212D01*
X140879254Y-61514631D01*
X140879249Y-61514630D01*
X140700004Y-61494435D01*
X140699996Y-61494435D01*
X140520750Y-61514630D01*
X140520745Y-61514631D01*
X140350476Y-61574211D01*
X140197737Y-61670184D01*
X140070184Y-61797737D01*
X139974211Y-61950476D01*
X139914631Y-62120745D01*
X139914630Y-62120750D01*
X139894435Y-62299996D01*
X139894435Y-62300003D01*
X139914630Y-62479249D01*
X139914631Y-62479254D01*
X139974211Y-62649523D01*
X140070184Y-62802262D01*
X140197738Y-62929816D01*
X140231355Y-62950939D01*
X140350474Y-63025787D01*
X140350478Y-63025789D01*
X140485368Y-63072989D01*
X140520745Y-63085368D01*
X140520750Y-63085369D01*
X140699996Y-63105565D01*
X140700000Y-63105565D01*
X140700004Y-63105565D01*
X140879249Y-63085369D01*
X140879252Y-63085368D01*
X140879255Y-63085368D01*
X141049522Y-63025789D01*
X141050488Y-63025181D01*
X141059523Y-63019506D01*
X141125494Y-63000500D01*
X142000500Y-63000500D01*
X142067539Y-63020185D01*
X142113294Y-63072989D01*
X142124500Y-63124500D01*
X142124500Y-63397229D01*
X142104815Y-63464268D01*
X142098879Y-63472712D01*
X142097301Y-63474768D01*
X142097300Y-63474769D01*
X142039313Y-63614763D01*
X142039313Y-63614764D01*
X142024500Y-63727272D01*
X142024500Y-65622727D01*
X142039313Y-65735235D01*
X142039313Y-65735236D01*
X142092905Y-65864619D01*
X142097302Y-65875233D01*
X142189549Y-65995451D01*
X142309767Y-66087698D01*
X142449764Y-66145687D01*
X142562280Y-66160500D01*
X142562287Y-66160500D01*
X143087713Y-66160500D01*
X143087720Y-66160500D01*
X143200236Y-66145687D01*
X143223048Y-66136237D01*
X143292516Y-66128769D01*
X143354996Y-66160044D01*
X143390648Y-66220133D01*
X143394500Y-66250799D01*
X143394500Y-70026006D01*
X143394500Y-70163994D01*
X143394500Y-70163996D01*
X143394499Y-70163996D01*
X143421418Y-70299322D01*
X143421421Y-70299332D01*
X143474222Y-70426807D01*
X143550887Y-70541545D01*
X143550888Y-70541546D01*
X147855886Y-74846542D01*
X147924505Y-74915161D01*
X147953459Y-74944115D01*
X148068182Y-75020771D01*
X148068189Y-75020775D01*
X148130399Y-75046543D01*
X148195671Y-75073580D01*
X148211412Y-75076711D01*
X148241310Y-75082658D01*
X148331004Y-75100500D01*
X148331007Y-75100500D01*
X149328811Y-75100500D01*
X149395850Y-75120185D01*
X149437129Y-75166853D01*
X149438041Y-75166327D01*
X149440361Y-75170345D01*
X149573042Y-75400155D01*
X149738492Y-75607623D01*
X149933016Y-75788114D01*
X150152268Y-75937598D01*
X150391350Y-76052734D01*
X150644922Y-76130950D01*
X150644923Y-76130950D01*
X150644926Y-76130951D01*
X150907311Y-76170499D01*
X150907316Y-76170499D01*
X150907319Y-76170500D01*
X150907320Y-76170500D01*
X151172680Y-76170500D01*
X151172681Y-76170500D01*
X151172688Y-76170499D01*
X151435073Y-76130951D01*
X151435074Y-76130950D01*
X151435078Y-76130950D01*
X151688650Y-76052734D01*
X151927733Y-75937598D01*
X152146984Y-75788114D01*
X152341508Y-75607623D01*
X152506958Y-75400155D01*
X152639639Y-75170345D01*
X152736586Y-74923327D01*
X152795635Y-74664619D01*
X152807395Y-74507692D01*
X152815465Y-74400004D01*
X152815465Y-74399995D01*
X152795636Y-74135390D01*
X152795635Y-74135385D01*
X152795635Y-74135381D01*
X152736586Y-73876673D01*
X152639639Y-73629655D01*
X152506958Y-73399845D01*
X152341508Y-73192377D01*
X152146984Y-73011886D01*
X152022408Y-72926951D01*
X151978109Y-72872925D01*
X151970051Y-72803521D01*
X152000793Y-72740779D01*
X152060577Y-72704617D01*
X152092263Y-72700500D01*
X158458481Y-72700500D01*
X158525520Y-72720185D01*
X158546162Y-72736819D01*
X159497471Y-73688128D01*
X159530956Y-73749451D01*
X159525972Y-73819143D01*
X159525219Y-73821109D01*
X159503413Y-73876671D01*
X159444364Y-74135385D01*
X159444363Y-74135390D01*
X159424535Y-74399995D01*
X159424535Y-74400004D01*
X159444363Y-74664609D01*
X159444364Y-74664614D01*
X159444364Y-74664618D01*
X159444365Y-74664619D01*
X159450194Y-74690157D01*
X159503410Y-74923313D01*
X159503412Y-74923322D01*
X159503414Y-74923327D01*
X159600361Y-75170345D01*
X159733042Y-75400155D01*
X159898492Y-75607623D01*
X160093016Y-75788114D01*
X160312268Y-75937598D01*
X160551350Y-76052734D01*
X160804922Y-76130950D01*
X160804923Y-76130950D01*
X160804926Y-76130951D01*
X161067311Y-76170499D01*
X161067316Y-76170499D01*
X161067319Y-76170500D01*
X161067320Y-76170500D01*
X161332680Y-76170500D01*
X161332681Y-76170500D01*
X161332688Y-76170499D01*
X161595073Y-76130951D01*
X161595074Y-76130950D01*
X161595078Y-76130950D01*
X161848650Y-76052734D01*
X162087733Y-75937598D01*
X162306984Y-75788114D01*
X162501508Y-75607623D01*
X162666958Y-75400155D01*
X162799639Y-75170345D01*
X162896586Y-74923327D01*
X162955635Y-74664619D01*
X162967395Y-74507692D01*
X162975465Y-74400004D01*
X162975465Y-74399995D01*
X162955636Y-74135390D01*
X162955635Y-74135385D01*
X162955635Y-74135381D01*
X162896586Y-73876673D01*
X162874778Y-73821108D01*
X162868610Y-73751517D01*
X162901047Y-73689633D01*
X162902465Y-73688190D01*
X165103838Y-71486819D01*
X165165161Y-71453334D01*
X165191519Y-71450500D01*
X166531007Y-71450500D01*
X168055500Y-71450500D01*
X168122539Y-71470185D01*
X168168294Y-71522989D01*
X168179500Y-71574500D01*
X168179500Y-71596944D01*
X168186276Y-71653369D01*
X168190148Y-71685617D01*
X168192095Y-71693317D01*
X168189068Y-71694082D01*
X168194008Y-71749170D01*
X168191822Y-71756614D01*
X168192095Y-71756683D01*
X168190148Y-71764382D01*
X168185308Y-71804691D01*
X168179500Y-71853056D01*
X168179500Y-72246944D01*
X168186276Y-72303369D01*
X168190148Y-72335617D01*
X168192095Y-72343317D01*
X168189068Y-72344082D01*
X168194008Y-72399170D01*
X168191822Y-72406614D01*
X168192095Y-72406683D01*
X168190148Y-72414382D01*
X168185308Y-72454691D01*
X168179500Y-72503056D01*
X168179500Y-72896944D01*
X168183104Y-72926954D01*
X168190148Y-72985617D01*
X168192095Y-72993317D01*
X168189068Y-72994082D01*
X168194008Y-73049170D01*
X168191822Y-73056614D01*
X168192095Y-73056683D01*
X168190148Y-73064382D01*
X168185308Y-73104691D01*
X168179500Y-73153056D01*
X168179500Y-73546944D01*
X168186276Y-73603369D01*
X168190148Y-73635617D01*
X168192095Y-73643317D01*
X168189068Y-73644082D01*
X168194008Y-73699170D01*
X168191822Y-73706614D01*
X168192095Y-73706683D01*
X168190148Y-73714382D01*
X168186407Y-73745537D01*
X168179500Y-73803056D01*
X168179500Y-74196944D01*
X168186276Y-74253369D01*
X168190148Y-74285617D01*
X168192095Y-74293317D01*
X168189068Y-74294082D01*
X168194008Y-74349170D01*
X168191822Y-74356614D01*
X168192095Y-74356683D01*
X168190148Y-74364382D01*
X168188784Y-74375743D01*
X168179500Y-74453056D01*
X168179500Y-74846944D01*
X168186276Y-74903369D01*
X168190148Y-74935617D01*
X168192095Y-74943317D01*
X168189068Y-74944082D01*
X168194008Y-74999170D01*
X168191822Y-75006614D01*
X168192095Y-75006683D01*
X168190148Y-75014382D01*
X168186287Y-75046541D01*
X168179500Y-75103056D01*
X168179500Y-75103062D01*
X168179500Y-75125500D01*
X168159815Y-75192539D01*
X168107011Y-75238294D01*
X168055500Y-75249500D01*
X164581004Y-75249500D01*
X164445677Y-75276418D01*
X164445667Y-75276421D01*
X164318192Y-75329222D01*
X164203454Y-75405887D01*
X164203453Y-75405888D01*
X161846162Y-77763181D01*
X161784839Y-77796666D01*
X161758481Y-77799500D01*
X150531003Y-77799500D01*
X150422590Y-77821065D01*
X150422589Y-77821065D01*
X150409131Y-77823742D01*
X150395673Y-77826419D01*
X150369268Y-77837356D01*
X150342866Y-77848292D01*
X150342864Y-77848293D01*
X150342863Y-77848292D01*
X150268191Y-77879223D01*
X150197081Y-77926738D01*
X150197080Y-77926739D01*
X150186246Y-77933977D01*
X150153454Y-77955888D01*
X147955883Y-80153459D01*
X147942166Y-80173991D01*
X147942164Y-80173994D01*
X147879228Y-80268182D01*
X147879221Y-80268195D01*
X147826421Y-80395667D01*
X147826418Y-80395677D01*
X147799500Y-80531004D01*
X147799500Y-82558480D01*
X147779815Y-82625519D01*
X147763181Y-82646161D01*
X140155890Y-90253451D01*
X140155884Y-90253458D01*
X140119694Y-90307622D01*
X140119694Y-90307623D01*
X140099459Y-90337906D01*
X140079225Y-90368188D01*
X140079221Y-90368195D01*
X140026421Y-90495667D01*
X140026418Y-90495677D01*
X139999500Y-90631004D01*
X139999500Y-93414293D01*
X139979815Y-93481332D01*
X139927011Y-93527087D01*
X139888755Y-93537583D01*
X139848516Y-93541909D01*
X139713671Y-93592202D01*
X139713664Y-93592206D01*
X139598455Y-93678452D01*
X139598452Y-93678455D01*
X139512206Y-93793664D01*
X139512202Y-93793671D01*
X139461908Y-93928517D01*
X139455501Y-93988116D01*
X139455501Y-93988123D01*
X139455500Y-93988135D01*
X139455500Y-95491870D01*
X139455501Y-95491876D01*
X139461908Y-95551483D01*
X139512202Y-95686328D01*
X139512206Y-95686335D01*
X139598452Y-95801544D01*
X139598455Y-95801547D01*
X139713664Y-95887793D01*
X139713671Y-95887797D01*
X139848517Y-95938091D01*
X139848516Y-95938091D01*
X139855444Y-95938835D01*
X139908127Y-95944500D01*
X141411872Y-95944499D01*
X141471483Y-95938091D01*
X141606331Y-95887796D01*
X141721546Y-95801546D01*
X141807796Y-95686331D01*
X141858091Y-95551483D01*
X141864500Y-95491873D01*
X141864499Y-95287426D01*
X141884183Y-95220389D01*
X141936987Y-95174634D01*
X142006145Y-95164690D01*
X142069701Y-95193715D01*
X142099499Y-95232156D01*
X142171389Y-95376529D01*
X142171526Y-95376804D01*
X142306050Y-95554943D01*
X142471017Y-95705330D01*
X142471024Y-95705334D01*
X142471025Y-95705335D01*
X142660804Y-95822841D01*
X142660805Y-95822841D01*
X142660808Y-95822843D01*
X142868961Y-95903482D01*
X143088387Y-95944500D01*
X143088389Y-95944500D01*
X143311611Y-95944500D01*
X143311613Y-95944500D01*
X143531039Y-95903482D01*
X143739192Y-95822843D01*
X143928983Y-95705330D01*
X144093950Y-95554943D01*
X144228474Y-95376804D01*
X144327974Y-95176980D01*
X144350733Y-95096987D01*
X144388012Y-95037895D01*
X144451322Y-95008337D01*
X144520562Y-95017699D01*
X144573748Y-95063008D01*
X144589267Y-95096989D01*
X144612026Y-95176982D01*
X144711389Y-95376529D01*
X144711526Y-95376804D01*
X144846050Y-95554943D01*
X145011017Y-95705330D01*
X145011024Y-95705334D01*
X145011025Y-95705335D01*
X145200804Y-95822841D01*
X145200805Y-95822841D01*
X145200808Y-95822843D01*
X145408961Y-95903482D01*
X145628387Y-95944500D01*
X145628389Y-95944500D01*
X145851611Y-95944500D01*
X145851613Y-95944500D01*
X146071039Y-95903482D01*
X146279192Y-95822843D01*
X146468983Y-95705330D01*
X146633950Y-95554943D01*
X146768474Y-95376804D01*
X146867974Y-95176980D01*
X146890733Y-95096987D01*
X146928012Y-95037895D01*
X146991322Y-95008337D01*
X147060562Y-95017699D01*
X147113748Y-95063008D01*
X147129267Y-95096989D01*
X147152026Y-95176982D01*
X147251389Y-95376529D01*
X147251526Y-95376804D01*
X147386050Y-95554943D01*
X147551017Y-95705330D01*
X147551024Y-95705334D01*
X147551025Y-95705335D01*
X147740804Y-95822841D01*
X147740805Y-95822841D01*
X147740808Y-95822843D01*
X147948961Y-95903482D01*
X148168387Y-95944500D01*
X148168389Y-95944500D01*
X148391611Y-95944500D01*
X148391613Y-95944500D01*
X148611039Y-95903482D01*
X148819192Y-95822843D01*
X149008983Y-95705330D01*
X149173950Y-95554943D01*
X149308474Y-95376804D01*
X149407974Y-95176980D01*
X149430733Y-95096987D01*
X149468012Y-95037895D01*
X149531322Y-95008337D01*
X149600562Y-95017699D01*
X149653748Y-95063008D01*
X149669267Y-95096989D01*
X149692026Y-95176982D01*
X149791389Y-95376529D01*
X149791526Y-95376804D01*
X149926050Y-95554943D01*
X150091017Y-95705330D01*
X150091024Y-95705334D01*
X150091025Y-95705335D01*
X150280804Y-95822841D01*
X150280805Y-95822841D01*
X150280808Y-95822843D01*
X150488961Y-95903482D01*
X150708387Y-95944500D01*
X150708389Y-95944500D01*
X150931611Y-95944500D01*
X150931613Y-95944500D01*
X151151039Y-95903482D01*
X151359192Y-95822843D01*
X151548983Y-95705330D01*
X151713950Y-95554943D01*
X151848474Y-95376804D01*
X151947974Y-95176980D01*
X151970733Y-95096987D01*
X152008012Y-95037895D01*
X152071322Y-95008337D01*
X152140562Y-95017699D01*
X152193748Y-95063008D01*
X152209267Y-95096989D01*
X152232026Y-95176982D01*
X152331389Y-95376529D01*
X152331526Y-95376804D01*
X152466050Y-95554943D01*
X152631017Y-95705330D01*
X152631024Y-95705334D01*
X152631025Y-95705335D01*
X152820804Y-95822841D01*
X152820805Y-95822841D01*
X152820808Y-95822843D01*
X153028961Y-95903482D01*
X153248387Y-95944500D01*
X153248389Y-95944500D01*
X153471611Y-95944500D01*
X153471613Y-95944500D01*
X153691039Y-95903482D01*
X153899192Y-95822843D01*
X154088983Y-95705330D01*
X154253950Y-95554943D01*
X154388474Y-95376804D01*
X154487974Y-95176980D01*
X154510733Y-95096987D01*
X154548012Y-95037895D01*
X154611322Y-95008337D01*
X154680562Y-95017699D01*
X154733748Y-95063008D01*
X154749267Y-95096989D01*
X154772026Y-95176982D01*
X154871389Y-95376529D01*
X154871526Y-95376804D01*
X155006050Y-95554943D01*
X155171017Y-95705330D01*
X155171024Y-95705334D01*
X155171025Y-95705335D01*
X155360804Y-95822841D01*
X155360805Y-95822841D01*
X155360808Y-95822843D01*
X155568961Y-95903482D01*
X155788387Y-95944500D01*
X155788389Y-95944500D01*
X156011611Y-95944500D01*
X156011613Y-95944500D01*
X156231039Y-95903482D01*
X156439192Y-95822843D01*
X156628983Y-95705330D01*
X156793950Y-95554943D01*
X156928474Y-95376804D01*
X157027974Y-95176980D01*
X157050733Y-95096987D01*
X157088012Y-95037895D01*
X157151322Y-95008337D01*
X157220562Y-95017699D01*
X157273748Y-95063008D01*
X157289267Y-95096989D01*
X157312026Y-95176982D01*
X157411389Y-95376529D01*
X157411526Y-95376804D01*
X157546050Y-95554943D01*
X157711017Y-95705330D01*
X157711024Y-95705334D01*
X157711025Y-95705335D01*
X157900804Y-95822841D01*
X157900805Y-95822841D01*
X157900808Y-95822843D01*
X158108961Y-95903482D01*
X158328387Y-95944500D01*
X158328389Y-95944500D01*
X158551611Y-95944500D01*
X158551613Y-95944500D01*
X158771039Y-95903482D01*
X158979192Y-95822843D01*
X159168983Y-95705330D01*
X159333950Y-95554943D01*
X159468474Y-95376804D01*
X159567974Y-95176980D01*
X159590733Y-95096987D01*
X159628012Y-95037895D01*
X159691322Y-95008337D01*
X159760562Y-95017699D01*
X159813748Y-95063008D01*
X159829267Y-95096989D01*
X159852026Y-95176982D01*
X159951389Y-95376529D01*
X159951526Y-95376804D01*
X160086050Y-95554943D01*
X160251017Y-95705330D01*
X160251024Y-95705334D01*
X160251025Y-95705335D01*
X160440804Y-95822841D01*
X160440805Y-95822841D01*
X160440808Y-95822843D01*
X160648961Y-95903482D01*
X160868387Y-95944500D01*
X160868389Y-95944500D01*
X161091611Y-95944500D01*
X161091613Y-95944500D01*
X161311039Y-95903482D01*
X161519192Y-95822843D01*
X161708983Y-95705330D01*
X161873950Y-95554943D01*
X162008474Y-95376804D01*
X162107974Y-95176980D01*
X162130733Y-95096987D01*
X162168012Y-95037895D01*
X162231322Y-95008337D01*
X162300562Y-95017699D01*
X162353748Y-95063008D01*
X162369267Y-95096989D01*
X162392026Y-95176982D01*
X162491389Y-95376529D01*
X162491526Y-95376804D01*
X162626050Y-95554943D01*
X162791017Y-95705330D01*
X162791024Y-95705334D01*
X162791025Y-95705335D01*
X162980804Y-95822841D01*
X162980805Y-95822841D01*
X162980808Y-95822843D01*
X163188961Y-95903482D01*
X163408387Y-95944500D01*
X163408389Y-95944500D01*
X163631611Y-95944500D01*
X163631613Y-95944500D01*
X163851039Y-95903482D01*
X164059192Y-95822843D01*
X164248983Y-95705330D01*
X164413950Y-95554943D01*
X164548474Y-95376804D01*
X164647974Y-95176980D01*
X164670733Y-95096987D01*
X164708012Y-95037895D01*
X164771322Y-95008337D01*
X164840562Y-95017699D01*
X164893748Y-95063008D01*
X164909267Y-95096989D01*
X164932026Y-95176982D01*
X165031389Y-95376529D01*
X165031526Y-95376804D01*
X165166050Y-95554943D01*
X165331017Y-95705330D01*
X165331024Y-95705334D01*
X165331025Y-95705335D01*
X165520804Y-95822841D01*
X165520805Y-95822841D01*
X165520808Y-95822843D01*
X165728961Y-95903482D01*
X165948387Y-95944500D01*
X165948389Y-95944500D01*
X166171611Y-95944500D01*
X166171613Y-95944500D01*
X166391039Y-95903482D01*
X166599192Y-95822843D01*
X166788983Y-95705330D01*
X166953950Y-95554943D01*
X167088474Y-95376804D01*
X167187974Y-95176980D01*
X167210733Y-95096987D01*
X167248012Y-95037895D01*
X167311322Y-95008337D01*
X167380562Y-95017699D01*
X167433748Y-95063008D01*
X167449267Y-95096989D01*
X167472026Y-95176982D01*
X167571389Y-95376529D01*
X167571526Y-95376804D01*
X167706050Y-95554943D01*
X167871017Y-95705330D01*
X167871024Y-95705334D01*
X167871025Y-95705335D01*
X168060804Y-95822841D01*
X168060805Y-95822841D01*
X168060808Y-95822843D01*
X168268961Y-95903482D01*
X168488387Y-95944500D01*
X168488389Y-95944500D01*
X168711611Y-95944500D01*
X168711613Y-95944500D01*
X168931039Y-95903482D01*
X169139192Y-95822843D01*
X169328983Y-95705330D01*
X169493950Y-95554943D01*
X169628474Y-95376804D01*
X169727974Y-95176980D01*
X169750993Y-95096073D01*
X169788272Y-95036981D01*
X169851582Y-95007423D01*
X169920821Y-95016785D01*
X169974008Y-95062094D01*
X169989526Y-95096074D01*
X170012492Y-95176793D01*
X170012498Y-95176808D01*
X170111953Y-95376540D01*
X170128282Y-95398163D01*
X170697861Y-94828584D01*
X170720667Y-94913694D01*
X170779910Y-95016306D01*
X170863694Y-95100090D01*
X170966306Y-95159333D01*
X171051414Y-95182137D01*
X170483766Y-95749785D01*
X170601031Y-95822393D01*
X170601032Y-95822394D01*
X170809095Y-95902997D01*
X171028435Y-95944000D01*
X171251565Y-95944000D01*
X171470904Y-95902997D01*
X171678967Y-95822394D01*
X171678971Y-95822392D01*
X171796231Y-95749786D01*
X171796231Y-95749785D01*
X171228585Y-95182137D01*
X171313694Y-95159333D01*
X171416306Y-95100090D01*
X171500090Y-95016306D01*
X171559333Y-94913694D01*
X171582138Y-94828585D01*
X172151716Y-95398163D01*
X172168049Y-95376536D01*
X172168053Y-95376529D01*
X172267499Y-95176813D01*
X172267504Y-95176800D01*
X172290472Y-95096075D01*
X172327751Y-95036981D01*
X172391061Y-95007423D01*
X172460300Y-95016784D01*
X172513487Y-95062094D01*
X172529005Y-95096073D01*
X172552024Y-95176977D01*
X172552026Y-95176981D01*
X172558509Y-95190000D01*
X172651526Y-95376804D01*
X172786050Y-95554943D01*
X172951017Y-95705330D01*
X172951024Y-95705334D01*
X172951025Y-95705335D01*
X173140804Y-95822841D01*
X173140805Y-95822841D01*
X173140808Y-95822843D01*
X173348961Y-95903482D01*
X173568387Y-95944500D01*
X173568389Y-95944500D01*
X173791611Y-95944500D01*
X173791613Y-95944500D01*
X174011039Y-95903482D01*
X174219192Y-95822843D01*
X174408983Y-95705330D01*
X174573950Y-95554943D01*
X174708474Y-95376804D01*
X174807974Y-95176980D01*
X174830733Y-95096987D01*
X174868012Y-95037895D01*
X174931322Y-95008337D01*
X175000562Y-95017699D01*
X175053748Y-95063008D01*
X175069267Y-95096989D01*
X175092026Y-95176982D01*
X175191389Y-95376529D01*
X175191526Y-95376804D01*
X175326050Y-95554943D01*
X175491017Y-95705330D01*
X175491024Y-95705334D01*
X175491025Y-95705335D01*
X175680804Y-95822841D01*
X175680805Y-95822841D01*
X175680808Y-95822843D01*
X175888961Y-95903482D01*
X176108387Y-95944500D01*
X176108389Y-95944500D01*
X176331611Y-95944500D01*
X176331613Y-95944500D01*
X176551039Y-95903482D01*
X176759192Y-95822843D01*
X176948983Y-95705330D01*
X177113950Y-95554943D01*
X177248474Y-95376804D01*
X177347974Y-95176980D01*
X177370733Y-95096987D01*
X177408012Y-95037895D01*
X177471322Y-95008337D01*
X177540562Y-95017699D01*
X177593748Y-95063008D01*
X177609267Y-95096989D01*
X177632026Y-95176982D01*
X177731389Y-95376529D01*
X177731526Y-95376804D01*
X177866050Y-95554943D01*
X178031017Y-95705330D01*
X178031024Y-95705334D01*
X178031025Y-95705335D01*
X178220804Y-95822841D01*
X178220805Y-95822841D01*
X178220808Y-95822843D01*
X178428961Y-95903482D01*
X178648387Y-95944500D01*
X178648389Y-95944500D01*
X178871611Y-95944500D01*
X178871613Y-95944500D01*
X179091039Y-95903482D01*
X179299192Y-95822843D01*
X179488983Y-95705330D01*
X179653950Y-95554943D01*
X179788474Y-95376804D01*
X179887974Y-95176980D01*
X179887974Y-95176977D01*
X179887976Y-95176975D01*
X179933553Y-95016785D01*
X179949063Y-94962274D01*
X179969660Y-94740000D01*
X179949063Y-94517726D01*
X179924589Y-94431708D01*
X179887976Y-94303024D01*
X179887973Y-94303018D01*
X179832978Y-94192573D01*
X179788474Y-94103196D01*
X179653950Y-93925057D01*
X179488983Y-93774670D01*
X179488979Y-93774667D01*
X179488974Y-93774664D01*
X179299195Y-93657158D01*
X179299189Y-93657156D01*
X179091039Y-93576518D01*
X178871613Y-93535500D01*
X178648387Y-93535500D01*
X178428961Y-93576518D01*
X178330970Y-93614480D01*
X178220810Y-93657156D01*
X178220804Y-93657158D01*
X178031025Y-93774664D01*
X178031015Y-93774671D01*
X177866051Y-93925055D01*
X177731526Y-94103195D01*
X177632026Y-94303018D01*
X177632023Y-94303024D01*
X177609266Y-94383011D01*
X177571987Y-94442104D01*
X177508678Y-94471662D01*
X177439438Y-94462300D01*
X177386252Y-94416991D01*
X177370734Y-94383011D01*
X177347976Y-94303024D01*
X177347973Y-94303018D01*
X177248472Y-94103192D01*
X177201198Y-94040591D01*
X177176506Y-93975230D01*
X177191071Y-93906896D01*
X177212468Y-93878187D01*
X180903838Y-90186818D01*
X180965161Y-90153333D01*
X180991519Y-90150499D01*
X181657871Y-90150499D01*
X181657872Y-90150499D01*
X181717483Y-90144091D01*
X181852331Y-90093796D01*
X181967546Y-90007546D01*
X182053796Y-89892331D01*
X182103002Y-89760401D01*
X182144872Y-89704468D01*
X182210337Y-89680050D01*
X182278610Y-89694901D01*
X182306865Y-89716053D01*
X182428917Y-89838105D01*
X182622421Y-89973600D01*
X182836507Y-90073429D01*
X182836516Y-90073433D01*
X183050000Y-90130634D01*
X183050000Y-89233012D01*
X183107007Y-89265925D01*
X183234174Y-89300000D01*
X183365826Y-89300000D01*
X183492993Y-89265925D01*
X183550000Y-89233012D01*
X183550000Y-90130633D01*
X183763483Y-90073433D01*
X183763492Y-90073429D01*
X183977578Y-89973600D01*
X184171082Y-89838105D01*
X184338105Y-89671082D01*
X184473600Y-89477578D01*
X184573429Y-89263492D01*
X184573432Y-89263486D01*
X184630636Y-89050000D01*
X183733012Y-89050000D01*
X183765925Y-88992993D01*
X183800000Y-88865826D01*
X183800000Y-88734174D01*
X183765925Y-88607007D01*
X183733012Y-88550000D01*
X184630636Y-88550000D01*
X184630635Y-88549999D01*
X184573432Y-88336513D01*
X184573429Y-88336507D01*
X184473600Y-88122422D01*
X184473599Y-88122420D01*
X184338113Y-87928926D01*
X184338108Y-87928920D01*
X184171082Y-87761894D01*
X183977578Y-87626399D01*
X183763492Y-87526570D01*
X183763486Y-87526567D01*
X183550000Y-87469364D01*
X183550000Y-88366988D01*
X183492993Y-88334075D01*
X183365826Y-88300000D01*
X183234174Y-88300000D01*
X183107007Y-88334075D01*
X183050000Y-88366988D01*
X183050000Y-87469364D01*
X183049999Y-87469364D01*
X182836513Y-87526567D01*
X182836507Y-87526570D01*
X182622422Y-87626399D01*
X182622420Y-87626400D01*
X182428926Y-87761886D01*
X182306865Y-87883947D01*
X182245542Y-87917431D01*
X182175850Y-87912447D01*
X182119917Y-87870575D01*
X182103002Y-87839598D01*
X182053797Y-87707671D01*
X182053793Y-87707664D01*
X181967547Y-87592455D01*
X181967544Y-87592452D01*
X181852335Y-87506206D01*
X181852328Y-87506202D01*
X181717482Y-87455908D01*
X181717483Y-87455908D01*
X181657883Y-87449501D01*
X181657881Y-87449500D01*
X181657873Y-87449500D01*
X181657865Y-87449500D01*
X180451519Y-87449500D01*
X180384480Y-87429815D01*
X180363838Y-87413181D01*
X180236819Y-87286162D01*
X180203334Y-87224839D01*
X180200500Y-87198481D01*
X180200500Y-74331004D01*
X180173581Y-74195677D01*
X180173580Y-74195676D01*
X180173580Y-74195672D01*
X180156094Y-74153457D01*
X180120777Y-74068193D01*
X180120772Y-74068184D01*
X180112554Y-74055885D01*
X180112553Y-74055884D01*
X180044112Y-73953454D01*
X178246545Y-72155887D01*
X178131807Y-72079222D01*
X178004332Y-72026421D01*
X178004322Y-72026418D01*
X177868996Y-71999500D01*
X177868994Y-71999500D01*
X177868993Y-71999500D01*
X176574500Y-71999500D01*
X176507461Y-71979815D01*
X176461706Y-71927011D01*
X176450500Y-71875500D01*
X176450500Y-71853055D01*
X176449221Y-71842407D01*
X176439852Y-71764387D01*
X176439849Y-71764381D01*
X176437903Y-71756675D01*
X176440948Y-71755905D01*
X176435969Y-71700944D01*
X176438185Y-71693396D01*
X176437903Y-71693325D01*
X176439850Y-71685617D01*
X176439852Y-71685613D01*
X176450500Y-71596944D01*
X176450500Y-71203056D01*
X176439852Y-71114387D01*
X176439849Y-71114381D01*
X176437903Y-71106675D01*
X176440948Y-71105905D01*
X176435969Y-71050944D01*
X176438185Y-71043396D01*
X176437903Y-71043325D01*
X176439850Y-71035617D01*
X176439852Y-71035613D01*
X176450500Y-70946944D01*
X176450500Y-70553056D01*
X176439852Y-70464387D01*
X176439851Y-70464385D01*
X176439851Y-70464382D01*
X176437905Y-70456683D01*
X176440745Y-70455965D01*
X176435702Y-70400252D01*
X176437751Y-70393286D01*
X176437414Y-70393201D01*
X176439361Y-70385494D01*
X176449028Y-70305000D01*
X176431930Y-70305000D01*
X176364891Y-70285315D01*
X176333126Y-70255925D01*
X176292564Y-70202435D01*
X176180961Y-70117804D01*
X176139437Y-70061611D01*
X176134886Y-69991890D01*
X176168751Y-69930776D01*
X176230281Y-69897672D01*
X176255886Y-69895000D01*
X176449027Y-69895000D01*
X176439362Y-69814508D01*
X176383769Y-69673534D01*
X176292207Y-69552792D01*
X176171465Y-69461230D01*
X176030492Y-69405637D01*
X175941911Y-69395000D01*
X175405000Y-69395000D01*
X175405000Y-69920500D01*
X175385315Y-69987539D01*
X175332511Y-70033294D01*
X175281000Y-70044500D01*
X175119000Y-70044500D01*
X175051961Y-70024815D01*
X175006206Y-69972011D01*
X174995000Y-69920500D01*
X174995000Y-69395000D01*
X174458089Y-69395000D01*
X174369507Y-69405637D01*
X174228534Y-69461230D01*
X174107792Y-69552792D01*
X174016230Y-69673534D01*
X173960637Y-69814508D01*
X173950972Y-69895000D01*
X174144114Y-69895000D01*
X174211153Y-69914685D01*
X174256908Y-69967489D01*
X174266852Y-70036647D01*
X174237827Y-70100203D01*
X174219039Y-70117804D01*
X174107435Y-70202435D01*
X174066874Y-70255925D01*
X174010682Y-70297448D01*
X173968070Y-70305000D01*
X173950973Y-70305000D01*
X173960638Y-70385498D01*
X173962586Y-70393204D01*
X173959394Y-70394010D01*
X173964271Y-70448511D01*
X173961886Y-70456628D01*
X173962095Y-70456681D01*
X173960148Y-70464380D01*
X173954414Y-70512131D01*
X173949500Y-70553056D01*
X173949500Y-70946944D01*
X173956276Y-71003369D01*
X173960148Y-71035617D01*
X173962095Y-71043317D01*
X173959068Y-71044082D01*
X173964008Y-71099170D01*
X173961822Y-71106614D01*
X173962095Y-71106683D01*
X173960146Y-71114390D01*
X173953492Y-71169806D01*
X173925955Y-71234021D01*
X173868073Y-71273153D01*
X173798222Y-71274780D01*
X173742696Y-71242703D01*
X172055882Y-69555888D01*
X172055881Y-69555887D01*
X171941143Y-69479222D01*
X171813668Y-69426421D01*
X171813658Y-69426418D01*
X171678332Y-69399500D01*
X171678330Y-69399500D01*
X171678329Y-69399500D01*
X170220996Y-69399500D01*
X170206211Y-69398615D01*
X170171945Y-69394500D01*
X170171944Y-69394500D01*
X168688056Y-69394500D01*
X168648140Y-69399293D01*
X168599388Y-69405147D01*
X168458287Y-69460790D01*
X168337435Y-69552435D01*
X168245790Y-69673287D01*
X168190147Y-69814388D01*
X168184293Y-69863140D01*
X168179500Y-69903056D01*
X168179500Y-69903062D01*
X168179500Y-69925500D01*
X168159815Y-69992539D01*
X168107011Y-70038294D01*
X168055500Y-70049500D01*
X167424500Y-70049500D01*
X167357461Y-70029815D01*
X167311706Y-69977011D01*
X167300500Y-69925500D01*
X167300500Y-69841519D01*
X167320185Y-69774480D01*
X167336819Y-69753838D01*
X168053838Y-69036819D01*
X168115161Y-69003334D01*
X168141519Y-69000500D01*
X176858481Y-69000500D01*
X176925520Y-69020185D01*
X176946162Y-69036819D01*
X183763181Y-75853838D01*
X183796666Y-75915161D01*
X183799500Y-75941519D01*
X183799500Y-76999069D01*
X183779815Y-77066108D01*
X183734518Y-77108123D01*
X183676497Y-77139522D01*
X183676490Y-77139527D01*
X183480257Y-77292261D01*
X183311833Y-77475217D01*
X183175826Y-77683393D01*
X183075936Y-77911118D01*
X183014892Y-78152175D01*
X183014890Y-78152187D01*
X182994357Y-78399994D01*
X182994357Y-78400005D01*
X183014890Y-78647812D01*
X183014892Y-78647824D01*
X183075936Y-78888881D01*
X183175826Y-79116606D01*
X183311833Y-79324782D01*
X183331515Y-79346162D01*
X183480256Y-79507738D01*
X183676491Y-79660474D01*
X183895190Y-79778828D01*
X184130386Y-79859571D01*
X184375665Y-79900500D01*
X184624335Y-79900500D01*
X184869614Y-79859571D01*
X185104810Y-79778828D01*
X185323509Y-79660474D01*
X185519744Y-79507738D01*
X185688164Y-79324785D01*
X185771691Y-79196937D01*
X185824837Y-79151580D01*
X185894069Y-79142156D01*
X185957404Y-79171658D01*
X185994736Y-79230718D01*
X185999500Y-79264758D01*
X185999500Y-82435241D01*
X185979815Y-82502280D01*
X185927011Y-82548035D01*
X185857853Y-82557979D01*
X185794297Y-82528954D01*
X185771691Y-82503063D01*
X185763164Y-82490011D01*
X185688164Y-82375215D01*
X185519744Y-82192262D01*
X185323509Y-82039526D01*
X185323507Y-82039525D01*
X185323506Y-82039524D01*
X185104811Y-81921172D01*
X185104802Y-81921169D01*
X184869616Y-81840429D01*
X184624335Y-81799500D01*
X184375665Y-81799500D01*
X184130383Y-81840429D01*
X183895197Y-81921169D01*
X183895188Y-81921172D01*
X183676493Y-82039524D01*
X183480257Y-82192261D01*
X183311833Y-82375217D01*
X183175826Y-82583393D01*
X183075936Y-82811118D01*
X183014892Y-83052175D01*
X183014890Y-83052187D01*
X182994357Y-83299994D01*
X182994357Y-83300005D01*
X183014890Y-83547812D01*
X183014892Y-83547824D01*
X183075936Y-83788881D01*
X183175826Y-84016606D01*
X183311833Y-84224782D01*
X183311836Y-84224785D01*
X183480256Y-84407738D01*
X183676491Y-84560474D01*
X183895190Y-84678828D01*
X184130386Y-84759571D01*
X184375665Y-84800500D01*
X184624335Y-84800500D01*
X184869614Y-84759571D01*
X185104810Y-84678828D01*
X185323509Y-84560474D01*
X185519744Y-84407738D01*
X185688164Y-84224785D01*
X185771691Y-84096937D01*
X185824837Y-84051580D01*
X185894069Y-84042156D01*
X185957404Y-84071658D01*
X185994736Y-84130718D01*
X185999500Y-84164758D01*
X185999500Y-116475500D01*
X185979815Y-116542539D01*
X185927011Y-116588294D01*
X185875500Y-116599500D01*
X133724500Y-116599500D01*
X133657461Y-116579815D01*
X133611706Y-116527011D01*
X133600500Y-116475500D01*
X133600500Y-114318713D01*
X135499500Y-114318713D01*
X135499500Y-114531286D01*
X135532080Y-114736991D01*
X135532754Y-114741243D01*
X135591381Y-114921678D01*
X135598444Y-114943414D01*
X135694951Y-115132820D01*
X135819890Y-115304786D01*
X135970213Y-115455109D01*
X136142179Y-115580048D01*
X136142181Y-115580049D01*
X136142184Y-115580051D01*
X136331588Y-115676557D01*
X136533757Y-115742246D01*
X136743713Y-115775500D01*
X136743714Y-115775500D01*
X136956286Y-115775500D01*
X136956287Y-115775500D01*
X137166243Y-115742246D01*
X137368412Y-115676557D01*
X137557816Y-115580051D01*
X137579789Y-115564086D01*
X137729786Y-115455109D01*
X137729788Y-115455106D01*
X137729792Y-115455104D01*
X137880104Y-115304792D01*
X137880106Y-115304788D01*
X137880109Y-115304786D01*
X138005048Y-115132820D01*
X138005047Y-115132820D01*
X138005051Y-115132816D01*
X138042153Y-115059999D01*
X139450340Y-115059999D01*
X139450340Y-115060000D01*
X139470936Y-115282273D01*
X139470937Y-115282276D01*
X139532023Y-115496975D01*
X139532026Y-115496981D01*
X139621443Y-115676555D01*
X139631526Y-115696804D01*
X139766050Y-115874943D01*
X139931017Y-116025330D01*
X139931024Y-116025334D01*
X139931025Y-116025335D01*
X140120804Y-116142841D01*
X140120805Y-116142841D01*
X140120808Y-116142843D01*
X140328961Y-116223482D01*
X140548387Y-116264500D01*
X140548389Y-116264500D01*
X140771611Y-116264500D01*
X140771613Y-116264500D01*
X140991039Y-116223482D01*
X141199192Y-116142843D01*
X141388983Y-116025330D01*
X141553950Y-115874943D01*
X141688474Y-115696804D01*
X141787974Y-115496980D01*
X141810733Y-115416987D01*
X141848012Y-115357895D01*
X141911322Y-115328337D01*
X141980562Y-115337699D01*
X142033748Y-115383008D01*
X142049267Y-115416989D01*
X142072026Y-115496982D01*
X142161443Y-115676555D01*
X142171526Y-115696804D01*
X142306050Y-115874943D01*
X142471017Y-116025330D01*
X142471024Y-116025334D01*
X142471025Y-116025335D01*
X142660804Y-116142841D01*
X142660805Y-116142841D01*
X142660808Y-116142843D01*
X142868961Y-116223482D01*
X143088387Y-116264500D01*
X143088389Y-116264500D01*
X143311611Y-116264500D01*
X143311613Y-116264500D01*
X143531039Y-116223482D01*
X143739192Y-116142843D01*
X143928983Y-116025330D01*
X144093950Y-115874943D01*
X144228474Y-115696804D01*
X144327974Y-115496980D01*
X144350733Y-115416987D01*
X144388012Y-115357895D01*
X144451322Y-115328337D01*
X144520562Y-115337699D01*
X144573748Y-115383008D01*
X144589267Y-115416989D01*
X144612026Y-115496982D01*
X144701443Y-115676555D01*
X144711526Y-115696804D01*
X144846050Y-115874943D01*
X145011017Y-116025330D01*
X145011024Y-116025334D01*
X145011025Y-116025335D01*
X145200804Y-116142841D01*
X145200805Y-116142841D01*
X145200808Y-116142843D01*
X145408961Y-116223482D01*
X145628387Y-116264500D01*
X145628389Y-116264500D01*
X145851611Y-116264500D01*
X145851613Y-116264500D01*
X146071039Y-116223482D01*
X146279192Y-116142843D01*
X146468983Y-116025330D01*
X146633950Y-115874943D01*
X146768474Y-115696804D01*
X146867974Y-115496980D01*
X146890733Y-115416987D01*
X146928012Y-115357895D01*
X146991322Y-115328337D01*
X147060562Y-115337699D01*
X147113748Y-115383008D01*
X147129267Y-115416989D01*
X147152026Y-115496982D01*
X147241443Y-115676555D01*
X147251526Y-115696804D01*
X147386050Y-115874943D01*
X147551017Y-116025330D01*
X147551024Y-116025334D01*
X147551025Y-116025335D01*
X147740804Y-116142841D01*
X147740805Y-116142841D01*
X147740808Y-116142843D01*
X147948961Y-116223482D01*
X148168387Y-116264500D01*
X148168389Y-116264500D01*
X148391611Y-116264500D01*
X148391613Y-116264500D01*
X148611039Y-116223482D01*
X148819192Y-116142843D01*
X149008983Y-116025330D01*
X149173950Y-115874943D01*
X149308474Y-115696804D01*
X149407974Y-115496980D01*
X149430733Y-115416987D01*
X149468012Y-115357895D01*
X149531322Y-115328337D01*
X149600562Y-115337699D01*
X149653748Y-115383008D01*
X149669267Y-115416989D01*
X149692026Y-115496982D01*
X149781443Y-115676555D01*
X149791526Y-115696804D01*
X149926050Y-115874943D01*
X150091017Y-116025330D01*
X150091024Y-116025334D01*
X150091025Y-116025335D01*
X150280804Y-116142841D01*
X150280805Y-116142841D01*
X150280808Y-116142843D01*
X150488961Y-116223482D01*
X150708387Y-116264500D01*
X150708389Y-116264500D01*
X150931611Y-116264500D01*
X150931613Y-116264500D01*
X151151039Y-116223482D01*
X151359192Y-116142843D01*
X151548983Y-116025330D01*
X151713950Y-115874943D01*
X151848474Y-115696804D01*
X151947974Y-115496980D01*
X151970733Y-115416987D01*
X152008012Y-115357895D01*
X152071322Y-115328337D01*
X152140562Y-115337699D01*
X152193748Y-115383008D01*
X152209267Y-115416989D01*
X152232026Y-115496982D01*
X152321443Y-115676555D01*
X152331526Y-115696804D01*
X152466050Y-115874943D01*
X152631017Y-116025330D01*
X152631024Y-116025334D01*
X152631025Y-116025335D01*
X152820804Y-116142841D01*
X152820805Y-116142841D01*
X152820808Y-116142843D01*
X153028961Y-116223482D01*
X153248387Y-116264500D01*
X153248389Y-116264500D01*
X153471611Y-116264500D01*
X153471613Y-116264500D01*
X153691039Y-116223482D01*
X153899192Y-116142843D01*
X154088983Y-116025330D01*
X154253950Y-115874943D01*
X154388474Y-115696804D01*
X154487974Y-115496980D01*
X154510733Y-115416987D01*
X154548012Y-115357895D01*
X154611322Y-115328337D01*
X154680562Y-115337699D01*
X154733748Y-115383008D01*
X154749267Y-115416989D01*
X154772026Y-115496982D01*
X154861443Y-115676555D01*
X154871526Y-115696804D01*
X155006050Y-115874943D01*
X155171017Y-116025330D01*
X155171024Y-116025334D01*
X155171025Y-116025335D01*
X155360804Y-116142841D01*
X155360805Y-116142841D01*
X155360808Y-116142843D01*
X155568961Y-116223482D01*
X155788387Y-116264500D01*
X155788389Y-116264500D01*
X156011611Y-116264500D01*
X156011613Y-116264500D01*
X156231039Y-116223482D01*
X156439192Y-116142843D01*
X156628983Y-116025330D01*
X156793950Y-115874943D01*
X156928474Y-115696804D01*
X157027974Y-115496980D01*
X157050733Y-115416987D01*
X157088012Y-115357895D01*
X157151322Y-115328337D01*
X157220562Y-115337699D01*
X157273748Y-115383008D01*
X157289267Y-115416989D01*
X157312026Y-115496982D01*
X157401443Y-115676555D01*
X157411526Y-115696804D01*
X157546050Y-115874943D01*
X157711017Y-116025330D01*
X157711024Y-116025334D01*
X157711025Y-116025335D01*
X157900804Y-116142841D01*
X157900805Y-116142841D01*
X157900808Y-116142843D01*
X158108961Y-116223482D01*
X158328387Y-116264500D01*
X158328389Y-116264500D01*
X158551611Y-116264500D01*
X158551613Y-116264500D01*
X158771039Y-116223482D01*
X158979192Y-116142843D01*
X159168983Y-116025330D01*
X159333950Y-115874943D01*
X159468474Y-115696804D01*
X159567974Y-115496980D01*
X159590733Y-115416987D01*
X159628012Y-115357895D01*
X159691322Y-115328337D01*
X159760562Y-115337699D01*
X159813748Y-115383008D01*
X159829267Y-115416989D01*
X159852026Y-115496982D01*
X159941443Y-115676555D01*
X159951526Y-115696804D01*
X160086050Y-115874943D01*
X160251017Y-116025330D01*
X160251024Y-116025334D01*
X160251025Y-116025335D01*
X160440804Y-116142841D01*
X160440805Y-116142841D01*
X160440808Y-116142843D01*
X160648961Y-116223482D01*
X160868387Y-116264500D01*
X160868389Y-116264500D01*
X161091611Y-116264500D01*
X161091613Y-116264500D01*
X161311039Y-116223482D01*
X161519192Y-116142843D01*
X161708983Y-116025330D01*
X161873950Y-115874943D01*
X162008474Y-115696804D01*
X162107974Y-115496980D01*
X162130733Y-115416987D01*
X162168012Y-115357895D01*
X162231322Y-115328337D01*
X162300562Y-115337699D01*
X162353748Y-115383008D01*
X162369267Y-115416989D01*
X162392026Y-115496982D01*
X162481443Y-115676555D01*
X162491526Y-115696804D01*
X162626050Y-115874943D01*
X162791017Y-116025330D01*
X162791024Y-116025334D01*
X162791025Y-116025335D01*
X162980804Y-116142841D01*
X162980805Y-116142841D01*
X162980808Y-116142843D01*
X163188961Y-116223482D01*
X163408387Y-116264500D01*
X163408389Y-116264500D01*
X163631611Y-116264500D01*
X163631613Y-116264500D01*
X163851039Y-116223482D01*
X164059192Y-116142843D01*
X164248983Y-116025330D01*
X164413950Y-115874943D01*
X164548474Y-115696804D01*
X164647974Y-115496980D01*
X164670733Y-115416987D01*
X164708012Y-115357895D01*
X164771322Y-115328337D01*
X164840562Y-115337699D01*
X164893748Y-115383008D01*
X164909267Y-115416989D01*
X164932026Y-115496982D01*
X165021443Y-115676555D01*
X165031526Y-115696804D01*
X165166050Y-115874943D01*
X165331017Y-116025330D01*
X165331024Y-116025334D01*
X165331025Y-116025335D01*
X165520804Y-116142841D01*
X165520805Y-116142841D01*
X165520808Y-116142843D01*
X165728961Y-116223482D01*
X165948387Y-116264500D01*
X165948389Y-116264500D01*
X166171611Y-116264500D01*
X166171613Y-116264500D01*
X166391039Y-116223482D01*
X166599192Y-116142843D01*
X166788983Y-116025330D01*
X166953950Y-115874943D01*
X167088474Y-115696804D01*
X167187974Y-115496980D01*
X167210733Y-115416987D01*
X167248012Y-115357895D01*
X167311322Y-115328337D01*
X167380562Y-115337699D01*
X167433748Y-115383008D01*
X167449267Y-115416989D01*
X167472026Y-115496982D01*
X167561443Y-115676555D01*
X167571526Y-115696804D01*
X167706050Y-115874943D01*
X167871017Y-116025330D01*
X167871024Y-116025334D01*
X167871025Y-116025335D01*
X168060804Y-116142841D01*
X168060805Y-116142841D01*
X168060808Y-116142843D01*
X168268961Y-116223482D01*
X168488387Y-116264500D01*
X168488389Y-116264500D01*
X168711611Y-116264500D01*
X168711613Y-116264500D01*
X168931039Y-116223482D01*
X169139192Y-116142843D01*
X169328983Y-116025330D01*
X169493950Y-115874943D01*
X169628474Y-115696804D01*
X169727974Y-115496980D01*
X169727974Y-115496977D01*
X169727976Y-115496975D01*
X169782656Y-115304792D01*
X169789063Y-115282274D01*
X169809660Y-115060000D01*
X169789063Y-114837726D01*
X169767547Y-114762104D01*
X169727976Y-114623024D01*
X169727973Y-114623018D01*
X169628474Y-114423196D01*
X169493950Y-114245057D01*
X169328983Y-114094670D01*
X169328979Y-114094667D01*
X169328974Y-114094664D01*
X169139195Y-113977158D01*
X169139189Y-113977156D01*
X168931039Y-113896518D01*
X168711613Y-113855500D01*
X168488387Y-113855500D01*
X168268961Y-113896518D01*
X168137328Y-113947512D01*
X168060810Y-113977156D01*
X168060804Y-113977158D01*
X167871025Y-114094664D01*
X167871015Y-114094671D01*
X167706051Y-114245055D01*
X167571526Y-114423195D01*
X167472026Y-114623018D01*
X167472023Y-114623024D01*
X167449266Y-114703011D01*
X167411987Y-114762104D01*
X167348678Y-114791662D01*
X167279438Y-114782300D01*
X167226252Y-114736991D01*
X167210734Y-114703011D01*
X167187976Y-114623024D01*
X167187973Y-114623018D01*
X167088474Y-114423196D01*
X166953950Y-114245057D01*
X166788983Y-114094670D01*
X166788979Y-114094667D01*
X166788974Y-114094664D01*
X166599195Y-113977158D01*
X166599189Y-113977156D01*
X166391039Y-113896518D01*
X166171613Y-113855500D01*
X165948387Y-113855500D01*
X165728961Y-113896518D01*
X165597328Y-113947512D01*
X165520810Y-113977156D01*
X165520804Y-113977158D01*
X165331025Y-114094664D01*
X165331015Y-114094671D01*
X165166051Y-114245055D01*
X165031526Y-114423195D01*
X164932026Y-114623018D01*
X164932023Y-114623024D01*
X164909266Y-114703011D01*
X164871987Y-114762104D01*
X164808678Y-114791662D01*
X164739438Y-114782300D01*
X164686252Y-114736991D01*
X164670734Y-114703011D01*
X164647976Y-114623024D01*
X164647973Y-114623018D01*
X164548474Y-114423196D01*
X164413950Y-114245057D01*
X164248983Y-114094670D01*
X164248979Y-114094667D01*
X164248974Y-114094664D01*
X164059195Y-113977158D01*
X164059189Y-113977156D01*
X163851039Y-113896518D01*
X163631613Y-113855500D01*
X163408387Y-113855500D01*
X163188961Y-113896518D01*
X163057328Y-113947512D01*
X162980810Y-113977156D01*
X162980804Y-113977158D01*
X162791025Y-114094664D01*
X162791015Y-114094671D01*
X162626051Y-114245055D01*
X162491526Y-114423195D01*
X162392026Y-114623018D01*
X162392023Y-114623024D01*
X162369266Y-114703011D01*
X162331987Y-114762104D01*
X162268678Y-114791662D01*
X162199438Y-114782300D01*
X162146252Y-114736991D01*
X162130734Y-114703011D01*
X162107976Y-114623024D01*
X162107973Y-114623018D01*
X162008474Y-114423196D01*
X161873950Y-114245057D01*
X161708983Y-114094670D01*
X161708979Y-114094667D01*
X161708974Y-114094664D01*
X161519195Y-113977158D01*
X161519189Y-113977156D01*
X161311039Y-113896518D01*
X161091613Y-113855500D01*
X160868387Y-113855500D01*
X160648961Y-113896518D01*
X160517328Y-113947512D01*
X160440810Y-113977156D01*
X160440804Y-113977158D01*
X160251025Y-114094664D01*
X160251015Y-114094671D01*
X160086051Y-114245055D01*
X159951526Y-114423195D01*
X159852026Y-114623018D01*
X159852023Y-114623024D01*
X159829266Y-114703011D01*
X159791987Y-114762104D01*
X159728678Y-114791662D01*
X159659438Y-114782300D01*
X159606252Y-114736991D01*
X159590734Y-114703011D01*
X159567976Y-114623024D01*
X159567973Y-114623018D01*
X159468474Y-114423196D01*
X159333950Y-114245057D01*
X159168983Y-114094670D01*
X159168979Y-114094667D01*
X159168974Y-114094664D01*
X158979195Y-113977158D01*
X158979189Y-113977156D01*
X158771039Y-113896518D01*
X158551613Y-113855500D01*
X158328387Y-113855500D01*
X158108961Y-113896518D01*
X157977328Y-113947512D01*
X157900810Y-113977156D01*
X157900804Y-113977158D01*
X157711025Y-114094664D01*
X157711015Y-114094671D01*
X157546051Y-114245055D01*
X157411526Y-114423195D01*
X157312026Y-114623018D01*
X157312023Y-114623024D01*
X157289266Y-114703011D01*
X157251987Y-114762104D01*
X157188678Y-114791662D01*
X157119438Y-114782300D01*
X157066252Y-114736991D01*
X157050734Y-114703011D01*
X157027976Y-114623024D01*
X157027973Y-114623018D01*
X156928474Y-114423196D01*
X156793950Y-114245057D01*
X156628983Y-114094670D01*
X156628979Y-114094667D01*
X156628974Y-114094664D01*
X156439195Y-113977158D01*
X156439189Y-113977156D01*
X156231039Y-113896518D01*
X156011613Y-113855500D01*
X155788387Y-113855500D01*
X155568961Y-113896518D01*
X155437328Y-113947512D01*
X155360810Y-113977156D01*
X155360804Y-113977158D01*
X155171025Y-114094664D01*
X155171015Y-114094671D01*
X155006051Y-114245055D01*
X154871526Y-114423195D01*
X154772026Y-114623018D01*
X154772023Y-114623024D01*
X154749266Y-114703011D01*
X154711987Y-114762104D01*
X154648678Y-114791662D01*
X154579438Y-114782300D01*
X154526252Y-114736991D01*
X154510734Y-114703011D01*
X154487976Y-114623024D01*
X154487973Y-114623018D01*
X154388474Y-114423196D01*
X154253950Y-114245057D01*
X154088983Y-114094670D01*
X154088979Y-114094667D01*
X154088974Y-114094664D01*
X153899195Y-113977158D01*
X153899189Y-113977156D01*
X153691039Y-113896518D01*
X153471613Y-113855500D01*
X153248387Y-113855500D01*
X153028961Y-113896518D01*
X152897328Y-113947512D01*
X152820810Y-113977156D01*
X152820804Y-113977158D01*
X152631025Y-114094664D01*
X152631015Y-114094671D01*
X152466051Y-114245055D01*
X152331526Y-114423195D01*
X152232026Y-114623018D01*
X152232023Y-114623024D01*
X152209266Y-114703011D01*
X152171987Y-114762104D01*
X152108678Y-114791662D01*
X152039438Y-114782300D01*
X151986252Y-114736991D01*
X151970734Y-114703011D01*
X151947976Y-114623024D01*
X151947973Y-114623018D01*
X151848474Y-114423196D01*
X151713950Y-114245057D01*
X151548983Y-114094670D01*
X151548979Y-114094667D01*
X151548974Y-114094664D01*
X151359195Y-113977158D01*
X151359189Y-113977156D01*
X151151039Y-113896518D01*
X150931613Y-113855500D01*
X150708387Y-113855500D01*
X150488961Y-113896518D01*
X150357328Y-113947512D01*
X150280810Y-113977156D01*
X150280804Y-113977158D01*
X150091025Y-114094664D01*
X150091015Y-114094671D01*
X149926051Y-114245055D01*
X149791526Y-114423195D01*
X149692026Y-114623018D01*
X149692023Y-114623024D01*
X149669266Y-114703011D01*
X149631987Y-114762104D01*
X149568678Y-114791662D01*
X149499438Y-114782300D01*
X149446252Y-114736991D01*
X149430734Y-114703011D01*
X149407976Y-114623024D01*
X149407973Y-114623018D01*
X149308474Y-114423196D01*
X149173950Y-114245057D01*
X149008983Y-114094670D01*
X149008979Y-114094667D01*
X149008974Y-114094664D01*
X148819195Y-113977158D01*
X148819189Y-113977156D01*
X148611039Y-113896518D01*
X148391613Y-113855500D01*
X148168387Y-113855500D01*
X147948961Y-113896518D01*
X147817328Y-113947512D01*
X147740810Y-113977156D01*
X147740804Y-113977158D01*
X147551025Y-114094664D01*
X147551015Y-114094671D01*
X147386051Y-114245055D01*
X147251526Y-114423195D01*
X147152026Y-114623018D01*
X147152023Y-114623024D01*
X147129266Y-114703011D01*
X147091987Y-114762104D01*
X147028678Y-114791662D01*
X146959438Y-114782300D01*
X146906252Y-114736991D01*
X146890734Y-114703011D01*
X146867976Y-114623024D01*
X146867973Y-114623018D01*
X146768474Y-114423196D01*
X146633950Y-114245057D01*
X146468983Y-114094670D01*
X146468979Y-114094667D01*
X146468974Y-114094664D01*
X146279195Y-113977158D01*
X146279189Y-113977156D01*
X146071039Y-113896518D01*
X145851613Y-113855500D01*
X145628387Y-113855500D01*
X145408961Y-113896518D01*
X145277328Y-113947512D01*
X145200810Y-113977156D01*
X145200804Y-113977158D01*
X145011025Y-114094664D01*
X145011015Y-114094671D01*
X144846051Y-114245055D01*
X144711526Y-114423195D01*
X144612026Y-114623018D01*
X144612023Y-114623024D01*
X144589266Y-114703011D01*
X144551987Y-114762104D01*
X144488678Y-114791662D01*
X144419438Y-114782300D01*
X144366252Y-114736991D01*
X144350734Y-114703011D01*
X144327976Y-114623024D01*
X144327973Y-114623018D01*
X144228474Y-114423196D01*
X144093950Y-114245057D01*
X143928983Y-114094670D01*
X143928979Y-114094667D01*
X143928974Y-114094664D01*
X143739195Y-113977158D01*
X143739189Y-113977156D01*
X143531039Y-113896518D01*
X143311613Y-113855500D01*
X143088387Y-113855500D01*
X142868961Y-113896518D01*
X142737328Y-113947512D01*
X142660810Y-113977156D01*
X142660804Y-113977158D01*
X142471025Y-114094664D01*
X142471015Y-114094671D01*
X142306051Y-114245055D01*
X142171526Y-114423195D01*
X142072026Y-114623018D01*
X142072023Y-114623024D01*
X142049266Y-114703011D01*
X142011987Y-114762104D01*
X141948678Y-114791662D01*
X141879438Y-114782300D01*
X141826252Y-114736991D01*
X141810734Y-114703011D01*
X141787976Y-114623024D01*
X141787973Y-114623018D01*
X141688474Y-114423196D01*
X141553950Y-114245057D01*
X141388983Y-114094670D01*
X141388979Y-114094667D01*
X141388974Y-114094664D01*
X141199195Y-113977158D01*
X141199189Y-113977156D01*
X140991039Y-113896518D01*
X140771613Y-113855500D01*
X140548387Y-113855500D01*
X140328961Y-113896518D01*
X140197328Y-113947512D01*
X140120810Y-113977156D01*
X140120804Y-113977158D01*
X139931025Y-114094664D01*
X139931015Y-114094671D01*
X139766051Y-114245055D01*
X139631526Y-114423195D01*
X139532026Y-114623018D01*
X139532023Y-114623024D01*
X139470937Y-114837723D01*
X139470936Y-114837726D01*
X139450340Y-115059999D01*
X138042153Y-115059999D01*
X138101557Y-114943412D01*
X138167246Y-114741243D01*
X138200500Y-114531287D01*
X138200500Y-114318713D01*
X138167246Y-114108757D01*
X138101557Y-113906588D01*
X138042153Y-113790000D01*
X180306654Y-113790000D01*
X180314295Y-113906588D01*
X180326017Y-114085424D01*
X180326018Y-114085436D01*
X180383774Y-114375789D01*
X180383779Y-114375809D01*
X180478937Y-114656137D01*
X180478941Y-114656147D01*
X180609879Y-114921663D01*
X180609888Y-114921678D01*
X180774368Y-115167839D01*
X180969572Y-115390427D01*
X181043328Y-115455109D01*
X181192162Y-115585633D01*
X181438327Y-115750115D01*
X181438330Y-115750116D01*
X181438336Y-115750120D01*
X181703852Y-115881058D01*
X181703862Y-115881062D01*
X181984190Y-115976220D01*
X181984194Y-115976221D01*
X181984203Y-115976224D01*
X182180493Y-116015269D01*
X182274563Y-116033981D01*
X182274564Y-116033981D01*
X182274574Y-116033983D01*
X182570000Y-116053346D01*
X182865426Y-116033983D01*
X183155797Y-115976224D01*
X183155809Y-115976220D01*
X183436137Y-115881062D01*
X183436147Y-115881058D01*
X183701663Y-115750120D01*
X183701663Y-115750119D01*
X183701673Y-115750115D01*
X183947838Y-115585633D01*
X184170427Y-115390427D01*
X184365633Y-115167838D01*
X184530115Y-114921673D01*
X184661059Y-114656145D01*
X184672304Y-114623020D01*
X184756220Y-114375809D01*
X184756220Y-114375808D01*
X184756224Y-114375797D01*
X184813983Y-114085426D01*
X184833346Y-113790000D01*
X184813983Y-113494574D01*
X184756224Y-113204203D01*
X184745783Y-113173444D01*
X184661062Y-112923862D01*
X184661058Y-112923852D01*
X184530120Y-112658336D01*
X184530111Y-112658321D01*
X184527894Y-112655003D01*
X184365633Y-112412162D01*
X184322864Y-112363393D01*
X184170427Y-112189572D01*
X183947839Y-111994368D01*
X183701678Y-111829888D01*
X183701663Y-111829879D01*
X183436147Y-111698941D01*
X183436137Y-111698937D01*
X183155809Y-111603779D01*
X183155789Y-111603774D01*
X182865436Y-111546018D01*
X182865427Y-111546017D01*
X182865426Y-111546017D01*
X182570000Y-111526654D01*
X182274574Y-111546017D01*
X182274573Y-111546017D01*
X182274563Y-111546018D01*
X181984210Y-111603774D01*
X181984190Y-111603779D01*
X181703862Y-111698937D01*
X181703852Y-111698941D01*
X181438336Y-111829879D01*
X181438321Y-111829888D01*
X181192160Y-111994368D01*
X180969572Y-112189572D01*
X180774368Y-112412160D01*
X180609888Y-112658321D01*
X180609879Y-112658336D01*
X180478941Y-112923852D01*
X180478937Y-112923862D01*
X180383779Y-113204190D01*
X180383774Y-113204210D01*
X180326018Y-113494563D01*
X180326017Y-113494573D01*
X180326017Y-113494574D01*
X180306654Y-113790000D01*
X138042153Y-113790000D01*
X138005051Y-113717184D01*
X138005049Y-113717181D01*
X138005048Y-113717179D01*
X137880109Y-113545213D01*
X137729786Y-113394890D01*
X137557820Y-113269951D01*
X137368414Y-113173444D01*
X137368413Y-113173443D01*
X137368412Y-113173443D01*
X137166243Y-113107754D01*
X137166241Y-113107753D01*
X137166240Y-113107753D01*
X137004957Y-113082208D01*
X136956287Y-113074500D01*
X136743713Y-113074500D01*
X136695042Y-113082208D01*
X136533760Y-113107753D01*
X136331585Y-113173444D01*
X136142179Y-113269951D01*
X135970213Y-113394890D01*
X135819890Y-113545213D01*
X135694951Y-113717179D01*
X135598444Y-113906585D01*
X135532753Y-114108760D01*
X135499500Y-114318713D01*
X133600500Y-114318713D01*
X133600500Y-95205213D01*
X135499500Y-95205213D01*
X135499500Y-95417786D01*
X135521223Y-95554943D01*
X135532754Y-95627743D01*
X135596145Y-95822841D01*
X135598444Y-95829914D01*
X135694951Y-96019320D01*
X135819890Y-96191286D01*
X135970213Y-96341609D01*
X136142179Y-96466548D01*
X136142181Y-96466549D01*
X136142184Y-96466551D01*
X136331588Y-96563057D01*
X136533757Y-96628746D01*
X136743713Y-96662000D01*
X136743714Y-96662000D01*
X136956286Y-96662000D01*
X136956287Y-96662000D01*
X137166243Y-96628746D01*
X137368412Y-96563057D01*
X137557816Y-96466551D01*
X137579789Y-96450586D01*
X137729786Y-96341609D01*
X137729788Y-96341606D01*
X137729792Y-96341604D01*
X137880104Y-96191292D01*
X137880106Y-96191288D01*
X137880109Y-96191286D01*
X138005048Y-96019320D01*
X138005047Y-96019320D01*
X138005051Y-96019316D01*
X138009798Y-96010000D01*
X180306654Y-96010000D01*
X180326017Y-96305424D01*
X180326018Y-96305436D01*
X180383774Y-96595789D01*
X180383779Y-96595809D01*
X180478937Y-96876137D01*
X180478941Y-96876147D01*
X180609879Y-97141663D01*
X180609888Y-97141678D01*
X180774368Y-97387839D01*
X180969572Y-97610427D01*
X181143393Y-97762864D01*
X181192162Y-97805633D01*
X181438327Y-97970115D01*
X181438330Y-97970116D01*
X181438336Y-97970120D01*
X181703852Y-98101058D01*
X181703862Y-98101062D01*
X181984190Y-98196220D01*
X181984194Y-98196221D01*
X181984203Y-98196224D01*
X182180493Y-98235269D01*
X182274563Y-98253981D01*
X182274564Y-98253981D01*
X182274574Y-98253983D01*
X182570000Y-98273346D01*
X182865426Y-98253983D01*
X183155797Y-98196224D01*
X183155809Y-98196220D01*
X183436137Y-98101062D01*
X183436147Y-98101058D01*
X183701663Y-97970120D01*
X183701663Y-97970119D01*
X183701673Y-97970115D01*
X183947838Y-97805633D01*
X184170427Y-97610427D01*
X184365633Y-97387838D01*
X184530115Y-97141673D01*
X184661059Y-96876145D01*
X184756224Y-96595797D01*
X184813983Y-96305426D01*
X184833346Y-96010000D01*
X184813983Y-95714574D01*
X184808364Y-95686328D01*
X184781542Y-95551483D01*
X184756224Y-95424203D01*
X184747385Y-95398163D01*
X184661062Y-95143862D01*
X184661058Y-95143852D01*
X184530120Y-94878336D01*
X184530111Y-94878321D01*
X184398102Y-94680756D01*
X184365633Y-94632162D01*
X184265275Y-94517726D01*
X184170427Y-94409572D01*
X183947839Y-94214368D01*
X183701678Y-94049888D01*
X183701663Y-94049879D01*
X183436147Y-93918941D01*
X183436137Y-93918937D01*
X183155809Y-93823779D01*
X183155789Y-93823774D01*
X182865436Y-93766018D01*
X182865427Y-93766017D01*
X182865426Y-93766017D01*
X182570000Y-93746654D01*
X182274574Y-93766017D01*
X182274573Y-93766017D01*
X182274563Y-93766018D01*
X181984210Y-93823774D01*
X181984190Y-93823779D01*
X181703862Y-93918937D01*
X181703852Y-93918941D01*
X181438336Y-94049879D01*
X181438321Y-94049888D01*
X181192160Y-94214368D01*
X180969572Y-94409572D01*
X180774368Y-94632160D01*
X180609888Y-94878321D01*
X180609879Y-94878336D01*
X180478941Y-95143852D01*
X180478937Y-95143862D01*
X180383779Y-95424190D01*
X180383774Y-95424210D01*
X180326018Y-95714563D01*
X180326017Y-95714575D01*
X180306654Y-96010000D01*
X138009798Y-96010000D01*
X138101557Y-95829912D01*
X138167246Y-95627743D01*
X138200500Y-95417787D01*
X138200500Y-95205213D01*
X138167246Y-94995257D01*
X138101557Y-94793088D01*
X138005051Y-94603684D01*
X138005049Y-94603681D01*
X138005048Y-94603679D01*
X137880109Y-94431713D01*
X137729786Y-94281390D01*
X137557820Y-94156451D01*
X137368414Y-94059944D01*
X137368413Y-94059943D01*
X137368412Y-94059943D01*
X137166243Y-93994254D01*
X137166241Y-93994253D01*
X137166240Y-93994253D01*
X137004957Y-93968708D01*
X136956287Y-93961000D01*
X136743713Y-93961000D01*
X136695042Y-93968708D01*
X136533760Y-93994253D01*
X136331585Y-94059944D01*
X136142179Y-94156451D01*
X135970213Y-94281390D01*
X135819890Y-94431713D01*
X135694951Y-94603679D01*
X135598444Y-94793085D01*
X135532753Y-94995260D01*
X135499500Y-95205213D01*
X133600500Y-95205213D01*
X133600500Y-81924972D01*
X134894390Y-81924972D01*
X134894390Y-81924975D01*
X134914804Y-82210407D01*
X134975628Y-82490011D01*
X134975630Y-82490017D01*
X134975631Y-82490020D01*
X135069740Y-82742335D01*
X135075635Y-82758140D01*
X135212770Y-83009283D01*
X135212775Y-83009291D01*
X135384254Y-83238361D01*
X135384270Y-83238379D01*
X135586594Y-83440703D01*
X135586612Y-83440719D01*
X135815682Y-83612198D01*
X135815690Y-83612203D01*
X136066833Y-83749338D01*
X136066832Y-83749338D01*
X136066836Y-83749339D01*
X136066839Y-83749341D01*
X136334954Y-83849343D01*
X136334960Y-83849344D01*
X136334962Y-83849345D01*
X136614566Y-83910169D01*
X136614568Y-83910169D01*
X136614572Y-83910170D01*
X136868220Y-83928311D01*
X136899999Y-83930584D01*
X136900000Y-83930584D01*
X136900001Y-83930584D01*
X136928595Y-83928538D01*
X137185428Y-83910170D01*
X137465046Y-83849343D01*
X137733161Y-83749341D01*
X137984315Y-83612200D01*
X138213395Y-83440713D01*
X138415739Y-83238369D01*
X138587226Y-83009289D01*
X138724367Y-82758135D01*
X138824369Y-82490020D01*
X138885196Y-82210402D01*
X138905610Y-81924974D01*
X138885196Y-81639546D01*
X138849765Y-81476673D01*
X138824371Y-81359936D01*
X138824370Y-81359934D01*
X138824369Y-81359928D01*
X138724367Y-81091813D01*
X138674148Y-80999845D01*
X138593493Y-80852135D01*
X142399500Y-80852135D01*
X142399500Y-82547870D01*
X142399501Y-82547876D01*
X142405908Y-82607483D01*
X142456202Y-82742328D01*
X142456206Y-82742335D01*
X142542452Y-82857544D01*
X142542455Y-82857547D01*
X142657664Y-82943793D01*
X142657671Y-82943797D01*
X142792517Y-82994091D01*
X142792516Y-82994091D01*
X142799444Y-82994835D01*
X142852127Y-83000500D01*
X144547872Y-83000499D01*
X144607483Y-82994091D01*
X144742331Y-82943796D01*
X144857546Y-82857546D01*
X144943796Y-82742331D01*
X144994091Y-82607483D01*
X145000500Y-82547873D01*
X145000499Y-80852128D01*
X144994091Y-80792517D01*
X144943796Y-80657669D01*
X144943795Y-80657668D01*
X144943793Y-80657664D01*
X144857547Y-80542455D01*
X144857544Y-80542452D01*
X144742335Y-80456206D01*
X144742328Y-80456202D01*
X144607482Y-80405908D01*
X144607483Y-80405908D01*
X144547883Y-80399501D01*
X144547881Y-80399500D01*
X144547873Y-80399500D01*
X144547864Y-80399500D01*
X142852129Y-80399500D01*
X142852123Y-80399501D01*
X142792516Y-80405908D01*
X142657671Y-80456202D01*
X142657664Y-80456206D01*
X142542455Y-80542452D01*
X142542452Y-80542455D01*
X142456206Y-80657664D01*
X142456202Y-80657671D01*
X142405908Y-80792517D01*
X142400733Y-80840656D01*
X142399501Y-80852123D01*
X142399500Y-80852135D01*
X138593493Y-80852135D01*
X138587229Y-80840664D01*
X138587224Y-80840656D01*
X138415745Y-80611586D01*
X138415729Y-80611568D01*
X138213405Y-80409244D01*
X138213387Y-80409228D01*
X137984317Y-80237749D01*
X137984309Y-80237744D01*
X137733166Y-80100609D01*
X137733167Y-80100609D01*
X137588218Y-80046546D01*
X137465046Y-80000605D01*
X137465043Y-80000604D01*
X137465037Y-80000602D01*
X137185433Y-79939778D01*
X136900001Y-79919364D01*
X136899999Y-79919364D01*
X136614566Y-79939778D01*
X136334962Y-80000602D01*
X136066833Y-80100609D01*
X135815690Y-80237744D01*
X135815682Y-80237749D01*
X135586612Y-80409228D01*
X135586594Y-80409244D01*
X135384270Y-80611568D01*
X135384254Y-80611586D01*
X135212775Y-80840656D01*
X135212770Y-80840664D01*
X135075635Y-81091807D01*
X134975628Y-81359936D01*
X134914804Y-81639540D01*
X134894390Y-81924972D01*
X133600500Y-81924972D01*
X133600500Y-76699998D01*
X142394532Y-76699998D01*
X142394532Y-76700001D01*
X142414364Y-76926686D01*
X142414366Y-76926697D01*
X142473258Y-77146488D01*
X142473261Y-77146497D01*
X142569431Y-77352732D01*
X142569432Y-77352734D01*
X142699954Y-77539141D01*
X142860858Y-77700045D01*
X142905073Y-77731004D01*
X143047266Y-77830568D01*
X143253504Y-77926739D01*
X143473308Y-77985635D01*
X143635230Y-77999801D01*
X143699998Y-78005468D01*
X143700000Y-78005468D01*
X143700002Y-78005468D01*
X143756673Y-78000509D01*
X143926692Y-77985635D01*
X144146496Y-77926739D01*
X144352734Y-77830568D01*
X144539139Y-77700047D01*
X144700047Y-77539139D01*
X144830568Y-77352734D01*
X144926739Y-77146496D01*
X144985635Y-76926692D01*
X145005468Y-76700000D01*
X144985635Y-76473308D01*
X144926739Y-76253504D01*
X144830568Y-76047266D01*
X144713319Y-75879815D01*
X144700045Y-75860858D01*
X144539141Y-75699954D01*
X144352734Y-75569432D01*
X144352732Y-75569431D01*
X144146497Y-75473261D01*
X144146488Y-75473258D01*
X143926697Y-75414366D01*
X143926693Y-75414365D01*
X143926692Y-75414365D01*
X143926691Y-75414364D01*
X143926686Y-75414364D01*
X143700002Y-75394532D01*
X143699998Y-75394532D01*
X143473313Y-75414364D01*
X143473302Y-75414366D01*
X143253511Y-75473258D01*
X143253502Y-75473261D01*
X143047267Y-75569431D01*
X143047265Y-75569432D01*
X142860858Y-75699954D01*
X142699954Y-75860858D01*
X142569432Y-76047265D01*
X142569431Y-76047267D01*
X142473261Y-76253502D01*
X142473258Y-76253511D01*
X142414366Y-76473302D01*
X142414364Y-76473313D01*
X142394532Y-76699998D01*
X133600500Y-76699998D01*
X133600500Y-62892972D01*
X134894390Y-62892972D01*
X134894390Y-62892975D01*
X134914804Y-63178407D01*
X134975628Y-63458011D01*
X134975630Y-63458017D01*
X134975631Y-63458020D01*
X135034094Y-63614764D01*
X135075635Y-63726140D01*
X135212770Y-63977283D01*
X135212775Y-63977291D01*
X135384254Y-64206361D01*
X135384270Y-64206379D01*
X135586594Y-64408703D01*
X135586612Y-64408719D01*
X135815682Y-64580198D01*
X135815690Y-64580203D01*
X136066833Y-64717338D01*
X136066832Y-64717338D01*
X136066836Y-64717339D01*
X136066839Y-64717341D01*
X136334954Y-64817343D01*
X136334960Y-64817344D01*
X136334962Y-64817345D01*
X136614566Y-64878169D01*
X136614568Y-64878169D01*
X136614572Y-64878170D01*
X136868220Y-64896311D01*
X136899999Y-64898584D01*
X136900000Y-64898584D01*
X136900001Y-64898584D01*
X136928595Y-64896538D01*
X137185428Y-64878170D01*
X137408449Y-64829655D01*
X137465037Y-64817345D01*
X137465037Y-64817344D01*
X137465046Y-64817343D01*
X137733161Y-64717341D01*
X137984315Y-64580200D01*
X138213395Y-64408713D01*
X138415739Y-64206369D01*
X138587226Y-63977289D01*
X138724367Y-63726135D01*
X138824369Y-63458020D01*
X138827166Y-63445164D01*
X138885195Y-63178407D01*
X138885195Y-63178406D01*
X138885196Y-63178402D01*
X138905610Y-62892974D01*
X138885196Y-62607546D01*
X138884843Y-62605925D01*
X138824371Y-62327936D01*
X138824370Y-62327934D01*
X138824369Y-62327928D01*
X138724367Y-62059813D01*
X138664665Y-61950478D01*
X138587229Y-61808664D01*
X138587224Y-61808656D01*
X138415745Y-61579586D01*
X138415729Y-61579568D01*
X138213405Y-61377244D01*
X138213387Y-61377228D01*
X137984317Y-61205749D01*
X137984309Y-61205744D01*
X137733166Y-61068609D01*
X137733167Y-61068609D01*
X137591714Y-61015850D01*
X137465046Y-60968605D01*
X137465043Y-60968604D01*
X137465037Y-60968602D01*
X137185433Y-60907778D01*
X136900001Y-60887364D01*
X136899999Y-60887364D01*
X136614566Y-60907778D01*
X136334962Y-60968602D01*
X136066833Y-61068609D01*
X135815690Y-61205744D01*
X135815684Y-61205748D01*
X135665246Y-61318362D01*
X135659830Y-61322195D01*
X135588460Y-61369884D01*
X135490885Y-61467458D01*
X135486604Y-61473866D01*
X135471185Y-61492653D01*
X135384268Y-61579571D01*
X135384251Y-61579590D01*
X135212775Y-61808656D01*
X135212770Y-61808664D01*
X135075635Y-62059807D01*
X134975628Y-62327936D01*
X134914804Y-62607540D01*
X134894390Y-62892972D01*
X133600500Y-62892972D01*
X133600500Y-60682697D01*
X142025000Y-60682697D01*
X142039800Y-60795104D01*
X142039801Y-60795108D01*
X142097736Y-60934978D01*
X142189905Y-61055094D01*
X142310021Y-61147263D01*
X142449891Y-61205198D01*
X142449895Y-61205199D01*
X142562302Y-61219999D01*
X142562317Y-61220000D01*
X142575000Y-61220000D01*
X142575000Y-59985000D01*
X142025000Y-59985000D01*
X142025000Y-60682697D01*
X133600500Y-60682697D01*
X133600500Y-58787302D01*
X142025000Y-58787302D01*
X142025000Y-59485000D01*
X142575000Y-59485000D01*
X142575000Y-58250000D01*
X142562302Y-58250000D01*
X142449895Y-58264800D01*
X142449891Y-58264801D01*
X142310021Y-58322736D01*
X142189905Y-58414905D01*
X142097736Y-58535021D01*
X142039801Y-58674891D01*
X142039800Y-58674895D01*
X142025000Y-58787302D01*
X133600500Y-58787302D01*
X133600500Y-52624500D01*
X133620185Y-52557461D01*
X133672989Y-52511706D01*
X133724500Y-52500500D01*
X147613291Y-52500500D01*
X147680330Y-52520185D01*
G37*
%TD.AperFunction*%
%TA.AperFunction,Conductor*%
G36*
X178478837Y-74375743D02*
G01*
X178505160Y-74395817D01*
X178763181Y-74653838D01*
X178796666Y-74715161D01*
X178799500Y-74741519D01*
X178799500Y-87471006D01*
X178799500Y-87608994D01*
X178799500Y-87608996D01*
X178799499Y-87608996D01*
X178826418Y-87744322D01*
X178826421Y-87744332D01*
X178879222Y-87871807D01*
X178955887Y-87986545D01*
X178955888Y-87986546D01*
X179373181Y-88403838D01*
X179406666Y-88465161D01*
X179409500Y-88491519D01*
X179409500Y-89648479D01*
X179389815Y-89715518D01*
X179373181Y-89736160D01*
X175675887Y-93433454D01*
X175607703Y-93535500D01*
X175607702Y-93535499D01*
X175599227Y-93548185D01*
X175599222Y-93548193D01*
X175546420Y-93675669D01*
X175546417Y-93675681D01*
X175542249Y-93696632D01*
X175509862Y-93758542D01*
X175495363Y-93771388D01*
X175491013Y-93774672D01*
X175326051Y-93925054D01*
X175191526Y-94103195D01*
X175092026Y-94303018D01*
X175092023Y-94303024D01*
X175069266Y-94383011D01*
X175031987Y-94442104D01*
X174968678Y-94471662D01*
X174899438Y-94462300D01*
X174846252Y-94416991D01*
X174830734Y-94383011D01*
X174807976Y-94303024D01*
X174807973Y-94303018D01*
X174752978Y-94192573D01*
X174708474Y-94103196D01*
X174573950Y-93925057D01*
X174408983Y-93774670D01*
X174408979Y-93774667D01*
X174408974Y-93774664D01*
X174219195Y-93657158D01*
X174219189Y-93657156D01*
X174011039Y-93576518D01*
X173791613Y-93535500D01*
X173568387Y-93535500D01*
X173348961Y-93576518D01*
X173250970Y-93614480D01*
X173140810Y-93657156D01*
X173140804Y-93657158D01*
X172951025Y-93774664D01*
X172951015Y-93774671D01*
X172786051Y-93925055D01*
X172651526Y-94103195D01*
X172552026Y-94303018D01*
X172552024Y-94303022D01*
X172529005Y-94383926D01*
X172491725Y-94443019D01*
X172428416Y-94472576D01*
X172359176Y-94463214D01*
X172305990Y-94417904D01*
X172290472Y-94383925D01*
X172267503Y-94303196D01*
X172267501Y-94303191D01*
X172168046Y-94103458D01*
X172151716Y-94081836D01*
X171582138Y-94651414D01*
X171559333Y-94566306D01*
X171500090Y-94463694D01*
X171416306Y-94379910D01*
X171313694Y-94320667D01*
X171228584Y-94297861D01*
X171796232Y-93730213D01*
X171678966Y-93657605D01*
X171678965Y-93657604D01*
X171470904Y-93577002D01*
X171251565Y-93536000D01*
X171028435Y-93536000D01*
X170809095Y-93577002D01*
X170601034Y-93657604D01*
X170601028Y-93657607D01*
X170483767Y-93730212D01*
X170483766Y-93730213D01*
X171051415Y-94297861D01*
X170966306Y-94320667D01*
X170863694Y-94379910D01*
X170779910Y-94463694D01*
X170720667Y-94566306D01*
X170697861Y-94651415D01*
X170128282Y-94081836D01*
X170128281Y-94081836D01*
X170111953Y-94103458D01*
X170012498Y-94303191D01*
X170012493Y-94303204D01*
X169989526Y-94383926D01*
X169952247Y-94443019D01*
X169888937Y-94472576D01*
X169819697Y-94463214D01*
X169766511Y-94417904D01*
X169750994Y-94383925D01*
X169727976Y-94303024D01*
X169727973Y-94303018D01*
X169672978Y-94192573D01*
X169628474Y-94103196D01*
X169493950Y-93925057D01*
X169328983Y-93774670D01*
X169328979Y-93774667D01*
X169328974Y-93774664D01*
X169139195Y-93657158D01*
X169139189Y-93657156D01*
X168931039Y-93576518D01*
X168711613Y-93535500D01*
X168488387Y-93535500D01*
X168268961Y-93576518D01*
X168170970Y-93614480D01*
X168060810Y-93657156D01*
X168060804Y-93657158D01*
X167871025Y-93774664D01*
X167871015Y-93774671D01*
X167706051Y-93925055D01*
X167571526Y-94103195D01*
X167472026Y-94303018D01*
X167472023Y-94303024D01*
X167449266Y-94383011D01*
X167411987Y-94442104D01*
X167348678Y-94471662D01*
X167279438Y-94462300D01*
X167226252Y-94416991D01*
X167210734Y-94383011D01*
X167187976Y-94303024D01*
X167187973Y-94303018D01*
X167132978Y-94192573D01*
X167088474Y-94103196D01*
X166953950Y-93925057D01*
X166788983Y-93774670D01*
X166788979Y-93774667D01*
X166788974Y-93774664D01*
X166599195Y-93657158D01*
X166599189Y-93657156D01*
X166391039Y-93576518D01*
X166171613Y-93535500D01*
X165948387Y-93535500D01*
X165728961Y-93576518D01*
X165630970Y-93614480D01*
X165520810Y-93657156D01*
X165520804Y-93657158D01*
X165331025Y-93774664D01*
X165331015Y-93774671D01*
X165166051Y-93925055D01*
X165031526Y-94103195D01*
X164932026Y-94303018D01*
X164932023Y-94303024D01*
X164909266Y-94383011D01*
X164871987Y-94442104D01*
X164808678Y-94471662D01*
X164739438Y-94462300D01*
X164686252Y-94416991D01*
X164670734Y-94383011D01*
X164647976Y-94303024D01*
X164647973Y-94303018D01*
X164592978Y-94192573D01*
X164548474Y-94103196D01*
X164413950Y-93925057D01*
X164248983Y-93774670D01*
X164248979Y-93774667D01*
X164248974Y-93774664D01*
X164059195Y-93657158D01*
X164059189Y-93657156D01*
X163851039Y-93576518D01*
X163631613Y-93535500D01*
X163408387Y-93535500D01*
X163188961Y-93576518D01*
X163090970Y-93614480D01*
X162980810Y-93657156D01*
X162980804Y-93657158D01*
X162791025Y-93774664D01*
X162791015Y-93774671D01*
X162626051Y-93925055D01*
X162491526Y-94103195D01*
X162392026Y-94303018D01*
X162392023Y-94303024D01*
X162369266Y-94383011D01*
X162331987Y-94442104D01*
X162268678Y-94471662D01*
X162199438Y-94462300D01*
X162146252Y-94416991D01*
X162130734Y-94383011D01*
X162107976Y-94303024D01*
X162107973Y-94303018D01*
X162052978Y-94192573D01*
X162008474Y-94103196D01*
X161873950Y-93925057D01*
X161708983Y-93774670D01*
X161708979Y-93774667D01*
X161708974Y-93774664D01*
X161519195Y-93657158D01*
X161519189Y-93657156D01*
X161311039Y-93576518D01*
X161091613Y-93535500D01*
X160868387Y-93535500D01*
X160648961Y-93576518D01*
X160550970Y-93614480D01*
X160440810Y-93657156D01*
X160440804Y-93657158D01*
X160251025Y-93774664D01*
X160251015Y-93774671D01*
X160086051Y-93925055D01*
X159951526Y-94103195D01*
X159852026Y-94303018D01*
X159852023Y-94303024D01*
X159829266Y-94383011D01*
X159791987Y-94442104D01*
X159728678Y-94471662D01*
X159659438Y-94462300D01*
X159606252Y-94416991D01*
X159590734Y-94383011D01*
X159567976Y-94303024D01*
X159567973Y-94303018D01*
X159512978Y-94192573D01*
X159468474Y-94103196D01*
X159333950Y-93925057D01*
X159168983Y-93774670D01*
X159168979Y-93774667D01*
X159168974Y-93774664D01*
X158979195Y-93657158D01*
X158979189Y-93657156D01*
X158771039Y-93576518D01*
X158551613Y-93535500D01*
X158328387Y-93535500D01*
X158108961Y-93576518D01*
X158010970Y-93614480D01*
X157900810Y-93657156D01*
X157900804Y-93657158D01*
X157711025Y-93774664D01*
X157711015Y-93774671D01*
X157546051Y-93925055D01*
X157411526Y-94103195D01*
X157312026Y-94303018D01*
X157312023Y-94303024D01*
X157289266Y-94383011D01*
X157251987Y-94442104D01*
X157188678Y-94471662D01*
X157119438Y-94462300D01*
X157066252Y-94416991D01*
X157050734Y-94383011D01*
X157027976Y-94303024D01*
X157027973Y-94303018D01*
X156972978Y-94192573D01*
X156928474Y-94103196D01*
X156793950Y-93925057D01*
X156628983Y-93774670D01*
X156628979Y-93774667D01*
X156628974Y-93774664D01*
X156439195Y-93657158D01*
X156439189Y-93657156D01*
X156231039Y-93576518D01*
X156011613Y-93535500D01*
X155788387Y-93535500D01*
X155568961Y-93576518D01*
X155470970Y-93614480D01*
X155360810Y-93657156D01*
X155360804Y-93657158D01*
X155171025Y-93774664D01*
X155171015Y-93774671D01*
X155006051Y-93925055D01*
X154871526Y-94103195D01*
X154772026Y-94303018D01*
X154772023Y-94303024D01*
X154749266Y-94383011D01*
X154711987Y-94442104D01*
X154648678Y-94471662D01*
X154579438Y-94462300D01*
X154526252Y-94416991D01*
X154510734Y-94383011D01*
X154487976Y-94303024D01*
X154487973Y-94303018D01*
X154432978Y-94192573D01*
X154388474Y-94103196D01*
X154253950Y-93925057D01*
X154253948Y-93925054D01*
X154100962Y-93785589D01*
X154064680Y-93725878D01*
X154060500Y-93693952D01*
X154060500Y-93681519D01*
X154080185Y-93614480D01*
X154096819Y-93593838D01*
X156084112Y-91606545D01*
X156084114Y-91606543D01*
X156160775Y-91491811D01*
X156213580Y-91364328D01*
X156240500Y-91228994D01*
X156240500Y-91091006D01*
X156240500Y-88801519D01*
X156260185Y-88734480D01*
X156276819Y-88713838D01*
X157353838Y-87636819D01*
X157415161Y-87603334D01*
X157441519Y-87600500D01*
X159817114Y-87600500D01*
X159884153Y-87620185D01*
X159929908Y-87672989D01*
X159939852Y-87742147D01*
X159910827Y-87805703D01*
X159901455Y-87815398D01*
X159818500Y-87892368D01*
X159818492Y-87892377D01*
X159653042Y-88099845D01*
X159520361Y-88329654D01*
X159423416Y-88576667D01*
X159423410Y-88576686D01*
X159364364Y-88835385D01*
X159364363Y-88835390D01*
X159344535Y-89099995D01*
X159344535Y-89100004D01*
X159364363Y-89364609D01*
X159364364Y-89364614D01*
X159423410Y-89623313D01*
X159423412Y-89623322D01*
X159423414Y-89623327D01*
X159520361Y-89870345D01*
X159653042Y-90100155D01*
X159818492Y-90307623D01*
X160013016Y-90488114D01*
X160232268Y-90637598D01*
X160471350Y-90752734D01*
X160724922Y-90830950D01*
X160724923Y-90830950D01*
X160724926Y-90830951D01*
X160987311Y-90870499D01*
X160987316Y-90870499D01*
X160987319Y-90870500D01*
X160987320Y-90870500D01*
X161252680Y-90870500D01*
X161252681Y-90870500D01*
X161257040Y-90869843D01*
X161515073Y-90830951D01*
X161515074Y-90830950D01*
X161515078Y-90830950D01*
X161768650Y-90752734D01*
X162007733Y-90637598D01*
X162226984Y-90488114D01*
X162421508Y-90307623D01*
X162586958Y-90100155D01*
X162719639Y-89870345D01*
X162816586Y-89623327D01*
X162875635Y-89364619D01*
X162877060Y-89345606D01*
X162895465Y-89100004D01*
X162895465Y-89099995D01*
X162875636Y-88835390D01*
X162875635Y-88835385D01*
X162875635Y-88835381D01*
X162816586Y-88576673D01*
X162719639Y-88329655D01*
X162586958Y-88099845D01*
X162421508Y-87892377D01*
X162421502Y-87892371D01*
X162421499Y-87892368D01*
X162338545Y-87815398D01*
X162302790Y-87755370D01*
X162305165Y-87685541D01*
X162344916Y-87628081D01*
X162409421Y-87601233D01*
X162422886Y-87600500D01*
X167968996Y-87600500D01*
X168060040Y-87582389D01*
X168104328Y-87573580D01*
X168217828Y-87526567D01*
X168231807Y-87520777D01*
X168231808Y-87520776D01*
X168231811Y-87520775D01*
X168346543Y-87444114D01*
X175239114Y-80551543D01*
X175315775Y-80436811D01*
X175368580Y-80309329D01*
X175384459Y-80229500D01*
X175386194Y-80220779D01*
X175386194Y-80220775D01*
X175395500Y-80173993D01*
X175395500Y-78096519D01*
X175415185Y-78029480D01*
X175431819Y-78008838D01*
X175448838Y-77991819D01*
X175510161Y-77958334D01*
X175536519Y-77955500D01*
X175941938Y-77955500D01*
X175941944Y-77955500D01*
X176030613Y-77944852D01*
X176171711Y-77889210D01*
X176292564Y-77797564D01*
X176384210Y-77676711D01*
X176439852Y-77535613D01*
X176450500Y-77446944D01*
X176450500Y-77053056D01*
X176450439Y-77052552D01*
X176447336Y-77026711D01*
X176439852Y-76964387D01*
X176439849Y-76964381D01*
X176437903Y-76956675D01*
X176440948Y-76955905D01*
X176435969Y-76900944D01*
X176438185Y-76893396D01*
X176437903Y-76893325D01*
X176439849Y-76885620D01*
X176439852Y-76885613D01*
X176450500Y-76796944D01*
X176450500Y-76403056D01*
X176439852Y-76314387D01*
X176439849Y-76314381D01*
X176437903Y-76306675D01*
X176440948Y-76305905D01*
X176435969Y-76250944D01*
X176438185Y-76243396D01*
X176437903Y-76243325D01*
X176439849Y-76235620D01*
X176439852Y-76235613D01*
X176450500Y-76146944D01*
X176450500Y-75753056D01*
X176439852Y-75664387D01*
X176439849Y-75664381D01*
X176437903Y-75656675D01*
X176440948Y-75655905D01*
X176435969Y-75600944D01*
X176438185Y-75593396D01*
X176437903Y-75593325D01*
X176439850Y-75585617D01*
X176439852Y-75585613D01*
X176450500Y-75496944D01*
X176450500Y-75103056D01*
X176439852Y-75014387D01*
X176439849Y-75014381D01*
X176437903Y-75006675D01*
X176440948Y-75005905D01*
X176435969Y-74950944D01*
X176438185Y-74943396D01*
X176437903Y-74943325D01*
X176439850Y-74935617D01*
X176439852Y-74935613D01*
X176450500Y-74846944D01*
X176450500Y-74740519D01*
X176470185Y-74673480D01*
X176522989Y-74627725D01*
X176592147Y-74617781D01*
X176655703Y-74646806D01*
X176662181Y-74652838D01*
X176863181Y-74853838D01*
X176896666Y-74915161D01*
X176899500Y-74941519D01*
X176899500Y-82158480D01*
X176879815Y-82225519D01*
X176863181Y-82246161D01*
X172946160Y-86163181D01*
X172884837Y-86196666D01*
X172858479Y-86199500D01*
X171752129Y-86199500D01*
X171752123Y-86199501D01*
X171692516Y-86205908D01*
X171557671Y-86256202D01*
X171557664Y-86256206D01*
X171442455Y-86342452D01*
X171442452Y-86342455D01*
X171356206Y-86457664D01*
X171356202Y-86457671D01*
X171305908Y-86592517D01*
X171299501Y-86652116D01*
X171299500Y-86652135D01*
X171299500Y-88347870D01*
X171299501Y-88347876D01*
X171305908Y-88407483D01*
X171356202Y-88542328D01*
X171356206Y-88542335D01*
X171442452Y-88657544D01*
X171442453Y-88657544D01*
X171442454Y-88657546D01*
X171451545Y-88664351D01*
X171493416Y-88720282D01*
X171498402Y-88789974D01*
X171478813Y-88834736D01*
X171469871Y-88847507D01*
X171469868Y-88847512D01*
X171373734Y-89053673D01*
X171373730Y-89053682D01*
X171314860Y-89273389D01*
X171314858Y-89273400D01*
X171295034Y-89499997D01*
X171295034Y-89500002D01*
X171314858Y-89726599D01*
X171314860Y-89726610D01*
X171373730Y-89946317D01*
X171373735Y-89946331D01*
X171469863Y-90152478D01*
X171520974Y-90225472D01*
X172200000Y-89546446D01*
X172200000Y-89552661D01*
X172227259Y-89654394D01*
X172279920Y-89745606D01*
X172354394Y-89820080D01*
X172445606Y-89872741D01*
X172547339Y-89900000D01*
X172553553Y-89900000D01*
X171874526Y-90579025D01*
X171947513Y-90630132D01*
X171947521Y-90630136D01*
X172153668Y-90726264D01*
X172153682Y-90726269D01*
X172373389Y-90785139D01*
X172373400Y-90785141D01*
X172599998Y-90804966D01*
X172600002Y-90804966D01*
X172826599Y-90785141D01*
X172826610Y-90785139D01*
X173046317Y-90726269D01*
X173046331Y-90726264D01*
X173252478Y-90630136D01*
X173325471Y-90579024D01*
X172646447Y-89900000D01*
X172652661Y-89900000D01*
X172754394Y-89872741D01*
X172845606Y-89820080D01*
X172920080Y-89745606D01*
X172972741Y-89654394D01*
X173000000Y-89552661D01*
X173000000Y-89546447D01*
X173679024Y-90225471D01*
X173730136Y-90152478D01*
X173826264Y-89946331D01*
X173826269Y-89946317D01*
X173885139Y-89726610D01*
X173885141Y-89726599D01*
X173904966Y-89500002D01*
X173904966Y-89499997D01*
X173885141Y-89273400D01*
X173885139Y-89273389D01*
X173826269Y-89053682D01*
X173826265Y-89053673D01*
X173730134Y-88847518D01*
X173730130Y-88847512D01*
X173721188Y-88834740D01*
X173698861Y-88768534D01*
X173715873Y-88700767D01*
X173748454Y-88664351D01*
X173757546Y-88657546D01*
X173843796Y-88542331D01*
X173894091Y-88407483D01*
X173900500Y-88347873D01*
X173900499Y-87241517D01*
X173920184Y-87174479D01*
X173936813Y-87153842D01*
X178144114Y-82946543D01*
X178220775Y-82831811D01*
X178221109Y-82831006D01*
X178257840Y-82742328D01*
X178273580Y-82704328D01*
X178300500Y-82568994D01*
X178300500Y-82431006D01*
X178300500Y-74531007D01*
X178295862Y-74507691D01*
X178302088Y-74438100D01*
X178344950Y-74382922D01*
X178410839Y-74359676D01*
X178478837Y-74375743D01*
G37*
%TD.AperFunction*%
%TA.AperFunction,Conductor*%
G36*
X171334856Y-70820185D02*
G01*
X171355498Y-70836819D01*
X173762789Y-73244111D01*
X173762790Y-73244112D01*
X173762793Y-73244114D01*
X173877525Y-73320775D01*
X173877526Y-73320775D01*
X173877530Y-73320778D01*
X173882899Y-73323648D01*
X173881681Y-73325924D01*
X173927333Y-73362688D01*
X173949420Y-73428975D01*
X173949500Y-73433442D01*
X173949500Y-73546944D01*
X173956276Y-73603369D01*
X173960148Y-73635617D01*
X173962095Y-73643317D01*
X173959068Y-73644082D01*
X173964008Y-73699170D01*
X173961822Y-73706614D01*
X173962095Y-73706683D01*
X173960148Y-73714382D01*
X173956407Y-73745537D01*
X173949500Y-73803056D01*
X173949500Y-74196944D01*
X173956276Y-74253369D01*
X173960148Y-74285617D01*
X173962095Y-74293317D01*
X173959068Y-74294082D01*
X173964008Y-74349170D01*
X173961822Y-74356614D01*
X173962095Y-74356683D01*
X173960148Y-74364382D01*
X173958784Y-74375743D01*
X173949500Y-74453056D01*
X173949500Y-74846944D01*
X173956276Y-74903369D01*
X173960148Y-74935617D01*
X173962095Y-74943317D01*
X173959068Y-74944082D01*
X173964008Y-74999170D01*
X173961822Y-75006614D01*
X173962095Y-75006683D01*
X173960148Y-75014382D01*
X173956287Y-75046541D01*
X173949500Y-75103056D01*
X173949500Y-75496944D01*
X173956276Y-75553369D01*
X173960148Y-75585617D01*
X173962095Y-75593317D01*
X173959068Y-75594082D01*
X173964008Y-75649170D01*
X173961822Y-75656614D01*
X173962095Y-75656683D01*
X173960148Y-75664382D01*
X173957100Y-75689769D01*
X173949500Y-75753056D01*
X173949500Y-75753062D01*
X173949500Y-75775500D01*
X173929815Y-75842539D01*
X173877011Y-75888294D01*
X173825500Y-75899500D01*
X173641519Y-75899500D01*
X173574480Y-75879815D01*
X173553838Y-75863181D01*
X173226027Y-75535370D01*
X173192542Y-75474047D01*
X173190488Y-75433810D01*
X173205565Y-75300000D01*
X173202908Y-75276421D01*
X173185369Y-75120750D01*
X173185368Y-75120745D01*
X173168864Y-75073579D01*
X173125789Y-74950478D01*
X173121294Y-74943325D01*
X173060730Y-74846937D01*
X173029816Y-74797738D01*
X172902262Y-74670184D01*
X172893397Y-74664614D01*
X172749523Y-74574211D01*
X172579254Y-74514631D01*
X172579249Y-74514630D01*
X172400004Y-74494435D01*
X172399996Y-74494435D01*
X172220750Y-74514630D01*
X172220745Y-74514631D01*
X172050476Y-74574211D01*
X171897737Y-74670184D01*
X171770184Y-74797737D01*
X171674211Y-74950476D01*
X171614631Y-75120745D01*
X171614630Y-75120750D01*
X171594435Y-75299996D01*
X171594435Y-75300003D01*
X171614630Y-75479249D01*
X171614631Y-75479254D01*
X171674212Y-75649525D01*
X171680492Y-75659519D01*
X171699500Y-75725493D01*
X171699500Y-75768994D01*
X171699500Y-75768996D01*
X171699499Y-75768996D01*
X171726418Y-75904322D01*
X171726421Y-75904332D01*
X171779222Y-76031807D01*
X171855887Y-76146545D01*
X172221661Y-76512319D01*
X172255146Y-76573642D01*
X172250162Y-76643334D01*
X172221661Y-76687681D01*
X171555890Y-77353451D01*
X171555887Y-77353454D01*
X171523276Y-77402262D01*
X171479228Y-77468183D01*
X171479221Y-77468195D01*
X171426421Y-77595667D01*
X171426418Y-77595677D01*
X171399500Y-77731004D01*
X171399500Y-79258481D01*
X171379815Y-79325520D01*
X171363181Y-79346162D01*
X165946162Y-84763181D01*
X165884839Y-84796666D01*
X165858481Y-84799500D01*
X150531003Y-84799500D01*
X150422590Y-84821065D01*
X150422589Y-84821065D01*
X150395671Y-84826420D01*
X150268190Y-84879224D01*
X150153454Y-84955887D01*
X147755887Y-87353454D01*
X147717231Y-87411309D01*
X147679228Y-87468183D01*
X147679221Y-87468195D01*
X147626421Y-87595667D01*
X147626418Y-87595677D01*
X147599500Y-87731004D01*
X147599500Y-93676313D01*
X147579815Y-93743352D01*
X147554810Y-93770322D01*
X147555253Y-93770808D01*
X147386051Y-93925054D01*
X147251526Y-94103195D01*
X147152026Y-94303018D01*
X147152023Y-94303024D01*
X147129266Y-94383011D01*
X147091987Y-94442104D01*
X147028678Y-94471662D01*
X146959438Y-94462300D01*
X146906252Y-94416991D01*
X146890734Y-94383011D01*
X146867976Y-94303024D01*
X146867973Y-94303018D01*
X146812978Y-94192573D01*
X146768474Y-94103196D01*
X146633950Y-93925057D01*
X146468983Y-93774670D01*
X146468979Y-93774667D01*
X146468974Y-93774664D01*
X146279195Y-93657158D01*
X146279189Y-93657156D01*
X146071039Y-93576518D01*
X145851613Y-93535500D01*
X145628387Y-93535500D01*
X145408961Y-93576518D01*
X145310970Y-93614480D01*
X145200810Y-93657156D01*
X145200804Y-93657158D01*
X145011025Y-93774664D01*
X145011015Y-93774671D01*
X144846051Y-93925055D01*
X144711526Y-94103195D01*
X144612026Y-94303018D01*
X144612023Y-94303024D01*
X144589266Y-94383011D01*
X144551987Y-94442104D01*
X144488678Y-94471662D01*
X144419438Y-94462300D01*
X144366252Y-94416991D01*
X144350734Y-94383011D01*
X144327976Y-94303024D01*
X144327973Y-94303018D01*
X144272978Y-94192573D01*
X144228474Y-94103196D01*
X144093950Y-93925057D01*
X143928983Y-93774670D01*
X143928979Y-93774667D01*
X143928974Y-93774664D01*
X143739195Y-93657158D01*
X143739189Y-93657156D01*
X143531039Y-93576518D01*
X143311613Y-93535500D01*
X143088387Y-93535500D01*
X142868961Y-93576518D01*
X142770970Y-93614480D01*
X142660810Y-93657156D01*
X142660804Y-93657158D01*
X142471025Y-93774664D01*
X142471015Y-93774671D01*
X142306051Y-93925055D01*
X142171526Y-94103195D01*
X142099499Y-94247845D01*
X142051996Y-94299082D01*
X141984333Y-94316503D01*
X141917993Y-94294577D01*
X141874038Y-94240266D01*
X141864499Y-94192573D01*
X141864499Y-93988129D01*
X141864498Y-93988123D01*
X141864497Y-93988116D01*
X141858091Y-93928517D01*
X141856799Y-93925054D01*
X141807797Y-93793671D01*
X141807793Y-93793664D01*
X141721547Y-93678455D01*
X141721544Y-93678452D01*
X141606335Y-93592206D01*
X141606328Y-93592202D01*
X141481167Y-93545520D01*
X141425233Y-93503649D01*
X141400816Y-93438184D01*
X141400500Y-93429338D01*
X141400500Y-91041519D01*
X141420185Y-90974480D01*
X141436819Y-90953838D01*
X149044112Y-83346545D01*
X149044114Y-83346543D01*
X149120775Y-83231811D01*
X149123239Y-83225864D01*
X149173578Y-83104332D01*
X149173580Y-83104328D01*
X149183954Y-83052175D01*
X149200500Y-82968996D01*
X149200500Y-82814543D01*
X149220185Y-82747504D01*
X149272989Y-82701749D01*
X149342147Y-82691805D01*
X149405703Y-82720830D01*
X149437905Y-82766382D01*
X149438350Y-82766169D01*
X149439622Y-82768811D01*
X149439929Y-82769246D01*
X149440255Y-82770075D01*
X149440362Y-82770348D01*
X149490707Y-82857547D01*
X149573042Y-83000155D01*
X149738492Y-83207623D01*
X149933016Y-83388114D01*
X150152268Y-83537598D01*
X150152273Y-83537600D01*
X150152274Y-83537601D01*
X150152276Y-83537602D01*
X150173496Y-83547821D01*
X150391350Y-83652734D01*
X150644922Y-83730950D01*
X150644923Y-83730950D01*
X150644926Y-83730951D01*
X150907311Y-83770499D01*
X150907316Y-83770499D01*
X150907319Y-83770500D01*
X150907320Y-83770500D01*
X151172680Y-83770500D01*
X151172681Y-83770500D01*
X151172688Y-83770499D01*
X151435073Y-83730951D01*
X151435074Y-83730950D01*
X151435078Y-83730950D01*
X151688650Y-83652734D01*
X151880071Y-83560550D01*
X151927725Y-83537602D01*
X151927725Y-83537601D01*
X151927733Y-83537598D01*
X152146984Y-83388114D01*
X152341508Y-83207623D01*
X152506958Y-83000155D01*
X152639639Y-82770345D01*
X152736586Y-82523327D01*
X152795635Y-82264619D01*
X152799740Y-82209843D01*
X152815465Y-82000004D01*
X152815465Y-81999995D01*
X159424535Y-81999995D01*
X159424535Y-82000004D01*
X159444363Y-82264609D01*
X159444364Y-82264614D01*
X159503410Y-82523313D01*
X159503412Y-82523322D01*
X159503414Y-82523327D01*
X159600361Y-82770345D01*
X159733042Y-83000155D01*
X159898492Y-83207623D01*
X160093016Y-83388114D01*
X160312268Y-83537598D01*
X160312273Y-83537600D01*
X160312274Y-83537601D01*
X160312276Y-83537602D01*
X160333496Y-83547821D01*
X160551350Y-83652734D01*
X160804922Y-83730950D01*
X160804923Y-83730950D01*
X160804926Y-83730951D01*
X161067311Y-83770499D01*
X161067316Y-83770499D01*
X161067319Y-83770500D01*
X161067320Y-83770500D01*
X161332680Y-83770500D01*
X161332681Y-83770500D01*
X161332688Y-83770499D01*
X161595073Y-83730951D01*
X161595074Y-83730950D01*
X161595078Y-83730950D01*
X161848650Y-83652734D01*
X162040071Y-83560550D01*
X162087725Y-83537602D01*
X162087725Y-83537601D01*
X162087733Y-83537598D01*
X162306984Y-83388114D01*
X162501508Y-83207623D01*
X162666958Y-83000155D01*
X162799639Y-82770345D01*
X162896586Y-82523327D01*
X162955635Y-82264619D01*
X162959740Y-82209843D01*
X162975465Y-82000004D01*
X162975465Y-81999995D01*
X162955636Y-81735390D01*
X162955635Y-81735385D01*
X162955635Y-81735381D01*
X162896586Y-81476673D01*
X162799639Y-81229655D01*
X162666958Y-80999845D01*
X162501508Y-80792377D01*
X162306984Y-80611886D01*
X162087733Y-80462402D01*
X162087732Y-80462401D01*
X162087725Y-80462397D01*
X161848655Y-80347268D01*
X161848636Y-80347261D01*
X161595083Y-80269051D01*
X161595073Y-80269048D01*
X161332688Y-80229500D01*
X161332681Y-80229500D01*
X161067319Y-80229500D01*
X161067311Y-80229500D01*
X160804926Y-80269048D01*
X160804916Y-80269051D01*
X160551363Y-80347261D01*
X160551344Y-80347268D01*
X160312276Y-80462397D01*
X160312274Y-80462398D01*
X160093015Y-80611886D01*
X159898494Y-80792375D01*
X159898492Y-80792377D01*
X159733042Y-80999845D01*
X159600361Y-81229654D01*
X159503416Y-81476667D01*
X159503410Y-81476686D01*
X159444364Y-81735385D01*
X159444363Y-81735390D01*
X159424535Y-81999995D01*
X152815465Y-81999995D01*
X152795636Y-81735390D01*
X152795635Y-81735385D01*
X152795635Y-81735381D01*
X152736586Y-81476673D01*
X152639639Y-81229655D01*
X152506958Y-80999845D01*
X152341508Y-80792377D01*
X152146984Y-80611886D01*
X151927733Y-80462402D01*
X151927732Y-80462401D01*
X151927725Y-80462397D01*
X151688655Y-80347268D01*
X151688636Y-80347261D01*
X151435083Y-80269051D01*
X151435073Y-80269048D01*
X151172688Y-80229500D01*
X151172681Y-80229500D01*
X150907319Y-80229500D01*
X150907311Y-80229500D01*
X150644926Y-80269048D01*
X150644916Y-80269051D01*
X150391363Y-80347261D01*
X150391344Y-80347268D01*
X150152276Y-80462397D01*
X150152274Y-80462398D01*
X149933015Y-80611886D01*
X149738494Y-80792375D01*
X149738492Y-80792377D01*
X149573042Y-80999845D01*
X149440362Y-81229652D01*
X149439928Y-81230759D01*
X149439667Y-81231094D01*
X149438350Y-81233831D01*
X149437764Y-81233549D01*
X149397112Y-81285972D01*
X149331242Y-81309273D01*
X149263231Y-81293262D01*
X149214673Y-81243024D01*
X149200500Y-81185456D01*
X149200500Y-80941518D01*
X149220185Y-80874479D01*
X149236819Y-80853837D01*
X150853837Y-79236819D01*
X150915160Y-79203334D01*
X150941518Y-79200500D01*
X162168996Y-79200500D01*
X162260040Y-79182389D01*
X162304328Y-79173580D01*
X162380193Y-79142156D01*
X162431807Y-79120777D01*
X162431808Y-79120776D01*
X162431811Y-79120775D01*
X162546543Y-79044114D01*
X164903838Y-76686819D01*
X164965161Y-76653334D01*
X164991519Y-76650500D01*
X165683791Y-76650500D01*
X165750830Y-76670185D01*
X165796585Y-76722989D01*
X165807011Y-76788384D01*
X165794435Y-76899997D01*
X165794435Y-76900003D01*
X165814630Y-77079249D01*
X165814631Y-77079254D01*
X165874211Y-77249523D01*
X165954932Y-77377989D01*
X165970184Y-77402262D01*
X166097738Y-77529816D01*
X166250478Y-77625789D01*
X166342472Y-77657979D01*
X166420745Y-77685368D01*
X166420750Y-77685369D01*
X166599996Y-77705565D01*
X166600000Y-77705565D01*
X166600004Y-77705565D01*
X166779249Y-77685369D01*
X166779252Y-77685368D01*
X166779255Y-77685368D01*
X166949522Y-77625789D01*
X167102262Y-77529816D01*
X167229816Y-77402262D01*
X167245068Y-77377989D01*
X167257297Y-77358527D01*
X167309631Y-77312237D01*
X167362290Y-77300500D01*
X168056000Y-77300500D01*
X168123039Y-77320185D01*
X168168794Y-77372989D01*
X168180000Y-77424500D01*
X168180000Y-77446910D01*
X168190637Y-77535492D01*
X168246230Y-77676465D01*
X168337792Y-77797207D01*
X168458534Y-77888769D01*
X168599507Y-77944362D01*
X168688089Y-77955000D01*
X169225000Y-77955000D01*
X169225000Y-77429500D01*
X169244685Y-77362461D01*
X169297489Y-77316706D01*
X169349000Y-77305500D01*
X169511000Y-77305500D01*
X169578039Y-77325185D01*
X169623794Y-77377989D01*
X169635000Y-77429500D01*
X169635000Y-77955000D01*
X170171911Y-77955000D01*
X170260492Y-77944362D01*
X170401465Y-77888769D01*
X170522207Y-77797207D01*
X170613769Y-77676465D01*
X170669362Y-77535491D01*
X170679028Y-77455000D01*
X170485886Y-77455000D01*
X170418847Y-77435315D01*
X170373092Y-77382511D01*
X170363148Y-77313353D01*
X170392173Y-77249797D01*
X170410961Y-77232196D01*
X170522564Y-77147564D01*
X170563126Y-77094075D01*
X170619318Y-77052552D01*
X170661930Y-77045000D01*
X170679027Y-77045000D01*
X170669361Y-76964502D01*
X170667415Y-76956802D01*
X170670636Y-76955987D01*
X170665687Y-76901689D01*
X170668124Y-76893380D01*
X170667903Y-76893325D01*
X170669849Y-76885620D01*
X170669852Y-76885613D01*
X170680500Y-76796944D01*
X170680500Y-76403056D01*
X170669852Y-76314387D01*
X170669849Y-76314381D01*
X170667903Y-76306675D01*
X170670948Y-76305905D01*
X170665969Y-76250944D01*
X170668185Y-76243396D01*
X170667903Y-76243325D01*
X170669849Y-76235620D01*
X170669852Y-76235613D01*
X170680500Y-76146944D01*
X170680500Y-75753056D01*
X170669852Y-75664387D01*
X170669849Y-75664381D01*
X170667903Y-75656675D01*
X170670948Y-75655905D01*
X170665969Y-75600944D01*
X170668185Y-75593396D01*
X170667903Y-75593325D01*
X170669850Y-75585617D01*
X170669852Y-75585613D01*
X170680500Y-75496944D01*
X170680500Y-75103056D01*
X170669852Y-75014387D01*
X170669849Y-75014381D01*
X170667903Y-75006675D01*
X170670948Y-75005905D01*
X170665969Y-74950944D01*
X170668185Y-74943396D01*
X170667903Y-74943325D01*
X170669850Y-74935617D01*
X170669852Y-74935613D01*
X170680500Y-74846944D01*
X170680500Y-74453056D01*
X170669852Y-74364387D01*
X170669849Y-74364381D01*
X170667903Y-74356675D01*
X170670948Y-74355905D01*
X170665969Y-74300944D01*
X170668185Y-74293396D01*
X170667903Y-74293325D01*
X170669850Y-74285617D01*
X170669852Y-74285613D01*
X170680500Y-74196944D01*
X170680500Y-73803056D01*
X170669852Y-73714387D01*
X170669849Y-73714381D01*
X170667903Y-73706675D01*
X170670948Y-73705905D01*
X170665969Y-73650944D01*
X170668185Y-73643396D01*
X170667903Y-73643325D01*
X170669850Y-73635617D01*
X170669852Y-73635613D01*
X170680500Y-73546944D01*
X170680500Y-73153056D01*
X170669852Y-73064387D01*
X170669849Y-73064381D01*
X170667903Y-73056675D01*
X170670948Y-73055905D01*
X170665969Y-73000944D01*
X170668185Y-72993396D01*
X170667903Y-72993325D01*
X170669850Y-72985617D01*
X170669852Y-72985613D01*
X170680500Y-72896944D01*
X170680500Y-72503056D01*
X170669852Y-72414387D01*
X170669849Y-72414381D01*
X170667903Y-72406675D01*
X170670948Y-72405905D01*
X170665969Y-72350944D01*
X170668185Y-72343396D01*
X170667903Y-72343325D01*
X170669850Y-72335617D01*
X170669852Y-72335613D01*
X170680500Y-72246944D01*
X170680500Y-71853056D01*
X170669852Y-71764387D01*
X170669849Y-71764381D01*
X170667903Y-71756675D01*
X170670948Y-71755905D01*
X170665969Y-71700944D01*
X170668185Y-71693396D01*
X170667903Y-71693325D01*
X170669850Y-71685617D01*
X170669852Y-71685613D01*
X170680500Y-71596944D01*
X170680500Y-71203056D01*
X170669852Y-71114387D01*
X170669849Y-71114381D01*
X170667903Y-71106675D01*
X170670948Y-71105905D01*
X170665969Y-71050944D01*
X170668185Y-71043396D01*
X170667903Y-71043325D01*
X170669850Y-71035617D01*
X170669852Y-71035613D01*
X170680500Y-70946944D01*
X170680500Y-70924500D01*
X170700185Y-70857461D01*
X170752989Y-70811706D01*
X170804500Y-70800500D01*
X171267817Y-70800500D01*
X171334856Y-70820185D01*
G37*
%TD.AperFunction*%
%TA.AperFunction,Conductor*%
G36*
X164041133Y-52520185D02*
G01*
X164086888Y-52572989D01*
X164096832Y-52642147D01*
X164067807Y-52705703D01*
X164065339Y-52708465D01*
X164042243Y-52733555D01*
X163911833Y-52875217D01*
X163775826Y-53083393D01*
X163675936Y-53311118D01*
X163614892Y-53552175D01*
X163614890Y-53552187D01*
X163594357Y-53799994D01*
X163594357Y-53800005D01*
X163614890Y-54047812D01*
X163614892Y-54047824D01*
X163675936Y-54288881D01*
X163775826Y-54516606D01*
X163911833Y-54724782D01*
X163911836Y-54724785D01*
X164080256Y-54907738D01*
X164193240Y-54995677D01*
X164236695Y-55029500D01*
X164276491Y-55060474D01*
X164334517Y-55091876D01*
X164384108Y-55141095D01*
X164399500Y-55200931D01*
X164399500Y-55575500D01*
X164379815Y-55642539D01*
X164327011Y-55688294D01*
X164275500Y-55699500D01*
X163946651Y-55699500D01*
X163879612Y-55679815D01*
X163849704Y-55652813D01*
X163832800Y-55631616D01*
X163801508Y-55592377D01*
X163606984Y-55411886D01*
X163445998Y-55302127D01*
X163387736Y-55262404D01*
X163387725Y-55262397D01*
X163148655Y-55147268D01*
X163148636Y-55147261D01*
X162895083Y-55069051D01*
X162895073Y-55069048D01*
X162632688Y-55029500D01*
X162632681Y-55029500D01*
X162367319Y-55029500D01*
X162367311Y-55029500D01*
X162104926Y-55069048D01*
X162104916Y-55069051D01*
X161851363Y-55147261D01*
X161851344Y-55147268D01*
X161612276Y-55262397D01*
X161612274Y-55262398D01*
X161393015Y-55411886D01*
X161198494Y-55592375D01*
X161198492Y-55592377D01*
X161033042Y-55799845D01*
X160900361Y-56029654D01*
X160803416Y-56276667D01*
X160803410Y-56276686D01*
X160744364Y-56535385D01*
X160744363Y-56535390D01*
X160724535Y-56799995D01*
X160724535Y-56800004D01*
X160744363Y-57064609D01*
X160744364Y-57064614D01*
X160803410Y-57323313D01*
X160803412Y-57323322D01*
X160803414Y-57323327D01*
X160900361Y-57570345D01*
X161033042Y-57800155D01*
X161198492Y-58007623D01*
X161393016Y-58188114D01*
X161612268Y-58337598D01*
X161612273Y-58337600D01*
X161612274Y-58337601D01*
X161612276Y-58337602D01*
X161666972Y-58363942D01*
X161851350Y-58452734D01*
X162104922Y-58530950D01*
X162104923Y-58530950D01*
X162104926Y-58530951D01*
X162367311Y-58570499D01*
X162367316Y-58570499D01*
X162367319Y-58570500D01*
X162367320Y-58570500D01*
X162632680Y-58570500D01*
X162632681Y-58570500D01*
X162632688Y-58570499D01*
X162895073Y-58530951D01*
X162895074Y-58530950D01*
X162895078Y-58530950D01*
X163148650Y-58452734D01*
X163387733Y-58337598D01*
X163606984Y-58188114D01*
X163801508Y-58007623D01*
X163966958Y-57800155D01*
X163988698Y-57762499D01*
X164039265Y-57714284D01*
X164096085Y-57700500D01*
X165001459Y-57700500D01*
X166293602Y-57700500D01*
X166360641Y-57720185D01*
X166390547Y-57747185D01*
X166518492Y-57907623D01*
X166713016Y-58088114D01*
X166932268Y-58237598D01*
X166932273Y-58237600D01*
X166932274Y-58237601D01*
X166932276Y-58237602D01*
X167024341Y-58281938D01*
X167171350Y-58352734D01*
X167424922Y-58430950D01*
X167424923Y-58430950D01*
X167424926Y-58430951D01*
X167687311Y-58470499D01*
X167687316Y-58470499D01*
X167687319Y-58470500D01*
X167687320Y-58470500D01*
X167952680Y-58470500D01*
X167952681Y-58470500D01*
X167952688Y-58470499D01*
X168215073Y-58430951D01*
X168215074Y-58430950D01*
X168215078Y-58430950D01*
X168468650Y-58352734D01*
X168707733Y-58237598D01*
X168926984Y-58088114D01*
X169121508Y-57907623D01*
X169286958Y-57700155D01*
X169419639Y-57470345D01*
X169516586Y-57223327D01*
X169575635Y-56964619D01*
X169575636Y-56964609D01*
X169595465Y-56700004D01*
X169595465Y-56699995D01*
X176204535Y-56699995D01*
X176204535Y-56700004D01*
X176224363Y-56964609D01*
X176224364Y-56964614D01*
X176283410Y-57223313D01*
X176283412Y-57223322D01*
X176283414Y-57223327D01*
X176380361Y-57470345D01*
X176513042Y-57700155D01*
X176678492Y-57907623D01*
X176873016Y-58088114D01*
X176873022Y-58088118D01*
X176925351Y-58123795D01*
X176969653Y-58177824D01*
X176979500Y-58226249D01*
X176979500Y-58778541D01*
X176979500Y-58778543D01*
X176979499Y-58778543D01*
X177017947Y-58971829D01*
X177017950Y-58971839D01*
X177093364Y-59153907D01*
X177093371Y-59153920D01*
X177202859Y-59317780D01*
X177202860Y-59317781D01*
X177202861Y-59317782D01*
X177342218Y-59457139D01*
X177342219Y-59457139D01*
X177349286Y-59464206D01*
X177349285Y-59464206D01*
X177349289Y-59464209D01*
X177863181Y-59978101D01*
X177896666Y-60039424D01*
X177899500Y-60065782D01*
X177899500Y-63198544D01*
X177937947Y-63391833D01*
X177937949Y-63391837D01*
X177948993Y-63418500D01*
X177960038Y-63445165D01*
X177972301Y-63474770D01*
X178013366Y-63573911D01*
X178013371Y-63573920D01*
X178122860Y-63737781D01*
X178122863Y-63737785D01*
X178266537Y-63881459D01*
X178266559Y-63881479D01*
X181763181Y-67378101D01*
X181796666Y-67439424D01*
X181799500Y-67465782D01*
X181799500Y-68147870D01*
X181799501Y-68147876D01*
X181805908Y-68207483D01*
X181856202Y-68342328D01*
X181856206Y-68342335D01*
X181942452Y-68457544D01*
X181942453Y-68457544D01*
X181942454Y-68457546D01*
X181951545Y-68464351D01*
X181993416Y-68520282D01*
X181998402Y-68589974D01*
X181978813Y-68634736D01*
X181969871Y-68647507D01*
X181969868Y-68647512D01*
X181873734Y-68853673D01*
X181873730Y-68853682D01*
X181814860Y-69073389D01*
X181814858Y-69073400D01*
X181795034Y-69299997D01*
X181795034Y-69300002D01*
X181814858Y-69526599D01*
X181814860Y-69526610D01*
X181873730Y-69746317D01*
X181873735Y-69746331D01*
X181969863Y-69952478D01*
X182020974Y-70025472D01*
X182700000Y-69346446D01*
X182700000Y-69352661D01*
X182727259Y-69454394D01*
X182779920Y-69545606D01*
X182854394Y-69620080D01*
X182945606Y-69672741D01*
X183047339Y-69700000D01*
X183053553Y-69700000D01*
X182374526Y-70379025D01*
X182447513Y-70430132D01*
X182447521Y-70430136D01*
X182653668Y-70526264D01*
X182653682Y-70526269D01*
X182873389Y-70585139D01*
X182873400Y-70585141D01*
X183099998Y-70604966D01*
X183100002Y-70604966D01*
X183326599Y-70585141D01*
X183326610Y-70585139D01*
X183546317Y-70526269D01*
X183546331Y-70526264D01*
X183752478Y-70430136D01*
X183825471Y-70379024D01*
X183146447Y-69700000D01*
X183152661Y-69700000D01*
X183254394Y-69672741D01*
X183345606Y-69620080D01*
X183420080Y-69545606D01*
X183472741Y-69454394D01*
X183500000Y-69352661D01*
X183500000Y-69346447D01*
X184179024Y-70025471D01*
X184230136Y-69952478D01*
X184326264Y-69746331D01*
X184326269Y-69746317D01*
X184385139Y-69526610D01*
X184385141Y-69526599D01*
X184404966Y-69300002D01*
X184404966Y-69299997D01*
X184385141Y-69073400D01*
X184385139Y-69073389D01*
X184326269Y-68853682D01*
X184326265Y-68853673D01*
X184230134Y-68647518D01*
X184230130Y-68647512D01*
X184221188Y-68634740D01*
X184198861Y-68568534D01*
X184215873Y-68500767D01*
X184248454Y-68464351D01*
X184257546Y-68457546D01*
X184343796Y-68342331D01*
X184394091Y-68207483D01*
X184400500Y-68147873D01*
X184400499Y-66452128D01*
X184394091Y-66392517D01*
X184385821Y-66370345D01*
X184343797Y-66257671D01*
X184343793Y-66257664D01*
X184257547Y-66142455D01*
X184257544Y-66142452D01*
X184142335Y-66056206D01*
X184142328Y-66056202D01*
X184007482Y-66005908D01*
X184007483Y-66005908D01*
X183947883Y-65999501D01*
X183947881Y-65999500D01*
X183947873Y-65999500D01*
X183947865Y-65999500D01*
X183265782Y-65999500D01*
X183198743Y-65979815D01*
X183178101Y-65963181D01*
X179936819Y-62721899D01*
X179903334Y-62660576D01*
X179900500Y-62634218D01*
X179900500Y-60724500D01*
X179920185Y-60657461D01*
X179972989Y-60611706D01*
X180024500Y-60600500D01*
X181685859Y-60600500D01*
X181752898Y-60620185D01*
X181798653Y-60672989D01*
X181802030Y-60681140D01*
X181806204Y-60692331D01*
X181806205Y-60692332D01*
X181806206Y-60692335D01*
X181892452Y-60807544D01*
X181892455Y-60807547D01*
X182007664Y-60893793D01*
X182007671Y-60893797D01*
X182069902Y-60917007D01*
X182139598Y-60943002D01*
X182195531Y-60984873D01*
X182219949Y-61050337D01*
X182205098Y-61118610D01*
X182183947Y-61146865D01*
X182061886Y-61268926D01*
X181926400Y-61462420D01*
X181926399Y-61462422D01*
X181826570Y-61676507D01*
X181826567Y-61676513D01*
X181769364Y-61889999D01*
X181769364Y-61890000D01*
X182666988Y-61890000D01*
X182634075Y-61947007D01*
X182600000Y-62074174D01*
X182600000Y-62205826D01*
X182634075Y-62332993D01*
X182666988Y-62390000D01*
X181769364Y-62390000D01*
X181826567Y-62603486D01*
X181826570Y-62603492D01*
X181926399Y-62817578D01*
X182061894Y-63011082D01*
X182228917Y-63178105D01*
X182422421Y-63313600D01*
X182636507Y-63413429D01*
X182636516Y-63413433D01*
X182850000Y-63470634D01*
X182850000Y-62573012D01*
X182907007Y-62605925D01*
X183034174Y-62640000D01*
X183165826Y-62640000D01*
X183292993Y-62605925D01*
X183350000Y-62573012D01*
X183350000Y-63470633D01*
X183563483Y-63413433D01*
X183563492Y-63413429D01*
X183777578Y-63313600D01*
X183971082Y-63178105D01*
X184138105Y-63011082D01*
X184273600Y-62817578D01*
X184373429Y-62603492D01*
X184373432Y-62603486D01*
X184430636Y-62390000D01*
X183533012Y-62390000D01*
X183565925Y-62332993D01*
X183600000Y-62205826D01*
X183600000Y-62074174D01*
X183565925Y-61947007D01*
X183533012Y-61890000D01*
X184430636Y-61890000D01*
X184430635Y-61889999D01*
X184373432Y-61676513D01*
X184373429Y-61676507D01*
X184273600Y-61462422D01*
X184273599Y-61462420D01*
X184138113Y-61268926D01*
X184138108Y-61268920D01*
X184016053Y-61146865D01*
X183982568Y-61085542D01*
X183987552Y-61015850D01*
X184029424Y-60959917D01*
X184060400Y-60943002D01*
X184192331Y-60893796D01*
X184307546Y-60807546D01*
X184393796Y-60692331D01*
X184444091Y-60557483D01*
X184450500Y-60497873D01*
X184450499Y-58702128D01*
X184444091Y-58642517D01*
X184417230Y-58570500D01*
X184393797Y-58507671D01*
X184393793Y-58507664D01*
X184307547Y-58392455D01*
X184307544Y-58392452D01*
X184192335Y-58306206D01*
X184192328Y-58306202D01*
X184057482Y-58255908D01*
X184057483Y-58255908D01*
X183997883Y-58249501D01*
X183997881Y-58249500D01*
X183997873Y-58249500D01*
X183997864Y-58249500D01*
X182202129Y-58249500D01*
X182202123Y-58249501D01*
X182142516Y-58255908D01*
X182007671Y-58306202D01*
X182007664Y-58306206D01*
X181892455Y-58392452D01*
X181892452Y-58392455D01*
X181806206Y-58507664D01*
X181806204Y-58507668D01*
X181806204Y-58507669D01*
X181802039Y-58518834D01*
X181760171Y-58574766D01*
X181694707Y-58599184D01*
X181685859Y-58599500D01*
X179365783Y-58599500D01*
X179298744Y-58579815D01*
X179278102Y-58563181D01*
X179023973Y-58309052D01*
X178990488Y-58247729D01*
X178995472Y-58178037D01*
X179037344Y-58122104D01*
X179041792Y-58118925D01*
X179086984Y-58088114D01*
X179281508Y-57907623D01*
X179446958Y-57700155D01*
X179579639Y-57470345D01*
X179676586Y-57223327D01*
X179735635Y-56964619D01*
X179735636Y-56964609D01*
X179755465Y-56700004D01*
X179755465Y-56699995D01*
X179735636Y-56435390D01*
X179735635Y-56435385D01*
X179735635Y-56435381D01*
X179676586Y-56176673D01*
X179579639Y-55929655D01*
X179446958Y-55699845D01*
X179281508Y-55492377D01*
X179086984Y-55311886D01*
X179072673Y-55302129D01*
X178867736Y-55162404D01*
X178867725Y-55162397D01*
X178628655Y-55047268D01*
X178628636Y-55047261D01*
X178375083Y-54969051D01*
X178375073Y-54969048D01*
X178112688Y-54929500D01*
X178112681Y-54929500D01*
X177847319Y-54929500D01*
X177847311Y-54929500D01*
X177584926Y-54969048D01*
X177584916Y-54969051D01*
X177331363Y-55047261D01*
X177331344Y-55047268D01*
X177092276Y-55162397D01*
X177092274Y-55162398D01*
X176873015Y-55311886D01*
X176678494Y-55492375D01*
X176678492Y-55492377D01*
X176513042Y-55699845D01*
X176380361Y-55929654D01*
X176283416Y-56176667D01*
X176283410Y-56176686D01*
X176224364Y-56435385D01*
X176224363Y-56435390D01*
X176204535Y-56699995D01*
X169595465Y-56699995D01*
X169575636Y-56435390D01*
X169575635Y-56435385D01*
X169575635Y-56435381D01*
X169516586Y-56176673D01*
X169419639Y-55929655D01*
X169286958Y-55699845D01*
X169121508Y-55492377D01*
X168926984Y-55311886D01*
X168912673Y-55302129D01*
X168707736Y-55162404D01*
X168707725Y-55162397D01*
X168468655Y-55047268D01*
X168468636Y-55047261D01*
X168215083Y-54969051D01*
X168215073Y-54969048D01*
X167952688Y-54929500D01*
X167952681Y-54929500D01*
X167687319Y-54929500D01*
X167687311Y-54929500D01*
X167424926Y-54969048D01*
X167424916Y-54969051D01*
X167171363Y-55047261D01*
X167171344Y-55047268D01*
X166932276Y-55162397D01*
X166932274Y-55162398D01*
X166713015Y-55311886D01*
X166518494Y-55492375D01*
X166518492Y-55492377D01*
X166438747Y-55592375D01*
X166390549Y-55652813D01*
X166333361Y-55692953D01*
X166293602Y-55699500D01*
X165924500Y-55699500D01*
X165857461Y-55679815D01*
X165811706Y-55627011D01*
X165800500Y-55575500D01*
X165800500Y-55200931D01*
X165820185Y-55133892D01*
X165865483Y-55091876D01*
X165923509Y-55060474D01*
X166119744Y-54907738D01*
X166288164Y-54724785D01*
X166424173Y-54516607D01*
X166524063Y-54288881D01*
X166585108Y-54047821D01*
X166601319Y-53852187D01*
X166605643Y-53800005D01*
X166605643Y-53799994D01*
X166585109Y-53552187D01*
X166585107Y-53552175D01*
X166524063Y-53311118D01*
X166424173Y-53083393D01*
X166288166Y-52875217D01*
X166249603Y-52833326D01*
X166134675Y-52708481D01*
X166103754Y-52645828D01*
X166111614Y-52576402D01*
X166155761Y-52522247D01*
X166222179Y-52500556D01*
X166225906Y-52500500D01*
X185875500Y-52500500D01*
X185942539Y-52520185D01*
X185988294Y-52572989D01*
X185999500Y-52624500D01*
X185999500Y-77535241D01*
X185979815Y-77602280D01*
X185927011Y-77648035D01*
X185857853Y-77657979D01*
X185794297Y-77628954D01*
X185771691Y-77603063D01*
X185766859Y-77595667D01*
X185688164Y-77475215D01*
X185519744Y-77292262D01*
X185323509Y-77139526D01*
X185265481Y-77108122D01*
X185215891Y-77058904D01*
X185200500Y-76999069D01*
X185200500Y-75531006D01*
X185193724Y-75496945D01*
X185193724Y-75496942D01*
X185175612Y-75405887D01*
X185173580Y-75395672D01*
X185133953Y-75300003D01*
X185120777Y-75268192D01*
X185044112Y-75153454D01*
X177646545Y-67755887D01*
X177531807Y-67679222D01*
X177404332Y-67626421D01*
X177404322Y-67626418D01*
X177268996Y-67599500D01*
X177268994Y-67599500D01*
X177268993Y-67599500D01*
X167731007Y-67599500D01*
X167731003Y-67599500D01*
X167622590Y-67621065D01*
X167622589Y-67621065D01*
X167595681Y-67626418D01*
X167595671Y-67626420D01*
X167468190Y-67679224D01*
X167353454Y-67755887D01*
X166055887Y-69053454D01*
X166027456Y-69096006D01*
X165979223Y-69168191D01*
X165926421Y-69295667D01*
X165926418Y-69295677D01*
X165899500Y-69431004D01*
X165899500Y-69925500D01*
X165879815Y-69992539D01*
X165827011Y-70038294D01*
X165775500Y-70049500D01*
X164781005Y-70049500D01*
X164645677Y-70076418D01*
X164645667Y-70076421D01*
X164518192Y-70129222D01*
X164403454Y-70205887D01*
X161911744Y-72697597D01*
X161850421Y-72731082D01*
X161787514Y-72728407D01*
X161595083Y-72669051D01*
X161595073Y-72669048D01*
X161332688Y-72629500D01*
X161332681Y-72629500D01*
X161067319Y-72629500D01*
X161067311Y-72629500D01*
X160804926Y-72669048D01*
X160804916Y-72669051D01*
X160612485Y-72728408D01*
X160542622Y-72729358D01*
X160488255Y-72697598D01*
X159246546Y-71455888D01*
X159246545Y-71455887D01*
X159131807Y-71379222D01*
X159004332Y-71326421D01*
X159004322Y-71326418D01*
X158868996Y-71299500D01*
X158868994Y-71299500D01*
X158868993Y-71299500D01*
X148541518Y-71299500D01*
X148474479Y-71279815D01*
X148453837Y-71263181D01*
X146101819Y-68911162D01*
X146068334Y-68849839D01*
X146065500Y-68823481D01*
X146065500Y-66250799D01*
X146085185Y-66183760D01*
X146137989Y-66138005D01*
X146207147Y-66128061D01*
X146236950Y-66136237D01*
X146259764Y-66145687D01*
X146372280Y-66160500D01*
X146372287Y-66160500D01*
X146897713Y-66160500D01*
X146897720Y-66160500D01*
X147010236Y-66145687D01*
X147150233Y-66087698D01*
X147270451Y-65995451D01*
X147362698Y-65875233D01*
X147420687Y-65735236D01*
X147435500Y-65622720D01*
X147435500Y-65424500D01*
X147455185Y-65357461D01*
X147507989Y-65311706D01*
X147559500Y-65300500D01*
X148174506Y-65300500D01*
X148240477Y-65319506D01*
X148250474Y-65325787D01*
X148250475Y-65325787D01*
X148250478Y-65325789D01*
X148420745Y-65385368D01*
X148420750Y-65385369D01*
X148599996Y-65405565D01*
X148600000Y-65405565D01*
X148600004Y-65405565D01*
X148779249Y-65385369D01*
X148779252Y-65385368D01*
X148779255Y-65385368D01*
X148949522Y-65325789D01*
X149102262Y-65229816D01*
X149229816Y-65102262D01*
X149325789Y-64949522D01*
X149385368Y-64779255D01*
X149392344Y-64717341D01*
X149405565Y-64600003D01*
X149405565Y-64599996D01*
X149385369Y-64420750D01*
X149385368Y-64420745D01*
X149325788Y-64250476D01*
X149229815Y-64097737D01*
X149102262Y-63970184D01*
X148949523Y-63874211D01*
X148779254Y-63814631D01*
X148779249Y-63814630D01*
X148600004Y-63794435D01*
X148599996Y-63794435D01*
X148420750Y-63814630D01*
X148420745Y-63814631D01*
X148250474Y-63874212D01*
X148240477Y-63880494D01*
X148174506Y-63899500D01*
X147559500Y-63899500D01*
X147492461Y-63879815D01*
X147446706Y-63827011D01*
X147435500Y-63775500D01*
X147435500Y-63727286D01*
X147435499Y-63727272D01*
X147434750Y-63721586D01*
X147420687Y-63614764D01*
X147362698Y-63474767D01*
X147270451Y-63354549D01*
X147150233Y-63262302D01*
X147150229Y-63262300D01*
X147086801Y-63236027D01*
X147010236Y-63204313D01*
X146996171Y-63202461D01*
X146897727Y-63189500D01*
X146897720Y-63189500D01*
X146372280Y-63189500D01*
X146372272Y-63189500D01*
X146259764Y-63204313D01*
X146259763Y-63204313D01*
X146119766Y-63262301D01*
X146075486Y-63296279D01*
X146010316Y-63321473D01*
X145941871Y-63307434D01*
X145924514Y-63296279D01*
X145880233Y-63262301D01*
X145781239Y-63221297D01*
X145740236Y-63204313D01*
X145726171Y-63202461D01*
X145627727Y-63189500D01*
X145627720Y-63189500D01*
X145102280Y-63189500D01*
X145102272Y-63189500D01*
X144989764Y-63204313D01*
X144989763Y-63204313D01*
X144849766Y-63262301D01*
X144805486Y-63296279D01*
X144740316Y-63321473D01*
X144671871Y-63307434D01*
X144654514Y-63296279D01*
X144610233Y-63262301D01*
X144511239Y-63221297D01*
X144470236Y-63204313D01*
X144456171Y-63202461D01*
X144357727Y-63189500D01*
X144357720Y-63189500D01*
X144306441Y-63189500D01*
X144239402Y-63169815D01*
X144193647Y-63117011D01*
X144183703Y-63047853D01*
X144212728Y-62984297D01*
X144258989Y-62950939D01*
X144278894Y-62942693D01*
X144331811Y-62920775D01*
X144446543Y-62844114D01*
X144639114Y-62651543D01*
X144659064Y-62621684D01*
X144699497Y-62561173D01*
X144699499Y-62561168D01*
X144699503Y-62561163D01*
X144715775Y-62536811D01*
X144768580Y-62409328D01*
X144784772Y-62327928D01*
X144795500Y-62273995D01*
X144795500Y-61310799D01*
X144815185Y-61243760D01*
X144867989Y-61198005D01*
X144937147Y-61188061D01*
X144966950Y-61196237D01*
X144989764Y-61205687D01*
X145094715Y-61219504D01*
X145098474Y-61219999D01*
X145102280Y-61220500D01*
X145102287Y-61220500D01*
X145627713Y-61220500D01*
X145627720Y-61220500D01*
X145740236Y-61205687D01*
X145880233Y-61147698D01*
X145924514Y-61113720D01*
X145989683Y-61088526D01*
X146058128Y-61102564D01*
X146075486Y-61113720D01*
X146119767Y-61147698D01*
X146259764Y-61205687D01*
X146364715Y-61219504D01*
X146368474Y-61219999D01*
X146372280Y-61220500D01*
X146372287Y-61220500D01*
X146897713Y-61220500D01*
X146897720Y-61220500D01*
X147010236Y-61205687D01*
X147150233Y-61147698D01*
X147270451Y-61055451D01*
X147362698Y-60935233D01*
X147420687Y-60795236D01*
X147435500Y-60682720D01*
X147435500Y-60559500D01*
X147455185Y-60492461D01*
X147507989Y-60446706D01*
X147559500Y-60435500D01*
X148413481Y-60435500D01*
X148480520Y-60455185D01*
X148501162Y-60471819D01*
X152917471Y-64888128D01*
X152950956Y-64949451D01*
X152945972Y-65019143D01*
X152945219Y-65021109D01*
X152923413Y-65076671D01*
X152864364Y-65335385D01*
X152864363Y-65335390D01*
X152844535Y-65599995D01*
X152844535Y-65600004D01*
X152864363Y-65864609D01*
X152864364Y-65864614D01*
X152923410Y-66123313D01*
X152923412Y-66123322D01*
X152923414Y-66123327D01*
X153020361Y-66370345D01*
X153153042Y-66600155D01*
X153318492Y-66807623D01*
X153513016Y-66988114D01*
X153732268Y-67137598D01*
X153971350Y-67252734D01*
X154224922Y-67330950D01*
X154224923Y-67330950D01*
X154224926Y-67330951D01*
X154487311Y-67370499D01*
X154487316Y-67370499D01*
X154487319Y-67370500D01*
X154487320Y-67370500D01*
X154752680Y-67370500D01*
X154752681Y-67370500D01*
X154752688Y-67370499D01*
X155015073Y-67330951D01*
X155015074Y-67330950D01*
X155015078Y-67330950D01*
X155268650Y-67252734D01*
X155507733Y-67137598D01*
X155726984Y-66988114D01*
X155921508Y-66807623D01*
X156086958Y-66600155D01*
X156219639Y-66370345D01*
X156316586Y-66123327D01*
X156375635Y-65864619D01*
X156393762Y-65622727D01*
X156395465Y-65600004D01*
X156395465Y-65599995D01*
X163004535Y-65599995D01*
X163004535Y-65600004D01*
X163024363Y-65864609D01*
X163024364Y-65864614D01*
X163083410Y-66123313D01*
X163083412Y-66123322D01*
X163083414Y-66123327D01*
X163180361Y-66370345D01*
X163313042Y-66600155D01*
X163478492Y-66807623D01*
X163673016Y-66988114D01*
X163892268Y-67137598D01*
X164131350Y-67252734D01*
X164384922Y-67330950D01*
X164384923Y-67330950D01*
X164384926Y-67330951D01*
X164647311Y-67370499D01*
X164647316Y-67370499D01*
X164647319Y-67370500D01*
X164647320Y-67370500D01*
X164912680Y-67370500D01*
X164912681Y-67370500D01*
X164912688Y-67370499D01*
X165175073Y-67330951D01*
X165175074Y-67330950D01*
X165175078Y-67330950D01*
X165428650Y-67252734D01*
X165667733Y-67137598D01*
X165886984Y-66988114D01*
X166081508Y-66807623D01*
X166246958Y-66600155D01*
X166379639Y-66370345D01*
X166476586Y-66123327D01*
X166535635Y-65864619D01*
X166553762Y-65622727D01*
X166555465Y-65600004D01*
X166555465Y-65599995D01*
X166535636Y-65335390D01*
X166535635Y-65335385D01*
X166535635Y-65335381D01*
X166476586Y-65076673D01*
X166379639Y-64829655D01*
X166246958Y-64599845D01*
X166081508Y-64392377D01*
X165886984Y-64211886D01*
X165878880Y-64206361D01*
X165667736Y-64062404D01*
X165667725Y-64062397D01*
X165428655Y-63947268D01*
X165428636Y-63947261D01*
X165175083Y-63869051D01*
X165175073Y-63869048D01*
X164912688Y-63829500D01*
X164912681Y-63829500D01*
X164647319Y-63829500D01*
X164647311Y-63829500D01*
X164384926Y-63869048D01*
X164384916Y-63869051D01*
X164131363Y-63947261D01*
X164131344Y-63947268D01*
X163892276Y-64062397D01*
X163892274Y-64062398D01*
X163673015Y-64211886D01*
X163478494Y-64392375D01*
X163478492Y-64392377D01*
X163313042Y-64599845D01*
X163180361Y-64829654D01*
X163083416Y-65076667D01*
X163083410Y-65076686D01*
X163024364Y-65335385D01*
X163024363Y-65335390D01*
X163004535Y-65599995D01*
X156395465Y-65599995D01*
X156375636Y-65335390D01*
X156375635Y-65335385D01*
X156375635Y-65335381D01*
X156316586Y-65076673D01*
X156219639Y-64829655D01*
X156086958Y-64599845D01*
X155921508Y-64392377D01*
X155726984Y-64211886D01*
X155718880Y-64206361D01*
X155507736Y-64062404D01*
X155507725Y-64062397D01*
X155268655Y-63947268D01*
X155268636Y-63947261D01*
X155015083Y-63869051D01*
X155015073Y-63869048D01*
X154752688Y-63829500D01*
X154752681Y-63829500D01*
X154487319Y-63829500D01*
X154487311Y-63829500D01*
X154224926Y-63869048D01*
X154224916Y-63869051D01*
X154032485Y-63928408D01*
X153962622Y-63929358D01*
X153908255Y-63897598D01*
X149833338Y-59822681D01*
X149799853Y-59761358D01*
X149804837Y-59691666D01*
X149833336Y-59647320D01*
X149944114Y-59536543D01*
X150020775Y-59421811D01*
X150073580Y-59294328D01*
X150100500Y-59158994D01*
X150100500Y-59021006D01*
X150100500Y-56799995D01*
X150565037Y-56799995D01*
X150565037Y-56800004D01*
X150584860Y-57064535D01*
X150584861Y-57064540D01*
X150643890Y-57323166D01*
X150643896Y-57323185D01*
X150740814Y-57570128D01*
X150740813Y-57570128D01*
X150873457Y-57799871D01*
X150923642Y-57862803D01*
X150923643Y-57862803D01*
X151897861Y-56888584D01*
X151920667Y-56973694D01*
X151979910Y-57076306D01*
X152063694Y-57160090D01*
X152166306Y-57219333D01*
X152251414Y-57242137D01*
X151276438Y-58217112D01*
X151452525Y-58337166D01*
X151452526Y-58337167D01*
X151691530Y-58452264D01*
X151691528Y-58452264D01*
X151945025Y-58530458D01*
X151945031Y-58530459D01*
X152207351Y-58569999D01*
X152207358Y-58570000D01*
X152472642Y-58570000D01*
X152472648Y-58569999D01*
X152734968Y-58530459D01*
X152734974Y-58530458D01*
X152988470Y-58452264D01*
X153227479Y-58337164D01*
X153403560Y-58217112D01*
X152428585Y-57242138D01*
X152513694Y-57219333D01*
X152616306Y-57160090D01*
X152700090Y-57076306D01*
X152759333Y-56973694D01*
X152782138Y-56888585D01*
X153756355Y-57862803D01*
X153756356Y-57862802D01*
X153806545Y-57799869D01*
X153939185Y-57570128D01*
X154036103Y-57323185D01*
X154036109Y-57323166D01*
X154095138Y-57064540D01*
X154095139Y-57064535D01*
X154114963Y-56800004D01*
X154114963Y-56799995D01*
X154095139Y-56535464D01*
X154095138Y-56535459D01*
X154036109Y-56276833D01*
X154036103Y-56276814D01*
X153939185Y-56029871D01*
X153939186Y-56029871D01*
X153806543Y-55800129D01*
X153806536Y-55800118D01*
X153756356Y-55737196D01*
X153756355Y-55737195D01*
X152782137Y-56711414D01*
X152759333Y-56626306D01*
X152700090Y-56523694D01*
X152616306Y-56439910D01*
X152513694Y-56380667D01*
X152428585Y-56357862D01*
X153403560Y-55382886D01*
X153227484Y-55262839D01*
X153227474Y-55262832D01*
X152988469Y-55147735D01*
X152988471Y-55147735D01*
X152734974Y-55069541D01*
X152734968Y-55069540D01*
X152472648Y-55030000D01*
X152207351Y-55030000D01*
X151945031Y-55069540D01*
X151945025Y-55069541D01*
X151691529Y-55147735D01*
X151452526Y-55262832D01*
X151452518Y-55262837D01*
X151276438Y-55382886D01*
X152251414Y-56357861D01*
X152166306Y-56380667D01*
X152063694Y-56439910D01*
X151979910Y-56523694D01*
X151920667Y-56626306D01*
X151897861Y-56711414D01*
X150923643Y-55737196D01*
X150873456Y-55800128D01*
X150740814Y-56029871D01*
X150643896Y-56276814D01*
X150643890Y-56276833D01*
X150584861Y-56535459D01*
X150584860Y-56535464D01*
X150565037Y-56799995D01*
X150100500Y-56799995D01*
X150100500Y-55131007D01*
X150100500Y-55131004D01*
X150073581Y-54995677D01*
X150073580Y-54995676D01*
X150073580Y-54995672D01*
X150073578Y-54995667D01*
X150020778Y-54868195D01*
X150020771Y-54868182D01*
X149949856Y-54762051D01*
X149949855Y-54762049D01*
X149944116Y-54753459D01*
X149785092Y-54594435D01*
X149751607Y-54533112D01*
X149752567Y-54476316D01*
X149785108Y-54347821D01*
X149805643Y-54100000D01*
X149801319Y-54047821D01*
X149785109Y-53852187D01*
X149785107Y-53852175D01*
X149724063Y-53611118D01*
X149624173Y-53383393D01*
X149488166Y-53175217D01*
X149466557Y-53151744D01*
X149319744Y-52992262D01*
X149123509Y-52839526D01*
X149123508Y-52839525D01*
X149123505Y-52839523D01*
X149123503Y-52839522D01*
X148927692Y-52733555D01*
X148878101Y-52684335D01*
X148862993Y-52616119D01*
X148887163Y-52550563D01*
X148942939Y-52508482D01*
X148986709Y-52500500D01*
X163974094Y-52500500D01*
X164041133Y-52520185D01*
G37*
%TD.AperFunction*%
%TD*%
M02*
