%TF.GenerationSoftware,KiCad,Pcbnew,8.0.6*%
%TF.CreationDate,2025-02-20T03:10:46-08:00*%
%TF.ProjectId,ECE 412,45434520-3431-4322-9e6b-696361645f70,A*%
%TF.SameCoordinates,Original*%
%TF.FileFunction,Copper,L2,Bot*%
%TF.FilePolarity,Positive*%
%FSLAX46Y46*%
G04 Gerber Fmt 4.6, Leading zero omitted, Abs format (unit mm)*
G04 Created by KiCad (PCBNEW 8.0.6) date 2025-02-20 03:10:46*
%MOMM*%
%LPD*%
G01*
G04 APERTURE LIST*
%TA.AperFunction,ComponentPad*%
%ADD10C,2.000000*%
%TD*%
%TA.AperFunction,ComponentPad*%
%ADD11C,2.540000*%
%TD*%
%TA.AperFunction,ComponentPad*%
%ADD12R,1.700000X1.700000*%
%TD*%
%TA.AperFunction,ComponentPad*%
%ADD13O,1.700000X1.700000*%
%TD*%
%TA.AperFunction,ComponentPad*%
%ADD14R,1.600000X1.600000*%
%TD*%
%TA.AperFunction,ComponentPad*%
%ADD15C,1.600000*%
%TD*%
%TA.AperFunction,ComponentPad*%
%ADD16C,3.000000*%
%TD*%
%TA.AperFunction,ComponentPad*%
%ADD17R,1.408000X1.408000*%
%TD*%
%TA.AperFunction,ComponentPad*%
%ADD18C,1.408000*%
%TD*%
%TA.AperFunction,ComponentPad*%
%ADD19C,3.516000*%
%TD*%
%TA.AperFunction,ViaPad*%
%ADD20C,0.600000*%
%TD*%
%TA.AperFunction,Conductor*%
%ADD21C,0.400000*%
%TD*%
%TA.AperFunction,Conductor*%
%ADD22C,0.200000*%
%TD*%
G04 APERTURE END LIST*
D10*
%TO.P,TP4,1,1*%
%TO.N,Net-(U2-MISO{slash}IO19)*%
X184500000Y-83300000D03*
%TD*%
%TO.P,TP3,1,1*%
%TO.N,Net-(U4-OUTB)*%
X184500000Y-78400000D03*
%TD*%
%TO.P,TP2,1,1*%
%TO.N,Net-(U4-OUTA)*%
X148300000Y-54100000D03*
%TD*%
%TO.P,TP1,1,1*%
%TO.N,/4.5V*%
X165100000Y-53800000D03*
%TD*%
D11*
%TO.P,R4,1*%
%TO.N,Net-(U4-NEGB)*%
X164780000Y-65600000D03*
%TO.P,R4,2*%
%TO.N,Net-(U4-OUTA)*%
X154620000Y-65600000D03*
%TD*%
%TO.P,R2,1*%
%TO.N,/4.5V*%
X162500000Y-56800000D03*
%TO.P,R2,2*%
%TO.N,GND*%
X152340000Y-56800000D03*
%TD*%
D12*
%TO.P,J2,1,Pin_1*%
%TO.N,/3.3V*%
X180760000Y-88800000D03*
D13*
%TO.P,J2,2,Pin_2*%
%TO.N,GND*%
X183300000Y-88800000D03*
%TD*%
D14*
%TO.P,C4,1*%
%TO.N,Net-(U5-REFCAP)*%
X172600000Y-87500000D03*
D15*
%TO.P,C4,2*%
%TO.N,GND*%
X172600000Y-89500000D03*
%TD*%
D11*
%TO.P,R1,1*%
%TO.N,Net-(U4-V+)*%
X177980000Y-56700000D03*
%TO.P,R1,2*%
%TO.N,/4.5V*%
X167820000Y-56700000D03*
%TD*%
D16*
%TO.P,R3,1*%
%TO.N,Net-(U4-OUTA)*%
X136900000Y-81924974D03*
%TO.P,R3,2*%
%TO.N,/Faraday Cup*%
X136900000Y-62892974D03*
%TD*%
D11*
%TO.P,R6,1*%
%TO.N,Net-(U4-OUTB)*%
X161200000Y-82000000D03*
%TO.P,R6,2*%
%TO.N,Net-(U4-NEGB)*%
X151040000Y-82000000D03*
%TD*%
%TO.P,R7,1*%
%TO.N,Net-(U4-OUTB)*%
X161120000Y-89100000D03*
%TO.P,R7,2*%
%TO.N,Net-(U4-NEGB)*%
X150960000Y-89100000D03*
%TD*%
D14*
%TO.P,C3,1*%
%TO.N,Net-(U4-V+)*%
X183100000Y-67300000D03*
D15*
%TO.P,C3,2*%
%TO.N,GND*%
X183100000Y-69300000D03*
%TD*%
D12*
%TO.P,J1,1,Pin_1*%
%TO.N,/Faraday Cup*%
X136600000Y-56200000D03*
%TD*%
%TO.P,Vbat1,1,+*%
%TO.N,Net-(U4-V+)*%
X183100000Y-59600000D03*
D13*
%TO.P,Vbat1,2,-*%
%TO.N,GND*%
X183100000Y-62140000D03*
%TD*%
D14*
%TO.P,C5,1*%
%TO.N,Net-(U4-OUTA)*%
X143700000Y-81700000D03*
D15*
%TO.P,C5,2*%
%TO.N,/Faraday Cup*%
X143700000Y-76700000D03*
%TD*%
D17*
%TO.P,U2,1,IO21*%
%TO.N,Net-(U2-IO21)*%
X140660000Y-94740000D03*
D18*
%TO.P,U2,2,TX/IO17*%
%TO.N,Net-(DS1-D{slash}~{C})*%
X143200000Y-94740000D03*
%TO.P,U2,3,RX/IO16*%
%TO.N,Net-(DS1-~{RES})*%
X145740000Y-94740000D03*
%TO.P,U2,4,MISO/IO19*%
%TO.N,Net-(U2-MISO{slash}IO19)*%
X148280000Y-94740000D03*
%TO.P,U2,5,MOSI/IO18*%
%TO.N,Net-(DS1-D5)*%
X150820000Y-94740000D03*
%TO.P,U2,6,SCK/IO5*%
%TO.N,Net-(DS1-D4)*%
X153360000Y-94740000D03*
%TO.P,U2,7,A5/IO4*%
%TO.N,unconnected-(U2-A5{slash}IO4-Pad7)*%
X155900000Y-94740000D03*
%TO.P,U2,8,A4/IO36*%
%TO.N,unconnected-(U2-A4{slash}IO36-Pad8)*%
X158440000Y-94740000D03*
%TO.P,U2,9,A3/IO39*%
%TO.N,unconnected-(U2-A3{slash}IO39-Pad9)*%
X160980000Y-94740000D03*
%TO.P,U2,10,A2/IO34*%
%TO.N,unconnected-(U2-A2{slash}IO34-Pad10)*%
X163520000Y-94740000D03*
%TO.P,U2,11,A1_DAC1*%
%TO.N,unconnected-(U2-A1_DAC1-Pad11)*%
X166060000Y-94740000D03*
%TO.P,U2,12,A0_DAC2*%
%TO.N,unconnected-(U2-A0_DAC2-Pad12)*%
X168600000Y-94740000D03*
%TO.P,U2,13,GND*%
%TO.N,GND*%
X171140000Y-94740000D03*
%TO.P,U2,14,NC*%
%TO.N,unconnected-(U2-NC-Pad14)*%
X173680000Y-94740000D03*
%TO.P,U2,15,3V*%
%TO.N,/3.3V*%
X176220000Y-94740000D03*
%TO.P,U2,16,RST*%
%TO.N,unconnected-(U2-RST-Pad16)*%
X178760000Y-94740000D03*
%TO.P,U2,17,VBAT*%
%TO.N,unconnected-(U2-VBAT-Pad17)*%
X168600000Y-115060000D03*
%TO.P,U2,18,EN*%
%TO.N,unconnected-(U2-EN-Pad18)*%
X166060000Y-115060000D03*
%TO.P,U2,19,VBUS*%
%TO.N,unconnected-(U2-VBUS-Pad19)*%
X163520000Y-115060000D03*
%TO.P,U2,20,A12/IO13*%
%TO.N,unconnected-(U2-A12{slash}IO13-Pad20)*%
X160980000Y-115060000D03*
%TO.P,U2,21,A11/IO12*%
%TO.N,unconnected-(U2-A11{slash}IO12-Pad21)*%
X158440000Y-115060000D03*
%TO.P,U2,22,A10/IO27*%
%TO.N,unconnected-(U2-A10{slash}IO27-Pad22)*%
X155900000Y-115060000D03*
%TO.P,U2,23,A9/IO33*%
%TO.N,unconnected-(U2-A9{slash}IO33-Pad23)*%
X153360000Y-115060000D03*
%TO.P,U2,24,A8/IO15*%
%TO.N,unconnected-(U2-A8{slash}IO15-Pad24)*%
X150820000Y-115060000D03*
%TO.P,U2,25,A7/IO32*%
%TO.N,unconnected-(U2-A7{slash}IO32-Pad25)*%
X148280000Y-115060000D03*
%TO.P,U2,26,A6/IO14*%
%TO.N,unconnected-(U2-A6{slash}IO14-Pad26)*%
X145740000Y-115060000D03*
%TO.P,U2,27,SCL/IO22*%
%TO.N,Net-(DS1-~{CS})*%
X143200000Y-115060000D03*
%TO.P,U2,28,SDA/IO23*%
%TO.N,unconnected-(U2-SDA{slash}IO23-Pad28)*%
X140660000Y-115060000D03*
D19*
%TO.P,U2,P1*%
%TO.N,N/C*%
X182570000Y-96010000D03*
%TO.P,U2,P2*%
X182570000Y-113790000D03*
%TD*%
D11*
%TO.P,R5,1*%
%TO.N,Net-(U4-OUTB)*%
X161200000Y-74400000D03*
%TO.P,R5,2*%
%TO.N,Net-(U4-NEGB)*%
X151040000Y-74400000D03*
%TD*%
D20*
%TO.N,Net-(U2-MISO{slash}IO19)*%
X172400000Y-75300000D03*
%TO.N,GND*%
X140900000Y-59600000D03*
X184900000Y-54800000D03*
X179200000Y-115500000D03*
X135700000Y-111600000D03*
X134800000Y-88000000D03*
X184600000Y-92100000D03*
X134900000Y-60000000D03*
X148400000Y-56700000D03*
X172300000Y-73200000D03*
%TO.N,Net-(DS1-D5)*%
X166600000Y-76900000D03*
%TO.N,/4.5V*%
X140700000Y-62300000D03*
%TO.N,Net-(U4-V+)*%
X148600000Y-64600000D03*
%TD*%
D21*
%TO.N,Net-(U2-MISO{slash}IO19)*%
X184300000Y-83300000D02*
X184500000Y-83300000D01*
X176300000Y-75300000D02*
X184300000Y-83300000D01*
X172400000Y-75300000D02*
X176300000Y-75300000D01*
%TO.N,Net-(U4-OUTA)*%
X136900000Y-81924974D02*
X143475026Y-81924974D01*
X147600000Y-70900000D02*
X147600000Y-77800000D01*
X152900000Y-65600000D02*
X147600000Y-70900000D01*
X154620000Y-65600000D02*
X152900000Y-65600000D01*
X136130000Y-81041000D02*
X136035000Y-80946000D01*
X147600000Y-77800000D02*
X143700000Y-81700000D01*
X143475026Y-81924974D02*
X143700000Y-81700000D01*
%TO.N,/Faraday Cup*%
X136600000Y-56200000D02*
X136600000Y-62592974D01*
X136900000Y-62892974D02*
X136900000Y-69000000D01*
X136900000Y-69000000D02*
X143700000Y-75800000D01*
X143700000Y-75800000D02*
X143700000Y-76700000D01*
%TO.N,Net-(DS1-D5)*%
X166600000Y-76900000D02*
X166600000Y-89500000D01*
X150820000Y-92880000D02*
X150820000Y-94740000D01*
X166600000Y-89500000D02*
X164200000Y-91900000D01*
X164200000Y-91900000D02*
X151800000Y-91900000D01*
X151800000Y-91900000D02*
X150820000Y-92880000D01*
%TO.N,/4.5V*%
X149000000Y-62300000D02*
X151700000Y-59600000D01*
X151700000Y-59600000D02*
X159700000Y-59600000D01*
X159700000Y-59600000D02*
X162500000Y-56800000D01*
X140700000Y-62300000D02*
X149000000Y-62300000D01*
D22*
%TO.N,Net-(U4-NEGB)*%
X150960000Y-82080000D02*
X151040000Y-82000000D01*
D21*
X153300000Y-74400000D02*
X151040000Y-74400000D01*
X164780000Y-65600000D02*
X162100000Y-65600000D01*
X162100000Y-65600000D02*
X153300000Y-74400000D01*
X150960000Y-89100000D02*
X150960000Y-82080000D01*
X151040000Y-82000000D02*
X151040000Y-74400000D01*
%TO.N,Net-(U4-OUTB)*%
X161120000Y-89100000D02*
X161120000Y-82080000D01*
X161200000Y-78400000D02*
X161200000Y-82000000D01*
D22*
X161120000Y-82080000D02*
X161200000Y-82000000D01*
D21*
X161200000Y-74400000D02*
X161200000Y-78400000D01*
%TO.N,Net-(U4-V+)*%
X172580000Y-62100000D02*
X177980000Y-56700000D01*
X150300000Y-64600000D02*
X152800000Y-62100000D01*
X148600000Y-64600000D02*
X150300000Y-64600000D01*
X152800000Y-62100000D02*
X172580000Y-62100000D01*
%TD*%
%TA.AperFunction,Conductor*%
%TO.N,GND*%
G36*
X147680330Y-52520185D02*
G01*
X147726085Y-52572989D01*
X147736029Y-52642147D01*
X147707004Y-52705703D01*
X147672308Y-52733555D01*
X147476496Y-52839522D01*
X147476494Y-52839523D01*
X147280257Y-52992261D01*
X147111833Y-53175217D01*
X146975826Y-53383393D01*
X146875936Y-53611118D01*
X146814892Y-53852175D01*
X146814890Y-53852187D01*
X146794357Y-54099994D01*
X146794357Y-54100005D01*
X146814890Y-54347812D01*
X146814892Y-54347824D01*
X146875936Y-54588881D01*
X146975826Y-54816606D01*
X147111833Y-55024782D01*
X147111836Y-55024785D01*
X147280256Y-55207738D01*
X147476491Y-55360474D01*
X147695190Y-55478828D01*
X147930386Y-55559571D01*
X148175665Y-55600500D01*
X148424335Y-55600500D01*
X148669614Y-55559571D01*
X148904810Y-55478828D01*
X149123509Y-55360474D01*
X149319744Y-55207738D01*
X149488164Y-55024785D01*
X149624173Y-54816607D01*
X149724063Y-54588881D01*
X149785108Y-54347821D01*
X149805643Y-54100000D01*
X149801319Y-54047821D01*
X149785109Y-53852187D01*
X149785107Y-53852175D01*
X149724063Y-53611118D01*
X149624173Y-53383393D01*
X149488166Y-53175217D01*
X149466557Y-53151744D01*
X149319744Y-52992262D01*
X149123509Y-52839526D01*
X149123508Y-52839525D01*
X149123505Y-52839523D01*
X149123503Y-52839522D01*
X148927692Y-52733555D01*
X148878101Y-52684335D01*
X148862993Y-52616119D01*
X148887163Y-52550563D01*
X148942939Y-52508482D01*
X148986709Y-52500500D01*
X163974094Y-52500500D01*
X164041133Y-52520185D01*
X164086888Y-52572989D01*
X164096832Y-52642147D01*
X164067807Y-52705703D01*
X164065339Y-52708465D01*
X164042243Y-52733555D01*
X163911833Y-52875217D01*
X163775826Y-53083393D01*
X163675936Y-53311118D01*
X163614892Y-53552175D01*
X163614890Y-53552187D01*
X163594357Y-53799994D01*
X163594357Y-53800005D01*
X163614890Y-54047812D01*
X163614892Y-54047824D01*
X163675936Y-54288881D01*
X163775826Y-54516606D01*
X163911833Y-54724782D01*
X163911836Y-54724785D01*
X164080256Y-54907738D01*
X164276491Y-55060474D01*
X164293245Y-55069541D01*
X164436868Y-55147266D01*
X164495190Y-55178828D01*
X164730386Y-55259571D01*
X164975665Y-55300500D01*
X165224335Y-55300500D01*
X165469614Y-55259571D01*
X165704810Y-55178828D01*
X165923509Y-55060474D01*
X166119744Y-54907738D01*
X166288164Y-54724785D01*
X166424173Y-54516607D01*
X166524063Y-54288881D01*
X166585108Y-54047821D01*
X166601319Y-53852187D01*
X166605643Y-53800005D01*
X166605643Y-53799994D01*
X166585109Y-53552187D01*
X166585107Y-53552175D01*
X166524063Y-53311118D01*
X166424173Y-53083393D01*
X166288166Y-52875217D01*
X166249603Y-52833326D01*
X166134675Y-52708481D01*
X166103754Y-52645828D01*
X166111614Y-52576402D01*
X166155761Y-52522247D01*
X166222179Y-52500556D01*
X166225906Y-52500500D01*
X185875500Y-52500500D01*
X185942539Y-52520185D01*
X185988294Y-52572989D01*
X185999500Y-52624500D01*
X185999500Y-77535241D01*
X185979815Y-77602280D01*
X185927011Y-77648035D01*
X185857853Y-77657979D01*
X185794297Y-77628954D01*
X185771691Y-77603063D01*
X185734515Y-77546161D01*
X185688164Y-77475215D01*
X185519744Y-77292262D01*
X185323509Y-77139526D01*
X185323507Y-77139525D01*
X185323506Y-77139524D01*
X185104811Y-77021172D01*
X185104802Y-77021169D01*
X184869616Y-76940429D01*
X184624335Y-76899500D01*
X184375665Y-76899500D01*
X184130383Y-76940429D01*
X183895197Y-77021169D01*
X183895188Y-77021172D01*
X183676493Y-77139524D01*
X183480257Y-77292261D01*
X183311833Y-77475217D01*
X183175826Y-77683393D01*
X183075936Y-77911118D01*
X183014892Y-78152175D01*
X183014890Y-78152187D01*
X182994357Y-78399994D01*
X182994357Y-78400005D01*
X183014890Y-78647812D01*
X183014892Y-78647824D01*
X183075936Y-78888881D01*
X183175826Y-79116606D01*
X183311833Y-79324782D01*
X183311836Y-79324785D01*
X183480256Y-79507738D01*
X183676491Y-79660474D01*
X183895190Y-79778828D01*
X184130386Y-79859571D01*
X184375665Y-79900500D01*
X184624335Y-79900500D01*
X184869614Y-79859571D01*
X185104810Y-79778828D01*
X185323509Y-79660474D01*
X185519744Y-79507738D01*
X185688164Y-79324785D01*
X185771691Y-79196937D01*
X185824837Y-79151580D01*
X185894069Y-79142156D01*
X185957404Y-79171658D01*
X185994736Y-79230718D01*
X185999500Y-79264758D01*
X185999500Y-82435241D01*
X185979815Y-82502280D01*
X185927011Y-82548035D01*
X185857853Y-82557979D01*
X185794297Y-82528954D01*
X185771691Y-82503063D01*
X185763164Y-82490011D01*
X185688164Y-82375215D01*
X185519744Y-82192262D01*
X185323509Y-82039526D01*
X185323507Y-82039525D01*
X185323506Y-82039524D01*
X185104811Y-81921172D01*
X185104802Y-81921169D01*
X184869616Y-81840429D01*
X184624335Y-81799500D01*
X184375665Y-81799500D01*
X184130388Y-81840428D01*
X183980784Y-81891786D01*
X183910985Y-81894935D01*
X183852841Y-81862185D01*
X176746546Y-74755888D01*
X176746545Y-74755887D01*
X176631807Y-74679222D01*
X176504332Y-74626421D01*
X176504322Y-74626418D01*
X176368996Y-74599500D01*
X176368994Y-74599500D01*
X176368993Y-74599500D01*
X172825494Y-74599500D01*
X172759523Y-74580494D01*
X172749525Y-74574212D01*
X172579254Y-74514631D01*
X172579249Y-74514630D01*
X172400004Y-74494435D01*
X172399996Y-74494435D01*
X172220750Y-74514630D01*
X172220745Y-74514631D01*
X172050476Y-74574211D01*
X171897737Y-74670184D01*
X171770184Y-74797737D01*
X171674211Y-74950476D01*
X171614631Y-75120745D01*
X171614630Y-75120750D01*
X171594435Y-75299996D01*
X171594435Y-75300003D01*
X171614630Y-75479249D01*
X171614631Y-75479254D01*
X171674211Y-75649523D01*
X171734812Y-75745968D01*
X171770184Y-75802262D01*
X171897738Y-75929816D01*
X171988080Y-75986582D01*
X172050474Y-76025787D01*
X172050478Y-76025789D01*
X172093320Y-76040780D01*
X172220745Y-76085368D01*
X172220750Y-76085369D01*
X172399996Y-76105565D01*
X172400000Y-76105565D01*
X172400004Y-76105565D01*
X172579249Y-76085369D01*
X172579252Y-76085368D01*
X172579255Y-76085368D01*
X172749522Y-76025789D01*
X172750488Y-76025181D01*
X172759523Y-76019506D01*
X172825494Y-76000500D01*
X175958481Y-76000500D01*
X176025520Y-76020185D01*
X176046162Y-76036819D01*
X182977818Y-82968474D01*
X183011303Y-83029797D01*
X183013714Y-83066395D01*
X183002012Y-83207624D01*
X182994357Y-83300005D01*
X183014890Y-83547812D01*
X183014892Y-83547824D01*
X183075936Y-83788881D01*
X183175826Y-84016606D01*
X183311833Y-84224782D01*
X183311836Y-84224785D01*
X183480256Y-84407738D01*
X183676491Y-84560474D01*
X183895190Y-84678828D01*
X184130386Y-84759571D01*
X184375665Y-84800500D01*
X184624335Y-84800500D01*
X184869614Y-84759571D01*
X185104810Y-84678828D01*
X185323509Y-84560474D01*
X185519744Y-84407738D01*
X185688164Y-84224785D01*
X185771691Y-84096937D01*
X185824837Y-84051580D01*
X185894069Y-84042156D01*
X185957404Y-84071658D01*
X185994736Y-84130718D01*
X185999500Y-84164758D01*
X185999500Y-116475500D01*
X185979815Y-116542539D01*
X185927011Y-116588294D01*
X185875500Y-116599500D01*
X133724500Y-116599500D01*
X133657461Y-116579815D01*
X133611706Y-116527011D01*
X133600500Y-116475500D01*
X133600500Y-114318713D01*
X135499500Y-114318713D01*
X135499500Y-114531286D01*
X135532080Y-114736991D01*
X135532754Y-114741243D01*
X135591381Y-114921678D01*
X135598444Y-114943414D01*
X135694951Y-115132820D01*
X135819890Y-115304786D01*
X135970213Y-115455109D01*
X136142179Y-115580048D01*
X136142181Y-115580049D01*
X136142184Y-115580051D01*
X136331588Y-115676557D01*
X136533757Y-115742246D01*
X136743713Y-115775500D01*
X136743714Y-115775500D01*
X136956286Y-115775500D01*
X136956287Y-115775500D01*
X137166243Y-115742246D01*
X137368412Y-115676557D01*
X137557816Y-115580051D01*
X137579789Y-115564086D01*
X137729786Y-115455109D01*
X137729788Y-115455106D01*
X137729792Y-115455104D01*
X137880104Y-115304792D01*
X137880106Y-115304788D01*
X137880109Y-115304786D01*
X138005048Y-115132820D01*
X138005047Y-115132820D01*
X138005051Y-115132816D01*
X138042153Y-115059999D01*
X139450340Y-115059999D01*
X139450340Y-115060000D01*
X139470936Y-115282273D01*
X139470937Y-115282276D01*
X139532023Y-115496975D01*
X139532026Y-115496981D01*
X139621443Y-115676555D01*
X139631526Y-115696804D01*
X139766050Y-115874943D01*
X139931017Y-116025330D01*
X139931024Y-116025334D01*
X139931025Y-116025335D01*
X140120804Y-116142841D01*
X140120805Y-116142841D01*
X140120808Y-116142843D01*
X140328961Y-116223482D01*
X140548387Y-116264500D01*
X140548389Y-116264500D01*
X140771611Y-116264500D01*
X140771613Y-116264500D01*
X140991039Y-116223482D01*
X141199192Y-116142843D01*
X141388983Y-116025330D01*
X141553950Y-115874943D01*
X141688474Y-115696804D01*
X141787974Y-115496980D01*
X141810733Y-115416987D01*
X141848012Y-115357895D01*
X141911322Y-115328337D01*
X141980562Y-115337699D01*
X142033748Y-115383008D01*
X142049267Y-115416989D01*
X142072026Y-115496982D01*
X142161443Y-115676555D01*
X142171526Y-115696804D01*
X142306050Y-115874943D01*
X142471017Y-116025330D01*
X142471024Y-116025334D01*
X142471025Y-116025335D01*
X142660804Y-116142841D01*
X142660805Y-116142841D01*
X142660808Y-116142843D01*
X142868961Y-116223482D01*
X143088387Y-116264500D01*
X143088389Y-116264500D01*
X143311611Y-116264500D01*
X143311613Y-116264500D01*
X143531039Y-116223482D01*
X143739192Y-116142843D01*
X143928983Y-116025330D01*
X144093950Y-115874943D01*
X144228474Y-115696804D01*
X144327974Y-115496980D01*
X144350733Y-115416987D01*
X144388012Y-115357895D01*
X144451322Y-115328337D01*
X144520562Y-115337699D01*
X144573748Y-115383008D01*
X144589267Y-115416989D01*
X144612026Y-115496982D01*
X144701443Y-115676555D01*
X144711526Y-115696804D01*
X144846050Y-115874943D01*
X145011017Y-116025330D01*
X145011024Y-116025334D01*
X145011025Y-116025335D01*
X145200804Y-116142841D01*
X145200805Y-116142841D01*
X145200808Y-116142843D01*
X145408961Y-116223482D01*
X145628387Y-116264500D01*
X145628389Y-116264500D01*
X145851611Y-116264500D01*
X145851613Y-116264500D01*
X146071039Y-116223482D01*
X146279192Y-116142843D01*
X146468983Y-116025330D01*
X146633950Y-115874943D01*
X146768474Y-115696804D01*
X146867974Y-115496980D01*
X146890733Y-115416987D01*
X146928012Y-115357895D01*
X146991322Y-115328337D01*
X147060562Y-115337699D01*
X147113748Y-115383008D01*
X147129267Y-115416989D01*
X147152026Y-115496982D01*
X147241443Y-115676555D01*
X147251526Y-115696804D01*
X147386050Y-115874943D01*
X147551017Y-116025330D01*
X147551024Y-116025334D01*
X147551025Y-116025335D01*
X147740804Y-116142841D01*
X147740805Y-116142841D01*
X147740808Y-116142843D01*
X147948961Y-116223482D01*
X148168387Y-116264500D01*
X148168389Y-116264500D01*
X148391611Y-116264500D01*
X148391613Y-116264500D01*
X148611039Y-116223482D01*
X148819192Y-116142843D01*
X149008983Y-116025330D01*
X149173950Y-115874943D01*
X149308474Y-115696804D01*
X149407974Y-115496980D01*
X149430733Y-115416987D01*
X149468012Y-115357895D01*
X149531322Y-115328337D01*
X149600562Y-115337699D01*
X149653748Y-115383008D01*
X149669267Y-115416989D01*
X149692026Y-115496982D01*
X149781443Y-115676555D01*
X149791526Y-115696804D01*
X149926050Y-115874943D01*
X150091017Y-116025330D01*
X150091024Y-116025334D01*
X150091025Y-116025335D01*
X150280804Y-116142841D01*
X150280805Y-116142841D01*
X150280808Y-116142843D01*
X150488961Y-116223482D01*
X150708387Y-116264500D01*
X150708389Y-116264500D01*
X150931611Y-116264500D01*
X150931613Y-116264500D01*
X151151039Y-116223482D01*
X151359192Y-116142843D01*
X151548983Y-116025330D01*
X151713950Y-115874943D01*
X151848474Y-115696804D01*
X151947974Y-115496980D01*
X151970733Y-115416987D01*
X152008012Y-115357895D01*
X152071322Y-115328337D01*
X152140562Y-115337699D01*
X152193748Y-115383008D01*
X152209267Y-115416989D01*
X152232026Y-115496982D01*
X152321443Y-115676555D01*
X152331526Y-115696804D01*
X152466050Y-115874943D01*
X152631017Y-116025330D01*
X152631024Y-116025334D01*
X152631025Y-116025335D01*
X152820804Y-116142841D01*
X152820805Y-116142841D01*
X152820808Y-116142843D01*
X153028961Y-116223482D01*
X153248387Y-116264500D01*
X153248389Y-116264500D01*
X153471611Y-116264500D01*
X153471613Y-116264500D01*
X153691039Y-116223482D01*
X153899192Y-116142843D01*
X154088983Y-116025330D01*
X154253950Y-115874943D01*
X154388474Y-115696804D01*
X154487974Y-115496980D01*
X154510733Y-115416987D01*
X154548012Y-115357895D01*
X154611322Y-115328337D01*
X154680562Y-115337699D01*
X154733748Y-115383008D01*
X154749267Y-115416989D01*
X154772026Y-115496982D01*
X154861443Y-115676555D01*
X154871526Y-115696804D01*
X155006050Y-115874943D01*
X155171017Y-116025330D01*
X155171024Y-116025334D01*
X155171025Y-116025335D01*
X155360804Y-116142841D01*
X155360805Y-116142841D01*
X155360808Y-116142843D01*
X155568961Y-116223482D01*
X155788387Y-116264500D01*
X155788389Y-116264500D01*
X156011611Y-116264500D01*
X156011613Y-116264500D01*
X156231039Y-116223482D01*
X156439192Y-116142843D01*
X156628983Y-116025330D01*
X156793950Y-115874943D01*
X156928474Y-115696804D01*
X157027974Y-115496980D01*
X157050733Y-115416987D01*
X157088012Y-115357895D01*
X157151322Y-115328337D01*
X157220562Y-115337699D01*
X157273748Y-115383008D01*
X157289267Y-115416989D01*
X157312026Y-115496982D01*
X157401443Y-115676555D01*
X157411526Y-115696804D01*
X157546050Y-115874943D01*
X157711017Y-116025330D01*
X157711024Y-116025334D01*
X157711025Y-116025335D01*
X157900804Y-116142841D01*
X157900805Y-116142841D01*
X157900808Y-116142843D01*
X158108961Y-116223482D01*
X158328387Y-116264500D01*
X158328389Y-116264500D01*
X158551611Y-116264500D01*
X158551613Y-116264500D01*
X158771039Y-116223482D01*
X158979192Y-116142843D01*
X159168983Y-116025330D01*
X159333950Y-115874943D01*
X159468474Y-115696804D01*
X159567974Y-115496980D01*
X159590733Y-115416987D01*
X159628012Y-115357895D01*
X159691322Y-115328337D01*
X159760562Y-115337699D01*
X159813748Y-115383008D01*
X159829267Y-115416989D01*
X159852026Y-115496982D01*
X159941443Y-115676555D01*
X159951526Y-115696804D01*
X160086050Y-115874943D01*
X160251017Y-116025330D01*
X160251024Y-116025334D01*
X160251025Y-116025335D01*
X160440804Y-116142841D01*
X160440805Y-116142841D01*
X160440808Y-116142843D01*
X160648961Y-116223482D01*
X160868387Y-116264500D01*
X160868389Y-116264500D01*
X161091611Y-116264500D01*
X161091613Y-116264500D01*
X161311039Y-116223482D01*
X161519192Y-116142843D01*
X161708983Y-116025330D01*
X161873950Y-115874943D01*
X162008474Y-115696804D01*
X162107974Y-115496980D01*
X162130733Y-115416987D01*
X162168012Y-115357895D01*
X162231322Y-115328337D01*
X162300562Y-115337699D01*
X162353748Y-115383008D01*
X162369267Y-115416989D01*
X162392026Y-115496982D01*
X162481443Y-115676555D01*
X162491526Y-115696804D01*
X162626050Y-115874943D01*
X162791017Y-116025330D01*
X162791024Y-116025334D01*
X162791025Y-116025335D01*
X162980804Y-116142841D01*
X162980805Y-116142841D01*
X162980808Y-116142843D01*
X163188961Y-116223482D01*
X163408387Y-116264500D01*
X163408389Y-116264500D01*
X163631611Y-116264500D01*
X163631613Y-116264500D01*
X163851039Y-116223482D01*
X164059192Y-116142843D01*
X164248983Y-116025330D01*
X164413950Y-115874943D01*
X164548474Y-115696804D01*
X164647974Y-115496980D01*
X164670733Y-115416987D01*
X164708012Y-115357895D01*
X164771322Y-115328337D01*
X164840562Y-115337699D01*
X164893748Y-115383008D01*
X164909267Y-115416989D01*
X164932026Y-115496982D01*
X165021443Y-115676555D01*
X165031526Y-115696804D01*
X165166050Y-115874943D01*
X165331017Y-116025330D01*
X165331024Y-116025334D01*
X165331025Y-116025335D01*
X165520804Y-116142841D01*
X165520805Y-116142841D01*
X165520808Y-116142843D01*
X165728961Y-116223482D01*
X165948387Y-116264500D01*
X165948389Y-116264500D01*
X166171611Y-116264500D01*
X166171613Y-116264500D01*
X166391039Y-116223482D01*
X166599192Y-116142843D01*
X166788983Y-116025330D01*
X166953950Y-115874943D01*
X167088474Y-115696804D01*
X167187974Y-115496980D01*
X167210733Y-115416987D01*
X167248012Y-115357895D01*
X167311322Y-115328337D01*
X167380562Y-115337699D01*
X167433748Y-115383008D01*
X167449267Y-115416989D01*
X167472026Y-115496982D01*
X167561443Y-115676555D01*
X167571526Y-115696804D01*
X167706050Y-115874943D01*
X167871017Y-116025330D01*
X167871024Y-116025334D01*
X167871025Y-116025335D01*
X168060804Y-116142841D01*
X168060805Y-116142841D01*
X168060808Y-116142843D01*
X168268961Y-116223482D01*
X168488387Y-116264500D01*
X168488389Y-116264500D01*
X168711611Y-116264500D01*
X168711613Y-116264500D01*
X168931039Y-116223482D01*
X169139192Y-116142843D01*
X169328983Y-116025330D01*
X169493950Y-115874943D01*
X169628474Y-115696804D01*
X169727974Y-115496980D01*
X169727974Y-115496977D01*
X169727976Y-115496975D01*
X169782656Y-115304792D01*
X169789063Y-115282274D01*
X169809660Y-115060000D01*
X169789063Y-114837726D01*
X169767547Y-114762104D01*
X169727976Y-114623024D01*
X169727973Y-114623018D01*
X169628474Y-114423196D01*
X169493950Y-114245057D01*
X169328983Y-114094670D01*
X169328979Y-114094667D01*
X169328974Y-114094664D01*
X169139195Y-113977158D01*
X169139189Y-113977156D01*
X168931039Y-113896518D01*
X168711613Y-113855500D01*
X168488387Y-113855500D01*
X168268961Y-113896518D01*
X168137328Y-113947512D01*
X168060810Y-113977156D01*
X168060804Y-113977158D01*
X167871025Y-114094664D01*
X167871015Y-114094671D01*
X167706051Y-114245055D01*
X167571526Y-114423195D01*
X167472026Y-114623018D01*
X167472023Y-114623024D01*
X167449266Y-114703011D01*
X167411987Y-114762104D01*
X167348678Y-114791662D01*
X167279438Y-114782300D01*
X167226252Y-114736991D01*
X167210734Y-114703011D01*
X167187976Y-114623024D01*
X167187973Y-114623018D01*
X167088474Y-114423196D01*
X166953950Y-114245057D01*
X166788983Y-114094670D01*
X166788979Y-114094667D01*
X166788974Y-114094664D01*
X166599195Y-113977158D01*
X166599189Y-113977156D01*
X166391039Y-113896518D01*
X166171613Y-113855500D01*
X165948387Y-113855500D01*
X165728961Y-113896518D01*
X165597328Y-113947512D01*
X165520810Y-113977156D01*
X165520804Y-113977158D01*
X165331025Y-114094664D01*
X165331015Y-114094671D01*
X165166051Y-114245055D01*
X165031526Y-114423195D01*
X164932026Y-114623018D01*
X164932023Y-114623024D01*
X164909266Y-114703011D01*
X164871987Y-114762104D01*
X164808678Y-114791662D01*
X164739438Y-114782300D01*
X164686252Y-114736991D01*
X164670734Y-114703011D01*
X164647976Y-114623024D01*
X164647973Y-114623018D01*
X164548474Y-114423196D01*
X164413950Y-114245057D01*
X164248983Y-114094670D01*
X164248979Y-114094667D01*
X164248974Y-114094664D01*
X164059195Y-113977158D01*
X164059189Y-113977156D01*
X163851039Y-113896518D01*
X163631613Y-113855500D01*
X163408387Y-113855500D01*
X163188961Y-113896518D01*
X163057328Y-113947512D01*
X162980810Y-113977156D01*
X162980804Y-113977158D01*
X162791025Y-114094664D01*
X162791015Y-114094671D01*
X162626051Y-114245055D01*
X162491526Y-114423195D01*
X162392026Y-114623018D01*
X162392023Y-114623024D01*
X162369266Y-114703011D01*
X162331987Y-114762104D01*
X162268678Y-114791662D01*
X162199438Y-114782300D01*
X162146252Y-114736991D01*
X162130734Y-114703011D01*
X162107976Y-114623024D01*
X162107973Y-114623018D01*
X162008474Y-114423196D01*
X161873950Y-114245057D01*
X161708983Y-114094670D01*
X161708979Y-114094667D01*
X161708974Y-114094664D01*
X161519195Y-113977158D01*
X161519189Y-113977156D01*
X161311039Y-113896518D01*
X161091613Y-113855500D01*
X160868387Y-113855500D01*
X160648961Y-113896518D01*
X160517328Y-113947512D01*
X160440810Y-113977156D01*
X160440804Y-113977158D01*
X160251025Y-114094664D01*
X160251015Y-114094671D01*
X160086051Y-114245055D01*
X159951526Y-114423195D01*
X159852026Y-114623018D01*
X159852023Y-114623024D01*
X159829266Y-114703011D01*
X159791987Y-114762104D01*
X159728678Y-114791662D01*
X159659438Y-114782300D01*
X159606252Y-114736991D01*
X159590734Y-114703011D01*
X159567976Y-114623024D01*
X159567973Y-114623018D01*
X159468474Y-114423196D01*
X159333950Y-114245057D01*
X159168983Y-114094670D01*
X159168979Y-114094667D01*
X159168974Y-114094664D01*
X158979195Y-113977158D01*
X158979189Y-113977156D01*
X158771039Y-113896518D01*
X158551613Y-113855500D01*
X158328387Y-113855500D01*
X158108961Y-113896518D01*
X157977328Y-113947512D01*
X157900810Y-113977156D01*
X157900804Y-113977158D01*
X157711025Y-114094664D01*
X157711015Y-114094671D01*
X157546051Y-114245055D01*
X157411526Y-114423195D01*
X157312026Y-114623018D01*
X157312023Y-114623024D01*
X157289266Y-114703011D01*
X157251987Y-114762104D01*
X157188678Y-114791662D01*
X157119438Y-114782300D01*
X157066252Y-114736991D01*
X157050734Y-114703011D01*
X157027976Y-114623024D01*
X157027973Y-114623018D01*
X156928474Y-114423196D01*
X156793950Y-114245057D01*
X156628983Y-114094670D01*
X156628979Y-114094667D01*
X156628974Y-114094664D01*
X156439195Y-113977158D01*
X156439189Y-113977156D01*
X156231039Y-113896518D01*
X156011613Y-113855500D01*
X155788387Y-113855500D01*
X155568961Y-113896518D01*
X155437328Y-113947512D01*
X155360810Y-113977156D01*
X155360804Y-113977158D01*
X155171025Y-114094664D01*
X155171015Y-114094671D01*
X155006051Y-114245055D01*
X154871526Y-114423195D01*
X154772026Y-114623018D01*
X154772023Y-114623024D01*
X154749266Y-114703011D01*
X154711987Y-114762104D01*
X154648678Y-114791662D01*
X154579438Y-114782300D01*
X154526252Y-114736991D01*
X154510734Y-114703011D01*
X154487976Y-114623024D01*
X154487973Y-114623018D01*
X154388474Y-114423196D01*
X154253950Y-114245057D01*
X154088983Y-114094670D01*
X154088979Y-114094667D01*
X154088974Y-114094664D01*
X153899195Y-113977158D01*
X153899189Y-113977156D01*
X153691039Y-113896518D01*
X153471613Y-113855500D01*
X153248387Y-113855500D01*
X153028961Y-113896518D01*
X152897328Y-113947512D01*
X152820810Y-113977156D01*
X152820804Y-113977158D01*
X152631025Y-114094664D01*
X152631015Y-114094671D01*
X152466051Y-114245055D01*
X152331526Y-114423195D01*
X152232026Y-114623018D01*
X152232023Y-114623024D01*
X152209266Y-114703011D01*
X152171987Y-114762104D01*
X152108678Y-114791662D01*
X152039438Y-114782300D01*
X151986252Y-114736991D01*
X151970734Y-114703011D01*
X151947976Y-114623024D01*
X151947973Y-114623018D01*
X151848474Y-114423196D01*
X151713950Y-114245057D01*
X151548983Y-114094670D01*
X151548979Y-114094667D01*
X151548974Y-114094664D01*
X151359195Y-113977158D01*
X151359189Y-113977156D01*
X151151039Y-113896518D01*
X150931613Y-113855500D01*
X150708387Y-113855500D01*
X150488961Y-113896518D01*
X150357328Y-113947512D01*
X150280810Y-113977156D01*
X150280804Y-113977158D01*
X150091025Y-114094664D01*
X150091015Y-114094671D01*
X149926051Y-114245055D01*
X149791526Y-114423195D01*
X149692026Y-114623018D01*
X149692023Y-114623024D01*
X149669266Y-114703011D01*
X149631987Y-114762104D01*
X149568678Y-114791662D01*
X149499438Y-114782300D01*
X149446252Y-114736991D01*
X149430734Y-114703011D01*
X149407976Y-114623024D01*
X149407973Y-114623018D01*
X149308474Y-114423196D01*
X149173950Y-114245057D01*
X149008983Y-114094670D01*
X149008979Y-114094667D01*
X149008974Y-114094664D01*
X148819195Y-113977158D01*
X148819189Y-113977156D01*
X148611039Y-113896518D01*
X148391613Y-113855500D01*
X148168387Y-113855500D01*
X147948961Y-113896518D01*
X147817328Y-113947512D01*
X147740810Y-113977156D01*
X147740804Y-113977158D01*
X147551025Y-114094664D01*
X147551015Y-114094671D01*
X147386051Y-114245055D01*
X147251526Y-114423195D01*
X147152026Y-114623018D01*
X147152023Y-114623024D01*
X147129266Y-114703011D01*
X147091987Y-114762104D01*
X147028678Y-114791662D01*
X146959438Y-114782300D01*
X146906252Y-114736991D01*
X146890734Y-114703011D01*
X146867976Y-114623024D01*
X146867973Y-114623018D01*
X146768474Y-114423196D01*
X146633950Y-114245057D01*
X146468983Y-114094670D01*
X146468979Y-114094667D01*
X146468974Y-114094664D01*
X146279195Y-113977158D01*
X146279189Y-113977156D01*
X146071039Y-113896518D01*
X145851613Y-113855500D01*
X145628387Y-113855500D01*
X145408961Y-113896518D01*
X145277328Y-113947512D01*
X145200810Y-113977156D01*
X145200804Y-113977158D01*
X145011025Y-114094664D01*
X145011015Y-114094671D01*
X144846051Y-114245055D01*
X144711526Y-114423195D01*
X144612026Y-114623018D01*
X144612023Y-114623024D01*
X144589266Y-114703011D01*
X144551987Y-114762104D01*
X144488678Y-114791662D01*
X144419438Y-114782300D01*
X144366252Y-114736991D01*
X144350734Y-114703011D01*
X144327976Y-114623024D01*
X144327973Y-114623018D01*
X144228474Y-114423196D01*
X144093950Y-114245057D01*
X143928983Y-114094670D01*
X143928979Y-114094667D01*
X143928974Y-114094664D01*
X143739195Y-113977158D01*
X143739189Y-113977156D01*
X143531039Y-113896518D01*
X143311613Y-113855500D01*
X143088387Y-113855500D01*
X142868961Y-113896518D01*
X142737328Y-113947512D01*
X142660810Y-113977156D01*
X142660804Y-113977158D01*
X142471025Y-114094664D01*
X142471015Y-114094671D01*
X142306051Y-114245055D01*
X142171526Y-114423195D01*
X142072026Y-114623018D01*
X142072023Y-114623024D01*
X142049266Y-114703011D01*
X142011987Y-114762104D01*
X141948678Y-114791662D01*
X141879438Y-114782300D01*
X141826252Y-114736991D01*
X141810734Y-114703011D01*
X141787976Y-114623024D01*
X141787973Y-114623018D01*
X141688474Y-114423196D01*
X141553950Y-114245057D01*
X141388983Y-114094670D01*
X141388979Y-114094667D01*
X141388974Y-114094664D01*
X141199195Y-113977158D01*
X141199189Y-113977156D01*
X140991039Y-113896518D01*
X140771613Y-113855500D01*
X140548387Y-113855500D01*
X140328961Y-113896518D01*
X140197328Y-113947512D01*
X140120810Y-113977156D01*
X140120804Y-113977158D01*
X139931025Y-114094664D01*
X139931015Y-114094671D01*
X139766051Y-114245055D01*
X139631526Y-114423195D01*
X139532026Y-114623018D01*
X139532023Y-114623024D01*
X139470937Y-114837723D01*
X139470936Y-114837726D01*
X139450340Y-115059999D01*
X138042153Y-115059999D01*
X138101557Y-114943412D01*
X138167246Y-114741243D01*
X138200500Y-114531287D01*
X138200500Y-114318713D01*
X138167246Y-114108757D01*
X138101557Y-113906588D01*
X138042153Y-113790000D01*
X180306654Y-113790000D01*
X180314295Y-113906588D01*
X180326017Y-114085424D01*
X180326018Y-114085436D01*
X180383774Y-114375789D01*
X180383779Y-114375809D01*
X180478937Y-114656137D01*
X180478941Y-114656147D01*
X180609879Y-114921663D01*
X180609888Y-114921678D01*
X180774368Y-115167839D01*
X180969572Y-115390427D01*
X181043328Y-115455109D01*
X181192162Y-115585633D01*
X181438327Y-115750115D01*
X181438330Y-115750116D01*
X181438336Y-115750120D01*
X181703852Y-115881058D01*
X181703862Y-115881062D01*
X181984190Y-115976220D01*
X181984194Y-115976221D01*
X181984203Y-115976224D01*
X182180493Y-116015269D01*
X182274563Y-116033981D01*
X182274564Y-116033981D01*
X182274574Y-116033983D01*
X182570000Y-116053346D01*
X182865426Y-116033983D01*
X183155797Y-115976224D01*
X183155809Y-115976220D01*
X183436137Y-115881062D01*
X183436147Y-115881058D01*
X183701663Y-115750120D01*
X183701663Y-115750119D01*
X183701673Y-115750115D01*
X183947838Y-115585633D01*
X184170427Y-115390427D01*
X184365633Y-115167838D01*
X184530115Y-114921673D01*
X184661059Y-114656145D01*
X184672304Y-114623020D01*
X184756220Y-114375809D01*
X184756220Y-114375808D01*
X184756224Y-114375797D01*
X184813983Y-114085426D01*
X184833346Y-113790000D01*
X184813983Y-113494574D01*
X184756224Y-113204203D01*
X184745783Y-113173444D01*
X184661062Y-112923862D01*
X184661058Y-112923852D01*
X184530120Y-112658336D01*
X184530111Y-112658321D01*
X184527894Y-112655003D01*
X184365633Y-112412162D01*
X184322864Y-112363393D01*
X184170427Y-112189572D01*
X183947839Y-111994368D01*
X183701678Y-111829888D01*
X183701663Y-111829879D01*
X183436147Y-111698941D01*
X183436137Y-111698937D01*
X183155809Y-111603779D01*
X183155789Y-111603774D01*
X182865436Y-111546018D01*
X182865427Y-111546017D01*
X182865426Y-111546017D01*
X182570000Y-111526654D01*
X182274574Y-111546017D01*
X182274573Y-111546017D01*
X182274563Y-111546018D01*
X181984210Y-111603774D01*
X181984190Y-111603779D01*
X181703862Y-111698937D01*
X181703852Y-111698941D01*
X181438336Y-111829879D01*
X181438321Y-111829888D01*
X181192160Y-111994368D01*
X180969572Y-112189572D01*
X180774368Y-112412160D01*
X180609888Y-112658321D01*
X180609879Y-112658336D01*
X180478941Y-112923852D01*
X180478937Y-112923862D01*
X180383779Y-113204190D01*
X180383774Y-113204210D01*
X180326018Y-113494563D01*
X180326017Y-113494573D01*
X180326017Y-113494574D01*
X180306654Y-113790000D01*
X138042153Y-113790000D01*
X138005051Y-113717184D01*
X138005049Y-113717181D01*
X138005048Y-113717179D01*
X137880109Y-113545213D01*
X137729786Y-113394890D01*
X137557820Y-113269951D01*
X137368414Y-113173444D01*
X137368413Y-113173443D01*
X137368412Y-113173443D01*
X137166243Y-113107754D01*
X137166241Y-113107753D01*
X137166240Y-113107753D01*
X137004957Y-113082208D01*
X136956287Y-113074500D01*
X136743713Y-113074500D01*
X136695042Y-113082208D01*
X136533760Y-113107753D01*
X136331585Y-113173444D01*
X136142179Y-113269951D01*
X135970213Y-113394890D01*
X135819890Y-113545213D01*
X135694951Y-113717179D01*
X135598444Y-113906585D01*
X135532753Y-114108760D01*
X135499500Y-114318713D01*
X133600500Y-114318713D01*
X133600500Y-95205213D01*
X135499500Y-95205213D01*
X135499500Y-95417786D01*
X135521223Y-95554943D01*
X135532754Y-95627743D01*
X135596145Y-95822841D01*
X135598444Y-95829914D01*
X135694951Y-96019320D01*
X135819890Y-96191286D01*
X135970213Y-96341609D01*
X136142179Y-96466548D01*
X136142181Y-96466549D01*
X136142184Y-96466551D01*
X136331588Y-96563057D01*
X136533757Y-96628746D01*
X136743713Y-96662000D01*
X136743714Y-96662000D01*
X136956286Y-96662000D01*
X136956287Y-96662000D01*
X137166243Y-96628746D01*
X137368412Y-96563057D01*
X137557816Y-96466551D01*
X137579789Y-96450586D01*
X137729786Y-96341609D01*
X137729788Y-96341606D01*
X137729792Y-96341604D01*
X137880104Y-96191292D01*
X137880106Y-96191288D01*
X137880109Y-96191286D01*
X138005048Y-96019320D01*
X138005047Y-96019320D01*
X138005051Y-96019316D01*
X138009798Y-96010000D01*
X180306654Y-96010000D01*
X180326017Y-96305424D01*
X180326018Y-96305436D01*
X180383774Y-96595789D01*
X180383779Y-96595809D01*
X180478937Y-96876137D01*
X180478941Y-96876147D01*
X180609879Y-97141663D01*
X180609888Y-97141678D01*
X180774368Y-97387839D01*
X180969572Y-97610427D01*
X181143393Y-97762864D01*
X181192162Y-97805633D01*
X181438327Y-97970115D01*
X181438330Y-97970116D01*
X181438336Y-97970120D01*
X181703852Y-98101058D01*
X181703862Y-98101062D01*
X181984190Y-98196220D01*
X181984194Y-98196221D01*
X181984203Y-98196224D01*
X182180493Y-98235269D01*
X182274563Y-98253981D01*
X182274564Y-98253981D01*
X182274574Y-98253983D01*
X182570000Y-98273346D01*
X182865426Y-98253983D01*
X183155797Y-98196224D01*
X183155809Y-98196220D01*
X183436137Y-98101062D01*
X183436147Y-98101058D01*
X183701663Y-97970120D01*
X183701663Y-97970119D01*
X183701673Y-97970115D01*
X183947838Y-97805633D01*
X184170427Y-97610427D01*
X184365633Y-97387838D01*
X184530115Y-97141673D01*
X184661059Y-96876145D01*
X184756224Y-96595797D01*
X184813983Y-96305426D01*
X184833346Y-96010000D01*
X184813983Y-95714574D01*
X184808364Y-95686328D01*
X184781542Y-95551483D01*
X184756224Y-95424203D01*
X184747385Y-95398163D01*
X184661062Y-95143862D01*
X184661058Y-95143852D01*
X184530120Y-94878336D01*
X184530111Y-94878321D01*
X184398102Y-94680756D01*
X184365633Y-94632162D01*
X184265275Y-94517726D01*
X184170427Y-94409572D01*
X183947839Y-94214368D01*
X183701678Y-94049888D01*
X183701663Y-94049879D01*
X183436147Y-93918941D01*
X183436137Y-93918937D01*
X183155809Y-93823779D01*
X183155789Y-93823774D01*
X182865436Y-93766018D01*
X182865427Y-93766017D01*
X182865426Y-93766017D01*
X182570000Y-93746654D01*
X182274574Y-93766017D01*
X182274573Y-93766017D01*
X182274563Y-93766018D01*
X181984210Y-93823774D01*
X181984190Y-93823779D01*
X181703862Y-93918937D01*
X181703852Y-93918941D01*
X181438336Y-94049879D01*
X181438321Y-94049888D01*
X181192160Y-94214368D01*
X180969572Y-94409572D01*
X180774368Y-94632160D01*
X180609888Y-94878321D01*
X180609879Y-94878336D01*
X180478941Y-95143852D01*
X180478937Y-95143862D01*
X180383779Y-95424190D01*
X180383774Y-95424210D01*
X180326018Y-95714563D01*
X180326017Y-95714575D01*
X180306654Y-96010000D01*
X138009798Y-96010000D01*
X138101557Y-95829912D01*
X138167246Y-95627743D01*
X138200500Y-95417787D01*
X138200500Y-95205213D01*
X138167246Y-94995257D01*
X138101557Y-94793088D01*
X138005051Y-94603684D01*
X138005049Y-94603681D01*
X138005048Y-94603679D01*
X137880109Y-94431713D01*
X137729786Y-94281390D01*
X137557820Y-94156451D01*
X137368414Y-94059944D01*
X137368413Y-94059943D01*
X137368412Y-94059943D01*
X137166243Y-93994254D01*
X137166241Y-93994253D01*
X137166240Y-93994253D01*
X137127613Y-93988135D01*
X139455500Y-93988135D01*
X139455500Y-95491870D01*
X139455501Y-95491876D01*
X139461908Y-95551483D01*
X139512202Y-95686328D01*
X139512206Y-95686335D01*
X139598452Y-95801544D01*
X139598455Y-95801547D01*
X139713664Y-95887793D01*
X139713671Y-95887797D01*
X139848517Y-95938091D01*
X139848516Y-95938091D01*
X139855444Y-95938835D01*
X139908127Y-95944500D01*
X141411872Y-95944499D01*
X141471483Y-95938091D01*
X141606331Y-95887796D01*
X141721546Y-95801546D01*
X141807796Y-95686331D01*
X141858091Y-95551483D01*
X141864500Y-95491873D01*
X141864499Y-95287426D01*
X141884183Y-95220389D01*
X141936987Y-95174634D01*
X142006145Y-95164690D01*
X142069701Y-95193715D01*
X142099499Y-95232156D01*
X142171389Y-95376529D01*
X142171526Y-95376804D01*
X142306050Y-95554943D01*
X142471017Y-95705330D01*
X142471024Y-95705334D01*
X142471025Y-95705335D01*
X142660804Y-95822841D01*
X142660805Y-95822841D01*
X142660808Y-95822843D01*
X142868961Y-95903482D01*
X143088387Y-95944500D01*
X143088389Y-95944500D01*
X143311611Y-95944500D01*
X143311613Y-95944500D01*
X143531039Y-95903482D01*
X143739192Y-95822843D01*
X143928983Y-95705330D01*
X144093950Y-95554943D01*
X144228474Y-95376804D01*
X144327974Y-95176980D01*
X144350733Y-95096987D01*
X144388012Y-95037895D01*
X144451322Y-95008337D01*
X144520562Y-95017699D01*
X144573748Y-95063008D01*
X144589267Y-95096989D01*
X144612026Y-95176982D01*
X144711389Y-95376529D01*
X144711526Y-95376804D01*
X144846050Y-95554943D01*
X145011017Y-95705330D01*
X145011024Y-95705334D01*
X145011025Y-95705335D01*
X145200804Y-95822841D01*
X145200805Y-95822841D01*
X145200808Y-95822843D01*
X145408961Y-95903482D01*
X145628387Y-95944500D01*
X145628389Y-95944500D01*
X145851611Y-95944500D01*
X145851613Y-95944500D01*
X146071039Y-95903482D01*
X146279192Y-95822843D01*
X146468983Y-95705330D01*
X146633950Y-95554943D01*
X146768474Y-95376804D01*
X146867974Y-95176980D01*
X146890733Y-95096987D01*
X146928012Y-95037895D01*
X146991322Y-95008337D01*
X147060562Y-95017699D01*
X147113748Y-95063008D01*
X147129267Y-95096989D01*
X147152026Y-95176982D01*
X147251389Y-95376529D01*
X147251526Y-95376804D01*
X147386050Y-95554943D01*
X147551017Y-95705330D01*
X147551024Y-95705334D01*
X147551025Y-95705335D01*
X147740804Y-95822841D01*
X147740805Y-95822841D01*
X147740808Y-95822843D01*
X147948961Y-95903482D01*
X148168387Y-95944500D01*
X148168389Y-95944500D01*
X148391611Y-95944500D01*
X148391613Y-95944500D01*
X148611039Y-95903482D01*
X148819192Y-95822843D01*
X149008983Y-95705330D01*
X149173950Y-95554943D01*
X149308474Y-95376804D01*
X149407974Y-95176980D01*
X149430733Y-95096987D01*
X149468012Y-95037895D01*
X149531322Y-95008337D01*
X149600562Y-95017699D01*
X149653748Y-95063008D01*
X149669267Y-95096989D01*
X149692026Y-95176982D01*
X149791389Y-95376529D01*
X149791526Y-95376804D01*
X149926050Y-95554943D01*
X150091017Y-95705330D01*
X150091024Y-95705334D01*
X150091025Y-95705335D01*
X150280804Y-95822841D01*
X150280805Y-95822841D01*
X150280808Y-95822843D01*
X150488961Y-95903482D01*
X150708387Y-95944500D01*
X150708389Y-95944500D01*
X150931611Y-95944500D01*
X150931613Y-95944500D01*
X151151039Y-95903482D01*
X151359192Y-95822843D01*
X151548983Y-95705330D01*
X151713950Y-95554943D01*
X151848474Y-95376804D01*
X151947974Y-95176980D01*
X151970733Y-95096987D01*
X152008012Y-95037895D01*
X152071322Y-95008337D01*
X152140562Y-95017699D01*
X152193748Y-95063008D01*
X152209267Y-95096989D01*
X152232026Y-95176982D01*
X152331389Y-95376529D01*
X152331526Y-95376804D01*
X152466050Y-95554943D01*
X152631017Y-95705330D01*
X152631024Y-95705334D01*
X152631025Y-95705335D01*
X152820804Y-95822841D01*
X152820805Y-95822841D01*
X152820808Y-95822843D01*
X153028961Y-95903482D01*
X153248387Y-95944500D01*
X153248389Y-95944500D01*
X153471611Y-95944500D01*
X153471613Y-95944500D01*
X153691039Y-95903482D01*
X153899192Y-95822843D01*
X154088983Y-95705330D01*
X154253950Y-95554943D01*
X154388474Y-95376804D01*
X154487974Y-95176980D01*
X154510733Y-95096987D01*
X154548012Y-95037895D01*
X154611322Y-95008337D01*
X154680562Y-95017699D01*
X154733748Y-95063008D01*
X154749267Y-95096989D01*
X154772026Y-95176982D01*
X154871389Y-95376529D01*
X154871526Y-95376804D01*
X155006050Y-95554943D01*
X155171017Y-95705330D01*
X155171024Y-95705334D01*
X155171025Y-95705335D01*
X155360804Y-95822841D01*
X155360805Y-95822841D01*
X155360808Y-95822843D01*
X155568961Y-95903482D01*
X155788387Y-95944500D01*
X155788389Y-95944500D01*
X156011611Y-95944500D01*
X156011613Y-95944500D01*
X156231039Y-95903482D01*
X156439192Y-95822843D01*
X156628983Y-95705330D01*
X156793950Y-95554943D01*
X156928474Y-95376804D01*
X157027974Y-95176980D01*
X157050733Y-95096987D01*
X157088012Y-95037895D01*
X157151322Y-95008337D01*
X157220562Y-95017699D01*
X157273748Y-95063008D01*
X157289267Y-95096989D01*
X157312026Y-95176982D01*
X157411389Y-95376529D01*
X157411526Y-95376804D01*
X157546050Y-95554943D01*
X157711017Y-95705330D01*
X157711024Y-95705334D01*
X157711025Y-95705335D01*
X157900804Y-95822841D01*
X157900805Y-95822841D01*
X157900808Y-95822843D01*
X158108961Y-95903482D01*
X158328387Y-95944500D01*
X158328389Y-95944500D01*
X158551611Y-95944500D01*
X158551613Y-95944500D01*
X158771039Y-95903482D01*
X158979192Y-95822843D01*
X159168983Y-95705330D01*
X159333950Y-95554943D01*
X159468474Y-95376804D01*
X159567974Y-95176980D01*
X159590733Y-95096987D01*
X159628012Y-95037895D01*
X159691322Y-95008337D01*
X159760562Y-95017699D01*
X159813748Y-95063008D01*
X159829267Y-95096989D01*
X159852026Y-95176982D01*
X159951389Y-95376529D01*
X159951526Y-95376804D01*
X160086050Y-95554943D01*
X160251017Y-95705330D01*
X160251024Y-95705334D01*
X160251025Y-95705335D01*
X160440804Y-95822841D01*
X160440805Y-95822841D01*
X160440808Y-95822843D01*
X160648961Y-95903482D01*
X160868387Y-95944500D01*
X160868389Y-95944500D01*
X161091611Y-95944500D01*
X161091613Y-95944500D01*
X161311039Y-95903482D01*
X161519192Y-95822843D01*
X161708983Y-95705330D01*
X161873950Y-95554943D01*
X162008474Y-95376804D01*
X162107974Y-95176980D01*
X162130733Y-95096987D01*
X162168012Y-95037895D01*
X162231322Y-95008337D01*
X162300562Y-95017699D01*
X162353748Y-95063008D01*
X162369267Y-95096989D01*
X162392026Y-95176982D01*
X162491389Y-95376529D01*
X162491526Y-95376804D01*
X162626050Y-95554943D01*
X162791017Y-95705330D01*
X162791024Y-95705334D01*
X162791025Y-95705335D01*
X162980804Y-95822841D01*
X162980805Y-95822841D01*
X162980808Y-95822843D01*
X163188961Y-95903482D01*
X163408387Y-95944500D01*
X163408389Y-95944500D01*
X163631611Y-95944500D01*
X163631613Y-95944500D01*
X163851039Y-95903482D01*
X164059192Y-95822843D01*
X164248983Y-95705330D01*
X164413950Y-95554943D01*
X164548474Y-95376804D01*
X164647974Y-95176980D01*
X164670733Y-95096987D01*
X164708012Y-95037895D01*
X164771322Y-95008337D01*
X164840562Y-95017699D01*
X164893748Y-95063008D01*
X164909267Y-95096989D01*
X164932026Y-95176982D01*
X165031389Y-95376529D01*
X165031526Y-95376804D01*
X165166050Y-95554943D01*
X165331017Y-95705330D01*
X165331024Y-95705334D01*
X165331025Y-95705335D01*
X165520804Y-95822841D01*
X165520805Y-95822841D01*
X165520808Y-95822843D01*
X165728961Y-95903482D01*
X165948387Y-95944500D01*
X165948389Y-95944500D01*
X166171611Y-95944500D01*
X166171613Y-95944500D01*
X166391039Y-95903482D01*
X166599192Y-95822843D01*
X166788983Y-95705330D01*
X166953950Y-95554943D01*
X167088474Y-95376804D01*
X167187974Y-95176980D01*
X167210733Y-95096987D01*
X167248012Y-95037895D01*
X167311322Y-95008337D01*
X167380562Y-95017699D01*
X167433748Y-95063008D01*
X167449267Y-95096989D01*
X167472026Y-95176982D01*
X167571389Y-95376529D01*
X167571526Y-95376804D01*
X167706050Y-95554943D01*
X167871017Y-95705330D01*
X167871024Y-95705334D01*
X167871025Y-95705335D01*
X168060804Y-95822841D01*
X168060805Y-95822841D01*
X168060808Y-95822843D01*
X168268961Y-95903482D01*
X168488387Y-95944500D01*
X168488389Y-95944500D01*
X168711611Y-95944500D01*
X168711613Y-95944500D01*
X168931039Y-95903482D01*
X169139192Y-95822843D01*
X169328983Y-95705330D01*
X169493950Y-95554943D01*
X169628474Y-95376804D01*
X169727974Y-95176980D01*
X169750993Y-95096073D01*
X169788272Y-95036981D01*
X169851582Y-95007423D01*
X169920821Y-95016785D01*
X169974008Y-95062094D01*
X169989526Y-95096074D01*
X170012492Y-95176793D01*
X170012498Y-95176808D01*
X170111953Y-95376540D01*
X170128282Y-95398163D01*
X170697861Y-94828584D01*
X170720667Y-94913694D01*
X170779910Y-95016306D01*
X170863694Y-95100090D01*
X170966306Y-95159333D01*
X171051414Y-95182137D01*
X170483766Y-95749785D01*
X170601031Y-95822393D01*
X170601032Y-95822394D01*
X170809095Y-95902997D01*
X171028435Y-95944000D01*
X171251565Y-95944000D01*
X171470904Y-95902997D01*
X171678967Y-95822394D01*
X171678971Y-95822392D01*
X171796231Y-95749786D01*
X171796231Y-95749785D01*
X171228585Y-95182137D01*
X171313694Y-95159333D01*
X171416306Y-95100090D01*
X171500090Y-95016306D01*
X171559333Y-94913694D01*
X171582138Y-94828585D01*
X172151716Y-95398163D01*
X172168049Y-95376536D01*
X172168053Y-95376529D01*
X172267499Y-95176813D01*
X172267504Y-95176800D01*
X172290472Y-95096075D01*
X172327751Y-95036981D01*
X172391061Y-95007423D01*
X172460300Y-95016784D01*
X172513487Y-95062094D01*
X172529005Y-95096073D01*
X172552024Y-95176977D01*
X172552026Y-95176981D01*
X172558509Y-95190000D01*
X172651526Y-95376804D01*
X172786050Y-95554943D01*
X172951017Y-95705330D01*
X172951024Y-95705334D01*
X172951025Y-95705335D01*
X173140804Y-95822841D01*
X173140805Y-95822841D01*
X173140808Y-95822843D01*
X173348961Y-95903482D01*
X173568387Y-95944500D01*
X173568389Y-95944500D01*
X173791611Y-95944500D01*
X173791613Y-95944500D01*
X174011039Y-95903482D01*
X174219192Y-95822843D01*
X174408983Y-95705330D01*
X174573950Y-95554943D01*
X174708474Y-95376804D01*
X174807974Y-95176980D01*
X174830733Y-95096987D01*
X174868012Y-95037895D01*
X174931322Y-95008337D01*
X175000562Y-95017699D01*
X175053748Y-95063008D01*
X175069267Y-95096989D01*
X175092026Y-95176982D01*
X175191389Y-95376529D01*
X175191526Y-95376804D01*
X175326050Y-95554943D01*
X175491017Y-95705330D01*
X175491024Y-95705334D01*
X175491025Y-95705335D01*
X175680804Y-95822841D01*
X175680805Y-95822841D01*
X175680808Y-95822843D01*
X175888961Y-95903482D01*
X176108387Y-95944500D01*
X176108389Y-95944500D01*
X176331611Y-95944500D01*
X176331613Y-95944500D01*
X176551039Y-95903482D01*
X176759192Y-95822843D01*
X176948983Y-95705330D01*
X177113950Y-95554943D01*
X177248474Y-95376804D01*
X177347974Y-95176980D01*
X177370733Y-95096987D01*
X177408012Y-95037895D01*
X177471322Y-95008337D01*
X177540562Y-95017699D01*
X177593748Y-95063008D01*
X177609267Y-95096989D01*
X177632026Y-95176982D01*
X177731389Y-95376529D01*
X177731526Y-95376804D01*
X177866050Y-95554943D01*
X178031017Y-95705330D01*
X178031024Y-95705334D01*
X178031025Y-95705335D01*
X178220804Y-95822841D01*
X178220805Y-95822841D01*
X178220808Y-95822843D01*
X178428961Y-95903482D01*
X178648387Y-95944500D01*
X178648389Y-95944500D01*
X178871611Y-95944500D01*
X178871613Y-95944500D01*
X179091039Y-95903482D01*
X179299192Y-95822843D01*
X179488983Y-95705330D01*
X179653950Y-95554943D01*
X179788474Y-95376804D01*
X179887974Y-95176980D01*
X179887974Y-95176977D01*
X179887976Y-95176975D01*
X179933553Y-95016785D01*
X179949063Y-94962274D01*
X179969660Y-94740000D01*
X179949063Y-94517726D01*
X179924589Y-94431708D01*
X179887976Y-94303024D01*
X179887973Y-94303018D01*
X179832978Y-94192573D01*
X179788474Y-94103196D01*
X179653950Y-93925057D01*
X179488983Y-93774670D01*
X179488979Y-93774667D01*
X179488974Y-93774664D01*
X179299195Y-93657158D01*
X179299189Y-93657156D01*
X179091039Y-93576518D01*
X178871613Y-93535500D01*
X178648387Y-93535500D01*
X178428961Y-93576518D01*
X178388466Y-93592206D01*
X178220810Y-93657156D01*
X178220804Y-93657158D01*
X178031025Y-93774664D01*
X178031015Y-93774671D01*
X177866051Y-93925055D01*
X177731526Y-94103195D01*
X177632026Y-94303018D01*
X177632023Y-94303024D01*
X177609266Y-94383011D01*
X177571987Y-94442104D01*
X177508678Y-94471662D01*
X177439438Y-94462300D01*
X177386252Y-94416991D01*
X177370734Y-94383011D01*
X177347976Y-94303024D01*
X177347973Y-94303018D01*
X177292978Y-94192573D01*
X177248474Y-94103196D01*
X177113950Y-93925057D01*
X176948983Y-93774670D01*
X176948979Y-93774667D01*
X176948974Y-93774664D01*
X176759195Y-93657158D01*
X176759189Y-93657156D01*
X176551039Y-93576518D01*
X176331613Y-93535500D01*
X176108387Y-93535500D01*
X175888961Y-93576518D01*
X175848466Y-93592206D01*
X175680810Y-93657156D01*
X175680804Y-93657158D01*
X175491025Y-93774664D01*
X175491015Y-93774671D01*
X175326051Y-93925055D01*
X175191526Y-94103195D01*
X175092026Y-94303018D01*
X175092023Y-94303024D01*
X175069266Y-94383011D01*
X175031987Y-94442104D01*
X174968678Y-94471662D01*
X174899438Y-94462300D01*
X174846252Y-94416991D01*
X174830734Y-94383011D01*
X174807976Y-94303024D01*
X174807973Y-94303018D01*
X174752978Y-94192573D01*
X174708474Y-94103196D01*
X174573950Y-93925057D01*
X174408983Y-93774670D01*
X174408979Y-93774667D01*
X174408974Y-93774664D01*
X174219195Y-93657158D01*
X174219189Y-93657156D01*
X174011039Y-93576518D01*
X173791613Y-93535500D01*
X173568387Y-93535500D01*
X173348961Y-93576518D01*
X173308466Y-93592206D01*
X173140810Y-93657156D01*
X173140804Y-93657158D01*
X172951025Y-93774664D01*
X172951015Y-93774671D01*
X172786051Y-93925055D01*
X172651526Y-94103195D01*
X172552026Y-94303018D01*
X172552024Y-94303022D01*
X172529005Y-94383926D01*
X172491725Y-94443019D01*
X172428416Y-94472576D01*
X172359176Y-94463214D01*
X172305990Y-94417904D01*
X172290472Y-94383925D01*
X172267503Y-94303196D01*
X172267501Y-94303191D01*
X172168046Y-94103458D01*
X172151716Y-94081836D01*
X171582138Y-94651414D01*
X171559333Y-94566306D01*
X171500090Y-94463694D01*
X171416306Y-94379910D01*
X171313694Y-94320667D01*
X171228584Y-94297861D01*
X171796232Y-93730213D01*
X171678966Y-93657605D01*
X171678965Y-93657604D01*
X171470904Y-93577002D01*
X171251565Y-93536000D01*
X171028435Y-93536000D01*
X170809095Y-93577002D01*
X170601034Y-93657604D01*
X170601028Y-93657607D01*
X170483767Y-93730212D01*
X170483766Y-93730213D01*
X171051415Y-94297861D01*
X170966306Y-94320667D01*
X170863694Y-94379910D01*
X170779910Y-94463694D01*
X170720667Y-94566306D01*
X170697861Y-94651415D01*
X170128282Y-94081836D01*
X170128281Y-94081836D01*
X170111953Y-94103458D01*
X170012498Y-94303191D01*
X170012493Y-94303204D01*
X169989526Y-94383926D01*
X169952247Y-94443019D01*
X169888937Y-94472576D01*
X169819697Y-94463214D01*
X169766511Y-94417904D01*
X169750994Y-94383925D01*
X169727976Y-94303024D01*
X169727973Y-94303018D01*
X169672978Y-94192573D01*
X169628474Y-94103196D01*
X169493950Y-93925057D01*
X169328983Y-93774670D01*
X169328979Y-93774667D01*
X169328974Y-93774664D01*
X169139195Y-93657158D01*
X169139189Y-93657156D01*
X168931039Y-93576518D01*
X168711613Y-93535500D01*
X168488387Y-93535500D01*
X168268961Y-93576518D01*
X168228466Y-93592206D01*
X168060810Y-93657156D01*
X168060804Y-93657158D01*
X167871025Y-93774664D01*
X167871015Y-93774671D01*
X167706051Y-93925055D01*
X167571526Y-94103195D01*
X167472026Y-94303018D01*
X167472023Y-94303024D01*
X167449266Y-94383011D01*
X167411987Y-94442104D01*
X167348678Y-94471662D01*
X167279438Y-94462300D01*
X167226252Y-94416991D01*
X167210734Y-94383011D01*
X167187976Y-94303024D01*
X167187973Y-94303018D01*
X167132978Y-94192573D01*
X167088474Y-94103196D01*
X166953950Y-93925057D01*
X166788983Y-93774670D01*
X166788979Y-93774667D01*
X166788974Y-93774664D01*
X166599195Y-93657158D01*
X166599189Y-93657156D01*
X166391039Y-93576518D01*
X166171613Y-93535500D01*
X165948387Y-93535500D01*
X165728961Y-93576518D01*
X165688466Y-93592206D01*
X165520810Y-93657156D01*
X165520804Y-93657158D01*
X165331025Y-93774664D01*
X165331015Y-93774671D01*
X165166051Y-93925055D01*
X165031526Y-94103195D01*
X164932026Y-94303018D01*
X164932023Y-94303024D01*
X164909266Y-94383011D01*
X164871987Y-94442104D01*
X164808678Y-94471662D01*
X164739438Y-94462300D01*
X164686252Y-94416991D01*
X164670734Y-94383011D01*
X164647976Y-94303024D01*
X164647973Y-94303018D01*
X164592978Y-94192573D01*
X164548474Y-94103196D01*
X164413950Y-93925057D01*
X164248983Y-93774670D01*
X164248979Y-93774667D01*
X164248974Y-93774664D01*
X164059195Y-93657158D01*
X164059189Y-93657156D01*
X163851039Y-93576518D01*
X163631613Y-93535500D01*
X163408387Y-93535500D01*
X163188961Y-93576518D01*
X163148466Y-93592206D01*
X162980810Y-93657156D01*
X162980804Y-93657158D01*
X162791025Y-93774664D01*
X162791015Y-93774671D01*
X162626051Y-93925055D01*
X162491526Y-94103195D01*
X162392026Y-94303018D01*
X162392023Y-94303024D01*
X162369266Y-94383011D01*
X162331987Y-94442104D01*
X162268678Y-94471662D01*
X162199438Y-94462300D01*
X162146252Y-94416991D01*
X162130734Y-94383011D01*
X162107976Y-94303024D01*
X162107973Y-94303018D01*
X162052978Y-94192573D01*
X162008474Y-94103196D01*
X161873950Y-93925057D01*
X161708983Y-93774670D01*
X161708979Y-93774667D01*
X161708974Y-93774664D01*
X161519195Y-93657158D01*
X161519189Y-93657156D01*
X161311039Y-93576518D01*
X161091613Y-93535500D01*
X160868387Y-93535500D01*
X160648961Y-93576518D01*
X160608466Y-93592206D01*
X160440810Y-93657156D01*
X160440804Y-93657158D01*
X160251025Y-93774664D01*
X160251015Y-93774671D01*
X160086051Y-93925055D01*
X159951526Y-94103195D01*
X159852026Y-94303018D01*
X159852023Y-94303024D01*
X159829266Y-94383011D01*
X159791987Y-94442104D01*
X159728678Y-94471662D01*
X159659438Y-94462300D01*
X159606252Y-94416991D01*
X159590734Y-94383011D01*
X159567976Y-94303024D01*
X159567973Y-94303018D01*
X159512978Y-94192573D01*
X159468474Y-94103196D01*
X159333950Y-93925057D01*
X159168983Y-93774670D01*
X159168979Y-93774667D01*
X159168974Y-93774664D01*
X158979195Y-93657158D01*
X158979189Y-93657156D01*
X158771039Y-93576518D01*
X158551613Y-93535500D01*
X158328387Y-93535500D01*
X158108961Y-93576518D01*
X158068466Y-93592206D01*
X157900810Y-93657156D01*
X157900804Y-93657158D01*
X157711025Y-93774664D01*
X157711015Y-93774671D01*
X157546051Y-93925055D01*
X157411526Y-94103195D01*
X157312026Y-94303018D01*
X157312023Y-94303024D01*
X157289266Y-94383011D01*
X157251987Y-94442104D01*
X157188678Y-94471662D01*
X157119438Y-94462300D01*
X157066252Y-94416991D01*
X157050734Y-94383011D01*
X157027976Y-94303024D01*
X157027973Y-94303018D01*
X156972978Y-94192573D01*
X156928474Y-94103196D01*
X156793950Y-93925057D01*
X156628983Y-93774670D01*
X156628979Y-93774667D01*
X156628974Y-93774664D01*
X156439195Y-93657158D01*
X156439189Y-93657156D01*
X156231039Y-93576518D01*
X156011613Y-93535500D01*
X155788387Y-93535500D01*
X155568961Y-93576518D01*
X155528466Y-93592206D01*
X155360810Y-93657156D01*
X155360804Y-93657158D01*
X155171025Y-93774664D01*
X155171015Y-93774671D01*
X155006051Y-93925055D01*
X154871526Y-94103195D01*
X154772026Y-94303018D01*
X154772023Y-94303024D01*
X154749266Y-94383011D01*
X154711987Y-94442104D01*
X154648678Y-94471662D01*
X154579438Y-94462300D01*
X154526252Y-94416991D01*
X154510734Y-94383011D01*
X154487976Y-94303024D01*
X154487973Y-94303018D01*
X154432978Y-94192573D01*
X154388474Y-94103196D01*
X154253950Y-93925057D01*
X154088983Y-93774670D01*
X154088979Y-93774667D01*
X154088974Y-93774664D01*
X153899195Y-93657158D01*
X153899189Y-93657156D01*
X153691039Y-93576518D01*
X153471613Y-93535500D01*
X153248387Y-93535500D01*
X153028961Y-93576518D01*
X152988466Y-93592206D01*
X152820810Y-93657156D01*
X152820804Y-93657158D01*
X152631025Y-93774664D01*
X152631015Y-93774671D01*
X152466051Y-93925055D01*
X152331526Y-94103195D01*
X152232026Y-94303018D01*
X152232023Y-94303024D01*
X152209266Y-94383011D01*
X152171987Y-94442104D01*
X152108678Y-94471662D01*
X152039438Y-94462300D01*
X151986252Y-94416991D01*
X151970734Y-94383011D01*
X151947976Y-94303024D01*
X151947973Y-94303018D01*
X151892978Y-94192573D01*
X151848474Y-94103196D01*
X151713950Y-93925057D01*
X151713948Y-93925054D01*
X151560962Y-93785589D01*
X151524680Y-93725878D01*
X151520500Y-93693952D01*
X151520500Y-93221519D01*
X151540185Y-93154480D01*
X151556819Y-93133838D01*
X152053838Y-92636819D01*
X152115161Y-92603334D01*
X152141519Y-92600500D01*
X164268996Y-92600500D01*
X164360040Y-92582389D01*
X164404328Y-92573580D01*
X164468069Y-92547177D01*
X164531807Y-92520777D01*
X164531808Y-92520776D01*
X164531811Y-92520775D01*
X164646543Y-92444114D01*
X167144114Y-89946543D01*
X167220775Y-89831811D01*
X167273580Y-89704328D01*
X167283513Y-89654394D01*
X167300500Y-89568996D01*
X167300500Y-89499997D01*
X171295034Y-89499997D01*
X171295034Y-89500002D01*
X171314858Y-89726599D01*
X171314860Y-89726610D01*
X171373730Y-89946317D01*
X171373735Y-89946331D01*
X171469863Y-90152478D01*
X171520974Y-90225472D01*
X172200000Y-89546446D01*
X172200000Y-89552661D01*
X172227259Y-89654394D01*
X172279920Y-89745606D01*
X172354394Y-89820080D01*
X172445606Y-89872741D01*
X172547339Y-89900000D01*
X172553553Y-89900000D01*
X171874526Y-90579025D01*
X171947513Y-90630132D01*
X171947521Y-90630136D01*
X172153668Y-90726264D01*
X172153682Y-90726269D01*
X172373389Y-90785139D01*
X172373400Y-90785141D01*
X172599998Y-90804966D01*
X172600002Y-90804966D01*
X172826599Y-90785141D01*
X172826610Y-90785139D01*
X173046317Y-90726269D01*
X173046331Y-90726264D01*
X173252478Y-90630136D01*
X173325471Y-90579024D01*
X172646447Y-89900000D01*
X172652661Y-89900000D01*
X172754394Y-89872741D01*
X172845606Y-89820080D01*
X172920080Y-89745606D01*
X172972741Y-89654394D01*
X173000000Y-89552661D01*
X173000000Y-89546447D01*
X173679024Y-90225471D01*
X173730136Y-90152478D01*
X173826264Y-89946331D01*
X173826269Y-89946317D01*
X173885139Y-89726610D01*
X173885141Y-89726599D01*
X173904966Y-89500002D01*
X173904966Y-89499997D01*
X173885141Y-89273400D01*
X173885139Y-89273389D01*
X173826269Y-89053682D01*
X173826265Y-89053673D01*
X173730134Y-88847518D01*
X173730130Y-88847512D01*
X173721188Y-88834740D01*
X173698861Y-88768534D01*
X173715873Y-88700767D01*
X173748454Y-88664351D01*
X173757546Y-88657546D01*
X173843796Y-88542331D01*
X173894091Y-88407483D01*
X173900500Y-88347873D01*
X173900500Y-87902135D01*
X179409500Y-87902135D01*
X179409500Y-89697870D01*
X179409501Y-89697876D01*
X179415908Y-89757483D01*
X179466202Y-89892328D01*
X179466206Y-89892335D01*
X179552452Y-90007544D01*
X179552455Y-90007547D01*
X179667664Y-90093793D01*
X179667671Y-90093797D01*
X179802517Y-90144091D01*
X179802516Y-90144091D01*
X179809444Y-90144835D01*
X179862127Y-90150500D01*
X181657872Y-90150499D01*
X181717483Y-90144091D01*
X181852331Y-90093796D01*
X181967546Y-90007546D01*
X182053796Y-89892331D01*
X182103002Y-89760401D01*
X182144872Y-89704468D01*
X182210337Y-89680050D01*
X182278610Y-89694901D01*
X182306865Y-89716053D01*
X182428917Y-89838105D01*
X182622421Y-89973600D01*
X182836507Y-90073429D01*
X182836516Y-90073433D01*
X183050000Y-90130634D01*
X183050000Y-89233012D01*
X183107007Y-89265925D01*
X183234174Y-89300000D01*
X183365826Y-89300000D01*
X183492993Y-89265925D01*
X183550000Y-89233012D01*
X183550000Y-90130633D01*
X183763483Y-90073433D01*
X183763492Y-90073429D01*
X183977578Y-89973600D01*
X184171082Y-89838105D01*
X184338105Y-89671082D01*
X184473600Y-89477578D01*
X184573429Y-89263492D01*
X184573432Y-89263486D01*
X184630636Y-89050000D01*
X183733012Y-89050000D01*
X183765925Y-88992993D01*
X183800000Y-88865826D01*
X183800000Y-88734174D01*
X183765925Y-88607007D01*
X183733012Y-88550000D01*
X184630636Y-88550000D01*
X184630635Y-88549999D01*
X184573432Y-88336513D01*
X184573429Y-88336507D01*
X184473600Y-88122422D01*
X184473599Y-88122420D01*
X184338113Y-87928926D01*
X184338108Y-87928920D01*
X184171082Y-87761894D01*
X183977578Y-87626399D01*
X183763492Y-87526570D01*
X183763486Y-87526567D01*
X183550000Y-87469364D01*
X183550000Y-88366988D01*
X183492993Y-88334075D01*
X183365826Y-88300000D01*
X183234174Y-88300000D01*
X183107007Y-88334075D01*
X183050000Y-88366988D01*
X183050000Y-87469364D01*
X183049999Y-87469364D01*
X182836513Y-87526567D01*
X182836507Y-87526570D01*
X182622422Y-87626399D01*
X182622420Y-87626400D01*
X182428926Y-87761886D01*
X182306865Y-87883947D01*
X182245542Y-87917431D01*
X182175850Y-87912447D01*
X182119917Y-87870575D01*
X182103002Y-87839598D01*
X182053797Y-87707671D01*
X182053793Y-87707664D01*
X181967547Y-87592455D01*
X181967544Y-87592452D01*
X181852335Y-87506206D01*
X181852328Y-87506202D01*
X181717482Y-87455908D01*
X181717483Y-87455908D01*
X181657883Y-87449501D01*
X181657881Y-87449500D01*
X181657873Y-87449500D01*
X181657864Y-87449500D01*
X179862129Y-87449500D01*
X179862123Y-87449501D01*
X179802516Y-87455908D01*
X179667671Y-87506202D01*
X179667664Y-87506206D01*
X179552455Y-87592452D01*
X179552452Y-87592455D01*
X179466206Y-87707664D01*
X179466202Y-87707671D01*
X179415908Y-87842517D01*
X179409501Y-87902116D01*
X179409500Y-87902135D01*
X173900500Y-87902135D01*
X173900499Y-86652128D01*
X173894091Y-86592517D01*
X173843796Y-86457669D01*
X173843795Y-86457668D01*
X173843793Y-86457664D01*
X173757547Y-86342455D01*
X173757544Y-86342452D01*
X173642335Y-86256206D01*
X173642328Y-86256202D01*
X173507482Y-86205908D01*
X173507483Y-86205908D01*
X173447883Y-86199501D01*
X173447881Y-86199500D01*
X173447873Y-86199500D01*
X173447864Y-86199500D01*
X171752129Y-86199500D01*
X171752123Y-86199501D01*
X171692516Y-86205908D01*
X171557671Y-86256202D01*
X171557664Y-86256206D01*
X171442455Y-86342452D01*
X171442452Y-86342455D01*
X171356206Y-86457664D01*
X171356202Y-86457671D01*
X171305908Y-86592517D01*
X171299501Y-86652116D01*
X171299501Y-86652123D01*
X171299500Y-86652135D01*
X171299500Y-88347870D01*
X171299501Y-88347876D01*
X171305908Y-88407483D01*
X171356202Y-88542328D01*
X171356206Y-88542335D01*
X171442452Y-88657544D01*
X171442453Y-88657544D01*
X171442454Y-88657546D01*
X171451545Y-88664351D01*
X171493416Y-88720282D01*
X171498402Y-88789974D01*
X171478813Y-88834736D01*
X171469871Y-88847507D01*
X171469868Y-88847512D01*
X171373734Y-89053673D01*
X171373730Y-89053682D01*
X171314860Y-89273389D01*
X171314858Y-89273400D01*
X171295034Y-89499997D01*
X167300500Y-89499997D01*
X167300500Y-77325493D01*
X167319508Y-77259519D01*
X167325787Y-77249525D01*
X167325786Y-77249525D01*
X167325789Y-77249522D01*
X167385368Y-77079255D01*
X167385369Y-77079249D01*
X167405565Y-76900003D01*
X167405565Y-76899996D01*
X167385369Y-76720750D01*
X167385368Y-76720745D01*
X167325788Y-76550476D01*
X167229815Y-76397737D01*
X167102262Y-76270184D01*
X166949523Y-76174211D01*
X166779254Y-76114631D01*
X166779249Y-76114630D01*
X166600004Y-76094435D01*
X166599996Y-76094435D01*
X166420750Y-76114630D01*
X166420745Y-76114631D01*
X166250476Y-76174211D01*
X166097737Y-76270184D01*
X165970184Y-76397737D01*
X165874211Y-76550476D01*
X165814631Y-76720745D01*
X165814630Y-76720750D01*
X165794435Y-76899996D01*
X165794435Y-76900003D01*
X165814630Y-77079249D01*
X165814631Y-77079254D01*
X165874212Y-77249525D01*
X165880492Y-77259519D01*
X165899500Y-77325493D01*
X165899500Y-89158481D01*
X165879815Y-89225520D01*
X165863181Y-89246162D01*
X163946162Y-91163181D01*
X163884839Y-91196666D01*
X163858481Y-91199500D01*
X151731003Y-91199500D01*
X151622590Y-91221065D01*
X151622589Y-91221065D01*
X151609131Y-91223742D01*
X151595673Y-91226419D01*
X151558330Y-91241887D01*
X151468189Y-91279224D01*
X151426960Y-91306772D01*
X151399412Y-91325180D01*
X151399411Y-91325181D01*
X151353458Y-91355884D01*
X151353453Y-91355888D01*
X150275888Y-92433453D01*
X150275885Y-92433457D01*
X150217541Y-92520776D01*
X150199230Y-92548180D01*
X150199223Y-92548192D01*
X150146420Y-92675671D01*
X150146418Y-92675677D01*
X150119500Y-92811004D01*
X150119500Y-93693952D01*
X150099815Y-93760991D01*
X150079038Y-93785589D01*
X149926051Y-93925054D01*
X149791526Y-94103195D01*
X149692026Y-94303018D01*
X149692023Y-94303024D01*
X149669266Y-94383011D01*
X149631987Y-94442104D01*
X149568678Y-94471662D01*
X149499438Y-94462300D01*
X149446252Y-94416991D01*
X149430734Y-94383011D01*
X149407976Y-94303024D01*
X149407973Y-94303018D01*
X149352978Y-94192573D01*
X149308474Y-94103196D01*
X149173950Y-93925057D01*
X149008983Y-93774670D01*
X149008979Y-93774667D01*
X149008974Y-93774664D01*
X148819195Y-93657158D01*
X148819189Y-93657156D01*
X148611039Y-93576518D01*
X148391613Y-93535500D01*
X148168387Y-93535500D01*
X147948961Y-93576518D01*
X147908466Y-93592206D01*
X147740810Y-93657156D01*
X147740804Y-93657158D01*
X147551025Y-93774664D01*
X147551015Y-93774671D01*
X147386051Y-93925055D01*
X147251526Y-94103195D01*
X147152026Y-94303018D01*
X147152023Y-94303024D01*
X147129266Y-94383011D01*
X147091987Y-94442104D01*
X147028678Y-94471662D01*
X146959438Y-94462300D01*
X146906252Y-94416991D01*
X146890734Y-94383011D01*
X146867976Y-94303024D01*
X146867973Y-94303018D01*
X146812978Y-94192573D01*
X146768474Y-94103196D01*
X146633950Y-93925057D01*
X146468983Y-93774670D01*
X146468979Y-93774667D01*
X146468974Y-93774664D01*
X146279195Y-93657158D01*
X146279189Y-93657156D01*
X146071039Y-93576518D01*
X145851613Y-93535500D01*
X145628387Y-93535500D01*
X145408961Y-93576518D01*
X145368466Y-93592206D01*
X145200810Y-93657156D01*
X145200804Y-93657158D01*
X145011025Y-93774664D01*
X145011015Y-93774671D01*
X144846051Y-93925055D01*
X144711526Y-94103195D01*
X144612026Y-94303018D01*
X144612023Y-94303024D01*
X144589266Y-94383011D01*
X144551987Y-94442104D01*
X144488678Y-94471662D01*
X144419438Y-94462300D01*
X144366252Y-94416991D01*
X144350734Y-94383011D01*
X144327976Y-94303024D01*
X144327973Y-94303018D01*
X144272978Y-94192573D01*
X144228474Y-94103196D01*
X144093950Y-93925057D01*
X143928983Y-93774670D01*
X143928979Y-93774667D01*
X143928974Y-93774664D01*
X143739195Y-93657158D01*
X143739189Y-93657156D01*
X143531039Y-93576518D01*
X143311613Y-93535500D01*
X143088387Y-93535500D01*
X142868961Y-93576518D01*
X142828466Y-93592206D01*
X142660810Y-93657156D01*
X142660804Y-93657158D01*
X142471025Y-93774664D01*
X142471015Y-93774671D01*
X142306051Y-93925055D01*
X142171526Y-94103195D01*
X142099499Y-94247845D01*
X142051996Y-94299082D01*
X141984333Y-94316503D01*
X141917993Y-94294577D01*
X141874038Y-94240266D01*
X141864499Y-94192573D01*
X141864499Y-93988129D01*
X141864498Y-93988123D01*
X141864497Y-93988116D01*
X141858091Y-93928517D01*
X141856799Y-93925054D01*
X141807797Y-93793671D01*
X141807793Y-93793664D01*
X141721547Y-93678455D01*
X141721544Y-93678452D01*
X141606335Y-93592206D01*
X141606328Y-93592202D01*
X141471482Y-93541908D01*
X141471483Y-93541908D01*
X141411883Y-93535501D01*
X141411881Y-93535500D01*
X141411873Y-93535500D01*
X141411864Y-93535500D01*
X139908129Y-93535500D01*
X139908123Y-93535501D01*
X139848516Y-93541908D01*
X139713671Y-93592202D01*
X139713664Y-93592206D01*
X139598455Y-93678452D01*
X139598452Y-93678455D01*
X139512206Y-93793664D01*
X139512202Y-93793671D01*
X139461908Y-93928517D01*
X139455501Y-93988116D01*
X139455501Y-93988123D01*
X139455500Y-93988135D01*
X137127613Y-93988135D01*
X137004957Y-93968708D01*
X136956287Y-93961000D01*
X136743713Y-93961000D01*
X136695042Y-93968708D01*
X136533760Y-93994253D01*
X136331585Y-94059944D01*
X136142179Y-94156451D01*
X135970213Y-94281390D01*
X135819890Y-94431713D01*
X135694951Y-94603679D01*
X135598444Y-94793085D01*
X135532753Y-94995260D01*
X135499500Y-95205213D01*
X133600500Y-95205213D01*
X133600500Y-89099995D01*
X149184535Y-89099995D01*
X149184535Y-89100004D01*
X149204363Y-89364609D01*
X149204364Y-89364614D01*
X149263410Y-89623313D01*
X149263412Y-89623322D01*
X149263414Y-89623327D01*
X149360361Y-89870345D01*
X149493042Y-90100155D01*
X149658492Y-90307623D01*
X149853016Y-90488114D01*
X150072268Y-90637598D01*
X150311350Y-90752734D01*
X150564922Y-90830950D01*
X150564923Y-90830950D01*
X150564926Y-90830951D01*
X150827311Y-90870499D01*
X150827316Y-90870499D01*
X150827319Y-90870500D01*
X150827320Y-90870500D01*
X151092680Y-90870500D01*
X151092681Y-90870500D01*
X151092688Y-90870499D01*
X151355073Y-90830951D01*
X151355074Y-90830950D01*
X151355078Y-90830950D01*
X151608650Y-90752734D01*
X151847733Y-90637598D01*
X152066984Y-90488114D01*
X152261508Y-90307623D01*
X152426958Y-90100155D01*
X152559639Y-89870345D01*
X152656586Y-89623327D01*
X152715635Y-89364619D01*
X152717060Y-89345606D01*
X152735465Y-89100004D01*
X152735465Y-89099995D01*
X159344535Y-89099995D01*
X159344535Y-89100004D01*
X159364363Y-89364609D01*
X159364364Y-89364614D01*
X159423410Y-89623313D01*
X159423412Y-89623322D01*
X159423414Y-89623327D01*
X159520361Y-89870345D01*
X159653042Y-90100155D01*
X159818492Y-90307623D01*
X160013016Y-90488114D01*
X160232268Y-90637598D01*
X160471350Y-90752734D01*
X160724922Y-90830950D01*
X160724923Y-90830950D01*
X160724926Y-90830951D01*
X160987311Y-90870499D01*
X160987316Y-90870499D01*
X160987319Y-90870500D01*
X160987320Y-90870500D01*
X161252680Y-90870500D01*
X161252681Y-90870500D01*
X161252688Y-90870499D01*
X161515073Y-90830951D01*
X161515074Y-90830950D01*
X161515078Y-90830950D01*
X161768650Y-90752734D01*
X162007733Y-90637598D01*
X162226984Y-90488114D01*
X162421508Y-90307623D01*
X162586958Y-90100155D01*
X162719639Y-89870345D01*
X162816586Y-89623327D01*
X162875635Y-89364619D01*
X162877060Y-89345606D01*
X162895465Y-89100004D01*
X162895465Y-89099995D01*
X162875636Y-88835390D01*
X162875635Y-88835385D01*
X162875635Y-88835381D01*
X162816586Y-88576673D01*
X162719639Y-88329655D01*
X162586958Y-88099845D01*
X162421508Y-87892377D01*
X162226984Y-87711886D01*
X162007733Y-87562402D01*
X162007729Y-87562400D01*
X161890698Y-87506040D01*
X161838838Y-87459217D01*
X161820500Y-87394320D01*
X161820500Y-83744204D01*
X161840185Y-83677165D01*
X161890698Y-83632484D01*
X162050702Y-83555431D01*
X162087725Y-83537602D01*
X162087725Y-83537601D01*
X162087733Y-83537598D01*
X162306984Y-83388114D01*
X162501508Y-83207623D01*
X162666958Y-83000155D01*
X162799639Y-82770345D01*
X162896586Y-82523327D01*
X162955635Y-82264619D01*
X162959698Y-82210402D01*
X162975465Y-82000004D01*
X162975465Y-81999995D01*
X162955636Y-81735390D01*
X162955635Y-81735385D01*
X162955635Y-81735381D01*
X162896586Y-81476673D01*
X162799639Y-81229655D01*
X162666958Y-80999845D01*
X162501508Y-80792377D01*
X162306984Y-80611886D01*
X162166378Y-80516022D01*
X162087736Y-80462404D01*
X162087735Y-80462403D01*
X162087733Y-80462402D01*
X162074859Y-80456202D01*
X161970698Y-80406040D01*
X161918838Y-80359217D01*
X161900500Y-80294320D01*
X161900500Y-76105678D01*
X161920185Y-76038639D01*
X161970696Y-75993959D01*
X162087733Y-75937598D01*
X162306984Y-75788114D01*
X162501508Y-75607623D01*
X162666958Y-75400155D01*
X162799639Y-75170345D01*
X162896586Y-74923327D01*
X162955635Y-74664619D01*
X162955636Y-74664609D01*
X162975465Y-74400004D01*
X162975465Y-74399995D01*
X162955636Y-74135390D01*
X162955635Y-74135385D01*
X162955635Y-74135381D01*
X162896586Y-73876673D01*
X162799639Y-73629655D01*
X162666958Y-73399845D01*
X162501508Y-73192377D01*
X162306984Y-73011886D01*
X162087733Y-72862402D01*
X162087732Y-72862401D01*
X162087725Y-72862397D01*
X161848655Y-72747268D01*
X161848636Y-72747261D01*
X161595083Y-72669051D01*
X161595073Y-72669048D01*
X161332688Y-72629500D01*
X161332681Y-72629500D01*
X161067319Y-72629500D01*
X161067311Y-72629500D01*
X160804926Y-72669048D01*
X160804916Y-72669051D01*
X160551363Y-72747261D01*
X160551344Y-72747268D01*
X160312276Y-72862397D01*
X160312274Y-72862398D01*
X160093015Y-73011886D01*
X159898494Y-73192375D01*
X159898492Y-73192377D01*
X159733042Y-73399845D01*
X159600361Y-73629654D01*
X159503416Y-73876667D01*
X159503410Y-73876686D01*
X159444364Y-74135385D01*
X159444363Y-74135390D01*
X159424535Y-74399995D01*
X159424535Y-74400004D01*
X159444363Y-74664609D01*
X159444364Y-74664614D01*
X159503410Y-74923313D01*
X159503412Y-74923322D01*
X159503414Y-74923327D01*
X159600361Y-75170345D01*
X159733042Y-75400155D01*
X159898492Y-75607623D01*
X160093016Y-75788114D01*
X160312268Y-75937598D01*
X160312273Y-75937600D01*
X160312274Y-75937601D01*
X160312275Y-75937602D01*
X160429301Y-75993958D01*
X160481161Y-76040780D01*
X160499500Y-76105678D01*
X160499500Y-80294320D01*
X160479815Y-80361359D01*
X160429303Y-80406040D01*
X160325142Y-80456202D01*
X160312268Y-80462402D01*
X160257917Y-80499458D01*
X160093015Y-80611886D01*
X159898494Y-80792375D01*
X159898492Y-80792377D01*
X159733042Y-80999845D01*
X159600361Y-81229654D01*
X159503416Y-81476667D01*
X159503410Y-81476686D01*
X159444364Y-81735385D01*
X159444363Y-81735390D01*
X159424535Y-81999995D01*
X159424535Y-82000004D01*
X159444363Y-82264609D01*
X159444364Y-82264614D01*
X159503410Y-82523313D01*
X159503412Y-82523322D01*
X159503414Y-82523327D01*
X159600361Y-82770345D01*
X159733042Y-83000155D01*
X159898492Y-83207623D01*
X160093016Y-83388114D01*
X160312268Y-83537598D01*
X160349301Y-83555432D01*
X160401160Y-83602253D01*
X160419500Y-83667152D01*
X160419500Y-87394320D01*
X160399815Y-87461359D01*
X160349303Y-87506040D01*
X160306679Y-87526567D01*
X160232268Y-87562402D01*
X160156012Y-87614392D01*
X160013015Y-87711886D01*
X159818494Y-87892375D01*
X159818492Y-87892377D01*
X159653042Y-88099845D01*
X159520361Y-88329654D01*
X159423416Y-88576667D01*
X159423410Y-88576686D01*
X159364364Y-88835385D01*
X159364363Y-88835390D01*
X159344535Y-89099995D01*
X152735465Y-89099995D01*
X152715636Y-88835390D01*
X152715635Y-88835385D01*
X152715635Y-88835381D01*
X152656586Y-88576673D01*
X152559639Y-88329655D01*
X152426958Y-88099845D01*
X152261508Y-87892377D01*
X152066984Y-87711886D01*
X151847733Y-87562402D01*
X151847729Y-87562400D01*
X151730698Y-87506040D01*
X151678838Y-87459217D01*
X151660500Y-87394320D01*
X151660500Y-83744204D01*
X151680185Y-83677165D01*
X151730698Y-83632484D01*
X151890702Y-83555431D01*
X151927725Y-83537602D01*
X151927725Y-83537601D01*
X151927733Y-83537598D01*
X152146984Y-83388114D01*
X152341508Y-83207623D01*
X152506958Y-83000155D01*
X152639639Y-82770345D01*
X152736586Y-82523327D01*
X152795635Y-82264619D01*
X152799698Y-82210402D01*
X152815465Y-82000004D01*
X152815465Y-81999995D01*
X152795636Y-81735390D01*
X152795635Y-81735385D01*
X152795635Y-81735381D01*
X152736586Y-81476673D01*
X152639639Y-81229655D01*
X152506958Y-80999845D01*
X152341508Y-80792377D01*
X152146984Y-80611886D01*
X152006378Y-80516022D01*
X151927736Y-80462404D01*
X151927735Y-80462403D01*
X151927733Y-80462402D01*
X151914859Y-80456202D01*
X151810698Y-80406040D01*
X151758838Y-80359217D01*
X151740500Y-80294320D01*
X151740500Y-76105678D01*
X151760185Y-76038639D01*
X151810696Y-75993959D01*
X151927733Y-75937598D01*
X152146984Y-75788114D01*
X152341508Y-75607623D01*
X152506958Y-75400155D01*
X152639639Y-75170345D01*
X152639638Y-75170345D01*
X152641959Y-75166327D01*
X152642916Y-75166879D01*
X152686292Y-75118839D01*
X152751189Y-75100500D01*
X153368996Y-75100500D01*
X153460040Y-75082389D01*
X153504328Y-75073580D01*
X153568069Y-75047177D01*
X153631807Y-75020777D01*
X153631808Y-75020776D01*
X153631811Y-75020775D01*
X153746543Y-74944114D01*
X159390659Y-69299997D01*
X181795034Y-69299997D01*
X181795034Y-69300002D01*
X181814858Y-69526599D01*
X181814860Y-69526610D01*
X181873730Y-69746317D01*
X181873735Y-69746331D01*
X181969863Y-69952478D01*
X182020974Y-70025472D01*
X182700000Y-69346446D01*
X182700000Y-69352661D01*
X182727259Y-69454394D01*
X182779920Y-69545606D01*
X182854394Y-69620080D01*
X182945606Y-69672741D01*
X183047339Y-69700000D01*
X183053553Y-69700000D01*
X182374526Y-70379025D01*
X182447513Y-70430132D01*
X182447521Y-70430136D01*
X182653668Y-70526264D01*
X182653682Y-70526269D01*
X182873389Y-70585139D01*
X182873400Y-70585141D01*
X183099998Y-70604966D01*
X183100002Y-70604966D01*
X183326599Y-70585141D01*
X183326610Y-70585139D01*
X183546317Y-70526269D01*
X183546331Y-70526264D01*
X183752478Y-70430136D01*
X183825471Y-70379024D01*
X183146447Y-69700000D01*
X183152661Y-69700000D01*
X183254394Y-69672741D01*
X183345606Y-69620080D01*
X183420080Y-69545606D01*
X183472741Y-69454394D01*
X183500000Y-69352661D01*
X183500000Y-69346447D01*
X184179024Y-70025471D01*
X184230136Y-69952478D01*
X184326264Y-69746331D01*
X184326269Y-69746317D01*
X184385139Y-69526610D01*
X184385141Y-69526599D01*
X184404966Y-69300002D01*
X184404966Y-69299997D01*
X184385141Y-69073400D01*
X184385139Y-69073389D01*
X184326269Y-68853682D01*
X184326265Y-68853673D01*
X184230134Y-68647518D01*
X184230130Y-68647512D01*
X184221188Y-68634740D01*
X184198861Y-68568534D01*
X184215873Y-68500767D01*
X184248454Y-68464351D01*
X184257546Y-68457546D01*
X184343796Y-68342331D01*
X184394091Y-68207483D01*
X184400500Y-68147873D01*
X184400499Y-66452128D01*
X184394091Y-66392517D01*
X184385821Y-66370345D01*
X184343797Y-66257671D01*
X184343793Y-66257664D01*
X184257547Y-66142455D01*
X184257544Y-66142452D01*
X184142335Y-66056206D01*
X184142328Y-66056202D01*
X184007482Y-66005908D01*
X184007483Y-66005908D01*
X183947883Y-65999501D01*
X183947881Y-65999500D01*
X183947873Y-65999500D01*
X183947864Y-65999500D01*
X182252129Y-65999500D01*
X182252123Y-65999501D01*
X182192516Y-66005908D01*
X182057671Y-66056202D01*
X182057664Y-66056206D01*
X181942455Y-66142452D01*
X181942452Y-66142455D01*
X181856206Y-66257664D01*
X181856202Y-66257671D01*
X181805908Y-66392517D01*
X181801480Y-66433711D01*
X181799501Y-66452123D01*
X181799500Y-66452135D01*
X181799500Y-68147870D01*
X181799501Y-68147876D01*
X181805908Y-68207483D01*
X181856202Y-68342328D01*
X181856206Y-68342335D01*
X181942452Y-68457544D01*
X181942453Y-68457544D01*
X181942454Y-68457546D01*
X181951545Y-68464351D01*
X181993416Y-68520282D01*
X181998402Y-68589974D01*
X181978813Y-68634736D01*
X181969871Y-68647507D01*
X181969868Y-68647512D01*
X181873734Y-68853673D01*
X181873730Y-68853682D01*
X181814860Y-69073389D01*
X181814858Y-69073400D01*
X181795034Y-69299997D01*
X159390659Y-69299997D01*
X162353837Y-66336818D01*
X162415160Y-66303334D01*
X162441518Y-66300500D01*
X163068811Y-66300500D01*
X163135850Y-66320185D01*
X163177129Y-66366853D01*
X163178041Y-66366327D01*
X163180361Y-66370345D01*
X163313042Y-66600155D01*
X163478492Y-66807623D01*
X163673016Y-66988114D01*
X163892268Y-67137598D01*
X164131350Y-67252734D01*
X164384922Y-67330950D01*
X164384923Y-67330950D01*
X164384926Y-67330951D01*
X164647311Y-67370499D01*
X164647316Y-67370499D01*
X164647319Y-67370500D01*
X164647320Y-67370500D01*
X164912680Y-67370500D01*
X164912681Y-67370500D01*
X164912688Y-67370499D01*
X165175073Y-67330951D01*
X165175074Y-67330950D01*
X165175078Y-67330950D01*
X165428650Y-67252734D01*
X165667733Y-67137598D01*
X165886984Y-66988114D01*
X166081508Y-66807623D01*
X166246958Y-66600155D01*
X166379639Y-66370345D01*
X166476586Y-66123327D01*
X166535635Y-65864619D01*
X166555465Y-65600000D01*
X166540894Y-65405565D01*
X166535636Y-65335390D01*
X166535635Y-65335385D01*
X166535635Y-65335381D01*
X166476586Y-65076673D01*
X166379639Y-64829655D01*
X166246958Y-64599845D01*
X166081508Y-64392377D01*
X165886984Y-64211886D01*
X165878880Y-64206361D01*
X165667736Y-64062404D01*
X165667725Y-64062397D01*
X165428655Y-63947268D01*
X165428636Y-63947261D01*
X165175083Y-63869051D01*
X165175073Y-63869048D01*
X164912688Y-63829500D01*
X164912681Y-63829500D01*
X164647319Y-63829500D01*
X164647311Y-63829500D01*
X164384926Y-63869048D01*
X164384916Y-63869051D01*
X164131363Y-63947261D01*
X164131344Y-63947268D01*
X163892276Y-64062397D01*
X163892274Y-64062398D01*
X163673015Y-64211886D01*
X163478494Y-64392375D01*
X163478492Y-64392377D01*
X163313042Y-64599845D01*
X163178041Y-64833673D01*
X163177083Y-64833120D01*
X163133708Y-64881161D01*
X163068811Y-64899500D01*
X162031003Y-64899500D01*
X161922590Y-64921065D01*
X161922589Y-64921065D01*
X161909131Y-64923742D01*
X161895673Y-64926419D01*
X161869268Y-64937356D01*
X161842866Y-64948292D01*
X161842864Y-64948293D01*
X161842863Y-64948292D01*
X161768191Y-64979223D01*
X161667445Y-65046539D01*
X161667446Y-65046540D01*
X161653453Y-65055889D01*
X161653451Y-65055891D01*
X153046162Y-73663181D01*
X152984839Y-73696666D01*
X152958481Y-73699500D01*
X152751189Y-73699500D01*
X152684150Y-73679815D01*
X152642870Y-73633146D01*
X152641959Y-73633673D01*
X152619060Y-73594011D01*
X152506958Y-73399845D01*
X152341508Y-73192377D01*
X152146984Y-73011886D01*
X151927733Y-72862402D01*
X151927732Y-72862401D01*
X151927725Y-72862397D01*
X151688655Y-72747268D01*
X151688636Y-72747261D01*
X151435083Y-72669051D01*
X151435073Y-72669048D01*
X151172688Y-72629500D01*
X151172681Y-72629500D01*
X150907319Y-72629500D01*
X150907311Y-72629500D01*
X150644926Y-72669048D01*
X150644916Y-72669051D01*
X150391363Y-72747261D01*
X150391344Y-72747268D01*
X150152276Y-72862397D01*
X150152274Y-72862398D01*
X149933015Y-73011886D01*
X149738494Y-73192375D01*
X149738492Y-73192377D01*
X149573042Y-73399845D01*
X149440361Y-73629654D01*
X149343416Y-73876667D01*
X149343410Y-73876686D01*
X149284364Y-74135385D01*
X149284363Y-74135390D01*
X149264535Y-74399995D01*
X149264535Y-74400004D01*
X149284363Y-74664609D01*
X149284364Y-74664614D01*
X149343410Y-74923313D01*
X149343412Y-74923322D01*
X149343414Y-74923327D01*
X149440361Y-75170345D01*
X149573042Y-75400155D01*
X149738492Y-75607623D01*
X149933016Y-75788114D01*
X150152268Y-75937598D01*
X150152273Y-75937600D01*
X150152274Y-75937601D01*
X150152275Y-75937602D01*
X150269301Y-75993958D01*
X150321161Y-76040780D01*
X150339500Y-76105678D01*
X150339500Y-80294320D01*
X150319815Y-80361359D01*
X150269303Y-80406040D01*
X150165142Y-80456202D01*
X150152268Y-80462402D01*
X150097917Y-80499458D01*
X149933015Y-80611886D01*
X149738494Y-80792375D01*
X149738492Y-80792377D01*
X149573042Y-80999845D01*
X149440361Y-81229654D01*
X149343416Y-81476667D01*
X149343410Y-81476686D01*
X149284364Y-81735385D01*
X149284363Y-81735390D01*
X149264535Y-81999995D01*
X149264535Y-82000004D01*
X149284363Y-82264609D01*
X149284364Y-82264614D01*
X149343410Y-82523313D01*
X149343412Y-82523322D01*
X149343414Y-82523327D01*
X149440361Y-82770345D01*
X149573042Y-83000155D01*
X149738492Y-83207623D01*
X149933016Y-83388114D01*
X150152268Y-83537598D01*
X150189301Y-83555432D01*
X150241160Y-83602253D01*
X150259500Y-83667152D01*
X150259500Y-87394320D01*
X150239815Y-87461359D01*
X150189303Y-87506040D01*
X150146679Y-87526567D01*
X150072268Y-87562402D01*
X149996012Y-87614392D01*
X149853015Y-87711886D01*
X149658494Y-87892375D01*
X149658492Y-87892377D01*
X149493042Y-88099845D01*
X149360361Y-88329654D01*
X149263416Y-88576667D01*
X149263410Y-88576686D01*
X149204364Y-88835385D01*
X149204363Y-88835390D01*
X149184535Y-89099995D01*
X133600500Y-89099995D01*
X133600500Y-81924972D01*
X134894390Y-81924972D01*
X134894390Y-81924975D01*
X134914804Y-82210407D01*
X134975628Y-82490011D01*
X134975630Y-82490017D01*
X134975631Y-82490020D01*
X135069740Y-82742335D01*
X135075635Y-82758140D01*
X135212770Y-83009283D01*
X135212775Y-83009291D01*
X135384254Y-83238361D01*
X135384270Y-83238379D01*
X135586594Y-83440703D01*
X135586612Y-83440719D01*
X135815682Y-83612198D01*
X135815690Y-83612203D01*
X136066833Y-83749338D01*
X136066832Y-83749338D01*
X136066836Y-83749339D01*
X136066839Y-83749341D01*
X136334954Y-83849343D01*
X136334960Y-83849344D01*
X136334962Y-83849345D01*
X136614566Y-83910169D01*
X136614568Y-83910169D01*
X136614572Y-83910170D01*
X136868220Y-83928311D01*
X136899999Y-83930584D01*
X136900000Y-83930584D01*
X136900001Y-83930584D01*
X136928595Y-83928538D01*
X137185428Y-83910170D01*
X137465046Y-83849343D01*
X137733161Y-83749341D01*
X137984315Y-83612200D01*
X138213395Y-83440713D01*
X138415739Y-83238369D01*
X138587226Y-83009289D01*
X138724367Y-82758135D01*
X138743760Y-82706139D01*
X138785632Y-82650206D01*
X138851097Y-82625790D01*
X138859942Y-82625474D01*
X142326524Y-82625474D01*
X142393563Y-82645159D01*
X142439318Y-82697963D01*
X142442706Y-82706142D01*
X142456201Y-82742326D01*
X142456206Y-82742335D01*
X142542452Y-82857544D01*
X142542455Y-82857547D01*
X142657664Y-82943793D01*
X142657671Y-82943797D01*
X142792517Y-82994091D01*
X142792516Y-82994091D01*
X142799444Y-82994835D01*
X142852127Y-83000500D01*
X144547872Y-83000499D01*
X144607483Y-82994091D01*
X144742331Y-82943796D01*
X144857546Y-82857546D01*
X144943796Y-82742331D01*
X144994091Y-82607483D01*
X145000500Y-82547873D01*
X145000499Y-81441517D01*
X145020184Y-81374479D01*
X145036813Y-81353842D01*
X148144114Y-78246543D01*
X148220775Y-78131811D01*
X148273580Y-78004328D01*
X148300500Y-77868994D01*
X148300500Y-77731006D01*
X148300500Y-71241518D01*
X148320185Y-71174479D01*
X148336814Y-71153842D01*
X152942679Y-66547976D01*
X153004000Y-66514493D01*
X153073692Y-66519477D01*
X153129625Y-66561349D01*
X153137738Y-66573648D01*
X153153042Y-66600155D01*
X153318492Y-66807623D01*
X153513016Y-66988114D01*
X153732268Y-67137598D01*
X153971350Y-67252734D01*
X154224922Y-67330950D01*
X154224923Y-67330950D01*
X154224926Y-67330951D01*
X154487311Y-67370499D01*
X154487316Y-67370499D01*
X154487319Y-67370500D01*
X154487320Y-67370500D01*
X154752680Y-67370500D01*
X154752681Y-67370500D01*
X154752688Y-67370499D01*
X155015073Y-67330951D01*
X155015074Y-67330950D01*
X155015078Y-67330950D01*
X155268650Y-67252734D01*
X155507733Y-67137598D01*
X155726984Y-66988114D01*
X155921508Y-66807623D01*
X156086958Y-66600155D01*
X156219639Y-66370345D01*
X156316586Y-66123327D01*
X156375635Y-65864619D01*
X156395465Y-65600000D01*
X156380894Y-65405565D01*
X156375636Y-65335390D01*
X156375635Y-65335385D01*
X156375635Y-65335381D01*
X156316586Y-65076673D01*
X156219639Y-64829655D01*
X156086958Y-64599845D01*
X155921508Y-64392377D01*
X155726984Y-64211886D01*
X155718880Y-64206361D01*
X155507736Y-64062404D01*
X155507725Y-64062397D01*
X155268655Y-63947268D01*
X155268636Y-63947261D01*
X155015083Y-63869051D01*
X155015073Y-63869048D01*
X154752688Y-63829500D01*
X154752681Y-63829500D01*
X154487319Y-63829500D01*
X154487311Y-63829500D01*
X154224926Y-63869048D01*
X154224916Y-63869051D01*
X153971363Y-63947261D01*
X153971344Y-63947268D01*
X153732276Y-64062397D01*
X153732274Y-64062398D01*
X153513015Y-64211886D01*
X153318494Y-64392375D01*
X153318492Y-64392377D01*
X153153042Y-64599845D01*
X153018041Y-64833673D01*
X153017083Y-64833120D01*
X152973708Y-64881161D01*
X152908811Y-64899500D01*
X152831004Y-64899500D01*
X152695677Y-64926418D01*
X152695667Y-64926421D01*
X152568192Y-64979222D01*
X152453454Y-65055887D01*
X147055887Y-70453454D01*
X146979222Y-70568192D01*
X146926421Y-70695667D01*
X146926418Y-70695677D01*
X146899500Y-70831004D01*
X146899500Y-77458480D01*
X146879815Y-77525519D01*
X146863181Y-77546161D01*
X144046160Y-80363181D01*
X143984837Y-80396666D01*
X143958479Y-80399500D01*
X142852129Y-80399500D01*
X142852123Y-80399501D01*
X142792516Y-80405908D01*
X142657671Y-80456202D01*
X142657664Y-80456206D01*
X142542455Y-80542452D01*
X142542452Y-80542455D01*
X142456206Y-80657664D01*
X142456202Y-80657671D01*
X142405908Y-80792517D01*
X142399501Y-80852116D01*
X142399500Y-80852135D01*
X142399500Y-81100474D01*
X142379815Y-81167513D01*
X142327011Y-81213268D01*
X142275500Y-81224474D01*
X138859942Y-81224474D01*
X138792903Y-81204789D01*
X138747148Y-81151985D01*
X138743760Y-81143808D01*
X138727597Y-81100474D01*
X138724367Y-81091813D01*
X138674148Y-80999845D01*
X138587229Y-80840664D01*
X138587224Y-80840656D01*
X138415745Y-80611586D01*
X138415729Y-80611568D01*
X138213405Y-80409244D01*
X138213387Y-80409228D01*
X137984317Y-80237749D01*
X137984309Y-80237744D01*
X137733166Y-80100609D01*
X137733167Y-80100609D01*
X137625915Y-80060606D01*
X137465046Y-80000605D01*
X137465043Y-80000604D01*
X137465037Y-80000602D01*
X137185433Y-79939778D01*
X136900001Y-79919364D01*
X136899999Y-79919364D01*
X136614566Y-79939778D01*
X136334962Y-80000602D01*
X136066833Y-80100609D01*
X135815690Y-80237744D01*
X135763183Y-80277049D01*
X135665255Y-80350357D01*
X135659848Y-80354183D01*
X135588458Y-80401884D01*
X135534141Y-80456202D01*
X135490886Y-80499457D01*
X135486600Y-80505869D01*
X135471185Y-80524653D01*
X135384268Y-80611571D01*
X135384251Y-80611590D01*
X135212775Y-80840656D01*
X135212770Y-80840664D01*
X135075635Y-81091807D01*
X134975628Y-81359936D01*
X134914804Y-81639540D01*
X134894390Y-81924972D01*
X133600500Y-81924972D01*
X133600500Y-62892972D01*
X134894390Y-62892972D01*
X134894390Y-62892975D01*
X134914804Y-63178407D01*
X134975628Y-63458011D01*
X134975630Y-63458017D01*
X134975631Y-63458020D01*
X134980336Y-63470634D01*
X135075635Y-63726140D01*
X135212770Y-63977283D01*
X135212775Y-63977291D01*
X135384254Y-64206361D01*
X135384270Y-64206379D01*
X135586594Y-64408703D01*
X135586612Y-64408719D01*
X135815682Y-64580198D01*
X135815690Y-64580203D01*
X136066833Y-64717338D01*
X136066841Y-64717342D01*
X136087399Y-64725009D01*
X136118833Y-64736733D01*
X136174766Y-64778604D01*
X136199184Y-64844068D01*
X136199500Y-64852915D01*
X136199500Y-68931006D01*
X136199500Y-69068994D01*
X136199500Y-69068996D01*
X136199499Y-69068996D01*
X136226418Y-69204322D01*
X136226421Y-69204332D01*
X136279222Y-69331807D01*
X136355887Y-69446545D01*
X136355888Y-69446546D01*
X142655311Y-75745968D01*
X142688796Y-75807291D01*
X142683812Y-75876983D01*
X142669206Y-75904771D01*
X142569431Y-76047267D01*
X142473261Y-76253502D01*
X142473258Y-76253511D01*
X142414366Y-76473302D01*
X142414364Y-76473313D01*
X142394532Y-76699998D01*
X142394532Y-76700001D01*
X142414364Y-76926686D01*
X142414366Y-76926697D01*
X142473258Y-77146488D01*
X142473261Y-77146497D01*
X142569431Y-77352732D01*
X142569432Y-77352734D01*
X142699954Y-77539141D01*
X142860858Y-77700045D01*
X142860861Y-77700047D01*
X143047266Y-77830568D01*
X143253504Y-77926739D01*
X143473308Y-77985635D01*
X143635230Y-77999801D01*
X143699998Y-78005468D01*
X143700000Y-78005468D01*
X143700002Y-78005468D01*
X143756673Y-78000509D01*
X143926692Y-77985635D01*
X144146496Y-77926739D01*
X144352734Y-77830568D01*
X144539139Y-77700047D01*
X144700047Y-77539139D01*
X144830568Y-77352734D01*
X144926739Y-77146496D01*
X144985635Y-76926692D01*
X145005468Y-76700000D01*
X144985635Y-76473308D01*
X144926739Y-76253504D01*
X144830568Y-76047266D01*
X144700047Y-75860861D01*
X144700045Y-75860858D01*
X144539141Y-75699954D01*
X144396392Y-75600001D01*
X144352955Y-75545881D01*
X144320775Y-75468189D01*
X144254495Y-75368994D01*
X144254494Y-75368992D01*
X144244116Y-75353459D01*
X137636819Y-68746162D01*
X137603334Y-68684839D01*
X137600500Y-68658481D01*
X137600500Y-64852915D01*
X137620185Y-64785876D01*
X137672989Y-64740121D01*
X137681158Y-64736736D01*
X137733161Y-64717341D01*
X137948061Y-64599996D01*
X147794435Y-64599996D01*
X147794435Y-64600003D01*
X147814630Y-64779249D01*
X147814631Y-64779254D01*
X147874211Y-64949523D01*
X147970184Y-65102262D01*
X148097738Y-65229816D01*
X148167385Y-65273578D01*
X148250474Y-65325787D01*
X148250478Y-65325789D01*
X148420745Y-65385368D01*
X148420750Y-65385369D01*
X148599996Y-65405565D01*
X148600000Y-65405565D01*
X148600004Y-65405565D01*
X148779249Y-65385369D01*
X148779252Y-65385368D01*
X148779255Y-65385368D01*
X148949522Y-65325789D01*
X148950488Y-65325181D01*
X148959523Y-65319506D01*
X149025494Y-65300500D01*
X150368996Y-65300500D01*
X150460040Y-65282389D01*
X150504328Y-65273580D01*
X150568069Y-65247177D01*
X150631807Y-65220777D01*
X150631808Y-65220776D01*
X150631811Y-65220775D01*
X150746543Y-65144114D01*
X153053838Y-62836819D01*
X153115161Y-62803334D01*
X153141519Y-62800500D01*
X172648996Y-62800500D01*
X172740040Y-62782389D01*
X172784328Y-62773580D01*
X172848069Y-62747177D01*
X172911807Y-62720777D01*
X172911808Y-62720776D01*
X172911811Y-62720775D01*
X173026543Y-62644114D01*
X176968520Y-58702135D01*
X181749500Y-58702135D01*
X181749500Y-60497870D01*
X181749501Y-60497876D01*
X181755908Y-60557483D01*
X181806202Y-60692328D01*
X181806206Y-60692335D01*
X181892452Y-60807544D01*
X181892455Y-60807547D01*
X182007664Y-60893793D01*
X182007671Y-60893797D01*
X182007674Y-60893798D01*
X182139598Y-60943002D01*
X182195531Y-60984873D01*
X182219949Y-61050337D01*
X182205098Y-61118610D01*
X182183947Y-61146865D01*
X182061886Y-61268926D01*
X181926400Y-61462420D01*
X181926399Y-61462422D01*
X181826570Y-61676507D01*
X181826567Y-61676513D01*
X181769364Y-61889999D01*
X181769364Y-61890000D01*
X182666988Y-61890000D01*
X182634075Y-61947007D01*
X182600000Y-62074174D01*
X182600000Y-62205826D01*
X182634075Y-62332993D01*
X182666988Y-62390000D01*
X181769364Y-62390000D01*
X181826567Y-62603486D01*
X181826570Y-62603492D01*
X181926399Y-62817578D01*
X182061894Y-63011082D01*
X182228917Y-63178105D01*
X182422421Y-63313600D01*
X182636507Y-63413429D01*
X182636516Y-63413433D01*
X182850000Y-63470634D01*
X182850000Y-62573012D01*
X182907007Y-62605925D01*
X183034174Y-62640000D01*
X183165826Y-62640000D01*
X183292993Y-62605925D01*
X183350000Y-62573012D01*
X183350000Y-63470633D01*
X183563483Y-63413433D01*
X183563492Y-63413429D01*
X183777578Y-63313600D01*
X183971082Y-63178105D01*
X184138105Y-63011082D01*
X184273600Y-62817578D01*
X184373429Y-62603492D01*
X184373432Y-62603486D01*
X184430636Y-62390000D01*
X183533012Y-62390000D01*
X183565925Y-62332993D01*
X183600000Y-62205826D01*
X183600000Y-62074174D01*
X183565925Y-61947007D01*
X183533012Y-61890000D01*
X184430636Y-61890000D01*
X184430635Y-61889999D01*
X184373432Y-61676513D01*
X184373429Y-61676507D01*
X184273600Y-61462422D01*
X184273599Y-61462420D01*
X184138113Y-61268926D01*
X184138108Y-61268920D01*
X184016053Y-61146865D01*
X183982568Y-61085542D01*
X183987552Y-61015850D01*
X184029424Y-60959917D01*
X184060400Y-60943002D01*
X184192331Y-60893796D01*
X184307546Y-60807546D01*
X184393796Y-60692331D01*
X184444091Y-60557483D01*
X184450500Y-60497873D01*
X184450499Y-58702128D01*
X184444091Y-58642517D01*
X184417230Y-58570500D01*
X184393797Y-58507671D01*
X184393793Y-58507664D01*
X184307547Y-58392455D01*
X184307544Y-58392452D01*
X184192335Y-58306206D01*
X184192328Y-58306202D01*
X184057482Y-58255908D01*
X184057483Y-58255908D01*
X183997883Y-58249501D01*
X183997881Y-58249500D01*
X183997873Y-58249500D01*
X183997864Y-58249500D01*
X182202129Y-58249500D01*
X182202123Y-58249501D01*
X182142516Y-58255908D01*
X182007671Y-58306202D01*
X182007664Y-58306206D01*
X181892455Y-58392452D01*
X181892452Y-58392455D01*
X181806206Y-58507664D01*
X181806202Y-58507671D01*
X181755908Y-58642517D01*
X181749501Y-58702116D01*
X181749501Y-58702123D01*
X181749500Y-58702135D01*
X176968520Y-58702135D01*
X177268256Y-58402399D01*
X177329577Y-58368916D01*
X177392483Y-58371590D01*
X177584922Y-58430950D01*
X177584923Y-58430950D01*
X177584926Y-58430951D01*
X177847311Y-58470499D01*
X177847316Y-58470499D01*
X177847319Y-58470500D01*
X177847320Y-58470500D01*
X178112680Y-58470500D01*
X178112681Y-58470500D01*
X178112688Y-58470499D01*
X178375073Y-58430951D01*
X178375074Y-58430950D01*
X178375078Y-58430950D01*
X178628650Y-58352734D01*
X178867733Y-58237598D01*
X179086984Y-58088114D01*
X179281508Y-57907623D01*
X179446958Y-57700155D01*
X179579639Y-57470345D01*
X179676586Y-57223327D01*
X179735635Y-56964619D01*
X179747971Y-56800000D01*
X179755465Y-56700004D01*
X179755465Y-56699995D01*
X179735636Y-56435390D01*
X179735635Y-56435385D01*
X179735635Y-56435381D01*
X179676586Y-56176673D01*
X179579639Y-55929655D01*
X179446958Y-55699845D01*
X179281508Y-55492377D01*
X179086984Y-55311886D01*
X179072673Y-55302129D01*
X178867736Y-55162404D01*
X178867725Y-55162397D01*
X178628655Y-55047268D01*
X178628636Y-55047261D01*
X178375083Y-54969051D01*
X178375073Y-54969048D01*
X178112688Y-54929500D01*
X178112681Y-54929500D01*
X177847319Y-54929500D01*
X177847311Y-54929500D01*
X177584926Y-54969048D01*
X177584916Y-54969051D01*
X177331363Y-55047261D01*
X177331344Y-55047268D01*
X177092276Y-55162397D01*
X177092274Y-55162398D01*
X176873015Y-55311886D01*
X176678494Y-55492375D01*
X176678492Y-55492377D01*
X176513042Y-55699845D01*
X176380361Y-55929654D01*
X176283416Y-56176667D01*
X176283410Y-56176686D01*
X176224364Y-56435385D01*
X176224363Y-56435390D01*
X176204535Y-56699995D01*
X176204535Y-56700004D01*
X176224363Y-56964609D01*
X176224364Y-56964614D01*
X176283413Y-57223325D01*
X176305219Y-57278888D01*
X176311386Y-57348485D01*
X176278948Y-57410368D01*
X176277471Y-57411870D01*
X172326162Y-61363181D01*
X172264839Y-61396666D01*
X172238481Y-61399500D01*
X152731004Y-61399500D01*
X152595677Y-61426418D01*
X152595667Y-61426421D01*
X152468192Y-61479222D01*
X152353454Y-61555887D01*
X152353453Y-61555888D01*
X150046162Y-63863181D01*
X149984839Y-63896666D01*
X149958481Y-63899500D01*
X149025494Y-63899500D01*
X148959523Y-63880494D01*
X148949525Y-63874212D01*
X148779254Y-63814631D01*
X148779249Y-63814630D01*
X148600004Y-63794435D01*
X148599996Y-63794435D01*
X148420750Y-63814630D01*
X148420745Y-63814631D01*
X148250476Y-63874211D01*
X148097737Y-63970184D01*
X147970184Y-64097737D01*
X147874211Y-64250476D01*
X147814631Y-64420745D01*
X147814630Y-64420750D01*
X147794435Y-64599996D01*
X137948061Y-64599996D01*
X137984315Y-64580200D01*
X138213395Y-64408713D01*
X138415739Y-64206369D01*
X138587226Y-63977289D01*
X138724367Y-63726135D01*
X138824369Y-63458020D01*
X138885196Y-63178402D01*
X138905610Y-62892974D01*
X138885196Y-62607546D01*
X138884843Y-62605925D01*
X138824371Y-62327936D01*
X138824370Y-62327934D01*
X138824369Y-62327928D01*
X138813951Y-62299996D01*
X139894435Y-62299996D01*
X139894435Y-62300003D01*
X139914630Y-62479249D01*
X139914631Y-62479254D01*
X139974211Y-62649523D01*
X140069077Y-62800500D01*
X140070184Y-62802262D01*
X140197738Y-62929816D01*
X140267385Y-62973578D01*
X140350474Y-63025787D01*
X140350478Y-63025789D01*
X140520745Y-63085368D01*
X140520750Y-63085369D01*
X140699996Y-63105565D01*
X140700000Y-63105565D01*
X140700004Y-63105565D01*
X140879249Y-63085369D01*
X140879252Y-63085368D01*
X140879255Y-63085368D01*
X141049522Y-63025789D01*
X141050488Y-63025181D01*
X141059523Y-63019506D01*
X141125494Y-63000500D01*
X149068996Y-63000500D01*
X149160040Y-62982389D01*
X149204328Y-62973580D01*
X149268069Y-62947177D01*
X149331807Y-62920777D01*
X149331808Y-62920776D01*
X149331811Y-62920775D01*
X149446543Y-62844114D01*
X151953838Y-60336819D01*
X152015161Y-60303334D01*
X152041519Y-60300500D01*
X159768996Y-60300500D01*
X159860040Y-60282389D01*
X159904328Y-60273580D01*
X159968069Y-60247177D01*
X160031807Y-60220777D01*
X160031808Y-60220776D01*
X160031811Y-60220775D01*
X160146543Y-60144114D01*
X161788256Y-58502399D01*
X161849577Y-58468916D01*
X161912483Y-58471590D01*
X162104922Y-58530950D01*
X162104923Y-58530950D01*
X162104926Y-58530951D01*
X162367311Y-58570499D01*
X162367316Y-58570499D01*
X162367319Y-58570500D01*
X162367320Y-58570500D01*
X162632680Y-58570500D01*
X162632681Y-58570500D01*
X162632688Y-58570499D01*
X162895073Y-58530951D01*
X162895074Y-58530950D01*
X162895078Y-58530950D01*
X163148650Y-58452734D01*
X163387733Y-58337598D01*
X163606984Y-58188114D01*
X163801508Y-58007623D01*
X163966958Y-57800155D01*
X164099639Y-57570345D01*
X164196586Y-57323327D01*
X164255635Y-57064619D01*
X164255641Y-57064540D01*
X164275465Y-56800004D01*
X164275465Y-56799995D01*
X164267971Y-56699995D01*
X166044535Y-56699995D01*
X166044535Y-56700004D01*
X166064363Y-56964609D01*
X166064364Y-56964614D01*
X166123410Y-57223313D01*
X166123412Y-57223322D01*
X166123414Y-57223327D01*
X166220361Y-57470345D01*
X166353042Y-57700155D01*
X166518492Y-57907623D01*
X166713016Y-58088114D01*
X166932268Y-58237598D01*
X166932273Y-58237600D01*
X166932274Y-58237601D01*
X166932276Y-58237602D01*
X166956985Y-58249501D01*
X167171350Y-58352734D01*
X167424922Y-58430950D01*
X167424923Y-58430950D01*
X167424926Y-58430951D01*
X167687311Y-58470499D01*
X167687316Y-58470499D01*
X167687319Y-58470500D01*
X167687320Y-58470500D01*
X167952680Y-58470500D01*
X167952681Y-58470500D01*
X167952688Y-58470499D01*
X168215073Y-58430951D01*
X168215074Y-58430950D01*
X168215078Y-58430950D01*
X168468650Y-58352734D01*
X168707733Y-58237598D01*
X168926984Y-58088114D01*
X169121508Y-57907623D01*
X169286958Y-57700155D01*
X169419639Y-57470345D01*
X169516586Y-57223327D01*
X169575635Y-56964619D01*
X169587971Y-56800000D01*
X169595465Y-56700004D01*
X169595465Y-56699995D01*
X169575636Y-56435390D01*
X169575635Y-56435385D01*
X169575635Y-56435381D01*
X169516586Y-56176673D01*
X169419639Y-55929655D01*
X169286958Y-55699845D01*
X169121508Y-55492377D01*
X168926984Y-55311886D01*
X168912673Y-55302129D01*
X168707736Y-55162404D01*
X168707725Y-55162397D01*
X168468655Y-55047268D01*
X168468636Y-55047261D01*
X168215083Y-54969051D01*
X168215073Y-54969048D01*
X167952688Y-54929500D01*
X167952681Y-54929500D01*
X167687319Y-54929500D01*
X167687311Y-54929500D01*
X167424926Y-54969048D01*
X167424916Y-54969051D01*
X167171363Y-55047261D01*
X167171344Y-55047268D01*
X166932276Y-55162397D01*
X166932274Y-55162398D01*
X166713015Y-55311886D01*
X166518494Y-55492375D01*
X166518492Y-55492377D01*
X166353042Y-55699845D01*
X166220361Y-55929654D01*
X166123416Y-56176667D01*
X166123410Y-56176686D01*
X166064364Y-56435385D01*
X166064363Y-56435390D01*
X166044535Y-56699995D01*
X164267971Y-56699995D01*
X164255636Y-56535390D01*
X164255635Y-56535385D01*
X164255635Y-56535381D01*
X164196586Y-56276673D01*
X164099639Y-56029655D01*
X163966958Y-55799845D01*
X163801508Y-55592377D01*
X163606984Y-55411886D01*
X163445998Y-55302127D01*
X163387736Y-55262404D01*
X163387725Y-55262397D01*
X163148655Y-55147268D01*
X163148636Y-55147261D01*
X162895083Y-55069051D01*
X162895073Y-55069048D01*
X162632688Y-55029500D01*
X162632681Y-55029500D01*
X162367319Y-55029500D01*
X162367311Y-55029500D01*
X162104926Y-55069048D01*
X162104916Y-55069051D01*
X161851363Y-55147261D01*
X161851344Y-55147268D01*
X161612276Y-55262397D01*
X161612274Y-55262398D01*
X161393015Y-55411886D01*
X161198494Y-55592375D01*
X161198492Y-55592377D01*
X161033042Y-55799845D01*
X160900361Y-56029654D01*
X160803416Y-56276667D01*
X160803410Y-56276686D01*
X160744364Y-56535385D01*
X160744363Y-56535390D01*
X160724535Y-56799995D01*
X160724535Y-56800004D01*
X160744363Y-57064609D01*
X160744364Y-57064614D01*
X160803413Y-57323325D01*
X160825219Y-57378888D01*
X160831386Y-57448485D01*
X160798948Y-57510368D01*
X160797471Y-57511870D01*
X159446162Y-58863181D01*
X159384839Y-58896666D01*
X159358481Y-58899500D01*
X151631004Y-58899500D01*
X151495677Y-58926418D01*
X151495667Y-58926421D01*
X151368192Y-58979222D01*
X151253454Y-59055887D01*
X151253453Y-59055888D01*
X148746162Y-61563181D01*
X148684839Y-61596666D01*
X148658481Y-61599500D01*
X141125494Y-61599500D01*
X141059523Y-61580494D01*
X141049525Y-61574212D01*
X140879254Y-61514631D01*
X140879249Y-61514630D01*
X140700004Y-61494435D01*
X140699996Y-61494435D01*
X140520750Y-61514630D01*
X140520745Y-61514631D01*
X140350476Y-61574211D01*
X140197737Y-61670184D01*
X140070184Y-61797737D01*
X139974211Y-61950476D01*
X139914631Y-62120745D01*
X139914630Y-62120750D01*
X139894435Y-62299996D01*
X138813951Y-62299996D01*
X138724367Y-62059813D01*
X138664665Y-61950478D01*
X138587229Y-61808664D01*
X138587224Y-61808656D01*
X138415745Y-61579586D01*
X138415729Y-61579568D01*
X138213405Y-61377244D01*
X138213387Y-61377228D01*
X137984317Y-61205749D01*
X137984309Y-61205744D01*
X137733166Y-61068609D01*
X137733167Y-61068609D01*
X137680958Y-61049136D01*
X137465046Y-60968605D01*
X137465039Y-60968603D01*
X137465038Y-60968603D01*
X137398141Y-60954050D01*
X137336818Y-60920565D01*
X137303334Y-60859241D01*
X137300500Y-60832884D01*
X137300500Y-57674499D01*
X137320185Y-57607460D01*
X137372989Y-57561705D01*
X137424500Y-57550499D01*
X137497871Y-57550499D01*
X137497872Y-57550499D01*
X137557483Y-57544091D01*
X137692331Y-57493796D01*
X137807546Y-57407546D01*
X137893796Y-57292331D01*
X137944091Y-57157483D01*
X137950500Y-57097873D01*
X137950500Y-56799995D01*
X150565037Y-56799995D01*
X150565037Y-56800004D01*
X150584860Y-57064535D01*
X150584861Y-57064540D01*
X150643890Y-57323166D01*
X150643896Y-57323185D01*
X150740814Y-57570128D01*
X150740813Y-57570128D01*
X150873457Y-57799871D01*
X150923642Y-57862803D01*
X150923643Y-57862803D01*
X151897861Y-56888584D01*
X151920667Y-56973694D01*
X151979910Y-57076306D01*
X152063694Y-57160090D01*
X152166306Y-57219333D01*
X152251414Y-57242137D01*
X151276438Y-58217112D01*
X151452525Y-58337166D01*
X151452526Y-58337167D01*
X151691530Y-58452264D01*
X151691528Y-58452264D01*
X151945025Y-58530458D01*
X151945031Y-58530459D01*
X152207351Y-58569999D01*
X152207358Y-58570000D01*
X152472642Y-58570000D01*
X152472648Y-58569999D01*
X152734968Y-58530459D01*
X152734974Y-58530458D01*
X152988470Y-58452264D01*
X153227479Y-58337164D01*
X153403560Y-58217112D01*
X152428585Y-57242138D01*
X152513694Y-57219333D01*
X152616306Y-57160090D01*
X152700090Y-57076306D01*
X152759333Y-56973694D01*
X152782138Y-56888585D01*
X153756355Y-57862803D01*
X153756356Y-57862802D01*
X153806545Y-57799869D01*
X153939185Y-57570128D01*
X154036103Y-57323185D01*
X154036109Y-57323166D01*
X154095138Y-57064540D01*
X154095139Y-57064535D01*
X154114963Y-56800004D01*
X154114963Y-56799995D01*
X154095139Y-56535464D01*
X154095138Y-56535459D01*
X154036109Y-56276833D01*
X154036103Y-56276814D01*
X153939185Y-56029871D01*
X153939186Y-56029871D01*
X153806543Y-55800129D01*
X153806536Y-55800118D01*
X153756356Y-55737196D01*
X153756355Y-55737195D01*
X152782137Y-56711414D01*
X152759333Y-56626306D01*
X152700090Y-56523694D01*
X152616306Y-56439910D01*
X152513694Y-56380667D01*
X152428585Y-56357862D01*
X153403560Y-55382886D01*
X153227484Y-55262839D01*
X153227474Y-55262832D01*
X152988469Y-55147735D01*
X152988471Y-55147735D01*
X152734974Y-55069541D01*
X152734968Y-55069540D01*
X152472648Y-55030000D01*
X152207351Y-55030000D01*
X151945031Y-55069540D01*
X151945025Y-55069541D01*
X151691529Y-55147735D01*
X151452526Y-55262832D01*
X151452518Y-55262837D01*
X151276438Y-55382886D01*
X152251414Y-56357861D01*
X152166306Y-56380667D01*
X152063694Y-56439910D01*
X151979910Y-56523694D01*
X151920667Y-56626306D01*
X151897861Y-56711414D01*
X150923643Y-55737196D01*
X150873456Y-55800128D01*
X150740814Y-56029871D01*
X150643896Y-56276814D01*
X150643890Y-56276833D01*
X150584861Y-56535459D01*
X150584860Y-56535464D01*
X150565037Y-56799995D01*
X137950500Y-56799995D01*
X137950499Y-55302128D01*
X137944091Y-55242517D01*
X137931119Y-55207738D01*
X137893797Y-55107671D01*
X137893793Y-55107664D01*
X137807547Y-54992455D01*
X137807544Y-54992452D01*
X137692335Y-54906206D01*
X137692328Y-54906202D01*
X137557482Y-54855908D01*
X137557483Y-54855908D01*
X137497883Y-54849501D01*
X137497881Y-54849500D01*
X137497873Y-54849500D01*
X137497864Y-54849500D01*
X135702129Y-54849500D01*
X135702123Y-54849501D01*
X135642516Y-54855908D01*
X135507671Y-54906202D01*
X135507664Y-54906206D01*
X135392455Y-54992452D01*
X135392452Y-54992455D01*
X135306206Y-55107664D01*
X135306202Y-55107671D01*
X135255908Y-55242517D01*
X135249675Y-55300500D01*
X135249501Y-55302123D01*
X135249500Y-55302135D01*
X135249500Y-57097870D01*
X135249501Y-57097876D01*
X135255908Y-57157483D01*
X135306202Y-57292328D01*
X135306206Y-57292335D01*
X135392452Y-57407544D01*
X135392455Y-57407547D01*
X135507664Y-57493793D01*
X135507671Y-57493797D01*
X135552101Y-57510368D01*
X135642517Y-57544091D01*
X135702127Y-57550500D01*
X135775500Y-57550499D01*
X135842538Y-57570183D01*
X135888294Y-57622986D01*
X135899500Y-57674499D01*
X135899500Y-61086408D01*
X135879815Y-61153447D01*
X135834929Y-61195239D01*
X135815690Y-61205744D01*
X135815682Y-61205749D01*
X135586612Y-61377228D01*
X135586594Y-61377244D01*
X135384270Y-61579568D01*
X135384254Y-61579586D01*
X135212775Y-61808656D01*
X135212770Y-61808664D01*
X135075635Y-62059807D01*
X134975628Y-62327936D01*
X134914804Y-62607540D01*
X134894390Y-62892972D01*
X133600500Y-62892972D01*
X133600500Y-52624500D01*
X133620185Y-52557461D01*
X133672989Y-52511706D01*
X133724500Y-52500500D01*
X147613291Y-52500500D01*
X147680330Y-52520185D01*
G37*
%TD.AperFunction*%
%TD*%
M02*
