M48
; DRILL file {KiCad 8.0.6} date 2025-02-20T03:10:40-0800
; FORMAT={-:-/ absolute / inch / decimal}
; #@! TF.CreationDate,2025-02-20T03:10:40-08:00
; #@! TF.GenerationSoftware,Kicad,Pcbnew,8.0.6
; #@! TF.FileFunction,Plated,1,2,PTH
FMAT,2
INCH
; #@! TA.AperFunction,Plated,PTH,ViaDrill
T1C0.0118
; #@! TA.AperFunction,Plated,PTH,ComponentDrill
T2C0.0315
; #@! TA.AperFunction,Plated,PTH,ComponentDrill
T3C0.0354
; #@! TA.AperFunction,Plated,PTH,ComponentDrill
T4C0.0394
; #@! TA.AperFunction,Plated,PTH,ComponentDrill
T5C0.0984
%
G90
G05
T1
X5.3071Y-3.4646
X5.311Y-2.3622
X5.3425Y-4.3937
X5.5394Y-2.4528
X5.5472Y-2.3465
X5.8425Y-2.2323
X5.8504Y-2.5433
X6.5591Y-3.0276
X6.7835Y-2.8819
X6.7874Y-2.9646
X7.0551Y-4.5472
X7.2677Y-3.626
X7.2795Y-2.1575
T2
X5.6575Y-3.0197
X5.6575Y-3.2165
X6.7953Y-3.4449
X6.7953Y-3.5236
X7.2087Y-2.6496
X7.2087Y-2.7283
T3
X5.5378Y-3.7299
X5.5378Y-4.5299
X5.6378Y-3.7299
X5.6378Y-4.5299
X5.7378Y-3.7299
X5.7378Y-4.5299
X5.8378Y-3.7299
X5.8378Y-4.5299
X5.9378Y-3.7299
X5.9378Y-4.5299
X5.9433Y-3.5079
X5.9465Y-2.9291
X5.9465Y-3.2283
X5.9976Y-2.2362
X6.0378Y-3.7299
X6.0378Y-4.5299
X6.0874Y-2.5827
X6.1378Y-3.7299
X6.1378Y-4.5299
X6.2378Y-3.7299
X6.2378Y-4.5299
X6.3378Y-3.7299
X6.3378Y-4.5299
X6.3433Y-3.5079
X6.3465Y-2.9291
X6.3465Y-3.2283
X6.3976Y-2.2362
X6.4378Y-3.7299
X6.4378Y-4.5299
X6.4874Y-2.5827
X6.5378Y-3.7299
X6.5378Y-4.5299
X6.6071Y-2.2323
X6.6378Y-3.7299
X6.6378Y-4.5299
X6.7378Y-3.7299
X6.8378Y-3.7299
X6.9378Y-3.7299
X7.0071Y-2.2323
X7.0378Y-3.7299
T4
X5.378Y-2.2126
X5.3898Y-2.4761
X5.3898Y-3.2254
X5.8386Y-2.1299
X6.5Y-2.1181
X7.1165Y-3.4961
X7.2087Y-2.3465
X7.2087Y-2.4465
X7.2165Y-3.4961
X7.2638Y-3.0866
X7.2638Y-3.2795
T5
X7.1878Y-3.7799
X7.1878Y-4.4799
M30
