%TF.GenerationSoftware,KiCad,Pcbnew,8.0.6*%
%TF.CreationDate,2025-02-20T03:10:47-08:00*%
%TF.ProjectId,ECE 412,45434520-3431-4322-9e6b-696361645f70,A*%
%TF.SameCoordinates,Original*%
%TF.FileFunction,Legend,Top*%
%TF.FilePolarity,Positive*%
%FSLAX46Y46*%
G04 Gerber Fmt 4.6, Leading zero omitted, Abs format (unit mm)*
G04 Created by KiCad (PCBNEW 8.0.6) date 2025-02-20 03:10:47*
%MOMM*%
%LPD*%
G01*
G04 APERTURE LIST*
%ADD10C,0.200000*%
%ADD11C,0.150000*%
%ADD12C,0.120000*%
%ADD13C,0.127000*%
G04 APERTURE END LIST*
D10*
X139300000Y-56200000D02*
G75*
G02*
X133900000Y-56200000I-2700000J0D01*
G01*
X133900000Y-56200000D02*
G75*
G02*
X139300000Y-56200000I2700000J0D01*
G01*
D11*
X181956819Y-84561904D02*
X181956819Y-83990476D01*
X182956819Y-84276190D02*
X181956819Y-84276190D01*
X182956819Y-83657142D02*
X181956819Y-83657142D01*
X181956819Y-83657142D02*
X181956819Y-83276190D01*
X181956819Y-83276190D02*
X182004438Y-83180952D01*
X182004438Y-83180952D02*
X182052057Y-83133333D01*
X182052057Y-83133333D02*
X182147295Y-83085714D01*
X182147295Y-83085714D02*
X182290152Y-83085714D01*
X182290152Y-83085714D02*
X182385390Y-83133333D01*
X182385390Y-83133333D02*
X182433009Y-83180952D01*
X182433009Y-83180952D02*
X182480628Y-83276190D01*
X182480628Y-83276190D02*
X182480628Y-83657142D01*
X182290152Y-82228571D02*
X182956819Y-82228571D01*
X181909200Y-82466666D02*
X182623485Y-82704761D01*
X182623485Y-82704761D02*
X182623485Y-82085714D01*
X181956819Y-79661904D02*
X181956819Y-79090476D01*
X182956819Y-79376190D02*
X181956819Y-79376190D01*
X182956819Y-78757142D02*
X181956819Y-78757142D01*
X181956819Y-78757142D02*
X181956819Y-78376190D01*
X181956819Y-78376190D02*
X182004438Y-78280952D01*
X182004438Y-78280952D02*
X182052057Y-78233333D01*
X182052057Y-78233333D02*
X182147295Y-78185714D01*
X182147295Y-78185714D02*
X182290152Y-78185714D01*
X182290152Y-78185714D02*
X182385390Y-78233333D01*
X182385390Y-78233333D02*
X182433009Y-78280952D01*
X182433009Y-78280952D02*
X182480628Y-78376190D01*
X182480628Y-78376190D02*
X182480628Y-78757142D01*
X181956819Y-77852380D02*
X181956819Y-77233333D01*
X181956819Y-77233333D02*
X182337771Y-77566666D01*
X182337771Y-77566666D02*
X182337771Y-77423809D01*
X182337771Y-77423809D02*
X182385390Y-77328571D01*
X182385390Y-77328571D02*
X182433009Y-77280952D01*
X182433009Y-77280952D02*
X182528247Y-77233333D01*
X182528247Y-77233333D02*
X182766342Y-77233333D01*
X182766342Y-77233333D02*
X182861580Y-77280952D01*
X182861580Y-77280952D02*
X182909200Y-77328571D01*
X182909200Y-77328571D02*
X182956819Y-77423809D01*
X182956819Y-77423809D02*
X182956819Y-77709523D01*
X182956819Y-77709523D02*
X182909200Y-77804761D01*
X182909200Y-77804761D02*
X182861580Y-77852380D01*
X150238095Y-52654819D02*
X150809523Y-52654819D01*
X150523809Y-53654819D02*
X150523809Y-52654819D01*
X151142857Y-53654819D02*
X151142857Y-52654819D01*
X151142857Y-52654819D02*
X151523809Y-52654819D01*
X151523809Y-52654819D02*
X151619047Y-52702438D01*
X151619047Y-52702438D02*
X151666666Y-52750057D01*
X151666666Y-52750057D02*
X151714285Y-52845295D01*
X151714285Y-52845295D02*
X151714285Y-52988152D01*
X151714285Y-52988152D02*
X151666666Y-53083390D01*
X151666666Y-53083390D02*
X151619047Y-53131009D01*
X151619047Y-53131009D02*
X151523809Y-53178628D01*
X151523809Y-53178628D02*
X151142857Y-53178628D01*
X152095238Y-52750057D02*
X152142857Y-52702438D01*
X152142857Y-52702438D02*
X152238095Y-52654819D01*
X152238095Y-52654819D02*
X152476190Y-52654819D01*
X152476190Y-52654819D02*
X152571428Y-52702438D01*
X152571428Y-52702438D02*
X152619047Y-52750057D01*
X152619047Y-52750057D02*
X152666666Y-52845295D01*
X152666666Y-52845295D02*
X152666666Y-52940533D01*
X152666666Y-52940533D02*
X152619047Y-53083390D01*
X152619047Y-53083390D02*
X152047619Y-53654819D01*
X152047619Y-53654819D02*
X152666666Y-53654819D01*
X166638095Y-52554819D02*
X167209523Y-52554819D01*
X166923809Y-53554819D02*
X166923809Y-52554819D01*
X167542857Y-53554819D02*
X167542857Y-52554819D01*
X167542857Y-52554819D02*
X167923809Y-52554819D01*
X167923809Y-52554819D02*
X168019047Y-52602438D01*
X168019047Y-52602438D02*
X168066666Y-52650057D01*
X168066666Y-52650057D02*
X168114285Y-52745295D01*
X168114285Y-52745295D02*
X168114285Y-52888152D01*
X168114285Y-52888152D02*
X168066666Y-52983390D01*
X168066666Y-52983390D02*
X168019047Y-53031009D01*
X168019047Y-53031009D02*
X167923809Y-53078628D01*
X167923809Y-53078628D02*
X167542857Y-53078628D01*
X169066666Y-53554819D02*
X168495238Y-53554819D01*
X168780952Y-53554819D02*
X168780952Y-52554819D01*
X168780952Y-52554819D02*
X168685714Y-52697676D01*
X168685714Y-52697676D02*
X168590476Y-52792914D01*
X168590476Y-52792914D02*
X168495238Y-52840533D01*
X159533333Y-68424819D02*
X159200000Y-67948628D01*
X158961905Y-68424819D02*
X158961905Y-67424819D01*
X158961905Y-67424819D02*
X159342857Y-67424819D01*
X159342857Y-67424819D02*
X159438095Y-67472438D01*
X159438095Y-67472438D02*
X159485714Y-67520057D01*
X159485714Y-67520057D02*
X159533333Y-67615295D01*
X159533333Y-67615295D02*
X159533333Y-67758152D01*
X159533333Y-67758152D02*
X159485714Y-67853390D01*
X159485714Y-67853390D02*
X159438095Y-67901009D01*
X159438095Y-67901009D02*
X159342857Y-67948628D01*
X159342857Y-67948628D02*
X158961905Y-67948628D01*
X160390476Y-67758152D02*
X160390476Y-68424819D01*
X160152381Y-67377200D02*
X159914286Y-68091485D01*
X159914286Y-68091485D02*
X160533333Y-68091485D01*
X159104761Y-63684819D02*
X158533333Y-63684819D01*
X158819047Y-63684819D02*
X158819047Y-62684819D01*
X158819047Y-62684819D02*
X158723809Y-62827676D01*
X158723809Y-62827676D02*
X158628571Y-62922914D01*
X158628571Y-62922914D02*
X158533333Y-62970533D01*
X159723809Y-62684819D02*
X159819047Y-62684819D01*
X159819047Y-62684819D02*
X159914285Y-62732438D01*
X159914285Y-62732438D02*
X159961904Y-62780057D01*
X159961904Y-62780057D02*
X160009523Y-62875295D01*
X160009523Y-62875295D02*
X160057142Y-63065771D01*
X160057142Y-63065771D02*
X160057142Y-63303866D01*
X160057142Y-63303866D02*
X160009523Y-63494342D01*
X160009523Y-63494342D02*
X159961904Y-63589580D01*
X159961904Y-63589580D02*
X159914285Y-63637200D01*
X159914285Y-63637200D02*
X159819047Y-63684819D01*
X159819047Y-63684819D02*
X159723809Y-63684819D01*
X159723809Y-63684819D02*
X159628571Y-63637200D01*
X159628571Y-63637200D02*
X159580952Y-63589580D01*
X159580952Y-63589580D02*
X159533333Y-63494342D01*
X159533333Y-63494342D02*
X159485714Y-63303866D01*
X159485714Y-63303866D02*
X159485714Y-63065771D01*
X159485714Y-63065771D02*
X159533333Y-62875295D01*
X159533333Y-62875295D02*
X159580952Y-62780057D01*
X159580952Y-62780057D02*
X159628571Y-62732438D01*
X159628571Y-62732438D02*
X159723809Y-62684819D01*
X160485714Y-63684819D02*
X160485714Y-62684819D01*
X160580952Y-63303866D02*
X160866666Y-63684819D01*
X160866666Y-63018152D02*
X160485714Y-63399104D01*
X157253333Y-59624819D02*
X156920000Y-59148628D01*
X156681905Y-59624819D02*
X156681905Y-58624819D01*
X156681905Y-58624819D02*
X157062857Y-58624819D01*
X157062857Y-58624819D02*
X157158095Y-58672438D01*
X157158095Y-58672438D02*
X157205714Y-58720057D01*
X157205714Y-58720057D02*
X157253333Y-58815295D01*
X157253333Y-58815295D02*
X157253333Y-58958152D01*
X157253333Y-58958152D02*
X157205714Y-59053390D01*
X157205714Y-59053390D02*
X157158095Y-59101009D01*
X157158095Y-59101009D02*
X157062857Y-59148628D01*
X157062857Y-59148628D02*
X156681905Y-59148628D01*
X157634286Y-58720057D02*
X157681905Y-58672438D01*
X157681905Y-58672438D02*
X157777143Y-58624819D01*
X157777143Y-58624819D02*
X158015238Y-58624819D01*
X158015238Y-58624819D02*
X158110476Y-58672438D01*
X158110476Y-58672438D02*
X158158095Y-58720057D01*
X158158095Y-58720057D02*
X158205714Y-58815295D01*
X158205714Y-58815295D02*
X158205714Y-58910533D01*
X158205714Y-58910533D02*
X158158095Y-59053390D01*
X158158095Y-59053390D02*
X157586667Y-59624819D01*
X157586667Y-59624819D02*
X158205714Y-59624819D01*
X156824761Y-54884819D02*
X156253333Y-54884819D01*
X156539047Y-54884819D02*
X156539047Y-53884819D01*
X156539047Y-53884819D02*
X156443809Y-54027676D01*
X156443809Y-54027676D02*
X156348571Y-54122914D01*
X156348571Y-54122914D02*
X156253333Y-54170533D01*
X157443809Y-53884819D02*
X157539047Y-53884819D01*
X157539047Y-53884819D02*
X157634285Y-53932438D01*
X157634285Y-53932438D02*
X157681904Y-53980057D01*
X157681904Y-53980057D02*
X157729523Y-54075295D01*
X157729523Y-54075295D02*
X157777142Y-54265771D01*
X157777142Y-54265771D02*
X157777142Y-54503866D01*
X157777142Y-54503866D02*
X157729523Y-54694342D01*
X157729523Y-54694342D02*
X157681904Y-54789580D01*
X157681904Y-54789580D02*
X157634285Y-54837200D01*
X157634285Y-54837200D02*
X157539047Y-54884819D01*
X157539047Y-54884819D02*
X157443809Y-54884819D01*
X157443809Y-54884819D02*
X157348571Y-54837200D01*
X157348571Y-54837200D02*
X157300952Y-54789580D01*
X157300952Y-54789580D02*
X157253333Y-54694342D01*
X157253333Y-54694342D02*
X157205714Y-54503866D01*
X157205714Y-54503866D02*
X157205714Y-54265771D01*
X157205714Y-54265771D02*
X157253333Y-54075295D01*
X157253333Y-54075295D02*
X157300952Y-53980057D01*
X157300952Y-53980057D02*
X157348571Y-53932438D01*
X157348571Y-53932438D02*
X157443809Y-53884819D01*
X158205714Y-54884819D02*
X158205714Y-53884819D01*
X158300952Y-54503866D02*
X158586666Y-54884819D01*
X158586666Y-54218152D02*
X158205714Y-54599104D01*
X177884819Y-89133333D02*
X178599104Y-89133333D01*
X178599104Y-89133333D02*
X178741961Y-89180952D01*
X178741961Y-89180952D02*
X178837200Y-89276190D01*
X178837200Y-89276190D02*
X178884819Y-89419047D01*
X178884819Y-89419047D02*
X178884819Y-89514285D01*
X177980057Y-88704761D02*
X177932438Y-88657142D01*
X177932438Y-88657142D02*
X177884819Y-88561904D01*
X177884819Y-88561904D02*
X177884819Y-88323809D01*
X177884819Y-88323809D02*
X177932438Y-88228571D01*
X177932438Y-88228571D02*
X177980057Y-88180952D01*
X177980057Y-88180952D02*
X178075295Y-88133333D01*
X178075295Y-88133333D02*
X178170533Y-88133333D01*
X178170533Y-88133333D02*
X178313390Y-88180952D01*
X178313390Y-88180952D02*
X178884819Y-88752380D01*
X178884819Y-88752380D02*
X178884819Y-88133333D01*
X185084819Y-90276189D02*
X185084819Y-89657142D01*
X185084819Y-89657142D02*
X185465771Y-89990475D01*
X185465771Y-89990475D02*
X185465771Y-89847618D01*
X185465771Y-89847618D02*
X185513390Y-89752380D01*
X185513390Y-89752380D02*
X185561009Y-89704761D01*
X185561009Y-89704761D02*
X185656247Y-89657142D01*
X185656247Y-89657142D02*
X185894342Y-89657142D01*
X185894342Y-89657142D02*
X185989580Y-89704761D01*
X185989580Y-89704761D02*
X186037200Y-89752380D01*
X186037200Y-89752380D02*
X186084819Y-89847618D01*
X186084819Y-89847618D02*
X186084819Y-90133332D01*
X186084819Y-90133332D02*
X186037200Y-90228570D01*
X186037200Y-90228570D02*
X185989580Y-90276189D01*
X185989580Y-89228570D02*
X186037200Y-89180951D01*
X186037200Y-89180951D02*
X186084819Y-89228570D01*
X186084819Y-89228570D02*
X186037200Y-89276189D01*
X186037200Y-89276189D02*
X185989580Y-89228570D01*
X185989580Y-89228570D02*
X186084819Y-89228570D01*
X185084819Y-88847618D02*
X185084819Y-88228571D01*
X185084819Y-88228571D02*
X185465771Y-88561904D01*
X185465771Y-88561904D02*
X185465771Y-88419047D01*
X185465771Y-88419047D02*
X185513390Y-88323809D01*
X185513390Y-88323809D02*
X185561009Y-88276190D01*
X185561009Y-88276190D02*
X185656247Y-88228571D01*
X185656247Y-88228571D02*
X185894342Y-88228571D01*
X185894342Y-88228571D02*
X185989580Y-88276190D01*
X185989580Y-88276190D02*
X186037200Y-88323809D01*
X186037200Y-88323809D02*
X186084819Y-88419047D01*
X186084819Y-88419047D02*
X186084819Y-88704761D01*
X186084819Y-88704761D02*
X186037200Y-88799999D01*
X186037200Y-88799999D02*
X185989580Y-88847618D01*
X185084819Y-87942856D02*
X186084819Y-87609523D01*
X186084819Y-87609523D02*
X185084819Y-87276190D01*
X174533333Y-92059580D02*
X174485714Y-92107200D01*
X174485714Y-92107200D02*
X174342857Y-92154819D01*
X174342857Y-92154819D02*
X174247619Y-92154819D01*
X174247619Y-92154819D02*
X174104762Y-92107200D01*
X174104762Y-92107200D02*
X174009524Y-92011961D01*
X174009524Y-92011961D02*
X173961905Y-91916723D01*
X173961905Y-91916723D02*
X173914286Y-91726247D01*
X173914286Y-91726247D02*
X173914286Y-91583390D01*
X173914286Y-91583390D02*
X173961905Y-91392914D01*
X173961905Y-91392914D02*
X174009524Y-91297676D01*
X174009524Y-91297676D02*
X174104762Y-91202438D01*
X174104762Y-91202438D02*
X174247619Y-91154819D01*
X174247619Y-91154819D02*
X174342857Y-91154819D01*
X174342857Y-91154819D02*
X174485714Y-91202438D01*
X174485714Y-91202438D02*
X174533333Y-91250057D01*
X175390476Y-91488152D02*
X175390476Y-92154819D01*
X175152381Y-91107200D02*
X174914286Y-91821485D01*
X174914286Y-91821485D02*
X175533333Y-91821485D01*
X171528571Y-85154819D02*
X170957143Y-85154819D01*
X171242857Y-85154819D02*
X171242857Y-84154819D01*
X171242857Y-84154819D02*
X171147619Y-84297676D01*
X171147619Y-84297676D02*
X171052381Y-84392914D01*
X171052381Y-84392914D02*
X170957143Y-84440533D01*
X172147619Y-84154819D02*
X172242857Y-84154819D01*
X172242857Y-84154819D02*
X172338095Y-84202438D01*
X172338095Y-84202438D02*
X172385714Y-84250057D01*
X172385714Y-84250057D02*
X172433333Y-84345295D01*
X172433333Y-84345295D02*
X172480952Y-84535771D01*
X172480952Y-84535771D02*
X172480952Y-84773866D01*
X172480952Y-84773866D02*
X172433333Y-84964342D01*
X172433333Y-84964342D02*
X172385714Y-85059580D01*
X172385714Y-85059580D02*
X172338095Y-85107200D01*
X172338095Y-85107200D02*
X172242857Y-85154819D01*
X172242857Y-85154819D02*
X172147619Y-85154819D01*
X172147619Y-85154819D02*
X172052381Y-85107200D01*
X172052381Y-85107200D02*
X172004762Y-85059580D01*
X172004762Y-85059580D02*
X171957143Y-84964342D01*
X171957143Y-84964342D02*
X171909524Y-84773866D01*
X171909524Y-84773866D02*
X171909524Y-84535771D01*
X171909524Y-84535771D02*
X171957143Y-84345295D01*
X171957143Y-84345295D02*
X172004762Y-84250057D01*
X172004762Y-84250057D02*
X172052381Y-84202438D01*
X172052381Y-84202438D02*
X172147619Y-84154819D01*
X173338095Y-84488152D02*
X173338095Y-85154819D01*
X172909524Y-84488152D02*
X172909524Y-85011961D01*
X172909524Y-85011961D02*
X172957143Y-85107200D01*
X172957143Y-85107200D02*
X173052381Y-85154819D01*
X173052381Y-85154819D02*
X173195238Y-85154819D01*
X173195238Y-85154819D02*
X173290476Y-85107200D01*
X173290476Y-85107200D02*
X173338095Y-85059580D01*
X174147619Y-84631009D02*
X173814286Y-84631009D01*
X173814286Y-85154819D02*
X173814286Y-84154819D01*
X173814286Y-84154819D02*
X174290476Y-84154819D01*
X172733333Y-59524819D02*
X172400000Y-59048628D01*
X172161905Y-59524819D02*
X172161905Y-58524819D01*
X172161905Y-58524819D02*
X172542857Y-58524819D01*
X172542857Y-58524819D02*
X172638095Y-58572438D01*
X172638095Y-58572438D02*
X172685714Y-58620057D01*
X172685714Y-58620057D02*
X172733333Y-58715295D01*
X172733333Y-58715295D02*
X172733333Y-58858152D01*
X172733333Y-58858152D02*
X172685714Y-58953390D01*
X172685714Y-58953390D02*
X172638095Y-59001009D01*
X172638095Y-59001009D02*
X172542857Y-59048628D01*
X172542857Y-59048628D02*
X172161905Y-59048628D01*
X173685714Y-59524819D02*
X173114286Y-59524819D01*
X173400000Y-59524819D02*
X173400000Y-58524819D01*
X173400000Y-58524819D02*
X173304762Y-58667676D01*
X173304762Y-58667676D02*
X173209524Y-58762914D01*
X173209524Y-58762914D02*
X173114286Y-58810533D01*
X172304761Y-54784819D02*
X171733333Y-54784819D01*
X172019047Y-54784819D02*
X172019047Y-53784819D01*
X172019047Y-53784819D02*
X171923809Y-53927676D01*
X171923809Y-53927676D02*
X171828571Y-54022914D01*
X171828571Y-54022914D02*
X171733333Y-54070533D01*
X172923809Y-53784819D02*
X173019047Y-53784819D01*
X173019047Y-53784819D02*
X173114285Y-53832438D01*
X173114285Y-53832438D02*
X173161904Y-53880057D01*
X173161904Y-53880057D02*
X173209523Y-53975295D01*
X173209523Y-53975295D02*
X173257142Y-54165771D01*
X173257142Y-54165771D02*
X173257142Y-54403866D01*
X173257142Y-54403866D02*
X173209523Y-54594342D01*
X173209523Y-54594342D02*
X173161904Y-54689580D01*
X173161904Y-54689580D02*
X173114285Y-54737200D01*
X173114285Y-54737200D02*
X173019047Y-54784819D01*
X173019047Y-54784819D02*
X172923809Y-54784819D01*
X172923809Y-54784819D02*
X172828571Y-54737200D01*
X172828571Y-54737200D02*
X172780952Y-54689580D01*
X172780952Y-54689580D02*
X172733333Y-54594342D01*
X172733333Y-54594342D02*
X172685714Y-54403866D01*
X172685714Y-54403866D02*
X172685714Y-54165771D01*
X172685714Y-54165771D02*
X172733333Y-53975295D01*
X172733333Y-53975295D02*
X172780952Y-53880057D01*
X172780952Y-53880057D02*
X172828571Y-53832438D01*
X172828571Y-53832438D02*
X172923809Y-53784819D01*
X173685714Y-54784819D02*
X173685714Y-53784819D01*
X173780952Y-54403866D02*
X174066666Y-54784819D01*
X174066666Y-54118152D02*
X173685714Y-54499104D01*
X135054819Y-66766666D02*
X134578628Y-67099999D01*
X135054819Y-67338094D02*
X134054819Y-67338094D01*
X134054819Y-67338094D02*
X134054819Y-66957142D01*
X134054819Y-66957142D02*
X134102438Y-66861904D01*
X134102438Y-66861904D02*
X134150057Y-66814285D01*
X134150057Y-66814285D02*
X134245295Y-66766666D01*
X134245295Y-66766666D02*
X134388152Y-66766666D01*
X134388152Y-66766666D02*
X134483390Y-66814285D01*
X134483390Y-66814285D02*
X134531009Y-66861904D01*
X134531009Y-66861904D02*
X134578628Y-66957142D01*
X134578628Y-66957142D02*
X134578628Y-67338094D01*
X134054819Y-66433332D02*
X134054819Y-65814285D01*
X134054819Y-65814285D02*
X134435771Y-66147618D01*
X134435771Y-66147618D02*
X134435771Y-66004761D01*
X134435771Y-66004761D02*
X134483390Y-65909523D01*
X134483390Y-65909523D02*
X134531009Y-65861904D01*
X134531009Y-65861904D02*
X134626247Y-65814285D01*
X134626247Y-65814285D02*
X134864342Y-65814285D01*
X134864342Y-65814285D02*
X134959580Y-65861904D01*
X134959580Y-65861904D02*
X135007200Y-65909523D01*
X135007200Y-65909523D02*
X135054819Y-66004761D01*
X135054819Y-66004761D02*
X135054819Y-66290475D01*
X135054819Y-66290475D02*
X135007200Y-66385713D01*
X135007200Y-66385713D02*
X134959580Y-66433332D01*
X134054819Y-76761904D02*
X134054819Y-77238094D01*
X134054819Y-77238094D02*
X134531009Y-77285713D01*
X134531009Y-77285713D02*
X134483390Y-77238094D01*
X134483390Y-77238094D02*
X134435771Y-77142856D01*
X134435771Y-77142856D02*
X134435771Y-76904761D01*
X134435771Y-76904761D02*
X134483390Y-76809523D01*
X134483390Y-76809523D02*
X134531009Y-76761904D01*
X134531009Y-76761904D02*
X134626247Y-76714285D01*
X134626247Y-76714285D02*
X134864342Y-76714285D01*
X134864342Y-76714285D02*
X134959580Y-76761904D01*
X134959580Y-76761904D02*
X135007200Y-76809523D01*
X135007200Y-76809523D02*
X135054819Y-76904761D01*
X135054819Y-76904761D02*
X135054819Y-77142856D01*
X135054819Y-77142856D02*
X135007200Y-77238094D01*
X135007200Y-77238094D02*
X134959580Y-77285713D01*
X134102438Y-75761904D02*
X134054819Y-75857142D01*
X134054819Y-75857142D02*
X134054819Y-75999999D01*
X134054819Y-75999999D02*
X134102438Y-76142856D01*
X134102438Y-76142856D02*
X134197676Y-76238094D01*
X134197676Y-76238094D02*
X134292914Y-76285713D01*
X134292914Y-76285713D02*
X134483390Y-76333332D01*
X134483390Y-76333332D02*
X134626247Y-76333332D01*
X134626247Y-76333332D02*
X134816723Y-76285713D01*
X134816723Y-76285713D02*
X134911961Y-76238094D01*
X134911961Y-76238094D02*
X135007200Y-76142856D01*
X135007200Y-76142856D02*
X135054819Y-75999999D01*
X135054819Y-75999999D02*
X135054819Y-75904761D01*
X135054819Y-75904761D02*
X135007200Y-75761904D01*
X135007200Y-75761904D02*
X134959580Y-75714285D01*
X134959580Y-75714285D02*
X134626247Y-75714285D01*
X134626247Y-75714285D02*
X134626247Y-75904761D01*
X155953333Y-84824819D02*
X155620000Y-84348628D01*
X155381905Y-84824819D02*
X155381905Y-83824819D01*
X155381905Y-83824819D02*
X155762857Y-83824819D01*
X155762857Y-83824819D02*
X155858095Y-83872438D01*
X155858095Y-83872438D02*
X155905714Y-83920057D01*
X155905714Y-83920057D02*
X155953333Y-84015295D01*
X155953333Y-84015295D02*
X155953333Y-84158152D01*
X155953333Y-84158152D02*
X155905714Y-84253390D01*
X155905714Y-84253390D02*
X155858095Y-84301009D01*
X155858095Y-84301009D02*
X155762857Y-84348628D01*
X155762857Y-84348628D02*
X155381905Y-84348628D01*
X156810476Y-83824819D02*
X156620000Y-83824819D01*
X156620000Y-83824819D02*
X156524762Y-83872438D01*
X156524762Y-83872438D02*
X156477143Y-83920057D01*
X156477143Y-83920057D02*
X156381905Y-84062914D01*
X156381905Y-84062914D02*
X156334286Y-84253390D01*
X156334286Y-84253390D02*
X156334286Y-84634342D01*
X156334286Y-84634342D02*
X156381905Y-84729580D01*
X156381905Y-84729580D02*
X156429524Y-84777200D01*
X156429524Y-84777200D02*
X156524762Y-84824819D01*
X156524762Y-84824819D02*
X156715238Y-84824819D01*
X156715238Y-84824819D02*
X156810476Y-84777200D01*
X156810476Y-84777200D02*
X156858095Y-84729580D01*
X156858095Y-84729580D02*
X156905714Y-84634342D01*
X156905714Y-84634342D02*
X156905714Y-84396247D01*
X156905714Y-84396247D02*
X156858095Y-84301009D01*
X156858095Y-84301009D02*
X156810476Y-84253390D01*
X156810476Y-84253390D02*
X156715238Y-84205771D01*
X156715238Y-84205771D02*
X156524762Y-84205771D01*
X156524762Y-84205771D02*
X156429524Y-84253390D01*
X156429524Y-84253390D02*
X156381905Y-84301009D01*
X156381905Y-84301009D02*
X156334286Y-84396247D01*
X155048571Y-80084819D02*
X154477143Y-80084819D01*
X154762857Y-80084819D02*
X154762857Y-79084819D01*
X154762857Y-79084819D02*
X154667619Y-79227676D01*
X154667619Y-79227676D02*
X154572381Y-79322914D01*
X154572381Y-79322914D02*
X154477143Y-79370533D01*
X155953333Y-79084819D02*
X155477143Y-79084819D01*
X155477143Y-79084819D02*
X155429524Y-79561009D01*
X155429524Y-79561009D02*
X155477143Y-79513390D01*
X155477143Y-79513390D02*
X155572381Y-79465771D01*
X155572381Y-79465771D02*
X155810476Y-79465771D01*
X155810476Y-79465771D02*
X155905714Y-79513390D01*
X155905714Y-79513390D02*
X155953333Y-79561009D01*
X155953333Y-79561009D02*
X156000952Y-79656247D01*
X156000952Y-79656247D02*
X156000952Y-79894342D01*
X156000952Y-79894342D02*
X155953333Y-79989580D01*
X155953333Y-79989580D02*
X155905714Y-80037200D01*
X155905714Y-80037200D02*
X155810476Y-80084819D01*
X155810476Y-80084819D02*
X155572381Y-80084819D01*
X155572381Y-80084819D02*
X155477143Y-80037200D01*
X155477143Y-80037200D02*
X155429524Y-79989580D01*
X156620000Y-79084819D02*
X156715238Y-79084819D01*
X156715238Y-79084819D02*
X156810476Y-79132438D01*
X156810476Y-79132438D02*
X156858095Y-79180057D01*
X156858095Y-79180057D02*
X156905714Y-79275295D01*
X156905714Y-79275295D02*
X156953333Y-79465771D01*
X156953333Y-79465771D02*
X156953333Y-79703866D01*
X156953333Y-79703866D02*
X156905714Y-79894342D01*
X156905714Y-79894342D02*
X156858095Y-79989580D01*
X156858095Y-79989580D02*
X156810476Y-80037200D01*
X156810476Y-80037200D02*
X156715238Y-80084819D01*
X156715238Y-80084819D02*
X156620000Y-80084819D01*
X156620000Y-80084819D02*
X156524762Y-80037200D01*
X156524762Y-80037200D02*
X156477143Y-79989580D01*
X156477143Y-79989580D02*
X156429524Y-79894342D01*
X156429524Y-79894342D02*
X156381905Y-79703866D01*
X156381905Y-79703866D02*
X156381905Y-79465771D01*
X156381905Y-79465771D02*
X156429524Y-79275295D01*
X156429524Y-79275295D02*
X156477143Y-79180057D01*
X156477143Y-79180057D02*
X156524762Y-79132438D01*
X156524762Y-79132438D02*
X156620000Y-79084819D01*
X157381905Y-80084819D02*
X157381905Y-79084819D01*
X157477143Y-79703866D02*
X157762857Y-80084819D01*
X157762857Y-79418152D02*
X157381905Y-79799104D01*
X155873333Y-91924819D02*
X155540000Y-91448628D01*
X155301905Y-91924819D02*
X155301905Y-90924819D01*
X155301905Y-90924819D02*
X155682857Y-90924819D01*
X155682857Y-90924819D02*
X155778095Y-90972438D01*
X155778095Y-90972438D02*
X155825714Y-91020057D01*
X155825714Y-91020057D02*
X155873333Y-91115295D01*
X155873333Y-91115295D02*
X155873333Y-91258152D01*
X155873333Y-91258152D02*
X155825714Y-91353390D01*
X155825714Y-91353390D02*
X155778095Y-91401009D01*
X155778095Y-91401009D02*
X155682857Y-91448628D01*
X155682857Y-91448628D02*
X155301905Y-91448628D01*
X156206667Y-90924819D02*
X156873333Y-90924819D01*
X156873333Y-90924819D02*
X156444762Y-91924819D01*
X154873333Y-86518152D02*
X154873333Y-87184819D01*
X154635238Y-86137200D02*
X154397143Y-86851485D01*
X154397143Y-86851485D02*
X155016190Y-86851485D01*
X155301905Y-86184819D02*
X155968571Y-86184819D01*
X155968571Y-86184819D02*
X155540000Y-87184819D01*
X156540000Y-86184819D02*
X156635238Y-86184819D01*
X156635238Y-86184819D02*
X156730476Y-86232438D01*
X156730476Y-86232438D02*
X156778095Y-86280057D01*
X156778095Y-86280057D02*
X156825714Y-86375295D01*
X156825714Y-86375295D02*
X156873333Y-86565771D01*
X156873333Y-86565771D02*
X156873333Y-86803866D01*
X156873333Y-86803866D02*
X156825714Y-86994342D01*
X156825714Y-86994342D02*
X156778095Y-87089580D01*
X156778095Y-87089580D02*
X156730476Y-87137200D01*
X156730476Y-87137200D02*
X156635238Y-87184819D01*
X156635238Y-87184819D02*
X156540000Y-87184819D01*
X156540000Y-87184819D02*
X156444762Y-87137200D01*
X156444762Y-87137200D02*
X156397143Y-87089580D01*
X156397143Y-87089580D02*
X156349524Y-86994342D01*
X156349524Y-86994342D02*
X156301905Y-86803866D01*
X156301905Y-86803866D02*
X156301905Y-86565771D01*
X156301905Y-86565771D02*
X156349524Y-86375295D01*
X156349524Y-86375295D02*
X156397143Y-86280057D01*
X156397143Y-86280057D02*
X156444762Y-86232438D01*
X156444762Y-86232438D02*
X156540000Y-86184819D01*
X157301905Y-87184819D02*
X157301905Y-86184819D01*
X157397143Y-86803866D02*
X157682857Y-87184819D01*
X157682857Y-86518152D02*
X157301905Y-86899104D01*
X183959580Y-73266666D02*
X184007200Y-73314285D01*
X184007200Y-73314285D02*
X184054819Y-73457142D01*
X184054819Y-73457142D02*
X184054819Y-73552380D01*
X184054819Y-73552380D02*
X184007200Y-73695237D01*
X184007200Y-73695237D02*
X183911961Y-73790475D01*
X183911961Y-73790475D02*
X183816723Y-73838094D01*
X183816723Y-73838094D02*
X183626247Y-73885713D01*
X183626247Y-73885713D02*
X183483390Y-73885713D01*
X183483390Y-73885713D02*
X183292914Y-73838094D01*
X183292914Y-73838094D02*
X183197676Y-73790475D01*
X183197676Y-73790475D02*
X183102438Y-73695237D01*
X183102438Y-73695237D02*
X183054819Y-73552380D01*
X183054819Y-73552380D02*
X183054819Y-73457142D01*
X183054819Y-73457142D02*
X183102438Y-73314285D01*
X183102438Y-73314285D02*
X183150057Y-73266666D01*
X183054819Y-72933332D02*
X183054819Y-72314285D01*
X183054819Y-72314285D02*
X183435771Y-72647618D01*
X183435771Y-72647618D02*
X183435771Y-72504761D01*
X183435771Y-72504761D02*
X183483390Y-72409523D01*
X183483390Y-72409523D02*
X183531009Y-72361904D01*
X183531009Y-72361904D02*
X183626247Y-72314285D01*
X183626247Y-72314285D02*
X183864342Y-72314285D01*
X183864342Y-72314285D02*
X183959580Y-72361904D01*
X183959580Y-72361904D02*
X184007200Y-72409523D01*
X184007200Y-72409523D02*
X184054819Y-72504761D01*
X184054819Y-72504761D02*
X184054819Y-72790475D01*
X184054819Y-72790475D02*
X184007200Y-72885713D01*
X184007200Y-72885713D02*
X183959580Y-72933332D01*
X185654819Y-74271428D02*
X185654819Y-74842856D01*
X185654819Y-74557142D02*
X184654819Y-74557142D01*
X184654819Y-74557142D02*
X184797676Y-74652380D01*
X184797676Y-74652380D02*
X184892914Y-74747618D01*
X184892914Y-74747618D02*
X184940533Y-74842856D01*
X184654819Y-73652380D02*
X184654819Y-73557142D01*
X184654819Y-73557142D02*
X184702438Y-73461904D01*
X184702438Y-73461904D02*
X184750057Y-73414285D01*
X184750057Y-73414285D02*
X184845295Y-73366666D01*
X184845295Y-73366666D02*
X185035771Y-73319047D01*
X185035771Y-73319047D02*
X185273866Y-73319047D01*
X185273866Y-73319047D02*
X185464342Y-73366666D01*
X185464342Y-73366666D02*
X185559580Y-73414285D01*
X185559580Y-73414285D02*
X185607200Y-73461904D01*
X185607200Y-73461904D02*
X185654819Y-73557142D01*
X185654819Y-73557142D02*
X185654819Y-73652380D01*
X185654819Y-73652380D02*
X185607200Y-73747618D01*
X185607200Y-73747618D02*
X185559580Y-73795237D01*
X185559580Y-73795237D02*
X185464342Y-73842856D01*
X185464342Y-73842856D02*
X185273866Y-73890475D01*
X185273866Y-73890475D02*
X185035771Y-73890475D01*
X185035771Y-73890475D02*
X184845295Y-73842856D01*
X184845295Y-73842856D02*
X184750057Y-73795237D01*
X184750057Y-73795237D02*
X184702438Y-73747618D01*
X184702438Y-73747618D02*
X184654819Y-73652380D01*
X184988152Y-72461904D02*
X185654819Y-72461904D01*
X184988152Y-72890475D02*
X185511961Y-72890475D01*
X185511961Y-72890475D02*
X185607200Y-72842856D01*
X185607200Y-72842856D02*
X185654819Y-72747618D01*
X185654819Y-72747618D02*
X185654819Y-72604761D01*
X185654819Y-72604761D02*
X185607200Y-72509523D01*
X185607200Y-72509523D02*
X185559580Y-72461904D01*
X185131009Y-71652380D02*
X185131009Y-71985713D01*
X185654819Y-71985713D02*
X184654819Y-71985713D01*
X184654819Y-71985713D02*
X184654819Y-71509523D01*
X134014285Y-52731009D02*
X133680952Y-52731009D01*
X133680952Y-53254819D02*
X133680952Y-52254819D01*
X133680952Y-52254819D02*
X134157142Y-52254819D01*
X134966666Y-53254819D02*
X134966666Y-52731009D01*
X134966666Y-52731009D02*
X134919047Y-52635771D01*
X134919047Y-52635771D02*
X134823809Y-52588152D01*
X134823809Y-52588152D02*
X134633333Y-52588152D01*
X134633333Y-52588152D02*
X134538095Y-52635771D01*
X134966666Y-53207200D02*
X134871428Y-53254819D01*
X134871428Y-53254819D02*
X134633333Y-53254819D01*
X134633333Y-53254819D02*
X134538095Y-53207200D01*
X134538095Y-53207200D02*
X134490476Y-53111961D01*
X134490476Y-53111961D02*
X134490476Y-53016723D01*
X134490476Y-53016723D02*
X134538095Y-52921485D01*
X134538095Y-52921485D02*
X134633333Y-52873866D01*
X134633333Y-52873866D02*
X134871428Y-52873866D01*
X134871428Y-52873866D02*
X134966666Y-52826247D01*
X135442857Y-53254819D02*
X135442857Y-52588152D01*
X135442857Y-52778628D02*
X135490476Y-52683390D01*
X135490476Y-52683390D02*
X135538095Y-52635771D01*
X135538095Y-52635771D02*
X135633333Y-52588152D01*
X135633333Y-52588152D02*
X135728571Y-52588152D01*
X136490476Y-53254819D02*
X136490476Y-52731009D01*
X136490476Y-52731009D02*
X136442857Y-52635771D01*
X136442857Y-52635771D02*
X136347619Y-52588152D01*
X136347619Y-52588152D02*
X136157143Y-52588152D01*
X136157143Y-52588152D02*
X136061905Y-52635771D01*
X136490476Y-53207200D02*
X136395238Y-53254819D01*
X136395238Y-53254819D02*
X136157143Y-53254819D01*
X136157143Y-53254819D02*
X136061905Y-53207200D01*
X136061905Y-53207200D02*
X136014286Y-53111961D01*
X136014286Y-53111961D02*
X136014286Y-53016723D01*
X136014286Y-53016723D02*
X136061905Y-52921485D01*
X136061905Y-52921485D02*
X136157143Y-52873866D01*
X136157143Y-52873866D02*
X136395238Y-52873866D01*
X136395238Y-52873866D02*
X136490476Y-52826247D01*
X137395238Y-53254819D02*
X137395238Y-52254819D01*
X137395238Y-53207200D02*
X137300000Y-53254819D01*
X137300000Y-53254819D02*
X137109524Y-53254819D01*
X137109524Y-53254819D02*
X137014286Y-53207200D01*
X137014286Y-53207200D02*
X136966667Y-53159580D01*
X136966667Y-53159580D02*
X136919048Y-53064342D01*
X136919048Y-53064342D02*
X136919048Y-52778628D01*
X136919048Y-52778628D02*
X136966667Y-52683390D01*
X136966667Y-52683390D02*
X137014286Y-52635771D01*
X137014286Y-52635771D02*
X137109524Y-52588152D01*
X137109524Y-52588152D02*
X137300000Y-52588152D01*
X137300000Y-52588152D02*
X137395238Y-52635771D01*
X138300000Y-53254819D02*
X138300000Y-52731009D01*
X138300000Y-52731009D02*
X138252381Y-52635771D01*
X138252381Y-52635771D02*
X138157143Y-52588152D01*
X138157143Y-52588152D02*
X137966667Y-52588152D01*
X137966667Y-52588152D02*
X137871429Y-52635771D01*
X138300000Y-53207200D02*
X138204762Y-53254819D01*
X138204762Y-53254819D02*
X137966667Y-53254819D01*
X137966667Y-53254819D02*
X137871429Y-53207200D01*
X137871429Y-53207200D02*
X137823810Y-53111961D01*
X137823810Y-53111961D02*
X137823810Y-53016723D01*
X137823810Y-53016723D02*
X137871429Y-52921485D01*
X137871429Y-52921485D02*
X137966667Y-52873866D01*
X137966667Y-52873866D02*
X138204762Y-52873866D01*
X138204762Y-52873866D02*
X138300000Y-52826247D01*
X138680953Y-52588152D02*
X138919048Y-53254819D01*
X139157143Y-52588152D02*
X138919048Y-53254819D01*
X138919048Y-53254819D02*
X138823810Y-53492914D01*
X138823810Y-53492914D02*
X138776191Y-53540533D01*
X138776191Y-53540533D02*
X138680953Y-53588152D01*
X140871429Y-53159580D02*
X140823810Y-53207200D01*
X140823810Y-53207200D02*
X140680953Y-53254819D01*
X140680953Y-53254819D02*
X140585715Y-53254819D01*
X140585715Y-53254819D02*
X140442858Y-53207200D01*
X140442858Y-53207200D02*
X140347620Y-53111961D01*
X140347620Y-53111961D02*
X140300001Y-53016723D01*
X140300001Y-53016723D02*
X140252382Y-52826247D01*
X140252382Y-52826247D02*
X140252382Y-52683390D01*
X140252382Y-52683390D02*
X140300001Y-52492914D01*
X140300001Y-52492914D02*
X140347620Y-52397676D01*
X140347620Y-52397676D02*
X140442858Y-52302438D01*
X140442858Y-52302438D02*
X140585715Y-52254819D01*
X140585715Y-52254819D02*
X140680953Y-52254819D01*
X140680953Y-52254819D02*
X140823810Y-52302438D01*
X140823810Y-52302438D02*
X140871429Y-52350057D01*
X141728572Y-52588152D02*
X141728572Y-53254819D01*
X141300001Y-52588152D02*
X141300001Y-53111961D01*
X141300001Y-53111961D02*
X141347620Y-53207200D01*
X141347620Y-53207200D02*
X141442858Y-53254819D01*
X141442858Y-53254819D02*
X141585715Y-53254819D01*
X141585715Y-53254819D02*
X141680953Y-53207200D01*
X141680953Y-53207200D02*
X141728572Y-53159580D01*
X142204763Y-52588152D02*
X142204763Y-53588152D01*
X142204763Y-52635771D02*
X142300001Y-52588152D01*
X142300001Y-52588152D02*
X142490477Y-52588152D01*
X142490477Y-52588152D02*
X142585715Y-52635771D01*
X142585715Y-52635771D02*
X142633334Y-52683390D01*
X142633334Y-52683390D02*
X142680953Y-52778628D01*
X142680953Y-52778628D02*
X142680953Y-53064342D01*
X142680953Y-53064342D02*
X142633334Y-53159580D01*
X142633334Y-53159580D02*
X142585715Y-53207200D01*
X142585715Y-53207200D02*
X142490477Y-53254819D01*
X142490477Y-53254819D02*
X142300001Y-53254819D01*
X142300001Y-53254819D02*
X142204763Y-53207200D01*
X143871430Y-53254819D02*
X143871430Y-52254819D01*
X144347620Y-53254819D02*
X144347620Y-52254819D01*
X144347620Y-52254819D02*
X144919048Y-53254819D01*
X144919048Y-53254819D02*
X144919048Y-52254819D01*
X139166666Y-58254819D02*
X139166666Y-58969104D01*
X139166666Y-58969104D02*
X139119047Y-59111961D01*
X139119047Y-59111961D02*
X139023809Y-59207200D01*
X139023809Y-59207200D02*
X138880952Y-59254819D01*
X138880952Y-59254819D02*
X138785714Y-59254819D01*
X140166666Y-59254819D02*
X139595238Y-59254819D01*
X139880952Y-59254819D02*
X139880952Y-58254819D01*
X139880952Y-58254819D02*
X139785714Y-58397676D01*
X139785714Y-58397676D02*
X139690476Y-58492914D01*
X139690476Y-58492914D02*
X139595238Y-58540533D01*
X170978095Y-68217819D02*
X170978095Y-69027342D01*
X170978095Y-69027342D02*
X171025714Y-69122580D01*
X171025714Y-69122580D02*
X171073333Y-69170200D01*
X171073333Y-69170200D02*
X171168571Y-69217819D01*
X171168571Y-69217819D02*
X171359047Y-69217819D01*
X171359047Y-69217819D02*
X171454285Y-69170200D01*
X171454285Y-69170200D02*
X171501904Y-69122580D01*
X171501904Y-69122580D02*
X171549523Y-69027342D01*
X171549523Y-69027342D02*
X171549523Y-68217819D01*
X172501904Y-68217819D02*
X172025714Y-68217819D01*
X172025714Y-68217819D02*
X171978095Y-68694009D01*
X171978095Y-68694009D02*
X172025714Y-68646390D01*
X172025714Y-68646390D02*
X172120952Y-68598771D01*
X172120952Y-68598771D02*
X172359047Y-68598771D01*
X172359047Y-68598771D02*
X172454285Y-68646390D01*
X172454285Y-68646390D02*
X172501904Y-68694009D01*
X172501904Y-68694009D02*
X172549523Y-68789247D01*
X172549523Y-68789247D02*
X172549523Y-69027342D01*
X172549523Y-69027342D02*
X172501904Y-69122580D01*
X172501904Y-69122580D02*
X172454285Y-69170200D01*
X172454285Y-69170200D02*
X172359047Y-69217819D01*
X172359047Y-69217819D02*
X172120952Y-69217819D01*
X172120952Y-69217819D02*
X172025714Y-69170200D01*
X172025714Y-69170200D02*
X171978095Y-69122580D01*
X167000000Y-67654819D02*
X167000000Y-66654819D01*
X167000000Y-66654819D02*
X167333333Y-67369104D01*
X167333333Y-67369104D02*
X167666666Y-66654819D01*
X167666666Y-66654819D02*
X167666666Y-67654819D01*
X168095238Y-67369104D02*
X168571428Y-67369104D01*
X168000000Y-67654819D02*
X168333333Y-66654819D01*
X168333333Y-66654819D02*
X168666666Y-67654819D01*
X168904762Y-66654819D02*
X169571428Y-67654819D01*
X169571428Y-66654819D02*
X168904762Y-67654819D01*
X170476190Y-67654819D02*
X169904762Y-67654819D01*
X170190476Y-67654819D02*
X170190476Y-66654819D01*
X170190476Y-66654819D02*
X170095238Y-66797676D01*
X170095238Y-66797676D02*
X170000000Y-66892914D01*
X170000000Y-66892914D02*
X169904762Y-66940533D01*
X171095238Y-66654819D02*
X171190476Y-66654819D01*
X171190476Y-66654819D02*
X171285714Y-66702438D01*
X171285714Y-66702438D02*
X171333333Y-66750057D01*
X171333333Y-66750057D02*
X171380952Y-66845295D01*
X171380952Y-66845295D02*
X171428571Y-67035771D01*
X171428571Y-67035771D02*
X171428571Y-67273866D01*
X171428571Y-67273866D02*
X171380952Y-67464342D01*
X171380952Y-67464342D02*
X171333333Y-67559580D01*
X171333333Y-67559580D02*
X171285714Y-67607200D01*
X171285714Y-67607200D02*
X171190476Y-67654819D01*
X171190476Y-67654819D02*
X171095238Y-67654819D01*
X171095238Y-67654819D02*
X171000000Y-67607200D01*
X171000000Y-67607200D02*
X170952381Y-67559580D01*
X170952381Y-67559580D02*
X170904762Y-67464342D01*
X170904762Y-67464342D02*
X170857143Y-67273866D01*
X170857143Y-67273866D02*
X170857143Y-67035771D01*
X170857143Y-67035771D02*
X170904762Y-66845295D01*
X170904762Y-66845295D02*
X170952381Y-66750057D01*
X170952381Y-66750057D02*
X171000000Y-66702438D01*
X171000000Y-66702438D02*
X171095238Y-66654819D01*
X171761905Y-66654819D02*
X172380952Y-66654819D01*
X172380952Y-66654819D02*
X172047619Y-67035771D01*
X172047619Y-67035771D02*
X172190476Y-67035771D01*
X172190476Y-67035771D02*
X172285714Y-67083390D01*
X172285714Y-67083390D02*
X172333333Y-67131009D01*
X172333333Y-67131009D02*
X172380952Y-67226247D01*
X172380952Y-67226247D02*
X172380952Y-67464342D01*
X172380952Y-67464342D02*
X172333333Y-67559580D01*
X172333333Y-67559580D02*
X172285714Y-67607200D01*
X172285714Y-67607200D02*
X172190476Y-67654819D01*
X172190476Y-67654819D02*
X171904762Y-67654819D01*
X171904762Y-67654819D02*
X171809524Y-67607200D01*
X171809524Y-67607200D02*
X171761905Y-67559580D01*
X172761905Y-66750057D02*
X172809524Y-66702438D01*
X172809524Y-66702438D02*
X172904762Y-66654819D01*
X172904762Y-66654819D02*
X173142857Y-66654819D01*
X173142857Y-66654819D02*
X173238095Y-66702438D01*
X173238095Y-66702438D02*
X173285714Y-66750057D01*
X173285714Y-66750057D02*
X173333333Y-66845295D01*
X173333333Y-66845295D02*
X173333333Y-66940533D01*
X173333333Y-66940533D02*
X173285714Y-67083390D01*
X173285714Y-67083390D02*
X172714286Y-67654819D01*
X172714286Y-67654819D02*
X173333333Y-67654819D01*
X174095238Y-67131009D02*
X174238095Y-67178628D01*
X174238095Y-67178628D02*
X174285714Y-67226247D01*
X174285714Y-67226247D02*
X174333333Y-67321485D01*
X174333333Y-67321485D02*
X174333333Y-67464342D01*
X174333333Y-67464342D02*
X174285714Y-67559580D01*
X174285714Y-67559580D02*
X174238095Y-67607200D01*
X174238095Y-67607200D02*
X174142857Y-67654819D01*
X174142857Y-67654819D02*
X173761905Y-67654819D01*
X173761905Y-67654819D02*
X173761905Y-66654819D01*
X173761905Y-66654819D02*
X174095238Y-66654819D01*
X174095238Y-66654819D02*
X174190476Y-66702438D01*
X174190476Y-66702438D02*
X174238095Y-66750057D01*
X174238095Y-66750057D02*
X174285714Y-66845295D01*
X174285714Y-66845295D02*
X174285714Y-66940533D01*
X174285714Y-66940533D02*
X174238095Y-67035771D01*
X174238095Y-67035771D02*
X174190476Y-67083390D01*
X174190476Y-67083390D02*
X174095238Y-67131009D01*
X174095238Y-67131009D02*
X173761905Y-67131009D01*
X174761905Y-67131009D02*
X175095238Y-67131009D01*
X175238095Y-67654819D02*
X174761905Y-67654819D01*
X174761905Y-67654819D02*
X174761905Y-66654819D01*
X174761905Y-66654819D02*
X175238095Y-66654819D01*
X175666667Y-66654819D02*
X175666667Y-67464342D01*
X175666667Y-67464342D02*
X175714286Y-67559580D01*
X175714286Y-67559580D02*
X175761905Y-67607200D01*
X175761905Y-67607200D02*
X175857143Y-67654819D01*
X175857143Y-67654819D02*
X176047619Y-67654819D01*
X176047619Y-67654819D02*
X176142857Y-67607200D01*
X176142857Y-67607200D02*
X176190476Y-67559580D01*
X176190476Y-67559580D02*
X176238095Y-67464342D01*
X176238095Y-67464342D02*
X176238095Y-66654819D01*
X177238095Y-66702438D02*
X177142857Y-66654819D01*
X177142857Y-66654819D02*
X177000000Y-66654819D01*
X177000000Y-66654819D02*
X176857143Y-66702438D01*
X176857143Y-66702438D02*
X176761905Y-66797676D01*
X176761905Y-66797676D02*
X176714286Y-66892914D01*
X176714286Y-66892914D02*
X176666667Y-67083390D01*
X176666667Y-67083390D02*
X176666667Y-67226247D01*
X176666667Y-67226247D02*
X176714286Y-67416723D01*
X176714286Y-67416723D02*
X176761905Y-67511961D01*
X176761905Y-67511961D02*
X176857143Y-67607200D01*
X176857143Y-67607200D02*
X177000000Y-67654819D01*
X177000000Y-67654819D02*
X177095238Y-67654819D01*
X177095238Y-67654819D02*
X177238095Y-67607200D01*
X177238095Y-67607200D02*
X177285714Y-67559580D01*
X177285714Y-67559580D02*
X177285714Y-67226247D01*
X177285714Y-67226247D02*
X177095238Y-67226247D01*
X177476191Y-67750057D02*
X178238095Y-67750057D01*
X182180952Y-57054819D02*
X182371428Y-57054819D01*
X182371428Y-57054819D02*
X182466666Y-57007200D01*
X182466666Y-57007200D02*
X182514285Y-56959580D01*
X182514285Y-56959580D02*
X182609523Y-56816723D01*
X182609523Y-56816723D02*
X182657142Y-56626247D01*
X182657142Y-56626247D02*
X182657142Y-56245295D01*
X182657142Y-56245295D02*
X182609523Y-56150057D01*
X182609523Y-56150057D02*
X182561904Y-56102438D01*
X182561904Y-56102438D02*
X182466666Y-56054819D01*
X182466666Y-56054819D02*
X182276190Y-56054819D01*
X182276190Y-56054819D02*
X182180952Y-56102438D01*
X182180952Y-56102438D02*
X182133333Y-56150057D01*
X182133333Y-56150057D02*
X182085714Y-56245295D01*
X182085714Y-56245295D02*
X182085714Y-56483390D01*
X182085714Y-56483390D02*
X182133333Y-56578628D01*
X182133333Y-56578628D02*
X182180952Y-56626247D01*
X182180952Y-56626247D02*
X182276190Y-56673866D01*
X182276190Y-56673866D02*
X182466666Y-56673866D01*
X182466666Y-56673866D02*
X182561904Y-56626247D01*
X182561904Y-56626247D02*
X182609523Y-56578628D01*
X182609523Y-56578628D02*
X182657142Y-56483390D01*
X182942857Y-56054819D02*
X183276190Y-57054819D01*
X183276190Y-57054819D02*
X183609523Y-56054819D01*
X145233333Y-75259580D02*
X145185714Y-75307200D01*
X145185714Y-75307200D02*
X145042857Y-75354819D01*
X145042857Y-75354819D02*
X144947619Y-75354819D01*
X144947619Y-75354819D02*
X144804762Y-75307200D01*
X144804762Y-75307200D02*
X144709524Y-75211961D01*
X144709524Y-75211961D02*
X144661905Y-75116723D01*
X144661905Y-75116723D02*
X144614286Y-74926247D01*
X144614286Y-74926247D02*
X144614286Y-74783390D01*
X144614286Y-74783390D02*
X144661905Y-74592914D01*
X144661905Y-74592914D02*
X144709524Y-74497676D01*
X144709524Y-74497676D02*
X144804762Y-74402438D01*
X144804762Y-74402438D02*
X144947619Y-74354819D01*
X144947619Y-74354819D02*
X145042857Y-74354819D01*
X145042857Y-74354819D02*
X145185714Y-74402438D01*
X145185714Y-74402438D02*
X145233333Y-74450057D01*
X146138095Y-74354819D02*
X145661905Y-74354819D01*
X145661905Y-74354819D02*
X145614286Y-74831009D01*
X145614286Y-74831009D02*
X145661905Y-74783390D01*
X145661905Y-74783390D02*
X145757143Y-74735771D01*
X145757143Y-74735771D02*
X145995238Y-74735771D01*
X145995238Y-74735771D02*
X146090476Y-74783390D01*
X146090476Y-74783390D02*
X146138095Y-74831009D01*
X146138095Y-74831009D02*
X146185714Y-74926247D01*
X146185714Y-74926247D02*
X146185714Y-75164342D01*
X146185714Y-75164342D02*
X146138095Y-75259580D01*
X146138095Y-75259580D02*
X146090476Y-75307200D01*
X146090476Y-75307200D02*
X145995238Y-75354819D01*
X145995238Y-75354819D02*
X145757143Y-75354819D01*
X145757143Y-75354819D02*
X145661905Y-75307200D01*
X145661905Y-75307200D02*
X145614286Y-75259580D01*
X141180952Y-84754819D02*
X140609524Y-84754819D01*
X140895238Y-84754819D02*
X140895238Y-83754819D01*
X140895238Y-83754819D02*
X140800000Y-83897676D01*
X140800000Y-83897676D02*
X140704762Y-83992914D01*
X140704762Y-83992914D02*
X140609524Y-84040533D01*
X141800000Y-83754819D02*
X141895238Y-83754819D01*
X141895238Y-83754819D02*
X141990476Y-83802438D01*
X141990476Y-83802438D02*
X142038095Y-83850057D01*
X142038095Y-83850057D02*
X142085714Y-83945295D01*
X142085714Y-83945295D02*
X142133333Y-84135771D01*
X142133333Y-84135771D02*
X142133333Y-84373866D01*
X142133333Y-84373866D02*
X142085714Y-84564342D01*
X142085714Y-84564342D02*
X142038095Y-84659580D01*
X142038095Y-84659580D02*
X141990476Y-84707200D01*
X141990476Y-84707200D02*
X141895238Y-84754819D01*
X141895238Y-84754819D02*
X141800000Y-84754819D01*
X141800000Y-84754819D02*
X141704762Y-84707200D01*
X141704762Y-84707200D02*
X141657143Y-84659580D01*
X141657143Y-84659580D02*
X141609524Y-84564342D01*
X141609524Y-84564342D02*
X141561905Y-84373866D01*
X141561905Y-84373866D02*
X141561905Y-84135771D01*
X141561905Y-84135771D02*
X141609524Y-83945295D01*
X141609524Y-83945295D02*
X141657143Y-83850057D01*
X141657143Y-83850057D02*
X141704762Y-83802438D01*
X141704762Y-83802438D02*
X141800000Y-83754819D01*
X142752381Y-83754819D02*
X142847619Y-83754819D01*
X142847619Y-83754819D02*
X142942857Y-83802438D01*
X142942857Y-83802438D02*
X142990476Y-83850057D01*
X142990476Y-83850057D02*
X143038095Y-83945295D01*
X143038095Y-83945295D02*
X143085714Y-84135771D01*
X143085714Y-84135771D02*
X143085714Y-84373866D01*
X143085714Y-84373866D02*
X143038095Y-84564342D01*
X143038095Y-84564342D02*
X142990476Y-84659580D01*
X142990476Y-84659580D02*
X142942857Y-84707200D01*
X142942857Y-84707200D02*
X142847619Y-84754819D01*
X142847619Y-84754819D02*
X142752381Y-84754819D01*
X142752381Y-84754819D02*
X142657143Y-84707200D01*
X142657143Y-84707200D02*
X142609524Y-84659580D01*
X142609524Y-84659580D02*
X142561905Y-84564342D01*
X142561905Y-84564342D02*
X142514286Y-84373866D01*
X142514286Y-84373866D02*
X142514286Y-84135771D01*
X142514286Y-84135771D02*
X142561905Y-83945295D01*
X142561905Y-83945295D02*
X142609524Y-83850057D01*
X142609524Y-83850057D02*
X142657143Y-83802438D01*
X142657143Y-83802438D02*
X142752381Y-83754819D01*
X143514286Y-84088152D02*
X143514286Y-85088152D01*
X143514286Y-84135771D02*
X143609524Y-84088152D01*
X143609524Y-84088152D02*
X143800000Y-84088152D01*
X143800000Y-84088152D02*
X143895238Y-84135771D01*
X143895238Y-84135771D02*
X143942857Y-84183390D01*
X143942857Y-84183390D02*
X143990476Y-84278628D01*
X143990476Y-84278628D02*
X143990476Y-84564342D01*
X143990476Y-84564342D02*
X143942857Y-84659580D01*
X143942857Y-84659580D02*
X143895238Y-84707200D01*
X143895238Y-84707200D02*
X143800000Y-84754819D01*
X143800000Y-84754819D02*
X143609524Y-84754819D01*
X143609524Y-84754819D02*
X143514286Y-84707200D01*
X134338095Y-89754819D02*
X134338095Y-90564342D01*
X134338095Y-90564342D02*
X134385714Y-90659580D01*
X134385714Y-90659580D02*
X134433333Y-90707200D01*
X134433333Y-90707200D02*
X134528571Y-90754819D01*
X134528571Y-90754819D02*
X134719047Y-90754819D01*
X134719047Y-90754819D02*
X134814285Y-90707200D01*
X134814285Y-90707200D02*
X134861904Y-90659580D01*
X134861904Y-90659580D02*
X134909523Y-90564342D01*
X134909523Y-90564342D02*
X134909523Y-89754819D01*
X135338095Y-89850057D02*
X135385714Y-89802438D01*
X135385714Y-89802438D02*
X135480952Y-89754819D01*
X135480952Y-89754819D02*
X135719047Y-89754819D01*
X135719047Y-89754819D02*
X135814285Y-89802438D01*
X135814285Y-89802438D02*
X135861904Y-89850057D01*
X135861904Y-89850057D02*
X135909523Y-89945295D01*
X135909523Y-89945295D02*
X135909523Y-90040533D01*
X135909523Y-90040533D02*
X135861904Y-90183390D01*
X135861904Y-90183390D02*
X135290476Y-90754819D01*
X135290476Y-90754819D02*
X135909523Y-90754819D01*
X134438095Y-91614819D02*
X135057142Y-91614819D01*
X135057142Y-91614819D02*
X134723809Y-91995771D01*
X134723809Y-91995771D02*
X134866666Y-91995771D01*
X134866666Y-91995771D02*
X134961904Y-92043390D01*
X134961904Y-92043390D02*
X135009523Y-92091009D01*
X135009523Y-92091009D02*
X135057142Y-92186247D01*
X135057142Y-92186247D02*
X135057142Y-92424342D01*
X135057142Y-92424342D02*
X135009523Y-92519580D01*
X135009523Y-92519580D02*
X134961904Y-92567200D01*
X134961904Y-92567200D02*
X134866666Y-92614819D01*
X134866666Y-92614819D02*
X134580952Y-92614819D01*
X134580952Y-92614819D02*
X134485714Y-92567200D01*
X134485714Y-92567200D02*
X134438095Y-92519580D01*
X135914285Y-91948152D02*
X135914285Y-92614819D01*
X135676190Y-91567200D02*
X135438095Y-92281485D01*
X135438095Y-92281485D02*
X136057142Y-92281485D01*
X136628571Y-91614819D02*
X136723809Y-91614819D01*
X136723809Y-91614819D02*
X136819047Y-91662438D01*
X136819047Y-91662438D02*
X136866666Y-91710057D01*
X136866666Y-91710057D02*
X136914285Y-91805295D01*
X136914285Y-91805295D02*
X136961904Y-91995771D01*
X136961904Y-91995771D02*
X136961904Y-92233866D01*
X136961904Y-92233866D02*
X136914285Y-92424342D01*
X136914285Y-92424342D02*
X136866666Y-92519580D01*
X136866666Y-92519580D02*
X136819047Y-92567200D01*
X136819047Y-92567200D02*
X136723809Y-92614819D01*
X136723809Y-92614819D02*
X136628571Y-92614819D01*
X136628571Y-92614819D02*
X136533333Y-92567200D01*
X136533333Y-92567200D02*
X136485714Y-92519580D01*
X136485714Y-92519580D02*
X136438095Y-92424342D01*
X136438095Y-92424342D02*
X136390476Y-92233866D01*
X136390476Y-92233866D02*
X136390476Y-91995771D01*
X136390476Y-91995771D02*
X136438095Y-91805295D01*
X136438095Y-91805295D02*
X136485714Y-91710057D01*
X136485714Y-91710057D02*
X136533333Y-91662438D01*
X136533333Y-91662438D02*
X136628571Y-91614819D01*
X137866666Y-91614819D02*
X137390476Y-91614819D01*
X137390476Y-91614819D02*
X137342857Y-92091009D01*
X137342857Y-92091009D02*
X137390476Y-92043390D01*
X137390476Y-92043390D02*
X137485714Y-91995771D01*
X137485714Y-91995771D02*
X137723809Y-91995771D01*
X137723809Y-91995771D02*
X137819047Y-92043390D01*
X137819047Y-92043390D02*
X137866666Y-92091009D01*
X137866666Y-92091009D02*
X137914285Y-92186247D01*
X137914285Y-92186247D02*
X137914285Y-92424342D01*
X137914285Y-92424342D02*
X137866666Y-92519580D01*
X137866666Y-92519580D02*
X137819047Y-92567200D01*
X137819047Y-92567200D02*
X137723809Y-92614819D01*
X137723809Y-92614819D02*
X137485714Y-92614819D01*
X137485714Y-92614819D02*
X137390476Y-92567200D01*
X137390476Y-92567200D02*
X137342857Y-92519580D01*
X155953333Y-77224819D02*
X155620000Y-76748628D01*
X155381905Y-77224819D02*
X155381905Y-76224819D01*
X155381905Y-76224819D02*
X155762857Y-76224819D01*
X155762857Y-76224819D02*
X155858095Y-76272438D01*
X155858095Y-76272438D02*
X155905714Y-76320057D01*
X155905714Y-76320057D02*
X155953333Y-76415295D01*
X155953333Y-76415295D02*
X155953333Y-76558152D01*
X155953333Y-76558152D02*
X155905714Y-76653390D01*
X155905714Y-76653390D02*
X155858095Y-76701009D01*
X155858095Y-76701009D02*
X155762857Y-76748628D01*
X155762857Y-76748628D02*
X155381905Y-76748628D01*
X156858095Y-76224819D02*
X156381905Y-76224819D01*
X156381905Y-76224819D02*
X156334286Y-76701009D01*
X156334286Y-76701009D02*
X156381905Y-76653390D01*
X156381905Y-76653390D02*
X156477143Y-76605771D01*
X156477143Y-76605771D02*
X156715238Y-76605771D01*
X156715238Y-76605771D02*
X156810476Y-76653390D01*
X156810476Y-76653390D02*
X156858095Y-76701009D01*
X156858095Y-76701009D02*
X156905714Y-76796247D01*
X156905714Y-76796247D02*
X156905714Y-77034342D01*
X156905714Y-77034342D02*
X156858095Y-77129580D01*
X156858095Y-77129580D02*
X156810476Y-77177200D01*
X156810476Y-77177200D02*
X156715238Y-77224819D01*
X156715238Y-77224819D02*
X156477143Y-77224819D01*
X156477143Y-77224819D02*
X156381905Y-77177200D01*
X156381905Y-77177200D02*
X156334286Y-77129580D01*
X155429523Y-71818152D02*
X155429523Y-72484819D01*
X155191428Y-71437200D02*
X154953333Y-72151485D01*
X154953333Y-72151485D02*
X155572380Y-72151485D01*
X156143809Y-71484819D02*
X156239047Y-71484819D01*
X156239047Y-71484819D02*
X156334285Y-71532438D01*
X156334285Y-71532438D02*
X156381904Y-71580057D01*
X156381904Y-71580057D02*
X156429523Y-71675295D01*
X156429523Y-71675295D02*
X156477142Y-71865771D01*
X156477142Y-71865771D02*
X156477142Y-72103866D01*
X156477142Y-72103866D02*
X156429523Y-72294342D01*
X156429523Y-72294342D02*
X156381904Y-72389580D01*
X156381904Y-72389580D02*
X156334285Y-72437200D01*
X156334285Y-72437200D02*
X156239047Y-72484819D01*
X156239047Y-72484819D02*
X156143809Y-72484819D01*
X156143809Y-72484819D02*
X156048571Y-72437200D01*
X156048571Y-72437200D02*
X156000952Y-72389580D01*
X156000952Y-72389580D02*
X155953333Y-72294342D01*
X155953333Y-72294342D02*
X155905714Y-72103866D01*
X155905714Y-72103866D02*
X155905714Y-71865771D01*
X155905714Y-71865771D02*
X155953333Y-71675295D01*
X155953333Y-71675295D02*
X156000952Y-71580057D01*
X156000952Y-71580057D02*
X156048571Y-71532438D01*
X156048571Y-71532438D02*
X156143809Y-71484819D01*
X156905714Y-72484819D02*
X156905714Y-71484819D01*
X157000952Y-72103866D02*
X157286666Y-72484819D01*
X157286666Y-71818152D02*
X156905714Y-72199104D01*
D12*
%TO.C,TP4*%
X185700000Y-83300000D02*
G75*
G02*
X183300000Y-83300000I-1200000J0D01*
G01*
X183300000Y-83300000D02*
G75*
G02*
X185700000Y-83300000I1200000J0D01*
G01*
%TO.C,TP3*%
X185700000Y-78400000D02*
G75*
G02*
X183300000Y-78400000I-1200000J0D01*
G01*
X183300000Y-78400000D02*
G75*
G02*
X185700000Y-78400000I1200000J0D01*
G01*
%TO.C,TP2*%
X149500000Y-54100000D02*
G75*
G02*
X147100000Y-54100000I-1200000J0D01*
G01*
X147100000Y-54100000D02*
G75*
G02*
X149500000Y-54100000I1200000J0D01*
G01*
%TO.C,TP1*%
X166300000Y-53800000D02*
G75*
G02*
X163900000Y-53800000I-1200000J0D01*
G01*
X163900000Y-53800000D02*
G75*
G02*
X166300000Y-53800000I1200000J0D01*
G01*
%TO.C,R4*%
X155660000Y-65600000D02*
X156430000Y-65600000D01*
X156430000Y-64230000D02*
X156430000Y-66970000D01*
X156430000Y-66970000D02*
X162970000Y-66970000D01*
X162970000Y-64230000D02*
X156430000Y-64230000D01*
X162970000Y-66970000D02*
X162970000Y-64230000D01*
X163740000Y-65600000D02*
X162970000Y-65600000D01*
%TO.C,R2*%
X153380000Y-56800000D02*
X154150000Y-56800000D01*
X154150000Y-55430000D02*
X154150000Y-58170000D01*
X154150000Y-58170000D02*
X160690000Y-58170000D01*
X160690000Y-55430000D02*
X154150000Y-55430000D01*
X160690000Y-58170000D02*
X160690000Y-55430000D01*
X161460000Y-56800000D02*
X160690000Y-56800000D01*
D13*
%TO.C,U4*%
X142205000Y-60255000D02*
X142205000Y-64155000D01*
X147255000Y-60255000D02*
X147255000Y-64155000D01*
D10*
X147135000Y-58165000D02*
G75*
G02*
X146935000Y-58165000I-100000J0D01*
G01*
X146935000Y-58165000D02*
G75*
G02*
X147135000Y-58165000I100000J0D01*
G01*
D12*
%TO.C,J2*%
X179430000Y-90130000D02*
X179430000Y-88800000D01*
X180760000Y-90130000D02*
X179430000Y-90130000D01*
X182030000Y-87470000D02*
X184630000Y-87470000D01*
X182030000Y-90130000D02*
X182030000Y-87470000D01*
X182030000Y-90130000D02*
X184630000Y-90130000D01*
X184630000Y-90130000D02*
X184630000Y-87470000D01*
%TO.C,C4*%
X171560000Y-88500000D02*
X170020000Y-88500000D01*
X171560000Y-88540000D02*
X170020000Y-88540000D01*
X171560000Y-88580000D02*
X170021000Y-88580000D01*
X171560000Y-88620000D02*
X170022000Y-88620000D01*
X171560000Y-88660000D02*
X170024000Y-88660000D01*
X171560000Y-88700000D02*
X170027000Y-88700000D01*
X171560000Y-88740000D02*
X170031000Y-88740000D01*
X171560000Y-88780000D02*
X170035000Y-88780000D01*
X171560000Y-88820000D02*
X170039000Y-88820000D01*
X171560000Y-88860000D02*
X170044000Y-88860000D01*
X171560000Y-88900000D02*
X170050000Y-88900000D01*
X171560000Y-88940000D02*
X170057000Y-88940000D01*
X171560000Y-88980000D02*
X170064000Y-88980000D01*
X171560000Y-89020000D02*
X170072000Y-89020000D01*
X171560000Y-89060000D02*
X170080000Y-89060000D01*
X171560000Y-89100000D02*
X170089000Y-89100000D01*
X171560000Y-89140000D02*
X170099000Y-89140000D01*
X171560000Y-89180000D02*
X170109000Y-89180000D01*
X171560000Y-89221000D02*
X170120000Y-89221000D01*
X171560000Y-89261000D02*
X170132000Y-89261000D01*
X171560000Y-89301000D02*
X170145000Y-89301000D01*
X171560000Y-89341000D02*
X170158000Y-89341000D01*
X171560000Y-89381000D02*
X170172000Y-89381000D01*
X171560000Y-89421000D02*
X170186000Y-89421000D01*
X171560000Y-89461000D02*
X170202000Y-89461000D01*
X171560000Y-89501000D02*
X170218000Y-89501000D01*
X171560000Y-89541000D02*
X170235000Y-89541000D01*
X171560000Y-89581000D02*
X170252000Y-89581000D01*
X171560000Y-89621000D02*
X170271000Y-89621000D01*
X171560000Y-89661000D02*
X170290000Y-89661000D01*
X171560000Y-89701000D02*
X170310000Y-89701000D01*
X171560000Y-89741000D02*
X170332000Y-89741000D01*
X171560000Y-89781000D02*
X170353000Y-89781000D01*
X171560000Y-89821000D02*
X170376000Y-89821000D01*
X171560000Y-89861000D02*
X170400000Y-89861000D01*
X171560000Y-89901000D02*
X170425000Y-89901000D01*
X171560000Y-89941000D02*
X170451000Y-89941000D01*
X171560000Y-89981000D02*
X170478000Y-89981000D01*
X171560000Y-90021000D02*
X170505000Y-90021000D01*
X171560000Y-90061000D02*
X170535000Y-90061000D01*
X171560000Y-90101000D02*
X170565000Y-90101000D01*
X171560000Y-90141000D02*
X170596000Y-90141000D01*
X171560000Y-90181000D02*
X170629000Y-90181000D01*
X171560000Y-90221000D02*
X170663000Y-90221000D01*
X171560000Y-90261000D02*
X170699000Y-90261000D01*
X171560000Y-90301000D02*
X170736000Y-90301000D01*
X171560000Y-90341000D02*
X170774000Y-90341000D01*
X171560000Y-90381000D02*
X170815000Y-90381000D01*
X171560000Y-90421000D02*
X170857000Y-90421000D01*
X171560000Y-90461000D02*
X170901000Y-90461000D01*
X171560000Y-90501000D02*
X170947000Y-90501000D01*
X172884000Y-91101000D02*
X172316000Y-91101000D01*
X173118000Y-91061000D02*
X172082000Y-91061000D01*
X173277000Y-91021000D02*
X171923000Y-91021000D01*
X173405000Y-90981000D02*
X171795000Y-90981000D01*
X173515000Y-90941000D02*
X171685000Y-90941000D01*
X173611000Y-90901000D02*
X171589000Y-90901000D01*
X173698000Y-90861000D02*
X171502000Y-90861000D01*
X173778000Y-90821000D02*
X171422000Y-90821000D01*
X173851000Y-90781000D02*
X171349000Y-90781000D01*
X173919000Y-90741000D02*
X171281000Y-90741000D01*
X173983000Y-90701000D02*
X171217000Y-90701000D01*
X174043000Y-90661000D02*
X171157000Y-90661000D01*
X174075000Y-85695225D02*
X174075000Y-86195225D01*
X174100000Y-90621000D02*
X171100000Y-90621000D01*
X174154000Y-90581000D02*
X171046000Y-90581000D01*
X174205000Y-90541000D02*
X170995000Y-90541000D01*
X174253000Y-90501000D02*
X173640000Y-90501000D01*
X174299000Y-90461000D02*
X173640000Y-90461000D01*
X174325000Y-85945225D02*
X173825000Y-85945225D01*
X174343000Y-90421000D02*
X173640000Y-90421000D01*
X174385000Y-90381000D02*
X173640000Y-90381000D01*
X174426000Y-90341000D02*
X173640000Y-90341000D01*
X174464000Y-90301000D02*
X173640000Y-90301000D01*
X174501000Y-90261000D02*
X173640000Y-90261000D01*
X174537000Y-90221000D02*
X173640000Y-90221000D01*
X174571000Y-90181000D02*
X173640000Y-90181000D01*
X174604000Y-90141000D02*
X173640000Y-90141000D01*
X174635000Y-90101000D02*
X173640000Y-90101000D01*
X174665000Y-90061000D02*
X173640000Y-90061000D01*
X174695000Y-90021000D02*
X173640000Y-90021000D01*
X174722000Y-89981000D02*
X173640000Y-89981000D01*
X174749000Y-89941000D02*
X173640000Y-89941000D01*
X174775000Y-89901000D02*
X173640000Y-89901000D01*
X174800000Y-89861000D02*
X173640000Y-89861000D01*
X174824000Y-89821000D02*
X173640000Y-89821000D01*
X174847000Y-89781000D02*
X173640000Y-89781000D01*
X174868000Y-89741000D02*
X173640000Y-89741000D01*
X174890000Y-89701000D02*
X173640000Y-89701000D01*
X174910000Y-89661000D02*
X173640000Y-89661000D01*
X174929000Y-89621000D02*
X173640000Y-89621000D01*
X174948000Y-89581000D02*
X173640000Y-89581000D01*
X174965000Y-89541000D02*
X173640000Y-89541000D01*
X174982000Y-89501000D02*
X173640000Y-89501000D01*
X174998000Y-89461000D02*
X173640000Y-89461000D01*
X175014000Y-89421000D02*
X173640000Y-89421000D01*
X175028000Y-89381000D02*
X173640000Y-89381000D01*
X175042000Y-89341000D02*
X173640000Y-89341000D01*
X175055000Y-89301000D02*
X173640000Y-89301000D01*
X175068000Y-89261000D02*
X173640000Y-89261000D01*
X175080000Y-89221000D02*
X173640000Y-89221000D01*
X175091000Y-89180000D02*
X173640000Y-89180000D01*
X175101000Y-89140000D02*
X173640000Y-89140000D01*
X175111000Y-89100000D02*
X173640000Y-89100000D01*
X175120000Y-89060000D02*
X173640000Y-89060000D01*
X175128000Y-89020000D02*
X173640000Y-89020000D01*
X175136000Y-88980000D02*
X173640000Y-88980000D01*
X175143000Y-88940000D02*
X173640000Y-88940000D01*
X175150000Y-88900000D02*
X173640000Y-88900000D01*
X175156000Y-88860000D02*
X173640000Y-88860000D01*
X175161000Y-88820000D02*
X173640000Y-88820000D01*
X175165000Y-88780000D02*
X173640000Y-88780000D01*
X175169000Y-88740000D02*
X173640000Y-88740000D01*
X175173000Y-88700000D02*
X173640000Y-88700000D01*
X175176000Y-88660000D02*
X173640000Y-88660000D01*
X175178000Y-88620000D02*
X173640000Y-88620000D01*
X175179000Y-88580000D02*
X173640000Y-88580000D01*
X175180000Y-88500000D02*
X173640000Y-88500000D01*
X175180000Y-88540000D02*
X173640000Y-88540000D01*
X175220000Y-88500000D02*
G75*
G02*
X169980000Y-88500000I-2620000J0D01*
G01*
X169980000Y-88500000D02*
G75*
G02*
X175220000Y-88500000I2620000J0D01*
G01*
%TO.C,R1*%
X168860000Y-56700000D02*
X169630000Y-56700000D01*
X169630000Y-55330000D02*
X169630000Y-58070000D01*
X169630000Y-58070000D02*
X176170000Y-58070000D01*
X176170000Y-55330000D02*
X169630000Y-55330000D01*
X176170000Y-58070000D02*
X176170000Y-55330000D01*
X176940000Y-56700000D02*
X176170000Y-56700000D01*
%TO.C,R3*%
X135530000Y-64416974D02*
X135530000Y-80114974D01*
X135530000Y-80114974D02*
X138270000Y-80114974D01*
X136900000Y-63636974D02*
X136900000Y-64416974D01*
X136900000Y-80884974D02*
X136900000Y-80114974D01*
X138270000Y-64416974D02*
X135530000Y-64416974D01*
X138270000Y-80114974D02*
X138270000Y-64416974D01*
%TO.C,R6*%
X152080000Y-82000000D02*
X152850000Y-82000000D01*
X152850000Y-80630000D02*
X152850000Y-83370000D01*
X152850000Y-83370000D02*
X159390000Y-83370000D01*
X159390000Y-80630000D02*
X152850000Y-80630000D01*
X159390000Y-83370000D02*
X159390000Y-80630000D01*
X160160000Y-82000000D02*
X159390000Y-82000000D01*
%TO.C,R7*%
X152000000Y-89100000D02*
X152770000Y-89100000D01*
X152770000Y-87730000D02*
X152770000Y-90470000D01*
X152770000Y-90470000D02*
X159310000Y-90470000D01*
X159310000Y-87730000D02*
X152770000Y-87730000D01*
X159310000Y-90470000D02*
X159310000Y-87730000D01*
X160080000Y-89100000D02*
X159310000Y-89100000D01*
%TO.C,C3*%
X182060000Y-68300000D02*
X180520000Y-68300000D01*
X182060000Y-68340000D02*
X180520000Y-68340000D01*
X182060000Y-68380000D02*
X180521000Y-68380000D01*
X182060000Y-68420000D02*
X180522000Y-68420000D01*
X182060000Y-68460000D02*
X180524000Y-68460000D01*
X182060000Y-68500000D02*
X180527000Y-68500000D01*
X182060000Y-68540000D02*
X180531000Y-68540000D01*
X182060000Y-68580000D02*
X180535000Y-68580000D01*
X182060000Y-68620000D02*
X180539000Y-68620000D01*
X182060000Y-68660000D02*
X180544000Y-68660000D01*
X182060000Y-68700000D02*
X180550000Y-68700000D01*
X182060000Y-68740000D02*
X180557000Y-68740000D01*
X182060000Y-68780000D02*
X180564000Y-68780000D01*
X182060000Y-68820000D02*
X180572000Y-68820000D01*
X182060000Y-68860000D02*
X180580000Y-68860000D01*
X182060000Y-68900000D02*
X180589000Y-68900000D01*
X182060000Y-68940000D02*
X180599000Y-68940000D01*
X182060000Y-68980000D02*
X180609000Y-68980000D01*
X182060000Y-69021000D02*
X180620000Y-69021000D01*
X182060000Y-69061000D02*
X180632000Y-69061000D01*
X182060000Y-69101000D02*
X180645000Y-69101000D01*
X182060000Y-69141000D02*
X180658000Y-69141000D01*
X182060000Y-69181000D02*
X180672000Y-69181000D01*
X182060000Y-69221000D02*
X180686000Y-69221000D01*
X182060000Y-69261000D02*
X180702000Y-69261000D01*
X182060000Y-69301000D02*
X180718000Y-69301000D01*
X182060000Y-69341000D02*
X180735000Y-69341000D01*
X182060000Y-69381000D02*
X180752000Y-69381000D01*
X182060000Y-69421000D02*
X180771000Y-69421000D01*
X182060000Y-69461000D02*
X180790000Y-69461000D01*
X182060000Y-69501000D02*
X180810000Y-69501000D01*
X182060000Y-69541000D02*
X180832000Y-69541000D01*
X182060000Y-69581000D02*
X180853000Y-69581000D01*
X182060000Y-69621000D02*
X180876000Y-69621000D01*
X182060000Y-69661000D02*
X180900000Y-69661000D01*
X182060000Y-69701000D02*
X180925000Y-69701000D01*
X182060000Y-69741000D02*
X180951000Y-69741000D01*
X182060000Y-69781000D02*
X180978000Y-69781000D01*
X182060000Y-69821000D02*
X181005000Y-69821000D01*
X182060000Y-69861000D02*
X181035000Y-69861000D01*
X182060000Y-69901000D02*
X181065000Y-69901000D01*
X182060000Y-69941000D02*
X181096000Y-69941000D01*
X182060000Y-69981000D02*
X181129000Y-69981000D01*
X182060000Y-70021000D02*
X181163000Y-70021000D01*
X182060000Y-70061000D02*
X181199000Y-70061000D01*
X182060000Y-70101000D02*
X181236000Y-70101000D01*
X182060000Y-70141000D02*
X181274000Y-70141000D01*
X182060000Y-70181000D02*
X181315000Y-70181000D01*
X182060000Y-70221000D02*
X181357000Y-70221000D01*
X182060000Y-70261000D02*
X181401000Y-70261000D01*
X182060000Y-70301000D02*
X181447000Y-70301000D01*
X183384000Y-70901000D02*
X182816000Y-70901000D01*
X183618000Y-70861000D02*
X182582000Y-70861000D01*
X183777000Y-70821000D02*
X182423000Y-70821000D01*
X183905000Y-70781000D02*
X182295000Y-70781000D01*
X184015000Y-70741000D02*
X182185000Y-70741000D01*
X184111000Y-70701000D02*
X182089000Y-70701000D01*
X184198000Y-70661000D02*
X182002000Y-70661000D01*
X184278000Y-70621000D02*
X181922000Y-70621000D01*
X184351000Y-70581000D02*
X181849000Y-70581000D01*
X184419000Y-70541000D02*
X181781000Y-70541000D01*
X184483000Y-70501000D02*
X181717000Y-70501000D01*
X184543000Y-70461000D02*
X181657000Y-70461000D01*
X184575000Y-65495225D02*
X184575000Y-65995225D01*
X184600000Y-70421000D02*
X181600000Y-70421000D01*
X184654000Y-70381000D02*
X181546000Y-70381000D01*
X184705000Y-70341000D02*
X181495000Y-70341000D01*
X184753000Y-70301000D02*
X184140000Y-70301000D01*
X184799000Y-70261000D02*
X184140000Y-70261000D01*
X184825000Y-65745225D02*
X184325000Y-65745225D01*
X184843000Y-70221000D02*
X184140000Y-70221000D01*
X184885000Y-70181000D02*
X184140000Y-70181000D01*
X184926000Y-70141000D02*
X184140000Y-70141000D01*
X184964000Y-70101000D02*
X184140000Y-70101000D01*
X185001000Y-70061000D02*
X184140000Y-70061000D01*
X185037000Y-70021000D02*
X184140000Y-70021000D01*
X185071000Y-69981000D02*
X184140000Y-69981000D01*
X185104000Y-69941000D02*
X184140000Y-69941000D01*
X185135000Y-69901000D02*
X184140000Y-69901000D01*
X185165000Y-69861000D02*
X184140000Y-69861000D01*
X185195000Y-69821000D02*
X184140000Y-69821000D01*
X185222000Y-69781000D02*
X184140000Y-69781000D01*
X185249000Y-69741000D02*
X184140000Y-69741000D01*
X185275000Y-69701000D02*
X184140000Y-69701000D01*
X185300000Y-69661000D02*
X184140000Y-69661000D01*
X185324000Y-69621000D02*
X184140000Y-69621000D01*
X185347000Y-69581000D02*
X184140000Y-69581000D01*
X185368000Y-69541000D02*
X184140000Y-69541000D01*
X185390000Y-69501000D02*
X184140000Y-69501000D01*
X185410000Y-69461000D02*
X184140000Y-69461000D01*
X185429000Y-69421000D02*
X184140000Y-69421000D01*
X185448000Y-69381000D02*
X184140000Y-69381000D01*
X185465000Y-69341000D02*
X184140000Y-69341000D01*
X185482000Y-69301000D02*
X184140000Y-69301000D01*
X185498000Y-69261000D02*
X184140000Y-69261000D01*
X185514000Y-69221000D02*
X184140000Y-69221000D01*
X185528000Y-69181000D02*
X184140000Y-69181000D01*
X185542000Y-69141000D02*
X184140000Y-69141000D01*
X185555000Y-69101000D02*
X184140000Y-69101000D01*
X185568000Y-69061000D02*
X184140000Y-69061000D01*
X185580000Y-69021000D02*
X184140000Y-69021000D01*
X185591000Y-68980000D02*
X184140000Y-68980000D01*
X185601000Y-68940000D02*
X184140000Y-68940000D01*
X185611000Y-68900000D02*
X184140000Y-68900000D01*
X185620000Y-68860000D02*
X184140000Y-68860000D01*
X185628000Y-68820000D02*
X184140000Y-68820000D01*
X185636000Y-68780000D02*
X184140000Y-68780000D01*
X185643000Y-68740000D02*
X184140000Y-68740000D01*
X185650000Y-68700000D02*
X184140000Y-68700000D01*
X185656000Y-68660000D02*
X184140000Y-68660000D01*
X185661000Y-68620000D02*
X184140000Y-68620000D01*
X185665000Y-68580000D02*
X184140000Y-68580000D01*
X185669000Y-68540000D02*
X184140000Y-68540000D01*
X185673000Y-68500000D02*
X184140000Y-68500000D01*
X185676000Y-68460000D02*
X184140000Y-68460000D01*
X185678000Y-68420000D02*
X184140000Y-68420000D01*
X185679000Y-68380000D02*
X184140000Y-68380000D01*
X185680000Y-68300000D02*
X184140000Y-68300000D01*
X185680000Y-68340000D02*
X184140000Y-68340000D01*
X185720000Y-68300000D02*
G75*
G02*
X180480000Y-68300000I-2620000J0D01*
G01*
X180480000Y-68300000D02*
G75*
G02*
X185720000Y-68300000I2620000J0D01*
G01*
%TO.C,J1*%
X135270000Y-54870000D02*
X136600000Y-54870000D01*
X135270000Y-56200000D02*
X135270000Y-54870000D01*
X135270000Y-57470000D02*
X135270000Y-57530000D01*
X135270000Y-57470000D02*
X137930000Y-57470000D01*
X135270000Y-57530000D02*
X137930000Y-57530000D01*
X137930000Y-57470000D02*
X137930000Y-57530000D01*
D13*
%TO.C,U5*%
X170065000Y-69575000D02*
X174565000Y-69575000D01*
X170065000Y-77775000D02*
X174565000Y-77775000D01*
D10*
X168030000Y-69690000D02*
G75*
G02*
X167830000Y-69690000I-100000J0D01*
G01*
X167830000Y-69690000D02*
G75*
G02*
X168030000Y-69690000I100000J0D01*
G01*
D12*
%TO.C,Vbat1*%
X181770000Y-58270000D02*
X183100000Y-58270000D01*
X181770000Y-59600000D02*
X181770000Y-58270000D01*
X181770000Y-60870000D02*
X181770000Y-63470000D01*
X181770000Y-60870000D02*
X184430000Y-60870000D01*
X181770000Y-63470000D02*
X184430000Y-63470000D01*
X184430000Y-60870000D02*
X184430000Y-63470000D01*
%TO.C,C5*%
X141975000Y-81754775D02*
X142475000Y-81754775D01*
X142225000Y-82004775D02*
X142225000Y-81504775D01*
X142640000Y-81595997D02*
G75*
G02*
X142640000Y-76804003I1060001J2395997D01*
G01*
X144760000Y-76804003D02*
G75*
G02*
X144760000Y-81595997I-1060001J-2395997D01*
G01*
D13*
%TO.C,U2*%
X134310000Y-93470000D02*
X185110000Y-93470000D01*
X134310000Y-116330000D02*
X134310000Y-93470000D01*
X185110000Y-93470000D02*
X185110000Y-116330000D01*
X185110000Y-116330000D02*
X134310000Y-116330000D01*
D10*
X140710000Y-92920000D02*
G75*
G02*
X140510000Y-92920000I-100000J0D01*
G01*
X140510000Y-92920000D02*
G75*
G02*
X140710000Y-92920000I100000J0D01*
G01*
D12*
%TO.C,R5*%
X152080000Y-74400000D02*
X152850000Y-74400000D01*
X152850000Y-73030000D02*
X152850000Y-75770000D01*
X152850000Y-75770000D02*
X159390000Y-75770000D01*
X159390000Y-73030000D02*
X152850000Y-73030000D01*
X159390000Y-75770000D02*
X159390000Y-73030000D01*
X160160000Y-74400000D02*
X159390000Y-74400000D01*
%TD*%
M02*
