%TF.GenerationSoftware,KiCad,Pcbnew,8.0.6*%
%TF.CreationDate,2025-02-20T03:10:47-08:00*%
%TF.ProjectId,ECE 412,45434520-3431-4322-9e6b-696361645f70,A*%
%TF.SameCoordinates,Original*%
%TF.FileFunction,Soldermask,Bot*%
%TF.FilePolarity,Negative*%
%FSLAX46Y46*%
G04 Gerber Fmt 4.6, Leading zero omitted, Abs format (unit mm)*
G04 Created by KiCad (PCBNEW 8.0.6) date 2025-02-20 03:10:47*
%MOMM*%
%LPD*%
G01*
G04 APERTURE LIST*
G04 Aperture macros list*
%AMRoundRect*
0 Rectangle with rounded corners*
0 $1 Rounding radius*
0 $2 $3 $4 $5 $6 $7 $8 $9 X,Y pos of 4 corners*
0 Add a 4 corners polygon primitive as box body*
4,1,4,$2,$3,$4,$5,$6,$7,$8,$9,$2,$3,0*
0 Add four circle primitives for the rounded corners*
1,1,$1+$1,$2,$3*
1,1,$1+$1,$4,$5*
1,1,$1+$1,$6,$7*
1,1,$1+$1,$8,$9*
0 Add four rect primitives between the rounded corners*
20,1,$1+$1,$2,$3,$4,$5,0*
20,1,$1+$1,$4,$5,$6,$7,0*
20,1,$1+$1,$6,$7,$8,$9,0*
20,1,$1+$1,$8,$9,$2,$3,0*%
G04 Aperture macros list end*
%ADD10C,2.000000*%
%ADD11C,2.540000*%
%ADD12R,1.700000X1.700000*%
%ADD13O,1.700000X1.700000*%
%ADD14R,1.600000X1.600000*%
%ADD15C,1.600000*%
%ADD16C,3.000000*%
%ADD17C,2.200000*%
%ADD18RoundRect,0.102000X0.704000X0.704000X-0.704000X0.704000X-0.704000X-0.704000X0.704000X-0.704000X0*%
%ADD19C,1.612000*%
%ADD20C,3.720000*%
G04 APERTURE END LIST*
D10*
%TO.C,TP4*%
X184500000Y-83300000D03*
%TD*%
%TO.C,TP3*%
X184500000Y-78400000D03*
%TD*%
%TO.C,TP2*%
X148300000Y-54100000D03*
%TD*%
%TO.C,TP1*%
X165100000Y-53800000D03*
%TD*%
D11*
%TO.C,R4*%
X164780000Y-65600000D03*
X154620000Y-65600000D03*
%TD*%
%TO.C,R2*%
X162500000Y-56800000D03*
X152340000Y-56800000D03*
%TD*%
D12*
%TO.C,J2*%
X180760000Y-88800000D03*
D13*
X183300000Y-88800000D03*
%TD*%
D14*
%TO.C,C4*%
X172600000Y-87500000D03*
D15*
X172600000Y-89500000D03*
%TD*%
D11*
%TO.C,R1*%
X177980000Y-56700000D03*
X167820000Y-56700000D03*
%TD*%
D16*
%TO.C,R3*%
X136900000Y-81924974D03*
X136900000Y-62892974D03*
%TD*%
D11*
%TO.C,R6*%
X161200000Y-82000000D03*
X151040000Y-82000000D03*
%TD*%
%TO.C,R7*%
X161120000Y-89100000D03*
X150960000Y-89100000D03*
%TD*%
D14*
%TO.C,C3*%
X183100000Y-67300000D03*
D15*
X183100000Y-69300000D03*
%TD*%
D12*
%TO.C,J1*%
X136600000Y-56200000D03*
%TD*%
%TO.C,Vbat1*%
X183100000Y-59600000D03*
D13*
X183100000Y-62140000D03*
%TD*%
D14*
%TO.C,C5*%
X143700000Y-81700000D03*
D15*
X143700000Y-76700000D03*
%TD*%
D17*
%TO.C,U2*%
X136850000Y-114425000D03*
X136850000Y-95311500D03*
D18*
X140660000Y-94740000D03*
D19*
X143200000Y-94740000D03*
X145740000Y-94740000D03*
X148280000Y-94740000D03*
X150820000Y-94740000D03*
X153360000Y-94740000D03*
X155900000Y-94740000D03*
X158440000Y-94740000D03*
X160980000Y-94740000D03*
X163520000Y-94740000D03*
X166060000Y-94740000D03*
X168600000Y-94740000D03*
X171140000Y-94740000D03*
X173680000Y-94740000D03*
X176220000Y-94740000D03*
X178760000Y-94740000D03*
X168600000Y-115060000D03*
X166060000Y-115060000D03*
X163520000Y-115060000D03*
X160980000Y-115060000D03*
X158440000Y-115060000D03*
X155900000Y-115060000D03*
X153360000Y-115060000D03*
X150820000Y-115060000D03*
X148280000Y-115060000D03*
X145740000Y-115060000D03*
X143200000Y-115060000D03*
X140660000Y-115060000D03*
D20*
X182570000Y-96010000D03*
X182570000Y-113790000D03*
%TD*%
D11*
%TO.C,R5*%
X161200000Y-74400000D03*
X151040000Y-74400000D03*
%TD*%
M02*
